<svg width="44" height="44" viewBox="0 0 44 44" fill="none" xmlns="http://www.w3.org/2000/svg">
<g clip-path="url(#clip0_1005_4010)">
<path d="M43.0547 0H0.945312C0.423242 0 0 0.423242 0 0.945312V43.0547C0 43.5768 0.423242 44 0.945312 44H43.0547C43.5768 44 44 43.5768 44 43.0547V0.945312C44 0.423242 43.5768 0 43.0547 0ZM42.1094 1.89062V7.1372H1.89062V1.89062H42.1094ZM1.89062 42.1094V9.02782H42.1094V42.1094H1.89062Z" fill="#333333"/>
<path d="M21.9997 13.9175C15.5753 13.9175 10.3486 19.1441 10.3486 25.5685C10.3486 31.993 15.5753 37.2196 21.9997 37.2196C28.4242 37.2196 33.6508 31.993 33.6508 25.5685C33.6508 19.1442 28.4242 13.9175 21.9997 13.9175ZM31.7143 24.6232H26.4994C26.4257 22.0187 26.0496 19.5883 25.4199 17.6995C25.2296 17.1285 25.0275 16.6408 24.8184 16.2236C28.5397 17.3482 31.3296 20.6391 31.7143 24.6232ZM21.9997 35.3291C21.6794 35.3291 20.9819 34.6661 20.3731 32.8398C19.8043 31.1336 19.4623 28.9148 19.3909 26.5139H24.6084C24.5371 28.9149 24.195 31.1336 23.6262 32.8398C23.0175 34.6661 22.3201 35.3291 21.9997 35.3291ZM19.391 24.6232C19.4623 22.2223 19.8044 20.0036 20.3732 18.2974C20.9819 16.471 21.6795 15.8081 21.9998 15.8081C22.3202 15.8081 23.0176 16.471 23.6264 18.2974C24.1951 20.0037 24.5372 22.2223 24.6086 24.6232H19.391ZM19.1811 16.2236C18.972 16.6408 18.7699 17.1285 18.5796 17.6995C17.9498 19.5883 17.5737 22.0188 17.5 24.6232H12.2851C12.6699 20.6391 15.4598 17.3482 19.1811 16.2236ZM12.2851 26.5139H17.5C17.5737 29.1183 17.9498 31.5487 18.5796 33.4375C18.7699 34.0086 18.9719 34.4962 19.1811 34.9135C15.4598 33.789 12.6699 30.4981 12.2851 26.5139ZM24.8184 34.9136C25.0275 34.4963 25.2296 34.0086 25.4199 33.4376C26.0496 31.5488 26.4257 29.1184 26.4994 26.5139H31.7143C31.3296 30.4981 28.5397 33.789 24.8184 34.9136Z" fill="#EE5A29"/>
</g>
<defs>
<clipPath id="clip0_1005_4010">
<rect width="44" height="44" fill="white"/>
</clipPath>
</defs>
</svg>
