<svg width="40" height="40" viewBox="0 0 40 40" fill="none" xmlns="http://www.w3.org/2000/svg">
<path fill-rule="evenodd" clip-rule="evenodd" d="M38.3335 10.0131C38.3335 9.1285 37.9827 8.28116 37.3568 7.65565C36.7318 7.03014 35.8843 6.6792 35.0002 6.6792C29.2285 6.6792 17.4385 6.6792 11.6668 6.6792C10.7827 6.6792 9.93516 7.03014 9.31016 7.65565C8.68433 8.28116 8.3335 9.1285 8.3335 10.0131V23.3469C8.3335 24.2316 8.68433 25.0789 9.31016 25.7044C9.93516 26.3299 10.7827 26.6809 11.6668 26.6809H35.0002C35.8843 26.6809 36.7318 26.3299 37.3568 25.7044C37.9827 25.0789 38.3335 24.2316 38.3335 23.3469C38.3335 19.6475 38.3335 13.7125 38.3335 10.0131Z" fill="#64B5F6"/>
<path fill-rule="evenodd" clip-rule="evenodd" d="M31.6667 16.6799C31.6667 15.7952 31.3159 14.9479 30.6901 14.3224C30.0651 13.6969 29.2176 13.3459 28.3334 13.3459C22.5617 13.3459 10.7717 13.3459 5.00008 13.3459C4.11591 13.3459 3.26841 13.6969 2.64341 14.3224C2.01758 14.9479 1.66675 15.7952 1.66675 16.6799V30.0137C1.66675 30.8983 2.01758 31.7457 2.64341 32.3712C3.26841 32.9967 4.11591 33.3476 5.00008 33.3476H28.3334C29.2176 33.3476 30.0651 32.9967 30.6901 32.3712C31.3159 31.7457 31.6667 30.8983 31.6667 30.0137C31.6667 26.3143 31.6667 20.3793 31.6667 16.6799Z" fill="#E57373"/>
<path fill-rule="evenodd" clip-rule="evenodd" d="M15.8333 29.9999H17.5C17.96 29.9999 18.3333 29.6266 18.3333 29.1666C18.3333 28.7066 17.96 28.3333 17.5 28.3333H15.8333C15.3733 28.3333 15 28.7066 15 29.1666C15 29.6266 15.3733 29.9999 15.8333 29.9999Z" fill="#FAFAFA"/>
<path fill-rule="evenodd" clip-rule="evenodd" d="M1.66675 18.3333H31.6667V23.3333H1.66675V18.3333Z" fill="#333333"/>
<path fill-rule="evenodd" clip-rule="evenodd" d="M28.3334 27.6667C28.3334 27.4017 28.2284 27.1476 28.0409 26.9592C27.8526 26.7717 27.5984 26.6667 27.3334 26.6667C26.0751 26.6667 23.9251 26.6667 22.6667 26.6667C22.4017 26.6667 22.1476 26.7717 21.9592 26.9592C21.7717 27.1476 21.6667 27.4017 21.6667 27.6667V29.0001C21.6667 29.2651 21.7717 29.5192 21.9592 29.7076C22.1476 29.8951 22.4017 30.0001 22.6667 30.0001H27.3334C27.5984 30.0001 27.8526 29.8951 28.0409 29.7076C28.2284 29.5192 28.3334 29.2651 28.3334 29.0001C28.3334 28.5784 28.3334 28.0884 28.3334 27.6667Z" fill="#FFD54F"/>
<path fill-rule="evenodd" clip-rule="evenodd" d="M5.83333 29.9999H7.5C7.96 29.9999 8.33333 29.6266 8.33333 29.1666C8.33333 28.7066 7.96 28.3333 7.5 28.3333H5.83333C5.37333 28.3333 5 28.7066 5 29.1666C5 29.6266 5.37333 29.9999 5.83333 29.9999Z" fill="#FAFAFA"/>
<path fill-rule="evenodd" clip-rule="evenodd" d="M10.8333 29.9999H12.5C12.96 29.9999 13.3333 29.6266 13.3333 29.1666C13.3333 28.7066 12.96 28.3333 12.5 28.3333H10.8333C10.3733 28.3333 10 28.7066 10 29.1666C10 29.6266 10.3733 29.9999 10.8333 29.9999Z" fill="#FAFAFA"/>
</svg>
