<svg width="54" height="12" viewBox="0 0 54 12" fill="none" xmlns="http://www.w3.org/2000/svg">
<path fill-rule="evenodd" clip-rule="evenodd" d="M15.501 1.99958C15.501 1.64574 15.3606 1.3068 15.1103 1.0566C14.8603 0.806393 14.5213 0.666016 14.1676 0.666016C11.859 0.666016 7.14298 0.666016 4.83431 0.666016C4.48064 0.666016 4.14164 0.806393 3.89164 1.0566C3.64131 1.3068 3.50098 1.64574 3.50098 1.99958V7.33311C3.50098 7.68696 3.64131 8.0259 3.89164 8.2761C4.14164 8.5263 4.48064 8.66668 4.83431 8.66668H14.1676C14.5213 8.66668 14.8603 8.5263 15.1103 8.2761C15.3606 8.0259 15.501 7.68696 15.501 7.33311C15.501 5.85335 15.501 3.47934 15.501 1.99958Z" fill="#64B5F6"/>
<path fill-rule="evenodd" clip-rule="evenodd" d="M12.834 4.66658C12.834 4.31273 12.6937 3.97379 12.4433 3.72359C12.1933 3.47338 11.8543 3.33301 11.5007 3.33301C9.19198 3.33301 4.47598 3.33301 2.16732 3.33301C1.81365 3.33301 1.47465 3.47338 1.22465 3.72359C0.974317 3.97379 0.833984 4.31273 0.833984 4.66658V10.0001C0.833984 10.354 0.974317 10.6929 1.22465 10.9431C1.47465 11.1933 1.81365 11.3337 2.16732 11.3337H11.5007C11.8543 11.3337 12.1933 11.1933 12.4433 10.9431C12.6937 10.6929 12.834 10.354 12.834 10.0001C12.834 8.52035 12.834 6.14634 12.834 4.66658Z" fill="#E57373"/>
<path fill-rule="evenodd" clip-rule="evenodd" d="M6.50033 9.99479H7.16699C7.35099 9.99479 7.50033 9.84546 7.50033 9.66146C7.50033 9.47746 7.35099 9.32812 7.16699 9.32812H6.50033C6.31633 9.32812 6.16699 9.47746 6.16699 9.66146C6.16699 9.84546 6.31633 9.99479 6.50033 9.99479Z" fill="#FAFAFA"/>
<path fill-rule="evenodd" clip-rule="evenodd" d="M0.833984 5.32812H12.834V7.32812H0.833984V5.32812Z" fill="#333333"/>
<path fill-rule="evenodd" clip-rule="evenodd" d="M11.5007 9.06113C11.5007 8.95513 11.4587 8.85347 11.3837 8.77813C11.3083 8.70313 11.2067 8.66113 11.1007 8.66113C10.5973 8.66113 9.73732 8.66113 9.23398 8.66113C9.12798 8.66113 9.02632 8.70313 8.95098 8.77813C8.87598 8.85347 8.83398 8.95513 8.83398 9.06113V9.59447C8.83398 9.70047 8.87598 9.80213 8.95098 9.87747C9.02632 9.95247 9.12798 9.99447 9.23398 9.99447H11.1007C11.2067 9.99447 11.3083 9.95247 11.3837 9.87747C11.4587 9.80213 11.5007 9.70047 11.5007 9.59447C11.5007 9.4258 11.5007 9.2298 11.5007 9.06113Z" fill="#FFD54F"/>
<path fill-rule="evenodd" clip-rule="evenodd" d="M2.50033 9.99479H3.16699C3.35099 9.99479 3.50033 9.84546 3.50033 9.66146C3.50033 9.47746 3.35099 9.32812 3.16699 9.32812H2.50033C2.31633 9.32812 2.16699 9.47746 2.16699 9.66146C2.16699 9.84546 2.31633 9.99479 2.50033 9.99479Z" fill="#FAFAFA"/>
<path fill-rule="evenodd" clip-rule="evenodd" d="M4.50033 9.99479H5.16699C5.35099 9.99479 5.50033 9.84546 5.50033 9.66146C5.50033 9.47746 5.35099 9.32812 5.16699 9.32812H4.50033C4.31633 9.32812 4.16699 9.47746 4.16699 9.66146C4.16699 9.84546 4.31633 9.99479 4.50033 9.99479Z" fill="#FAFAFA"/>
<path d="M25.823 11.1761C24.339 11.1761 23.107 10.6861 22.141 9.70614C21.175 8.72614 20.699 7.52214 20.699 6.09414C20.699 4.66614 21.175 3.46214 22.141 2.48214C23.107 1.50214 24.339 1.01214 25.823 1.01214C27.615 1.01214 29.211 1.93614 30.051 3.39214L28.917 4.05014C28.357 2.97214 27.167 2.27214 25.823 2.27214C24.689 2.27214 23.765 2.63614 23.051 3.36414C22.337 4.09214 21.987 5.00214 21.987 6.09414C21.987 7.17214 22.337 8.08214 23.051 8.81014C23.765 9.53814 24.689 9.90214 25.823 9.90214C27.167 9.90214 28.357 9.20214 28.917 8.13814L30.051 8.78214C29.645 9.51014 29.057 10.0981 28.301 10.5321C27.545 10.9661 26.719 11.1761 25.823 11.1761ZM37.1682 5.19814V3.99414H38.3862V10.9941H37.1682V9.79014C36.5662 10.7141 35.6842 11.1761 34.5222 11.1761C33.5422 11.1761 32.7022 10.8261 32.0162 10.1121C31.3302 9.39814 30.9802 8.51614 30.9802 7.49414C30.9802 6.47214 31.3302 5.60414 32.0162 4.89014C32.7022 4.17614 33.5422 3.81214 34.5222 3.81214C35.6842 3.81214 36.5662 4.27414 37.1682 5.19814ZM34.6762 10.0001C35.3902 10.0001 35.9782 9.76214 36.4542 9.28614C36.9302 8.79614 37.1682 8.20814 37.1682 7.49414C37.1682 6.78014 36.9302 6.19214 36.4542 5.71614C35.9782 5.22614 35.3902 4.98814 34.6762 4.98814C33.9762 4.98814 33.3882 5.22614 32.9122 5.71614C32.4362 6.19214 32.1982 6.78014 32.1982 7.49414C32.1982 8.20814 32.4362 8.79614 32.9122 9.28614C33.3882 9.76214 33.9762 10.0001 34.6762 10.0001ZM41.4496 3.99414V5.17014C41.8556 4.30214 42.5836 3.86814 43.6336 3.86814V5.14214C43.0316 5.11414 42.5276 5.26814 42.0936 5.61814C41.6596 5.96814 41.4496 6.51414 41.4496 7.28414V10.9941H40.2316V3.99414H41.4496ZM50.2386 5.19814V1.19414H51.4566V10.9941H50.2386V9.79014C49.6366 10.7141 48.7546 11.1761 47.5926 11.1761C46.6126 11.1761 45.7726 10.8261 45.0866 10.1121C44.4006 9.39814 44.0506 8.51614 44.0506 7.49414C44.0506 6.47214 44.4006 5.60414 45.0866 4.89014C45.7726 4.17614 46.6126 3.81214 47.5926 3.81214C48.7546 3.81214 49.6366 4.27414 50.2386 5.19814ZM47.7466 10.0001C48.4606 10.0001 49.0486 9.76214 49.5246 9.28614C50.0006 8.79614 50.2386 8.20814 50.2386 7.49414C50.2386 6.78014 50.0006 6.19214 49.5246 5.71614C49.0486 5.22614 48.4606 4.98814 47.7466 4.98814C47.0466 4.98814 46.4586 5.22614 45.9826 5.71614C45.5066 6.19214 45.2686 6.78014 45.2686 7.49414C45.2686 8.20814 45.5066 8.79614 45.9826 9.28614C46.4586 9.76214 47.0466 10.0001 47.7466 10.0001Z" fill="#333333"/>
</svg>
