<svg width="44" height="44" viewBox="0 0 44 44" fill="none" xmlns="http://www.w3.org/2000/svg">
<g clip-path="url(#clip0_1005_4014)">
<path d="M39.8437 29.7257C39.5977 29.7257 39.3559 29.6296 39.1751 29.4488L32.3148 22.5885H29.1378V20.6979H32.7063C32.957 20.6979 33.1974 20.7975 33.3747 20.9748L38.8981 26.4982V21.6432C38.8981 21.1211 39.3214 20.6979 39.8434 20.6979H42.1099V1.89062H15.8086V14.506H13.918V0.945312C13.918 0.423242 14.3412 0 14.8633 0H43.0552C43.5772 0 44.0005 0.423242 44.0005 0.945312V21.6432C44.0005 22.1653 43.5772 22.5885 43.0552 22.5885H40.7888V28.7804C40.7888 29.1627 40.5585 29.5074 40.2053 29.6538C40.0883 29.7022 39.9655 29.7256 39.8437 29.7257Z" fill="#EE5A29"/>
<path d="M14.8652 26.2494C14.3432 26.2494 13.9199 25.8262 13.9199 25.3041C13.9199 24.7821 14.3432 24.3572 14.8652 24.3572C15.3873 24.3572 15.8105 24.7788 15.8105 25.3009V25.3041C15.8105 25.8262 15.3873 26.2494 14.8652 26.2494Z" fill="#EE5A29"/>
<path d="M22.002 26.2494C21.4799 26.2494 21.0566 25.8262 21.0566 25.3041C21.0566 24.7821 21.4799 24.3572 22.002 24.3572C22.524 24.3572 22.9473 24.7788 22.9473 25.3009V25.3041C22.9473 25.8262 22.524 26.2494 22.002 26.2494Z" fill="#EE5A29"/>
<path d="M7.72754 26.2494C7.20547 26.2494 6.78223 25.8262 6.78223 25.3041C6.78223 24.7821 7.20547 24.3572 7.72754 24.3572C8.24961 24.3572 8.67285 24.7788 8.67285 25.3009V25.3041C8.67285 25.8262 8.24961 26.2494 7.72754 26.2494Z" fill="#EE5A29"/>
<path d="M4.1568 44C4.03502 44 3.91222 43.9764 3.79526 43.928C3.44205 43.7816 3.21174 43.437 3.21174 43.0546V36.8627H0.945312C0.423242 36.8627 0 36.4395 0 35.9174V14.506C0 13.9839 0.423242 13.5607 0.945312 13.5607H29.1373C29.6594 13.5607 30.0826 13.9839 30.0826 14.506V35.9175C30.0826 36.4396 29.6594 36.8628 29.1373 36.8628H11.6859L4.82556 43.7231C4.64466 43.9039 4.40292 44 4.1568 44ZM1.89062 34.9722H4.15705C4.67913 34.9722 5.10237 35.3954 5.10237 35.9175V40.7725L10.6257 35.2491C10.803 35.0719 11.0435 34.9722 11.2942 34.9722H28.1919V15.4513H1.89062V34.9722Z" fill="#333333"/>
</g>
<defs>
<clipPath id="clip0_1005_4014">
<rect width="44" height="44" fill="white"/>
</clipPath>
</defs>
</svg>
