<svg width="143" height="48" viewBox="0 0 143 48" fill="none" xmlns="http://www.w3.org/2000/svg">
<rect width="143" height="48" rx="12" fill="white"/>
<rect x="4" y="4" width="135" height="40" rx="8" fill="#EE5A29"/>
<path d="M51.83 17.7C53.174 17.7 54.2893 18.1713 55.176 19.114C56.072 20.0567 56.52 21.2187 56.52 22.6C56.52 23.972 56.072 25.134 55.176 26.086C54.2893 27.0287 53.174 27.5 51.83 27.5H47.98V17.7H51.83ZM51.83 25.96C52.754 25.96 53.5053 25.6427 54.084 25.008C54.672 24.3827 54.966 23.58 54.966 22.6C54.966 21.6293 54.672 20.8267 54.084 20.192C53.5053 19.5573 52.754 19.24 51.83 19.24H49.59V25.96H51.83ZM61.1938 27.682C60.1578 27.682 59.2851 27.3273 58.5758 26.618C57.8571 25.8993 57.4978 25.0267 57.4978 24C57.4978 22.9733 57.8571 22.1007 58.5758 21.382C59.2851 20.6727 60.1578 20.318 61.1938 20.318C62.2298 20.318 63.1025 20.6727 63.8118 21.382C64.5305 22.1007 64.8898 22.9733 64.8898 24C64.8898 25.0267 64.5305 25.8993 63.8118 26.618C63.1025 27.3273 62.2298 27.682 61.1938 27.682ZM59.6398 25.582C60.0598 26.002 60.5778 26.212 61.1938 26.212C61.8098 26.212 62.3278 26.002 62.7478 25.582C63.1678 25.162 63.3778 24.6347 63.3778 24C63.3778 23.3653 63.1678 22.838 62.7478 22.418C62.3278 21.998 61.8098 21.788 61.1938 21.788C60.5778 21.788 60.0598 21.998 59.6398 22.418C59.2198 22.838 59.0098 23.3653 59.0098 24C59.0098 24.6347 59.2198 25.162 59.6398 25.582ZM69.939 20.318C70.751 20.318 71.3997 20.5747 71.885 21.088C72.3797 21.592 72.627 22.2967 72.627 23.202V27.5H71.115V23.356C71.115 22.824 70.975 22.4227 70.695 22.152C70.415 21.872 70.0323 21.732 69.547 21.732C69.015 21.732 68.5857 21.9 68.259 22.236C67.9323 22.5627 67.769 23.0667 67.769 23.748V27.5H66.257V20.5H67.769V21.396C68.2357 20.6773 68.959 20.318 69.939 20.318ZM79.799 20.5H81.311V27.5H79.799V26.492C79.2297 27.2853 78.413 27.682 77.349 27.682C76.3877 27.682 75.5664 27.3273 74.885 26.618C74.2037 25.9087 73.863 25.036 73.863 24C73.863 22.964 74.2037 22.0913 74.885 21.382C75.5664 20.6727 76.3877 20.318 77.349 20.318C78.4037 20.318 79.2204 20.71 79.799 21.494V20.5ZM76.005 25.61C76.425 26.03 76.9524 26.24 77.587 26.24C78.2217 26.24 78.749 26.03 79.169 25.61C79.589 25.1807 79.799 24.644 79.799 24C79.799 23.356 79.589 22.824 79.169 22.404C78.749 21.9747 78.2217 21.76 77.587 21.76C76.9524 21.76 76.425 21.9747 76.005 22.404C75.585 22.824 75.375 23.356 75.375 24C75.375 24.644 75.585 25.1807 76.005 25.61ZM86.9794 21.956H85.2434V25.316C85.2434 25.54 85.2807 25.7127 85.3554 25.834C85.4301 25.9553 85.5374 26.0393 85.6774 26.086C85.8267 26.1327 86.0087 26.1607 86.2234 26.17C86.4381 26.17 86.6901 26.1607 86.9794 26.142V27.5C85.8221 27.64 84.9914 27.542 84.4874 27.206C83.9834 26.8607 83.7314 26.2307 83.7314 25.316V21.956H82.4434V20.5H83.7314V18.988L85.2434 18.54V20.5H86.9794V21.956ZM89.2536 24.644C89.3656 25.176 89.6176 25.5867 90.0096 25.876C90.411 26.156 90.9056 26.296 91.4936 26.296C92.287 26.296 92.889 26.0067 93.2996 25.428L94.5456 26.156C93.8643 27.1733 92.8423 27.682 91.4796 27.682C90.3503 27.682 89.431 27.3367 88.7216 26.646C88.0216 25.946 87.6716 25.064 87.6716 24C87.6716 22.964 88.017 22.0913 88.7076 21.382C89.389 20.6727 90.2756 20.318 91.3676 20.318C92.385 20.318 93.225 20.6773 93.8876 21.396C94.5503 22.1147 94.8816 22.9873 94.8816 24.014C94.8816 24.0887 94.877 24.182 94.8676 24.294C94.8583 24.3967 94.8443 24.5133 94.8256 24.644H89.2536ZM93.3556 23.412C93.253 22.8427 93.0196 22.4133 92.6556 22.124C92.2916 21.8347 91.8576 21.69 91.3536 21.69C90.7936 21.69 90.327 21.844 89.9536 22.152C89.5803 22.46 89.3423 22.88 89.2396 23.412H93.3556Z" fill="white"/>
</svg>
