<svg width="48" height="49" viewBox="0 0 48 49" fill="none" xmlns="http://www.w3.org/2000/svg">
<g clip-path="url(#clip0_777_4277)">
<g clip-path="url(#clip1_777_4277)">
<path d="M24 38.9548C30.6274 38.9548 36 36.7163 36 33.9548C36 31.1934 30.6274 28.9548 24 28.9548C17.3726 28.9548 12 31.1934 12 33.9548C12 36.7163 17.3726 38.9548 24 38.9548Z" fill="#EE5A29" stroke="#333333" stroke-width="1.38462" stroke-linejoin="round"/>
<path d="M24 22.955C27.3137 22.955 30 20.2687 30 16.955C30 13.6412 27.3137 10.955 24 10.955C20.6863 10.955 18 13.6412 18 16.955C18 20.2687 20.6863 22.955 24 22.955Z" fill="#EE5A29" stroke="#333333" stroke-width="1.38462" stroke-linejoin="round"/>
<path fill-rule="evenodd" clip-rule="evenodd" d="M11.4198 28.3933C9.61246 28.58 7.98186 28.9597 6.67174 29.4837C5.71865 29.865 4.90089 30.3362 4.31009 30.8949C3.71781 31.4551 3.30762 32.151 3.30762 32.955C3.30762 33.759 3.71781 34.4548 4.31009 35.0149C4.90089 35.5736 5.71865 36.045 6.67174 36.4262C7.37275 36.7065 8.16549 36.9456 9.02799 37.136C8.67678 36.6131 8.40961 36.0671 8.23577 35.5032C7.86237 35.3921 7.51149 35.2708 7.18597 35.1406C6.32943 34.798 5.68271 34.4073 5.26147 34.0089C4.84168 33.6119 4.69223 33.2555 4.69223 32.955C4.69223 32.6543 4.84168 32.2979 5.26147 31.901C5.68271 31.5026 6.32943 31.112 7.18597 30.7693C7.87255 30.4947 8.67198 30.2597 9.55754 30.0767C10.0686 29.4757 10.6947 28.9115 11.4198 28.3933Z" fill="#333333"/>
<path fill-rule="evenodd" clip-rule="evenodd" d="M39.7645 35.5032C39.5907 36.0671 39.3236 36.6131 38.9723 37.136C39.8348 36.9456 40.6276 36.7065 41.3286 36.4262C42.2817 36.045 43.0994 35.5736 43.6902 35.0149C44.2825 34.4548 44.6927 33.759 44.6927 32.955C44.6927 32.151 44.2825 31.4551 43.6902 30.8949C43.0994 30.3362 42.2817 29.865 41.3286 29.4837C40.0185 28.9597 38.3879 28.58 36.5806 28.3933C37.3056 28.9115 37.9318 29.4757 38.4428 30.0767C39.3284 30.2597 40.1278 30.4947 40.8144 30.7693C41.6709 31.112 42.3176 31.5026 42.7389 31.901C43.1586 32.2979 43.308 32.6543 43.308 32.955C43.308 33.2555 43.1586 33.6119 42.7389 34.0089C42.3176 34.4073 41.6709 34.798 40.8144 35.1406C40.4888 35.2708 40.1379 35.3921 39.7645 35.5032Z" fill="#333333"/>
<path fill-rule="evenodd" clip-rule="evenodd" d="M32.6501 21.9756C32.4145 22.3806 32.1515 22.7675 31.8633 23.1337C32.5041 23.4621 33.2304 23.6473 33.9999 23.6473C36.5914 23.6473 38.6922 21.5465 38.6922 18.9551C38.6922 16.3635 36.5914 14.2627 33.9999 14.2627C33.8778 14.2627 33.7569 14.2674 33.6372 14.2765C33.7608 14.7221 33.8542 15.1801 33.9153 15.6484C33.9434 15.6477 33.9716 15.6473 33.9999 15.6473C35.8267 15.6473 37.3076 17.1283 37.3076 18.9551C37.3076 20.7818 35.8267 22.2627 33.9999 22.2627C33.5191 22.2627 33.0623 22.1602 32.6501 21.9756Z" fill="#333333"/>
<path fill-rule="evenodd" clip-rule="evenodd" d="M14.3627 14.2765C14.2429 14.2674 14.1219 14.2627 13.9999 14.2627C11.4084 14.2627 9.30762 16.3635 9.30762 18.9551C9.30762 21.5465 11.4084 23.6473 13.9999 23.6473C14.7695 23.6473 15.4957 23.4621 16.1365 23.1337C15.8484 22.7675 15.5852 22.3806 15.3497 21.9756C14.9375 22.1602 14.4806 22.2627 13.9999 22.2627C12.1731 22.2627 10.6922 20.7818 10.6922 18.9551C10.6922 17.1283 12.1731 15.6473 13.9999 15.6473C14.0281 15.6473 14.0564 15.6477 14.0844 15.6484C14.1456 15.1801 14.2391 14.7221 14.3627 14.2765Z" fill="#333333"/>
</g>
</g>
<defs>
<clipPath id="clip0_777_4277">
<rect width="48" height="48" fill="white" transform="translate(0 0.954956)"/>
</clipPath>
<clipPath id="clip1_777_4277">
<rect width="48" height="48" fill="white" transform="translate(0 0.954956)"/>
</clipPath>
</defs>
</svg>
