<svg width="44" height="44" viewBox="0 0 44 44" fill="none" xmlns="http://www.w3.org/2000/svg">
<g clip-path="url(#clip0_1005_3994)">
<path d="M4.4397 22.8582C4.30366 22.8582 4.16685 22.8289 4.03889 22.7689C3.70674 22.6133 3.49456 22.2797 3.49456 21.9129V18.49H2.69259C1.20794 18.49 0 17.2822 0 15.7974V5.31381C0 3.82915 1.20794 2.62122 2.69259 2.62122H16.8455C17.3675 2.62122 17.7908 3.04446 17.7908 3.56653C17.7908 4.0886 17.3675 4.51184 16.8455 4.51184H2.69251C2.25036 4.51184 1.89054 4.87166 1.89054 5.31381V15.7975C1.89054 16.2397 2.25036 16.5995 2.69251 16.5995H4.43979C4.96186 16.5995 5.3851 17.0227 5.3851 17.5448V19.8947L9.07646 16.8186C9.24636 16.677 9.46052 16.5995 9.68163 16.5995H16.8455C17.3675 16.5995 17.7908 17.0227 17.7908 17.5448C17.7908 18.0668 17.3675 18.4901 16.8455 18.4901H10.0239L5.04505 22.6392C4.8718 22.7834 4.65678 22.8582 4.4397 22.8582Z" fill="#EE5A29"/>
<path d="M10.5553 39.6321C10.3134 39.6321 10.0715 39.5399 9.88688 39.3553L5.80631 35.2747C4.47342 33.9418 4.47342 31.773 5.80631 30.4401C6.45196 29.7945 7.31039 29.4388 8.22356 29.4388C9.09694 29.4388 9.92031 29.7642 10.5553 30.3575C11.1903 29.7642 12.0137 29.4388 12.887 29.4388C13.8002 29.4388 14.6586 29.7945 15.3043 30.4402C16.6372 31.7731 16.6372 33.9418 15.3043 35.2747L11.2237 39.3553C11.0391 39.5399 10.7972 39.6321 10.5553 39.6321ZM8.22356 31.3294C7.81544 31.3294 7.43173 31.4884 7.14315 31.7769C6.54743 32.3727 6.54743 33.342 7.14315 33.9377L10.5553 37.3499L13.9674 33.9377C14.5632 33.342 14.5632 32.3727 13.9674 31.7769C13.6789 31.4883 13.2952 31.3293 12.887 31.3293C12.4789 31.3293 12.0952 31.4883 11.8066 31.7769L11.2237 32.3598C10.8545 32.729 10.256 32.729 9.88679 32.3598L9.30388 31.7769C9.01539 31.4884 8.63168 31.3294 8.22356 31.3294Z" fill="#EE5A29"/>
<path d="M34.5675 25.4792H27.8588C27.3254 25.4792 26.809 25.3228 26.3652 25.0269L24.4226 23.7319H22.0879C21.5658 23.7319 21.1426 23.3086 21.1426 22.7866V12.3029C21.1426 11.7808 21.5658 11.3576 22.0879 11.3576H24.4226L26.0274 10.2878C26.251 10.1387 26.3844 9.88924 26.3844 9.62051V5.31384C26.3844 4.79177 26.8077 4.36853 27.3297 4.36853H28.2034C30.6516 4.36853 32.6432 6.36022 32.6432 8.80841V11.3577H36.0651C37.1472 11.3577 38.1581 11.8403 38.8384 12.6819C39.5188 13.5235 39.7789 14.613 39.5521 15.6711L38.0545 22.6602C37.7045 24.2936 36.238 25.4792 34.5675 25.4792ZM23.0332 21.8413H24.7088C24.8955 21.8413 25.0779 21.8965 25.2332 22.0001L27.4139 23.4539C27.5461 23.542 27.7 23.5885 27.8588 23.5885H34.5675C35.3523 23.5885 36.0414 23.0315 36.2059 22.264L37.7035 15.2749C37.8101 14.7777 37.6878 14.2658 37.3682 13.8704C37.0485 13.4749 36.5736 13.2482 36.0651 13.2482H31.6979C31.1759 13.2482 30.7526 12.825 30.7526 12.3029V8.80832C30.7526 7.42662 29.6477 6.29817 28.275 6.2601V9.62043C28.275 10.5229 27.8268 11.3603 27.076 11.8608L25.2332 13.0893C25.0779 13.1929 24.8955 13.2481 24.7088 13.2481H23.0332V21.8413Z" fill="#EE5A29"/>
<path d="M40.4345 0H19.4666C17.5003 0 15.9002 1.60016 15.9002 3.56641V24.6366H2.69328C1.20828 24.6366 0 25.8448 0 27.3298V41.3076C0 42.7926 1.20828 44 2.69328 44H18.4181C19.9031 44 21.1114 42.7926 21.1114 41.3076V39.9025L25.2605 34.9241C25.4951 34.6423 25.5458 34.2495 25.3902 33.9178C25.2347 33.5852 24.9004 33.373 24.5343 33.373H21.1114V29.847H31.6259V34.1438C31.6259 34.5262 31.8562 34.8709 32.2094 35.017C32.3262 35.0659 32.4491 35.0891 32.5712 35.0891C32.817 35.0891 33.0593 34.9929 33.2398 34.8124L38.2044 29.847H40.4345C42.4007 29.847 44 28.2477 44 26.2814V3.56641C44 1.60016 42.4007 0 40.4345 0ZM22.5156 35.2636L19.4399 38.9555C19.2981 39.1248 19.2208 39.3396 19.2208 39.5605V41.3076C19.2208 41.7502 18.8607 42.1094 18.4181 42.1094H2.69328C2.2507 42.1094 1.89062 41.7502 1.89062 41.3076V27.3298C1.89062 26.8873 2.2507 26.5272 2.69328 26.5272H15.9087C16.0299 28.2984 17.4496 29.7172 19.2208 29.8384V34.3183C19.2208 34.8408 19.6436 35.2636 20.1661 35.2636H22.5156ZM42.1094 26.2814C42.1094 27.2052 41.3583 27.9563 40.4345 27.9563H37.8134C37.5624 27.9563 37.3218 28.056 37.1448 28.2339L33.5165 31.8613V28.9016C33.5165 28.38 33.0937 27.9563 32.5712 27.9563H19.4666C18.5427 27.9563 17.7908 27.2052 17.7908 26.2814V3.56641C17.7908 2.64258 18.5427 1.89062 19.4666 1.89062H40.4345C41.3583 1.89062 42.1094 2.64258 42.1094 3.56641V26.2814Z" fill="#333333"/>
</g>
<defs>
<clipPath id="clip0_1005_3994">
<rect width="44" height="44" fill="white"/>
</clipPath>
</defs>
</svg>
