<svg width="44" height="44" viewBox="0 0 44 44" fill="none" xmlns="http://www.w3.org/2000/svg">
<path d="M21.9541 35.5235C21.6583 35.5235 21.3802 35.3832 21.2044 35.1455L17.9626 30.7639H3.26516C1.46472 30.764 0 29.2977 0 27.4953V11.7452C0 9.94277 1.46472 8.47644 3.26516 8.47644H40.7348C42.5352 8.47644 44 9.94277 44 11.7452V27.4953C44 29.2977 42.5353 30.764 40.7348 30.764H25.9454L22.7037 35.1456C22.5279 35.3832 22.2497 35.5235 21.9541 35.5235ZM3.26516 10.3416C2.49316 10.3416 1.86513 10.9712 1.86513 11.7452V27.4953C1.86513 28.2692 2.49316 28.8989 3.26516 28.8989H18.4327C18.7284 28.8989 19.0066 29.0391 19.1824 29.2768L21.9541 33.023L24.7256 29.2768C24.9015 29.0391 25.1796 28.8989 25.4753 28.8989H40.7348C41.5068 28.8989 42.1349 28.2692 42.1349 27.4953V11.7452C42.1349 10.9712 41.5068 10.3416 40.7348 10.3416H3.26516Z" fill="#333333"/>
<path d="M14.3798 24.9361H5.16401C4.64898 24.9361 4.23145 24.5186 4.23145 24.0035C4.23145 22.0957 5.20953 20.3533 6.76106 19.3468C6.45052 18.8164 6.27961 18.2065 6.27961 17.5792C6.27961 15.6514 7.84623 14.083 9.77188 14.083C11.6975 14.083 13.2642 15.6514 13.2642 17.5792C13.2642 18.2065 13.0932 18.8164 12.7827 19.3468C14.3342 20.3533 15.3122 22.0956 15.3122 24.0035C15.3123 24.5186 14.8948 24.9361 14.3798 24.9361ZM6.21645 23.071H13.3273C13.0218 21.9036 12.1541 20.9352 10.9799 20.5258C10.6532 20.412 10.4164 20.1265 10.3647 19.7844C10.3131 19.4422 10.4552 19.0996 10.7338 18.8944C11.1566 18.583 11.3991 18.1035 11.3991 17.5792C11.3991 16.6799 10.6692 15.9481 9.77197 15.9481C8.87476 15.9481 8.14482 16.6798 8.14482 17.5792C8.14482 18.1035 8.38728 18.5829 8.81016 18.8944C9.08874 19.0997 9.23074 19.4423 9.1792 19.7844C9.12757 20.1265 8.89078 20.412 8.56405 20.5259C7.3897 20.9352 6.52207 21.9036 6.21645 23.071Z" fill="#EE5A29"/>
<path d="M22.2173 24.7606C21.7023 24.7606 21.2847 24.3431 21.2847 23.828V16.1235H20.374C19.8589 16.1235 19.4414 15.706 19.4414 15.191C19.4414 14.676 19.8589 14.2584 20.374 14.2584H22.2173C22.7323 14.2584 23.1499 14.676 23.1499 15.191V23.828C23.1499 24.3432 22.7323 24.7606 22.2173 24.7606Z" fill="#333333"/>
<path d="M27.9147 24.937C26.0254 24.937 24.4883 23.3982 24.4883 21.5067V17.5125C24.4883 15.6211 26.0254 14.0823 27.9147 14.0823C29.8041 14.0823 31.3412 15.6211 31.3412 17.5125V21.5067C31.3412 23.3982 29.8041 24.937 27.9147 24.937ZM27.9147 15.9473C27.0538 15.9473 26.3534 16.6495 26.3534 17.5124V21.5067C26.3534 22.3696 27.0538 23.0718 27.9147 23.0718C28.7756 23.0718 29.476 22.3696 29.476 21.5067V17.5124C29.476 16.6495 28.7756 15.9473 27.9147 15.9473Z" fill="#333333"/>
<path d="M39.2695 24.534C39.0864 24.7231 38.8422 24.8189 38.5989 24.8189C38.3649 24.8189 38.1317 24.7316 37.9503 24.5569L34.5702 21.2904V23.8863C34.5702 24.4009 34.1522 24.8189 33.6376 24.8189C33.1222 24.8189 32.7051 24.4009 32.7051 23.8863V15.2211C32.7051 14.7065 33.1222 14.2886 33.6376 14.2886C34.1522 14.2886 34.5702 14.7065 34.5702 15.2211V17.489L37.6595 14.6446C38.0393 14.2962 38.6285 14.3199 38.9778 14.6989C39.3263 15.0779 39.3017 15.6679 38.9227 16.0172L35.2739 19.3761L39.2466 23.2157C39.6171 23.5735 39.6272 24.1636 39.2695 24.534Z" fill="#333333"/>
</svg>
