<svg width="255" height="128" viewBox="0 0 255 128" fill="none" xmlns="http://www.w3.org/2000/svg">
<g filter="url(#filter0_d_2418_6127)">
<rect x="32.6152" y="26.8853" width="189.896" height="63.7413" rx="15.9353" fill="white" shape-rendering="crispEdges"/>
<rect x="37.9277" y="32.197" width="179.272" height="53.1177" rx="10.6235" fill="#EE5A29"/>
<path d="M92.3658 51.242H97.1624C98.3894 51.242 99.4119 51.651 100.23 52.469C101.067 53.287 101.476 54.3096 101.476 55.518C101.476 56.7264 101.067 57.7303 100.23 58.5669C99.4119 59.385 98.3894 59.794 97.1624 59.794H94.5038V64.2559H92.3658V51.242ZM94.5038 57.7861H97.1624C98.4266 57.7861 99.3375 56.838 99.3375 55.518C99.3375 54.198 98.4266 53.2499 97.1624 53.2499H94.5038V57.7861ZM109.91 56.2802V54.9603H111.918V64.2559H109.91V62.9173C109.148 63.977 108.07 64.4975 106.657 64.4975C105.374 64.4975 104.296 64.0328 103.385 63.0846C102.474 62.1365 102.027 60.9652 102.027 59.6081C102.027 58.2323 102.474 57.0797 103.385 56.1315C104.296 55.1833 105.374 54.7186 106.657 54.7186C108.07 54.7186 109.148 55.2391 109.91 56.2802ZM104.872 61.746C105.43 62.3038 106.136 62.5827 106.973 62.5827C107.809 62.5827 108.516 62.3038 109.074 61.746C109.631 61.1697 109.91 60.4633 109.91 59.6081C109.91 58.7529 109.631 58.0464 109.074 57.4887C108.516 56.9123 107.809 56.6335 106.973 56.6335C106.136 56.6335 105.43 56.9123 104.872 57.4887C104.314 58.0464 104.035 58.7529 104.035 59.6081C104.035 60.4633 104.314 61.1697 104.872 61.746ZM118.144 61.7089L120.524 54.9603H122.662L119.092 64.5533C118.2 66.9516 116.694 68.1042 114.556 67.9741V66.0964C115.82 66.1708 116.526 65.5572 117.028 64.2745L117.121 64.0885L113.18 54.9603H115.374L118.144 61.7089ZM133.454 54.7186C135.592 54.7186 137.024 56.1687 137.024 58.5484V64.2559H135.016V58.7529C135.016 57.3585 134.217 56.5963 132.934 56.5963C131.521 56.5963 130.573 57.4701 130.573 59.2734V64.2559H128.565V54.9603H130.573V56.1501C131.186 55.2019 132.134 54.7186 133.454 54.7186ZM143.573 64.4975C142.216 64.4975 141.045 64.0328 140.097 63.0846C139.149 62.1365 138.665 60.9838 138.665 59.6081C138.665 58.2323 139.149 57.0797 140.097 56.1315C141.045 55.1833 142.216 54.7186 143.573 54.7186C144.949 54.7186 146.102 55.1833 147.05 56.1315C147.998 57.0797 148.481 58.2323 148.481 59.6081C148.481 60.9838 147.998 62.1365 147.05 63.0846C146.102 64.0328 144.949 64.4975 143.573 64.4975ZM141.51 61.7089C142.067 62.2666 142.755 62.5455 143.573 62.5455C144.391 62.5455 145.079 62.2666 145.637 61.7089C146.195 61.1511 146.474 60.4447 146.474 59.6081C146.474 58.7715 146.195 58.065 145.637 57.5073C145.079 56.9495 144.391 56.6706 143.573 56.6706C142.755 56.6706 142.067 56.9495 141.51 57.5073C140.952 58.065 140.673 58.7715 140.673 59.6081C140.673 60.4447 140.952 61.1511 141.51 61.7089ZM158.82 61.3742L160.642 54.9603H162.762L159.843 64.2559H157.872L155.939 57.9906L153.987 64.2559H152.016L149.097 54.9603H151.217L153.02 61.3742L154.972 54.9603H156.887L158.82 61.3742Z" fill="white"/>
</g>
<defs>
<filter id="filter0_d_2418_6127" x="0.744589" y="0.326383" width="253.637" height="127.483" filterUnits="userSpaceOnUse" color-interpolation-filters="sRGB">
<feFlood flood-opacity="0" result="BackgroundImageFix"/>
<feColorMatrix in="SourceAlpha" type="matrix" values="0 0 0 0 0 0 0 0 0 0 0 0 0 0 0 0 0 0 127 0" result="hardAlpha"/>
<feOffset dy="5.31177"/>
<feGaussianBlur stdDeviation="15.9353"/>
<feComposite in2="hardAlpha" operator="out"/>
<feColorMatrix type="matrix" values="0 0 0 0 0 0 0 0 0 0 0 0 0 0 0 0 0 0 0.25 0"/>
<feBlend mode="normal" in2="BackgroundImageFix" result="effect1_dropShadow_2418_6127"/>
<feBlend mode="normal" in="SourceGraphic" in2="effect1_dropShadow_2418_6127" result="shape"/>
</filter>
</defs>
</svg>
