<svg width="191" height="96" viewBox="0 0 191 96" fill="none" xmlns="http://www.w3.org/2000/svg">
<g filter="url(#filter0_d_2418_6130)">
<rect x="24" y="20" width="143" height="48" rx="12" fill="white" shape-rendering="crispEdges"/>
<rect x="28" y="24" width="135" height="40" rx="8" fill="#1572A1"/>
<path d="M70.748 42.418C71.602 42.866 72.12 43.678 72.12 44.7C72.12 45.498 71.84 46.17 71.266 46.702C70.692 47.234 70.006 47.5 69.18 47.5H64.98V37.7H68.872C69.67 37.7 70.356 37.966 70.902 38.484C71.462 39.002 71.742 39.646 71.742 40.416C71.742 41.27 71.406 41.928 70.748 42.418ZM68.872 39.212H66.59V41.788H68.872C69.586 41.788 70.132 41.228 70.132 40.5C70.132 39.772 69.586 39.212 68.872 39.212ZM66.59 45.988H69.18C69.922 45.988 70.51 45.386 70.51 44.616C70.51 43.846 69.922 43.244 69.18 43.244H66.59V45.988ZM76.7993 47.682C75.7773 47.682 74.8953 47.332 74.1813 46.618C73.4673 45.904 73.1033 45.036 73.1033 44C73.1033 42.964 73.4673 42.096 74.1813 41.382C74.8953 40.668 75.7773 40.318 76.7993 40.318C77.8353 40.318 78.7033 40.668 79.4173 41.382C80.1313 42.096 80.4953 42.964 80.4953 44C80.4953 45.036 80.1313 45.904 79.4173 46.618C78.7033 47.332 77.8353 47.682 76.7993 47.682ZM75.2453 45.582C75.6653 46.002 76.1833 46.212 76.7993 46.212C77.4153 46.212 77.9333 46.002 78.3533 45.582C78.7733 45.162 78.9833 44.63 78.9833 44C78.9833 43.37 78.7733 42.838 78.3533 42.418C77.9333 41.998 77.4153 41.788 76.7993 41.788C76.1833 41.788 75.6653 41.998 75.2453 42.418C74.8253 42.838 74.6153 43.37 74.6153 44C74.6153 44.63 74.8253 45.162 75.2453 45.582ZM85.1665 47.682C84.1445 47.682 83.2625 47.332 82.5485 46.618C81.8345 45.904 81.4705 45.036 81.4705 44C81.4705 42.964 81.8345 42.096 82.5485 41.382C83.2625 40.668 84.1445 40.318 85.1665 40.318C86.2025 40.318 87.0705 40.668 87.7845 41.382C88.4985 42.096 88.8625 42.964 88.8625 44C88.8625 45.036 88.4985 45.904 87.7845 46.618C87.0705 47.332 86.2025 47.682 85.1665 47.682ZM83.6125 45.582C84.0325 46.002 84.5505 46.212 85.1665 46.212C85.7825 46.212 86.3005 46.002 86.7205 45.582C87.1405 45.162 87.3505 44.63 87.3505 44C87.3505 43.37 87.1405 42.838 86.7205 42.418C86.3005 41.998 85.7825 41.788 85.1665 41.788C84.5505 41.788 84.0325 41.998 83.6125 42.418C83.1925 42.838 82.9825 43.37 82.9825 44C82.9825 44.63 83.1925 45.162 83.6125 45.582ZM93.2257 43.93L96.4177 47.5H94.6117L91.7417 44.266V47.5H90.2297V37.7H91.7417V43.594L94.4577 40.5H96.3057L93.2257 43.93ZM104.617 40.318C106.227 40.318 107.305 41.41 107.305 43.202V47.5H105.793V43.356C105.793 42.306 105.191 41.732 104.225 41.732C103.161 41.732 102.447 42.39 102.447 43.748V47.5H100.935V40.5H102.447V41.396C102.909 40.682 103.623 40.318 104.617 40.318ZM112.237 47.682C111.215 47.682 110.333 47.332 109.619 46.618C108.905 45.904 108.541 45.036 108.541 44C108.541 42.964 108.905 42.096 109.619 41.382C110.333 40.668 111.215 40.318 112.237 40.318C113.273 40.318 114.141 40.668 114.855 41.382C115.569 42.096 115.933 42.964 115.933 44C115.933 45.036 115.569 45.904 114.855 46.618C114.141 47.332 113.273 47.682 112.237 47.682ZM110.683 45.582C111.103 46.002 111.621 46.212 112.237 46.212C112.853 46.212 113.371 46.002 113.791 45.582C114.211 45.162 114.421 44.63 114.421 44C114.421 43.37 114.211 42.838 113.791 42.418C113.371 41.998 112.853 41.788 112.237 41.788C111.621 41.788 111.103 41.998 110.683 42.418C110.263 42.838 110.053 43.37 110.053 44C110.053 44.63 110.263 45.162 110.683 45.582ZM123.719 45.33L125.091 40.5H126.687L124.489 47.5H123.005L121.549 42.782L120.079 47.5H118.595L116.397 40.5H117.993L119.351 45.33L120.821 40.5H122.263L123.719 45.33Z" fill="white"/>
</g>
<defs>
<filter id="filter0_d_2418_6130" x="0" y="0" width="191" height="96" filterUnits="userSpaceOnUse" color-interpolation-filters="sRGB">
<feFlood flood-opacity="0" result="BackgroundImageFix"/>
<feColorMatrix in="SourceAlpha" type="matrix" values="0 0 0 0 0 0 0 0 0 0 0 0 0 0 0 0 0 0 127 0" result="hardAlpha"/>
<feOffset dy="4"/>
<feGaussianBlur stdDeviation="12"/>
<feComposite in2="hardAlpha" operator="out"/>
<feColorMatrix type="matrix" values="0 0 0 0 0 0 0 0 0 0 0 0 0 0 0 0 0 0 0.25 0"/>
<feBlend mode="normal" in2="BackgroundImageFix" result="effect1_dropShadow_2418_6130"/>
<feBlend mode="normal" in="SourceGraphic" in2="effect1_dropShadow_2418_6130" result="shape"/>
</filter>
</defs>
</svg>
