<svg width="512" height="512" viewBox="0 0 512 512" fill="none" xmlns="http://www.w3.org/2000/svg">
<g clip-path="url(#clip0_2799_6882)">
<path d="M256 512C397.385 512 512 397.385 512 256C512 114.615 397.385 0 256 0C114.615 0 0 114.615 0 256C0 397.385 114.615 512 256 512Z" fill="black"/>
<path d="M256 512C397.385 512 512 397.385 512 256C512 114.615 397.385 0 256 0C114.615 0 0 114.615 0 256C0 397.385 114.615 512 256 512Z" fill="url(#paint0_linear_2799_6882)"/>
<path d="M331 115.22C348.655 115.291 365.566 122.336 378.05 134.82C390.534 147.304 397.579 164.215 397.65 181.87V330.13C397.579 347.785 390.534 364.696 378.05 377.18C365.566 389.664 348.655 396.709 331 396.78H181C163.345 396.709 146.434 389.664 133.95 377.18C121.466 364.696 114.421 347.785 114.35 330.13V181.87C114.421 164.215 121.466 147.304 133.95 134.82C146.434 122.336 163.345 115.291 181 115.22H331ZM331 84.22H181C127.29 84.22 83.3398 128.22 83.3398 181.88V330.13C83.3398 383.84 127.34 427.79 181 427.79H331C384.71 427.79 428.66 383.79 428.66 330.13V181.87C428.66 128.16 384.71 84.21 331 84.21V84.22Z" fill="white"/>
<path d="M256.001 198.13C267.447 198.13 278.635 201.524 288.152 207.883C297.668 214.242 305.086 223.28 309.466 233.854C313.846 244.428 314.992 256.064 312.759 267.29C310.526 278.515 305.014 288.827 296.921 296.92C288.828 305.013 278.516 310.525 267.291 312.758C256.065 314.991 244.429 313.845 233.855 309.465C223.281 305.085 214.243 297.667 207.884 288.151C201.525 278.634 198.131 267.445 198.131 256C198.149 240.657 204.252 225.949 215.101 215.1C225.95 204.251 240.659 198.148 256.001 198.13ZM256.001 167.13C238.424 167.13 221.242 172.342 206.627 182.107C192.013 191.872 180.622 205.752 173.896 221.991C167.169 238.23 165.409 256.098 168.839 273.338C172.268 290.577 180.732 306.412 193.16 318.84C205.589 331.269 221.424 339.733 238.663 343.162C255.902 346.591 273.771 344.831 290.01 338.105C306.249 331.379 320.128 319.988 329.894 305.373C339.659 290.759 344.871 273.577 344.871 256C344.871 232.43 335.508 209.826 318.841 193.159C302.175 176.493 279.571 167.13 256.001 167.13Z" fill="white"/>
<path d="M346.81 184.3C358.447 184.3 367.88 174.867 367.88 163.23C367.88 151.593 358.447 142.16 346.81 142.16C335.174 142.16 325.74 151.593 325.74 163.23C325.74 174.867 335.174 184.3 346.81 184.3Z" fill="white"/>
</g>
<defs>
<linearGradient id="paint0_linear_2799_6882" x1="335.564" y1="533.49" x2="176.436" y2="-21.4902" gradientUnits="userSpaceOnUse">
<stop stop-color="#FFDB73"/>
<stop offset="0.08" stop-color="#FDAD4E"/>
<stop offset="0.15" stop-color="#FB832E"/>
<stop offset="0.19" stop-color="#FA7321"/>
<stop offset="0.23" stop-color="#F6692F"/>
<stop offset="0.37" stop-color="#E84A5A"/>
<stop offset="0.48" stop-color="#E03675"/>
<stop offset="0.55" stop-color="#DD2F7F"/>
<stop offset="0.68" stop-color="#B43D97"/>
<stop offset="0.97" stop-color="#4D60D4"/>
<stop offset="1" stop-color="#4264DB"/>
</linearGradient>
<clipPath id="clip0_2799_6882">
<rect width="512" height="512" fill="white"/>
</clipPath>
</defs>
</svg>
