<svg width="44" height="44" viewBox="0 0 44 44" fill="none" xmlns="http://www.w3.org/2000/svg">
<g clip-path="url(#clip0_1003_3396)">
<path d="M40.4339 9.75344H19.2918C17.3254 9.75344 15.7256 8.15363 15.7256 6.18721C15.7256 4.22078 17.3254 2.62097 19.2918 2.62097H40.4339C42.4003 2.62097 44.0001 4.22078 44.0001 6.18721C44.0001 8.15363 42.4003 9.75344 40.4339 9.75344ZM19.2918 4.5116C18.3679 4.5116 17.6162 5.26329 17.6162 6.18721C17.6162 7.11112 18.3679 7.86282 19.2918 7.86282H40.4339C41.3578 7.86282 42.1095 7.11112 42.1095 6.18721C42.1095 5.26329 41.3578 4.5116 40.4339 4.5116H19.2918Z" fill="#333333"/>
<path d="M40.4339 25.5662H19.2918C17.3254 25.5662 15.7256 23.9664 15.7256 21.9999C15.7256 20.0335 17.3254 18.4337 19.2918 18.4337H40.4339C42.4003 18.4337 44.0001 20.0335 44.0001 21.9999C44.0001 23.9664 42.4003 25.5662 40.4339 25.5662ZM19.2918 20.3243C18.3679 20.3243 17.6162 21.076 17.6162 21.9999C17.6162 22.9239 18.3679 23.6756 19.2918 23.6756H40.4339C41.3578 23.6756 42.1095 22.9239 42.1095 21.9999C42.1095 21.076 41.3578 20.3243 40.4339 20.3243H19.2918Z" fill="#333333"/>
<path d="M40.4339 41.3791H19.2918C17.3254 41.3791 15.7256 39.7792 15.7256 37.8128C15.7256 35.8464 17.3254 34.2466 19.2918 34.2466H40.4339C42.4003 34.2466 44.0001 35.8464 44.0001 37.8128C44.0001 39.7792 42.4003 41.3791 40.4339 41.3791ZM19.2918 36.1372C18.3679 36.1372 17.6162 36.8889 17.6162 37.8128C17.6162 38.7367 18.3679 39.4884 19.2918 39.4884H40.4339C41.3578 39.4884 42.1095 38.7367 42.1095 37.8128C42.1095 36.8889 41.3578 36.1372 40.4339 36.1372H19.2918Z" fill="#333333"/>
<path d="M11.429 44H0.945312C0.423242 44 0 43.5768 0 43.0547V32.571C0 32.049 0.423242 31.6257 0.945312 31.6257H11.429C11.9511 31.6257 12.3743 32.049 12.3743 32.571V43.0547C12.3743 43.5768 11.9511 44 11.429 44ZM1.89062 42.1094H10.4837V33.5164H1.89062V42.1094Z" fill="#EE5A29"/>
<path d="M11.429 28.2746H0.945312C0.423242 28.2746 0 27.8513 0 27.3293V16.6708C0 16.1487 0.423242 15.7255 0.945312 15.7255H11.429C11.9511 15.7255 12.3743 16.1487 12.3743 16.6708V27.3292C12.3743 27.8513 11.9511 28.2746 11.429 28.2746ZM1.89062 26.3839H10.4837V17.6161H1.89062V26.3839Z" fill="#EE5A29"/>
<path d="M11.429 12.3743H0.945312C0.423242 12.3743 0 11.9511 0 11.429V0.945312C0 0.423242 0.423242 0 0.945312 0H11.429C11.9511 0 12.3743 0.423242 12.3743 0.945312V11.429C12.3743 11.9511 11.9511 12.3743 11.429 12.3743ZM1.89062 10.4837H10.4837V1.89062H1.89062V10.4837Z" fill="#EE5A29"/>
</g>
<defs>
<clipPath id="clip0_1003_3396">
<rect width="44" height="44" fill="white"/>
</clipPath>
</defs>
</svg>
