<svg width="44" height="44" viewBox="0 0 44 44" fill="none" xmlns="http://www.w3.org/2000/svg">
<path d="M15.9322 31.5432H6.17676C5.65469 31.5432 5.23145 31.12 5.23145 30.5979C5.23145 30.0758 5.65469 29.6526 6.17676 29.6526H15.9323C16.4544 29.6526 16.8776 30.0758 16.8776 30.5979C16.8776 31.12 16.4544 31.5432 15.9322 31.5432Z" fill="#333333"/>
<path d="M26.1143 36.6319C25.3428 36.6345 24.0681 36.8142 24.0518 35.6865C24.0683 34.559 25.343 34.7383 26.1143 34.7412C27.3502 34.7467 27.3506 36.6264 26.1143 36.6319ZM19.8408 36.6319C19.0694 36.6345 17.7946 36.8142 17.7783 35.6865C17.7948 34.559 19.0695 34.7383 19.8408 34.7412C21.0768 34.7467 21.0772 36.6264 19.8408 36.6319ZM13.5674 36.6319C12.7959 36.6345 11.5212 36.8142 11.5049 35.6865C11.5214 34.559 12.7961 34.7383 13.5674 34.7412C14.8033 34.7467 14.8038 36.6264 13.5674 36.6319ZM7.29395 36.6319C6.52248 36.6345 5.24777 36.8142 5.23145 35.6865C5.24795 34.559 6.52266 34.7383 7.29395 34.7412C8.5299 34.7467 8.53033 36.6264 7.29395 36.6319Z" fill="#333333"/>
<path d="M26.1547 30.0825C24.2267 30.0825 22.6582 28.5141 22.6582 26.5861C22.6582 24.658 24.2266 23.0896 26.1547 23.0896C28.0826 23.0896 29.6511 24.658 29.6511 26.5861C29.6511 28.5141 28.0826 30.0825 26.1547 30.0825ZM26.1547 24.9803C25.2692 24.9803 24.5488 25.7006 24.5488 26.5861C24.5488 27.4716 25.2692 28.192 26.1547 28.192C27.0401 28.192 27.7605 27.4716 27.7605 26.5861C27.7605 25.7006 27.0401 24.9803 26.1547 24.9803Z" fill="#EE5A29"/>
<path d="M35.3976 9.21893L26.3594 18.2572L27.6962 19.5941L36.7345 10.5558L35.3976 9.21893Z" fill="#EE5A29"/>
<path d="M39.3567 13.1794L33.2354 19.3008L34.5722 20.6376L40.6936 14.5163L39.3567 13.1794Z" fill="#EE5A29"/>
<path d="M44 17.7762C44 16.9427 43.6754 16.159 43.0861 15.5697L30.7151 3.19861C30.1257 2.60925 29.3421 2.28467 28.5086 2.28467C27.675 2.28467 26.8914 2.60925 26.3019 3.19861L11.5216 17.979H3.12056C1.39984 17.979 0 19.3789 0 21.0996V38.5948C0 40.3154 1.39984 41.7154 3.12056 41.7154H32.0379C33.7586 41.7154 35.1585 40.3154 35.1585 38.5948V27.9103L43.086 19.9827C43.6754 19.3934 44 18.6097 44 17.7762ZM32.0379 39.8247H3.12056C2.44234 39.8247 1.89062 39.273 1.89062 38.5948V21.0996C1.89062 20.4213 2.44234 19.8696 3.12056 19.8696H11.7871C11.8654 19.8794 11.9444 19.8794 12.0227 19.8696H32.0379C32.7161 19.8696 33.2679 20.4213 33.2679 21.0996V27.5039C33.2677 27.5143 33.2677 27.5247 33.2679 27.5351V38.5948C33.2679 39.2729 32.7161 39.8247 32.0379 39.8247ZM41.7491 18.6459L35.1585 25.2365V21.0996C35.1585 19.3788 33.7586 17.979 32.0379 17.979H14.1953L27.6388 4.53554C27.8711 4.30325 28.1799 4.17529 28.5085 4.17529C28.837 4.17529 29.1459 4.30325 29.3782 4.53554L41.7491 16.9065C42.2287 17.386 42.2287 18.1663 41.7491 18.6459Z" fill="#333333"/>
</svg>
