<svg width="118" height="30" viewBox="0 0 118 30" fill="none" xmlns="http://www.w3.org/2000/svg">
<mask id="mask0_2264_5051" style="mask-type:alpha" maskUnits="userSpaceOnUse" x="0" y="3" width="24" height="24">
<path d="M0 7.36364C0 5.3066 0 4.27808 0.63904 3.63904C1.27808 3 2.3066 3 4.36364 3H22.7143C23.4244 3 24 3.57563 24 4.28571V4.28571C24 16.8305 13.8305 27 1.28572 27V27C0.575635 27 0 26.4244 0 25.7143V7.36364Z" fill="#99EA48"/>
</mask>
<g mask="url(#mask0_2264_5051)">
<path d="M0 7.36364C0 5.3066 0 4.27808 0.63904 3.63904C1.27808 3 2.3066 3 4.36364 3H22.7143C23.4244 3 24 3.57563 24 4.28571V4.28571C24 16.8305 13.8305 27 1.28572 27V27C0.575635 27 0 26.4244 0 25.7143V7.36364Z" fill="#EE5A29"/>
<path d="M14.5459 12.8182C14.5459 14.8752 14.5459 15.9037 13.9069 16.5428C13.2678 17.1818 12.2393 17.1818 10.1823 17.1818H4.90954C4.60829 17.1818 4.36408 16.9376 4.36408 16.6364V16.6364C4.36408 11.3143 8.67843 7 14.0004 7V7C14.3017 7 14.5459 7.24421 14.5459 7.54545V12.8182Z" fill="white"/>
</g>
<path d="M39.128 22.336C37.328 22.336 35.816 21.736 34.592 20.512C33.392 19.288 32.792 17.8 32.792 16C32.792 14.2 33.392 12.712 34.592 11.488C35.816 10.264 37.328 9.664 39.128 9.664C41.456 9.664 43.52 10.864 44.504 12.76L41.84 14.32C41.36 13.336 40.328 12.712 39.104 12.712C37.256 12.712 35.888 14.08 35.888 16C35.888 16.936 36.2 17.728 36.8 18.352C37.4 18.952 38.168 19.264 39.104 19.264C40.352 19.264 41.384 18.664 41.864 17.68L44.552 19.216C43.496 21.112 41.456 22.336 39.128 22.336ZM52.8614 9.664C54.1814 9.664 55.2614 10.096 56.1014 10.984C56.9654 11.872 57.3974 13.072 57.3974 14.632V22H54.3014V15.016C54.3014 13.408 53.3654 12.544 51.9254 12.544C50.3174 12.544 49.2854 13.528 49.2854 15.52V22H46.1894V5.2H49.2854V11.344C50.0294 10.216 51.2294 9.664 52.8614 9.664ZM71.705 17.272H62.657C63.065 18.784 64.193 19.528 66.041 19.528C67.217 19.528 68.129 19.12 68.729 18.328L71.225 19.768C70.049 21.472 68.297 22.336 65.993 22.336C64.001 22.336 62.417 21.736 61.217 20.536C60.017 19.336 59.417 17.824 59.417 16C59.417 14.2 60.017 12.688 61.193 11.488C62.369 10.264 63.905 9.664 65.753 9.664C67.505 9.664 68.969 10.264 70.097 11.488C71.249 12.712 71.825 14.2 71.825 16C71.825 16.408 71.777 16.816 71.705 17.272ZM62.609 14.872H68.729C68.369 13.24 67.169 12.448 65.753 12.448C64.097 12.448 62.969 13.336 62.609 14.872ZM79.6046 22.336C77.8046 22.336 76.2926 21.736 75.0686 20.512C73.8686 19.288 73.2686 17.8 73.2686 16C73.2686 14.2 73.8686 12.712 75.0686 11.488C76.2926 10.264 77.8046 9.664 79.6046 9.664C81.9326 9.664 83.9966 10.864 84.9806 12.76L82.3166 14.32C81.8366 13.336 80.8046 12.712 79.5806 12.712C77.7326 12.712 76.3646 14.08 76.3646 16C76.3646 16.936 76.6766 17.728 77.2766 18.352C77.8766 18.952 78.6446 19.264 79.5806 19.264C80.8286 19.264 81.8606 18.664 82.3406 17.68L85.0286 19.216C83.9726 21.112 81.9326 22.336 79.6046 22.336ZM92.762 15.928L97.73 22H94.13L89.762 16.552V22H86.666V5.2H89.762V15.28L93.89 10H97.586L92.762 15.928ZM100.811 8.56C99.7794 8.56 98.9154 7.696 98.9154 6.664C98.9154 5.632 99.7794 4.744 100.811 4.744C101.867 4.744 102.731 5.632 102.731 6.664C102.731 7.696 101.867 8.56 100.811 8.56ZM102.371 22H99.2754V10H102.371V22ZM116.869 17.272H107.821C108.229 18.784 109.357 19.528 111.205 19.528C112.381 19.528 113.293 19.12 113.893 18.328L116.389 19.768C115.213 21.472 113.461 22.336 111.157 22.336C109.165 22.336 107.581 21.736 106.381 20.536C105.181 19.336 104.581 17.824 104.581 16C104.581 14.2 105.181 12.688 106.357 11.488C107.533 10.264 109.069 9.664 110.917 9.664C112.669 9.664 114.133 10.264 115.261 11.488C116.413 12.712 116.989 14.2 116.989 16C116.989 16.408 116.941 16.816 116.869 17.272ZM107.773 14.872H113.893C113.533 13.24 112.333 12.448 110.917 12.448C109.261 12.448 108.133 13.336 107.773 14.872Z" fill="#333333"/>
</svg>
