<svg width="60" height="54" viewBox="0 0 60 54" fill="none" xmlns="http://www.w3.org/2000/svg">
<g clip-path="url(#clip0_777_4429)">
<g clip-path="url(#clip1_777_4429)">
<g clip-path="url(#clip2_777_4429)">
<path d="M52.755 0H7.245C3.2437 0 0 3.2437 0 7.245V52.755C0 56.7563 3.2437 60 7.245 60H52.755C56.7563 60 60 56.7563 60 52.755V7.245C60 3.2437 56.7563 0 52.755 0Z" fill="#333333"/>
<path d="M34.1668 22.667H25.8335V36.8337H34.1668V22.667Z" fill="#FF5F00"/>
<path d="M26.459 30.1655C26.4567 27.3531 27.7625 24.6959 30 22.9595C26.1987 20.0058 20.7401 20.436 17.46 23.9478C14.18 27.4596 14.18 32.8739 17.46 36.3855C20.7401 39.8973 26.1987 40.3275 30 37.3739C27.7617 35.6369 26.4558 32.9787 26.459 30.1655Z" fill="#EB001B"/>
<path d="M45 30.168C44.9999 33.6771 42.9732 36.8783 39.7808 38.4119C36.5882 39.9453 32.7903 39.542 30 37.3731C32.2364 35.6354 33.5421 32.9788 33.5421 30.1666C33.5421 27.3544 32.2364 24.698 30 22.9602C32.7906 20.7911 36.5892 20.388 39.7818 21.9221C42.9746 23.4563 45.0009 26.6583 45 30.168Z" fill="#F79E1B"/>
<path fill-rule="evenodd" clip-rule="evenodd" d="M44.1213 35.1665V35.5391L44.0533 35.5418V35.2597L43.9512 35.5019H43.8805L43.7785 35.2597V35.5391H43.7235V35.1665H43.8204L43.9303 35.4328L44.0403 35.1665H44.1213ZM43.5168 35.231V35.5397L43.4565 35.5424V35.2336H43.3335V35.1698H43.6398V35.231H43.5168Z" fill="#F79E1B"/>
<path d="M26.459 30.1655C26.4567 27.3531 27.7625 24.6959 30 22.9595C26.1987 20.0058 20.7401 20.436 17.46 23.9478C14.18 27.4596 14.18 32.8739 17.46 36.3855C20.7401 39.8973 26.1987 40.3275 30 37.3739C27.7617 35.6369 26.4558 32.9787 26.459 30.1655Z" fill="#EB001B"/>
<path d="M45 30.168C44.9999 33.6771 42.9732 36.8783 39.7808 38.4119C36.5882 39.9453 32.7903 39.542 30 37.3731C32.2364 35.6354 33.5421 32.9788 33.5421 30.1666C33.5421 27.3544 32.2364 24.698 30 22.9602C32.7906 20.7911 36.5892 20.388 39.7818 21.9221C42.9746 23.4563 45.0009 26.6583 45 30.168Z" fill="#F79E1B"/>
<path fill-rule="evenodd" clip-rule="evenodd" d="M44.1213 35.1665V35.5391L44.0533 35.5418V35.2597L43.9512 35.5019H43.8805L43.7785 35.2597V35.5391H43.7235V35.1665H43.8204L43.9303 35.4328L44.0403 35.1665H44.1213ZM43.5168 35.231V35.5397L43.4565 35.5424V35.2336H43.3335V35.1698H43.6398V35.231H43.5168Z" fill="#F79E1B"/>
</g>
</g>
</g>
<defs>
<clipPath id="clip0_777_4429">
<rect width="60" height="53.3" fill="white"/>
</clipPath>
<clipPath id="clip1_777_4429">
<rect width="60" height="60" fill="white"/>
</clipPath>
<clipPath id="clip2_777_4429">
<rect width="60" height="60" fill="white"/>
</clipPath>
</defs>
</svg>
