<svg width="102" height="150" viewBox="0 0 102 150" fill="none" xmlns="http://www.w3.org/2000/svg">
<path d="M14.7676 98C14.7676 81.1984 14.7676 72.7976 17.5993 64.7454C20.0902 57.6624 24.0647 50.7783 28.9533 45.0797C34.5109 38.6012 41.7862 34.4008 56.3368 26L59.8009 24C74.3515 15.5992 81.6268 11.3988 87.1844 11.4599C92.073 11.5137 96.0475 13.8084 98.5384 18.0152C101.37 22.7976 101.37 31.1984 101.37 48V52C101.37 68.8016 101.37 77.2024 98.5384 85.2546C96.0475 92.3376 92.073 99.2217 87.1844 104.92C81.6268 111.399 74.3515 115.599 59.8009 124L56.3368 126C41.7862 134.401 34.5109 138.601 28.9533 138.54C24.0647 138.486 20.0902 136.192 17.5993 131.985C14.7676 127.202 14.7676 118.802 14.7676 102V98Z" fill="#40D47E" stroke="#333333" stroke-width="0.5"/>
<path fill-rule="evenodd" clip-rule="evenodd" d="M42.4917 68.8319C43.1578 68.4473 43.8089 68.2995 44.3627 68.407C44.9165 68.5146 45.3482 68.8727 45.6031 69.4361C45.858 69.9995 45.9247 70.7429 45.7947 71.5723C45.6648 72.4017 45.344 73.2798 44.8731 74.0955C44.4021 74.9113 43.802 75.6281 43.1487 76.1554C42.4954 76.6826 41.8183 76.9965 41.2029 77.0575C40.5875 77.1184 40.0616 76.9237 39.6915 76.4978C39.3214 76.072 39.1239 75.4342 39.1239 74.665C39.1243 73.6336 39.4792 72.4398 40.1107 71.346C40.7422 70.2522 41.5986 69.3479 42.4917 68.8319ZM57.9834 59.8878C58.6495 59.5032 59.3006 59.3554 59.8544 59.4629C60.4082 59.5705 60.8399 59.9286 61.0948 60.492C61.3497 61.0554 61.4164 61.7988 61.2864 62.6282C61.1565 63.4575 60.8357 64.3356 60.3647 65.1514C59.8938 65.9672 59.2937 66.684 58.6404 67.2112C57.9871 67.7385 57.31 68.0524 56.6946 68.1133C56.0792 68.1743 55.5532 67.9795 55.1832 67.5537C54.8131 67.1278 54.6156 66.49 54.6156 65.7209C54.6159 64.6895 54.9709 63.4957 55.6024 62.4019C56.2339 61.308 57.0903 60.4038 57.9834 59.8878ZM79.537 66.1098C80.0699 65.8021 80.5908 65.6838 81.0338 65.7699C81.4769 65.8559 81.8222 66.1424 82.0261 66.5932C82.2301 67.0439 82.2834 67.6386 82.1795 68.3021C82.0755 68.9656 81.8189 69.6681 81.4421 70.3207C81.0653 70.9733 80.5853 71.5468 80.0626 71.9685C79.54 72.3903 78.9983 72.6415 78.506 72.6902C78.0137 72.739 77.5929 72.5832 77.2969 72.2425C77.0008 71.9018 76.8428 71.3916 76.8428 70.7763C76.844 69.9509 77.1282 68.9963 77.6332 68.1216C78.1382 67.2469 78.8228 66.5235 79.537 66.1098ZM66.066 73.8873C66.5989 73.5796 67.1198 73.4613 67.5628 73.5474C68.0059 73.6334 68.3512 73.9199 68.5551 74.3707C68.759 74.8214 68.8124 75.4161 68.7084 76.0796C68.6045 76.7431 68.3479 77.4456 67.9711 78.0982C67.5943 78.7508 67.1142 79.3243 66.5916 79.746C66.069 80.1678 65.5273 80.419 65.035 80.4677C64.5427 80.5165 64.1219 80.3607 63.8258 80.02C63.5298 79.6793 63.3718 79.1691 63.3718 78.5538C63.373 77.7284 63.6572 76.7738 64.1622 75.8991C64.6672 75.0244 65.3518 74.301 66.066 73.8873ZM35.1365 103.908C35.2638 103.26 35.2451 102.665 35.0827 102.196C34.9203 101.726 34.621 101.402 34.2205 101.261C32.0093 100.543 30.2131 99.0387 28.9636 96.859C27.7142 94.6792 27.0432 91.8793 27 88.6645C27 75.7866 37.5613 59.2345 50.5743 51.7214C61.0817 45.6549 69.9995 47.3256 73.0305 54.9833C73.1083 55.2108 73.1305 55.4874 73.0952 55.7917C73.06 56.096 72.9684 56.4195 72.8275 56.7371C72.6866 57.0546 72.5002 57.3576 72.2831 57.6222C72.0659 57.8868 71.8238 58.1058 71.5756 58.2623V58.2965C63.6951 63.2912 55.9223 72.9664 52.7566 82.8874C51.2363 87.6975 50.8721 92.3066 51.7193 96.0112C51.7655 96.1863 51.7701 96.3952 51.7327 96.6211C51.6952 96.8469 51.6169 97.0834 51.5038 97.3116C51.3945 97.5394 51.2538 97.7541 51.0926 97.9389C50.9314 98.1237 50.754 98.2736 50.5743 98.3771V98.3864C47.8055 99.9912 45.0523 101.096 42.4109 101.662C42.056 101.734 41.6809 101.904 41.3096 102.163C40.9384 102.421 40.5793 102.762 40.2555 103.163C38.9084 104.82 36.5779 107.698 35.1096 109.522C34.9949 109.664 34.8635 109.775 34.7318 109.841C34.6001 109.907 34.4738 109.925 34.3687 109.894C34.2643 109.861 34.1848 109.782 34.1395 109.665C34.0943 109.548 34.085 109.398 34.1127 109.233C34.4225 107.671 34.8401 105.509 35.1365 103.908ZM80.6417 92.8659C80.33 92.8404 79.986 92.9075 79.6298 93.0632C79.2735 93.2189 78.9123 93.4602 78.5671 93.7728C76.6892 95.4553 74.7496 96.8765 72.8015 97.9975C62.3884 104.01 53.9421 100.522 53.9421 90.22C53.9421 79.918 62.3884 66.6775 72.8015 60.6655C83.2146 54.6535 91.661 58.1409 91.661 68.443C91.6252 71.0189 91.1035 73.835 90.1328 76.6921C89.1621 79.5492 87.766 82.3773 86.0435 84.9764C85.6516 85.5712 85.3585 86.2301 85.1987 86.876C85.0388 87.522 85.0188 88.1283 85.141 88.6241C85.3565 89.6212 85.6529 90.8376 85.8954 91.7802C85.9231 91.9132 85.9138 92.0735 85.8685 92.2428C85.8232 92.4121 85.7438 92.5834 85.6394 92.7368C85.5342 92.8897 85.408 93.017 85.2762 93.103C85.1445 93.189 85.0132 93.2299 84.8985 93.2206C83.6322 93.1133 81.7732 92.9608 80.6417 92.8659Z" fill="white"/>
<path d="M87.5121 11.4598C81.9545 11.3987 74.6792 15.5991 60.1286 23.9999L56.665 25.9998C42.1144 34.4006 34.8395 38.6011 29.2819 45.0796C24.3933 50.7782 20.4183 57.6623 17.9274 64.7452C15.0957 72.7975 15.0954 81.1983 15.0954 97.9999V102C15.0954 118.801 15.0954 127.202 17.927 131.985C19.5755 134.769 21.8744 136.716 24.6577 137.729L10.568 132.601C7.78229 131.588 5.48185 129.641 3.83216 126.855C1.00043 122.072 1 113.671 1 96.8696V92.8696C1 76.068 1 67.6672 3.83173 59.615C6.3226 52.532 10.2974 45.6479 15.186 39.9492C20.7436 33.4708 28.0193 29.2705 42.5697 20.8698L46.0334 18.8696C60.584 10.4688 67.8591 6.26839 73.4167 6.32952C75.0676 6.34767 76.6145 6.62141 78.035 7.13803L92.1304 12.2683C90.7099 11.7517 89.163 11.478 87.5121 11.4598Z" fill="#27AE60"/>
<path d="M24.6577 137.729C21.8744 136.716 19.5755 134.769 17.927 131.985C15.0954 127.202 15.0954 118.801 15.0954 102V97.9999C15.0954 81.1983 15.0957 72.7975 17.9274 64.7452C20.4183 57.6623 24.3933 50.7782 29.2819 45.0796C34.8395 38.6011 42.1144 34.4006 56.665 25.9998L60.1286 23.9999C74.6792 15.5991 81.9545 11.3987 87.5121 11.4598C89.163 11.478 90.7099 11.7517 92.1304 12.2683L78.035 7.13803C76.6145 6.62141 75.0676 6.34767 73.4167 6.32952C67.8591 6.26839 60.584 10.4688 46.0334 18.8696L42.5697 20.8698C28.0193 29.2705 20.7436 33.4708 15.186 39.9492C10.2974 45.6479 6.3226 52.532 3.83173 59.615C1 67.6672 1 76.068 1 92.8696V96.8696C1 113.671 1.00043 122.072 3.83216 126.855C5.48185 129.641 7.78229 131.588 10.568 132.601L24.6577 137.729ZM24.6577 137.729L24.6634 137.731" stroke="#333333" stroke-width="0.5"/>
</svg>
