<svg width="44" height="44" viewBox="0 0 44 44" fill="none" xmlns="http://www.w3.org/2000/svg">
<g clip-path="url(#clip0_1008_4128)">
<path d="M6.55956 8.90891H12.1741C13.4266 8.85984 13.4291 7.0685 12.1741 7.01831H6.55956C6.03749 7.01831 5.61426 7.44155 5.61426 7.96361C5.61426 8.48567 6.03749 8.90891 6.55956 8.90891Z" fill="#333333"/>
<path d="M15.9266 16.3855C15.9266 15.8634 15.5034 15.4402 14.9813 15.4402H6.55956C6.03749 15.4402 5.61426 15.8634 5.61426 16.3855C5.61426 16.9075 6.03749 17.3308 6.55956 17.3308H14.9813C15.5034 17.3308 15.9266 16.9075 15.9266 16.3855Z" fill="#333333"/>
<path d="M6.55938 21.0547C5.30755 21.1007 5.30651 22.8989 6.55938 22.9453H10.7703C12.023 22.896 12.0248 21.1047 10.7703 21.0547H6.55938Z" fill="#333333"/>
<path d="M40.0942 2.50293C39.3959 1.80444 38.4282 1.40381 37.4396 1.40381H3.75258C1.68341 1.40381 0 3.08713 0 5.15639V26.2108C0 27.2137 0.389979 28.156 1.09792 28.8642C1.79641 29.5627 2.76397 29.9634 3.75258 29.9634H12.6326V33.6873H9.36706C8.845 33.6873 8.42176 34.1105 8.42176 34.6325C8.42176 35.1546 8.845 35.5779 9.36706 35.5779C11.738 35.5803 16.7925 35.576 19.1924 35.5779C19.7145 35.5779 20.1377 35.1546 20.1377 34.6325V29.0181C20.1377 28.496 19.7145 28.0728 19.1924 28.0728C15.737 28.0731 7.29599 28.0725 3.75258 28.0728C2.75013 28.087 1.87032 27.2179 1.8906 26.2108V5.15639C1.8906 4.12971 2.7259 3.29441 3.75258 3.29441H37.4396C37.9305 3.29441 38.4108 3.49309 38.7572 3.83967C39.1082 4.19081 39.3015 4.65839 39.3015 5.15639V26.2108H41.1921V5.15639C41.1921 4.15351 40.8022 3.21114 40.0942 2.50293ZM14.5232 29.9634H18.2471V33.6873H14.5232V29.9634Z" fill="#333333"/>
<path d="M34.6319 9.82551H24.1423C23.7544 8.17957 22.2859 7.01702 20.5957 7.01831C20.0736 7.01831 19.6504 7.44155 19.6504 7.96361C19.6504 8.48567 20.0736 8.90891 20.5957 8.90891C21.4007 8.90891 22.1002 9.45478 22.2947 10.2287C22.3947 10.6412 22.4759 10.9612 22.4858 11L23.8895 16.6146C23.9947 17.0354 24.3728 17.3307 24.8066 17.3307H33.2283C33.6621 17.3307 34.0402 17.0354 34.1454 16.6146L35.549 11.0001C35.708 10.4255 35.2288 9.80987 34.6319 9.82551ZM32.4902 15.4401H25.5447L24.6136 11.7161H33.4212L32.4902 15.4401Z" fill="#333333"/>
<path d="M27.0838 20.2347C26.8419 19.6183 26 19.4556 25.5421 19.9279C25.0104 20.4486 25.2937 21.3862 26.0259 21.5228C26.7535 21.6785 27.3772 20.9187 27.0838 20.2347Z" fill="#333333"/>
<path d="M32.698 20.2348C32.4579 19.622 31.6145 19.4532 31.1563 19.928C30.565 20.5186 30.9894 21.543 31.8249 21.5419C32.4844 21.5527 32.9623 20.8399 32.698 20.2348Z" fill="#333333"/>
<path d="M42.901 26.3645C42.2027 25.666 41.235 25.2654 40.2464 25.2654H21.9993C21.0107 25.2654 20.043 25.666 19.3446 26.3645C18.6366 27.0728 18.2467 28.0151 18.2467 29.018V38.8433C18.2084 40.8705 19.9765 42.6253 21.9993 42.5959H40.2464C42.2675 42.6246 44.0386 40.8712 43.999 38.8433V29.018C43.999 28.0151 43.6091 27.0728 42.901 26.3645ZM42.1084 38.8433C42.1269 39.8504 41.2511 40.7195 40.2464 40.7053H21.9993C21.5084 40.7053 21.0282 40.5064 20.6816 40.1599C20.3307 39.8088 20.1373 39.3413 20.1373 38.8433V32.7705H42.1084V38.8433ZM42.1084 30.8799H20.1373V29.018C20.1187 28.0107 20.9946 27.1417 21.9993 27.156H40.2464C41.2494 27.1415 42.1284 28.011 42.1084 29.018V30.8799Z" fill="#EE5A29"/>
</g>
<defs>
<clipPath id="clip0_1008_4128">
<rect width="44" height="44" fill="white"/>
</clipPath>
</defs>
</svg>
