<svg width="44" height="44" viewBox="0 0 44 44" fill="none" xmlns="http://www.w3.org/2000/svg">
<g clip-path="url(#clip0_1003_3343)">
<path d="M43.055 25.481H19.4649C18.9428 25.481 18.5195 25.0578 18.5195 24.5356V0.945508C18.5195 0.423397 18.9428 0.00012207 19.4649 0.00012207C32.9938 0.00012207 44.0004 11.0067 44.0004 24.5356C44.0004 25.0578 43.5771 25.481 43.055 25.481ZM20.4103 23.5903H42.0902C41.6053 11.855 32.1456 2.3953 20.4103 1.9104V23.5903Z" fill="#EE5A29"/>
<path d="M36.5293 23.5902L20.4102 7.47095V10.145L33.8553 23.5902H36.5293Z" fill="#333333"/>
<path d="M20.4102 15.8075V18.4816L25.5188 23.5903H28.1928L20.4102 15.8075Z" fill="#333333"/>
<path d="M41.742 20.4665L23.5339 2.25837C22.549 2.07883 21.5421 1.96332 20.5176 1.91614L42.0842 23.4828C42.0371 22.4583 41.9216 21.4514 41.742 20.4665Z" fill="#333333"/>
<path d="M19.4646 42.1128C-3.28607 41.2688 -4.06936 9.00612 18.5192 6.98403V5.09033C1.72577 5.89829 -6.2043 26.4075 5.6988 38.3016C17.5925 50.2055 38.105 42.271 38.9098 25.4809H37.0161C36.5232 34.7352 28.8394 42.1128 19.4646 42.1128Z" fill="#333333"/>
</g>
<defs>
<clipPath id="clip0_1003_3343">
<rect width="44" height="44" fill="white"/>
</clipPath>
</defs>
</svg>
