<svg width="44" height="44" viewBox="0 0 44 44" fill="none" xmlns="http://www.w3.org/2000/svg">
<path d="M25.4804 33.9735C25.1793 33.9735 24.8835 33.8301 24.7002 33.5632C24.4048 33.1329 24.5141 32.5444 24.9445 32.2488C28.3436 29.9149 30.7156 28.1658 32.7815 26.1313C33.1535 25.765 33.752 25.7697 34.1184 26.1416C34.4847 26.5136 34.4801 27.1121 34.1081 27.4784C31.9428 29.6107 29.5009 31.4137 26.0147 33.8074C25.8511 33.9197 25.6647 33.9735 25.4804 33.9735Z" fill="#EE5A29"/>
<path d="M40.3137 18.3946C40.7988 17.0493 41.3027 16.3194 41.3027 13.9908C41.3027 7.69328 36.1794 2.56995 29.8818 2.56995C26.936 2.56995 24.1164 3.71051 21.9999 5.72961C19.8836 3.71042 17.064 2.56995 14.1182 2.56995C7.82069 2.56995 2.69727 7.69328 2.69727 13.9908C2.69727 14.7243 2.77091 15.4758 2.91632 16.2245C3.01575 16.737 3.51195 17.0716 4.02457 16.9723C4.5371 16.8728 4.87183 16.3767 4.77231 15.8641C4.64994 15.2339 4.58789 14.6036 4.58789 13.9908C4.58789 8.73579 8.86311 4.46057 14.1182 4.46057C16.8629 4.46057 19.4764 5.64763 21.2887 7.71735C21.4683 7.92231 21.7274 8.03987 21.9999 8.03987C22.2723 8.03987 22.5315 7.92231 22.711 7.71735C24.5235 5.64763 27.137 4.46057 29.8816 4.46057C35.1366 4.46057 39.4119 8.73579 39.4119 13.9908C39.4119 15.1865 39.2387 16.2824 38.6228 17.8764L40.3137 18.3946Z" fill="#EE5A29"/>
<path d="M22.7799 41.43C22.2653 41.43 21.7453 41.2986 21.2713 41.025L18.7364 39.5614C17.324 38.746 16.1528 37.5778 15.334 36.1715L5.14007 30.5861C1.96966 28.8488 6.20336e-05 25.5238 6.20336e-05 21.9085C-0.0101645 19.3611 1.24469 16.8235 3.27514 15.2898C3.53235 15.0954 3.8712 15.0456 4.17344 15.1577C4.47586 15.2698 4.70016 15.5283 4.76865 15.8434C5.34795 18.5098 7.0857 20.9405 9.41709 22.3457C9.41804 22.3462 9.4189 22.3468 9.41993 22.3474L19.4793 28.4589C20.1228 28.1404 21.3033 27.6303 22.644 27.4059C23.771 27.2175 24.8761 27.6827 25.5269 28.6209C26.1757 29.5561 26.2249 30.7497 25.6555 31.7362L25.5246 31.9629L26.6538 32.6148C27.3993 33.0452 27.927 33.7754 28.1014 34.6183C28.2758 35.4613 28.0814 36.341 27.568 37.0319L25.206 40.2107C24.6175 41.0026 23.7076 41.43 22.7799 41.43ZM3.37577 17.7978C2.43381 18.9418 1.88467 20.4202 1.89069 21.9047C1.89069 24.8331 3.48388 27.5227 6.04869 28.9281L16.4797 34.6435C16.639 34.7308 16.7699 34.8622 16.8565 35.0221C17.5126 36.2323 18.4896 37.2359 19.6818 37.9242L22.2167 39.3878C22.7137 39.6748 23.3464 39.5437 23.6884 39.0832L26.0505 35.9044C26.2454 35.6421 26.3162 35.3215 26.2499 35.0016C26.1837 34.6817 25.9914 34.4155 25.7084 34.2521L23.7606 33.1276C23.5435 33.0022 23.385 32.7958 23.3201 32.5535C23.2553 32.3113 23.2892 32.0533 23.4146 31.8362L24.0181 30.7908C24.2209 30.4396 24.2042 30.0313 23.9734 29.6987C23.7406 29.3631 23.3602 29.2031 22.9559 29.2707C21.3343 29.5421 19.9409 30.352 19.927 30.3601C19.6272 30.5361 19.2535 30.5341 18.9563 30.3535L8.43861 23.9634C6.13196 22.5723 4.31498 20.3362 3.37577 17.7978Z" fill="#333333"/>
<path d="M38.6271 29.5908C37.512 29.5908 36.3601 29.27 35.3156 28.6354L20.5211 19.7052C18.8933 19.6996 17.2955 19.2693 15.8827 18.4536L13.3477 16.9901C12.0194 16.2232 11.4768 14.5833 12.0855 13.1754L13.6575 9.54046C13.9991 8.75043 14.6638 8.14217 15.481 7.87181C16.2985 7.60145 17.1946 7.69323 17.94 8.12361L19.0693 8.77553L19.2001 8.54882C19.7696 7.56261 20.8281 7.00865 21.9623 7.10258C23.1001 7.1972 24.0556 7.92105 24.456 8.99183C24.9292 10.2574 25.0786 11.5271 25.1255 12.2459L38.0584 18.9907L39.0878 16.5182C39.204 16.2395 39.4462 16.0329 39.7398 15.9625C40.0331 15.8921 40.3431 15.9659 40.573 16.1616C42.7508 18.0142 43.9998 20.7163 43.9998 23.5754C43.9998 25.989 42.9939 27.9392 41.2399 28.9258C40.4495 29.3705 39.5509 29.5908 38.6271 29.5908ZM20.7793 17.8116C20.9514 17.8116 21.1203 17.8585 21.2678 17.9476L36.2949 27.0183C37.6244 27.8259 39.1631 27.9249 40.3129 27.278C41.4713 26.6265 42.1092 25.3115 42.1092 23.5754C42.1092 21.7219 41.4578 19.9503 40.2892 18.5513L39.4074 20.6688C39.3056 20.9133 39.1059 21.1039 38.857 21.1942C38.6079 21.2843 38.3325 21.2661 38.0976 21.1437L23.7641 13.6682C23.4486 13.5036 23.2524 13.176 23.256 12.8202C23.2561 12.8057 23.2608 11.194 22.6849 9.65381C22.5414 9.26984 22.2127 9.02045 21.8056 8.98668C21.402 8.95282 21.0403 9.14291 20.8374 9.49405L20.2339 10.5395C19.9728 10.9917 19.3948 11.1465 18.9426 10.8855L16.9948 9.76089C16.7118 9.59752 16.3849 9.564 16.075 9.6667C15.7649 9.76931 15.5226 9.99094 15.393 10.2909L13.8211 13.9258C13.5933 14.4525 13.7963 15.0659 14.2931 15.3528L16.8281 16.8163C18.0202 17.5045 19.3765 17.8492 20.7541 17.812C20.7624 17.8118 20.7709 17.8116 20.7793 17.8116Z" fill="#333333"/>
</svg>
