<svg width="48" height="49" viewBox="0 0 48 49" fill="none" xmlns="http://www.w3.org/2000/svg">
<g clip-path="url(#clip0_777_4335)">
<g clip-path="url(#clip1_777_4335)">
<path fill-rule="evenodd" clip-rule="evenodd" d="M26.1128 39.2158C35.1257 33.3157 38.052 28.5974 38.4678 16.6969C38.5182 15.2552 37.665 13.9379 36.3466 13.352L26.1128 8.80359V39.2158Z" fill="#EE5A29"/>
<path d="M22.68 5.53266L8.64552 11.7702C7.3364 12.3521 6.48639 13.6595 6.52001 15.0916C6.87386 30.1641 10.6983 35.5778 22.2643 42.9424C23.4124 43.6734 24.8911 43.6749 26.0395 42.9444C37.6747 35.5429 41.3145 30.0124 41.765 15.1108C41.8085 13.6689 40.9571 12.3481 39.6389 11.7622L25.6223 5.53266C24.6857 5.11639 23.6166 5.11639 22.68 5.53266Z" stroke="#333333" stroke-width="1.81115" stroke-linejoin="round"/>
<path d="M18.2646 24.5002L22.4932 27.8831C22.8717 28.1858 23.4214 28.137 23.7405 27.7723L30.0371 20.576" stroke="#333333" stroke-width="1.35837" stroke-linecap="round" stroke-linejoin="round"/>
</g>
</g>
<defs>
<clipPath id="clip0_777_4335">
<rect width="48" height="47.09" fill="white" transform="translate(0 0.954956)"/>
</clipPath>
<clipPath id="clip1_777_4335">
<rect width="48" height="47.09" fill="white" transform="translate(0 0.954956)"/>
</clipPath>
</defs>
</svg>
