<svg width="44" height="44" viewBox="0 0 44 44" fill="none" xmlns="http://www.w3.org/2000/svg">
<g clip-path="url(#clip0_1003_3376)">
<path d="M26.8377 14.846L25.7396 6.42585C25.6782 5.95509 25.2772 5.60299 24.8024 5.60299H20.1341C20.3031 -1.84533 9.65166 -1.83889 9.82367 5.60299H5.15538C4.68067 5.60299 4.27959 5.95518 4.21816 6.42585C4.16987 6.94953 0.351757 35.5762 0 39.1116C8.59201e-05 40.4121 0.506585 41.6347 1.42662 42.5548C2.34699 43.4742 3.56955 43.9806 4.869 43.9806H19.1889C19.7108 43.9806 20.134 43.5575 20.134 43.0355C20.134 42.5136 19.7108 42.0904 19.1889 42.0904H4.86909C4.07416 42.0904 3.32605 41.7805 2.76293 41.2179C2.20024 40.6552 1.89041 39.9073 1.89041 39.111C2.22352 35.9147 5.35119 12.5716 5.98519 7.49323H9.82367V9.35486C9.82367 9.87683 10.2468 10.3 10.7688 10.3C11.2908 10.3 11.7139 9.87683 11.7139 9.35486V7.49323H18.2438V9.35486C18.2438 9.87683 18.667 10.3 19.189 10.3C19.7109 10.3 20.1341 9.87683 20.1341 9.35486V7.49323H23.9725L24.9633 15.0905C25.0308 15.608 25.5053 15.9732 26.0227 15.9054C26.5404 15.838 26.9053 15.3636 26.8377 14.846ZM18.2439 5.60299H11.714C11.469 0.659324 18.4902 0.662245 18.2439 5.60299Z" fill="#333333"/>
<path d="M43.9082 38.2703C43.3629 35.1816 39.7668 14.804 39.7668 14.804C39.6871 14.3524 39.2947 14.0232 38.8361 14.0232H19.1891C18.7305 14.0232 18.338 14.3524 18.2584 14.804L14.1169 38.2711C13.5355 41.1908 15.7976 44.0045 18.792 43.9807H39.2333C42.2245 44.0039 44.4914 41.1931 43.9082 38.2703ZM41.2609 41.2502C40.719 41.7921 39.9989 42.0904 39.2333 42.0904H18.7919C17.2511 42.1221 15.8919 40.7634 15.9241 39.2219C15.9241 39.0139 15.9424 38.8041 15.9785 38.5989L19.982 15.9134H38.0433C38.744 20.1528 41.6877 36.0279 42.1013 39.2227C42.101 39.9882 41.8026 40.7083 41.2609 41.2502Z" fill="#EE5A29"/>
<path d="M33.2227 19.6367C32.7007 19.6367 32.2776 20.0599 32.2776 20.5818C32.2729 22.0311 32.444 23.1579 31.3218 24.2931C29.2895 26.3417 25.7414 24.8746 25.7477 21.9865V20.5818C25.7477 20.0599 25.3245 19.6367 24.8025 19.6367C24.2806 19.6367 23.8574 20.0599 23.8574 20.5818V21.9866C24.1422 28.8392 33.8991 28.8074 34.1678 21.9852V20.5819C34.1678 20.0599 33.7447 19.6367 33.2227 19.6367Z" fill="#EE5A29"/>
</g>
<defs>
<clipPath id="clip0_1003_3376">
<rect width="44" height="44" fill="white"/>
</clipPath>
</defs>
</svg>
