<svg width="97" height="97" viewBox="0 0 97 97" fill="none" xmlns="http://www.w3.org/2000/svg">
<circle cx="48.5" cy="48.5" r="48.5" fill="white"/>
<g clip-path="url(#clip0_2458_7220)">
<path d="M47.8502 18.6028C47.0443 18.8187 46.3311 19.2923 45.8195 19.9513C40.7836 25.2082 31.2739 37.3029 31.2739 37.3029C31.2739 37.3029 29.1453 39.827 27.443 41.0392C26.3277 41.8334 25.4687 42.3016 24.3971 42.7754C23.3717 43.2297 22.3492 43.6889 21.3294 44.1529C16.8916 46.2357 14.8123 51.6823 16.5868 56.1724C18.3599 60.659 23.6023 63.2162 28.2662 61.7019C29.3273 61.3427 30.3873 60.9783 31.4463 60.609C34.184 59.656 37.1163 59.4013 39.9773 59.868C47.6734 61.1006 55.3418 62.2253 62.6835 62.6233C63.5074 62.7533 64.3513 62.6115 65.0874 62.2193C69.6089 59.5915 69.5349 48.1022 65.1409 36.9838C60.7469 25.8654 52.946 17.4284 47.8502 18.6028ZM63.9894 51.9142C64.1555 55.4086 63.5552 57.1365 63.27 57.6205C62.7607 57.5406 61.229 56.9119 58.9834 54.3143C56.4169 51.3467 53.9294 47.0005 52.02 42.1692C50.1107 37.3379 48.9531 32.4606 48.7989 28.5437C48.662 25.1128 49.35 23.6069 49.6653 23.1956C50.2033 23.3516 51.8241 24.2058 54.0913 26.8685C56.6835 29.9148 59.0848 34.0602 60.9004 38.6542C62.7159 43.2482 63.7973 47.9153 63.9894 51.9142Z" fill="#99BC85"/>
<path d="M59.7496 39.1144C59.5175 38.5268 59.172 37.9906 58.7327 37.5366C58.2934 37.0825 57.7689 36.7194 57.1893 36.468C56.6096 36.2167 55.9862 36.082 55.3545 36.0716C54.7227 36.0612 54.0952 36.1754 53.5076 36.4076L52.654 36.745C52.4413 36.8288 52.2678 36.9894 52.1678 37.195C52.0678 37.4006 52.0486 37.6362 52.114 37.8552C52.4851 39.0982 52.921 40.3566 53.4188 41.6164C53.9167 42.8761 54.4583 44.0913 55.0372 45.2522C55.1393 45.4567 55.3144 45.6156 55.5279 45.6973C55.7414 45.779 55.9778 45.7775 56.1903 45.6933L57.044 45.356C58.2304 44.8871 59.182 43.9661 59.6894 42.7956C60.1968 41.625 60.2185 40.3009 59.7496 39.1144Z" fill="#99BC85"/>
<path d="M65.3985 27.7968C64.8826 27.996 64.314 28.0118 63.7879 27.8417C63.2617 27.6716 62.81 27.3259 62.5083 26.8624C62.2066 26.399 62.0734 25.846 62.1308 25.296C62.1882 24.746 62.4329 24.2325 62.8238 23.8414L66.8148 19.9162C67.2779 19.5108 67.8785 19.2977 68.4936 19.3206C69.1087 19.3436 69.6917 19.6008 70.1233 20.0396C70.555 20.4784 70.8025 21.0656 70.8153 21.681C70.828 22.2964 70.6051 22.8934 70.192 23.3497L66.201 27.2749C65.9711 27.5007 65.6982 27.6782 65.3985 27.7968Z" fill="#99BC85"/>
<path d="M75.6046 35.2233L70.7166 37.155C70.4183 37.2959 70.0942 37.3741 69.7645 37.3848C69.4347 37.3954 69.1062 37.3383 68.7994 37.217C68.4926 37.0957 68.2139 36.9127 67.9807 36.6794C67.7474 36.446 67.5645 36.1673 67.4432 35.8605C67.3219 35.5536 67.2649 35.2252 67.2756 34.8954C67.2864 34.5656 67.3647 34.2416 67.5056 33.9433C67.6466 33.645 67.8473 33.3788 68.0953 33.1611C68.3432 32.9434 68.6332 32.779 68.9473 32.6779L73.8353 30.7461C74.4184 30.5584 75.0512 30.5996 75.6051 30.8614C76.159 31.1231 76.5926 31.5859 76.8177 32.1556C77.0429 32.7254 77.0428 33.3595 76.8175 33.9292C76.5922 34.499 76.1586 34.9616 75.6046 35.2233Z" fill="#99BC85"/>
<path d="M78.8278 47.7614C78.5278 47.8793 78.2071 47.936 77.8848 47.9279L72.2887 47.7916C71.9596 47.8039 71.6314 47.7487 71.3244 47.6294C71.0174 47.5101 70.7381 47.3292 70.5037 47.0978C70.2693 46.8665 70.0848 46.5895 69.9615 46.2841C69.8382 45.9787 69.7787 45.6513 69.7868 45.322C69.7949 44.9928 69.8703 44.6686 70.0084 44.3696C70.1465 44.0706 70.3444 43.8031 70.5899 43.5835C70.8353 43.3639 71.1232 43.1969 71.4357 43.0927C71.7481 42.9886 72.0786 42.9496 72.4067 42.9781L78.0028 43.1144C78.5555 43.1326 79.0851 43.3402 79.503 43.7023C79.9209 44.0644 80.2017 44.5591 80.2984 45.1036C80.395 45.6481 80.3017 46.2092 80.034 46.693C79.7663 47.1769 79.3404 47.554 78.8278 47.7614Z" fill="#99BC85"/>
<path d="M39.1741 62.0556C36.8256 61.7451 34.437 61.9879 32.1989 62.7646C31.3077 63.0759 30.4063 63.3857 29.5087 63.6912C31.5505 69.011 34.3003 74.0311 37.6839 78.6159C39.5699 81.1672 42.893 81.6313 44.835 79.8441C46.7769 78.0569 46.9319 75.0294 45.3837 72.922C42.8978 69.554 40.8138 65.9072 39.1741 62.0556Z" fill="#99BC85"/>
</g>
<defs>
<clipPath id="clip0_2458_7220">
<rect width="65" height="65" fill="white" transform="translate(6.33008 30.2197) rotate(-21.5639)"/>
</clipPath>
</defs>
</svg>
