<svg width="45" height="45" viewBox="0 0 45 45" fill="none" xmlns="http://www.w3.org/2000/svg">
<rect x="0.0976562" y="0.75" width="44.0625" height="44.0625" rx="8.8125" fill="#333333"/>
<g clip-path="url(#clip0_2418_6106)">
<path d="M14.7693 25.5396L13.849 28.975L10.4855 29.0462C9.48032 27.1817 8.91016 25.0486 8.91016 22.7818C8.91016 20.5898 9.44324 18.5227 10.3882 16.7026H10.3889L13.3834 17.2516L14.6951 20.2281C14.4206 21.0285 14.2709 21.8877 14.2709 22.7818C14.271 23.7522 14.4468 24.6819 14.7693 25.5396Z" fill="#FBBB00"/>
<path d="M35.1171 20.3115C35.2689 21.1112 35.3481 21.937 35.3481 22.781C35.3481 23.7273 35.2486 24.6505 35.059 25.5409C34.4155 28.5711 32.7341 31.217 30.4049 33.0894L30.4042 33.0887L26.6325 32.8962L26.0987 29.5639C27.6442 28.6575 28.8521 27.239 29.4883 25.5409H22.4199V20.3115H29.5915H35.1171Z" fill="#518EF8"/>
<path d="M30.4026 33.0887L30.4033 33.0895C28.138 34.9103 25.2603 35.9998 22.1278 35.9998C17.0937 35.9998 12.7171 33.1861 10.4844 29.0454L14.7681 25.5388C15.8844 28.5181 18.7584 30.6389 22.1278 30.6389C23.576 30.6389 24.9328 30.2474 26.097 29.564L30.4026 33.0887Z" fill="#28B446"/>
<path d="M30.5669 12.6057L26.2846 16.1116C25.0797 15.3584 23.6553 14.9233 22.1294 14.9233C18.6838 14.9233 15.7561 17.1414 14.6957 20.2276L10.3894 16.7021H10.3887C12.5887 12.4605 17.0206 9.5625 22.1294 9.5625C25.3368 9.5625 28.2776 10.705 30.5669 12.6057Z" fill="#F14336"/>
</g>
<defs>
<clipPath id="clip0_2418_6106">
<rect width="26.4375" height="26.4375" fill="white" transform="translate(8.91016 9.5625)"/>
</clipPath>
</defs>
</svg>
