<svg width="117" height="76" viewBox="0 0 117 76" fill="none" xmlns="http://www.w3.org/2000/svg">
<path d="M0 17C0 12.5817 3.58172 9 8 9H46.6092C49.6951 9 52.6081 7.57527 54.5027 5.13941L57.7106 1.01488C58.111 0.500134 58.889 0.500136 59.2894 1.01488L62.4973 5.13941C64.3919 7.57527 67.3049 9 70.3908 9H109C113.418 9 117 12.5817 117 17V44C117 48.4183 113.418 52 109 52H8C3.58172 52 0 48.4183 0 44V17Z" fill="black" fill-opacity="0.8"/>
<path d="M0 64C0 59.5817 3.58172 56 8 56H109C113.418 56 117 59.5817 117 64V68C117 72.4183 113.418 76 109 76H8C3.58172 76 0 72.4183 0 68V64Z" fill="black" fill-opacity="0.8"/>
<path d="M10.436 25.3994H13.64V26.9834H8.78V18.5834H10.436V25.3994ZM18.4102 20.9834H19.9582V26.9834H18.4102V26.3114C18.0422 26.8714 17.4462 27.1514 16.6222 27.1514C15.9662 27.1514 15.4222 26.9314 14.9902 26.4914C14.5662 26.0434 14.3542 25.4354 14.3542 24.6674V20.9834H15.9022V24.4754C15.9022 24.8834 16.0102 25.1914 16.2262 25.3994C16.4422 25.6074 16.7302 25.7114 17.0902 25.7114C17.4982 25.7114 17.8182 25.5914 18.0502 25.3514C18.2902 25.1034 18.4102 24.7274 18.4102 24.2234V20.9834ZM26.908 26.9834H25.12L23.824 25.1594L22.516 26.9834H20.728L22.924 23.9234L20.824 20.9834H22.612L23.824 22.6754L25.036 20.9834H26.812L24.712 23.9114L26.908 26.9834ZM31.6407 20.9834H33.1887V26.9834H31.6407V26.3114C31.2727 26.8714 30.6767 27.1514 29.8527 27.1514C29.1967 27.1514 28.6527 26.9314 28.2207 26.4914C27.7967 26.0434 27.5847 25.4354 27.5847 24.6674V20.9834H29.1327V24.4754C29.1327 24.8834 29.2407 25.1914 29.4567 25.3994C29.6727 25.6074 29.9607 25.7114 30.3207 25.7114C30.7287 25.7114 31.0487 25.5914 31.2807 25.3514C31.5207 25.1034 31.6407 24.7274 31.6407 24.2234V20.9834ZM36.1544 22.0154C36.2984 21.6314 36.5344 21.3434 36.8624 21.1514C37.1984 20.9594 37.5704 20.8634 37.9784 20.8634V22.5914C37.5064 22.5274 37.0824 22.6234 36.7064 22.8794C36.3384 23.1274 36.1544 23.5394 36.1544 24.1154V26.9834H34.6064V20.9834H36.1544V22.0154ZM42.9247 20.9834H44.5807L42.3967 26.9834C42.0847 27.8554 41.6727 28.4834 41.1607 28.8674C40.6487 29.2514 40.0047 29.4234 39.2287 29.3834V27.9434C39.6447 27.9514 39.9727 27.8634 40.2127 27.6794C40.4607 27.4954 40.6567 27.1994 40.8007 26.7914L38.3407 20.9834H40.0327L41.5927 25.0154L42.9247 20.9834ZM12.044 35.8154C12.708 35.8154 13.248 36.0354 13.664 36.4754C14.096 36.9234 14.312 37.5314 14.312 38.2994V41.9834H12.764V38.4914C12.764 38.0834 12.656 37.7754 12.44 37.5674C12.224 37.3594 11.936 37.2554 11.576 37.2554C11.168 37.2554 10.844 37.3794 10.604 37.6274C10.372 37.8674 10.256 38.2394 10.256 38.7434V41.9834H8.708V33.5834H10.256V36.6554C10.624 36.0954 11.22 35.8154 12.044 35.8154ZM20.1938 35.9834H21.7418V41.9834H20.1938V41.2754C19.7298 41.8594 19.0778 42.1514 18.2378 42.1514C17.4378 42.1514 16.7498 41.8474 16.1738 41.2394C15.6058 40.6234 15.3218 39.8714 15.3218 38.9834C15.3218 38.1034 15.6058 37.3554 16.1738 36.7394C16.7498 36.1234 17.4378 35.8154 18.2378 35.8154C19.0778 35.8154 19.7298 36.1074 20.1938 36.6914V35.9834ZM17.3378 40.2074C17.6498 40.5194 18.0458 40.6754 18.5258 40.6754C19.0058 40.6754 19.4018 40.5194 19.7138 40.2074C20.0338 39.8874 20.1938 39.4794 20.1938 38.9834C20.1938 38.4874 20.0338 38.0834 19.7138 37.7714C19.4018 37.4514 19.0058 37.2914 18.5258 37.2914C18.0458 37.2914 17.6498 37.4514 17.3378 37.7714C17.0258 38.0834 16.8698 38.4874 16.8698 38.9834C16.8698 39.4794 17.0258 39.8874 17.3378 40.2074ZM26.4815 35.8154C27.1455 35.8154 27.6855 36.0354 28.1015 36.4754C28.5335 36.9234 28.7495 37.5314 28.7495 38.2994V41.9834H27.2015V38.4914C27.2015 38.0834 27.0935 37.7754 26.8775 37.5674C26.6615 37.3594 26.3735 37.2554 26.0135 37.2554C25.6055 37.2554 25.2815 37.3794 25.0415 37.6274C24.8095 37.8674 24.6935 38.2394 24.6935 38.7434V41.9834H23.1455V35.9834H24.6935V36.6554C25.0615 36.0954 25.6575 35.8154 26.4815 35.8154ZM34.6193 33.5834H36.1673V41.9834H34.6193V41.2754C34.1633 41.8594 33.5153 42.1514 32.6753 42.1514C31.8673 42.1514 31.1753 41.8474 30.5993 41.2394C30.0313 40.6234 29.7473 39.8714 29.7473 38.9834C29.7473 38.1034 30.0313 37.3554 30.5993 36.7394C31.1753 36.1234 31.8673 35.8154 32.6753 35.8154C33.5153 35.8154 34.1633 36.1074 34.6193 36.6914V33.5834ZM31.7633 40.2074C32.0833 40.5194 32.4833 40.6754 32.9633 40.6754C33.4433 40.6754 33.8393 40.5194 34.1513 40.2074C34.4633 39.8874 34.6193 39.4794 34.6193 38.9834C34.6193 38.4874 34.4633 38.0834 34.1513 37.7714C33.8393 37.4514 33.4433 37.2914 32.9633 37.2914C32.4833 37.2914 32.0833 37.4514 31.7633 37.7714C31.4513 38.0834 31.2953 38.4874 31.2953 38.9834C31.2953 39.4794 31.4513 39.8874 31.7633 40.2074ZM41.075 35.8154C41.883 35.8154 42.571 36.1234 43.139 36.7394C43.715 37.3554 44.003 38.1034 44.003 38.9834C44.003 39.8794 43.715 40.6314 43.139 41.2394C42.579 41.8474 41.891 42.1514 41.075 42.1514C40.235 42.1514 39.587 41.8594 39.131 41.2754V41.9834H37.583V33.5834H39.131V36.6914C39.587 36.1074 40.235 35.8154 41.075 35.8154ZM39.599 40.2074C39.911 40.5194 40.307 40.6754 40.787 40.6754C41.267 40.6754 41.663 40.5194 41.975 40.2074C42.295 39.8874 42.455 39.4794 42.455 38.9834C42.455 38.4874 42.295 38.0834 41.975 37.7714C41.663 37.4514 41.267 37.2914 40.787 37.2914C40.307 37.2914 39.911 37.4514 39.599 37.7714C39.287 38.0834 39.131 38.4874 39.131 38.9834C39.131 39.4794 39.287 39.8874 39.599 40.2074ZM49.6547 35.9834H51.2027V41.9834H49.6547V41.2754C49.1907 41.8594 48.5387 42.1514 47.6987 42.1514C46.8987 42.1514 46.2107 41.8474 45.6347 41.2394C45.0667 40.6234 44.7827 39.8714 44.7827 38.9834C44.7827 38.1034 45.0667 37.3554 45.6347 36.7394C46.2107 36.1234 46.8987 35.8154 47.6987 35.8154C48.5387 35.8154 49.1907 36.1074 49.6547 36.6914V35.9834ZM46.7987 40.2074C47.1107 40.5194 47.5067 40.6754 47.9867 40.6754C48.4667 40.6754 48.8627 40.5194 49.1747 40.2074C49.4947 39.8874 49.6547 39.4794 49.6547 38.9834C49.6547 38.4874 49.4947 38.0834 49.1747 37.7714C48.8627 37.4514 48.4667 37.2914 47.9867 37.2914C47.5067 37.2914 47.1107 37.4514 46.7987 37.7714C46.4867 38.0834 46.3307 38.4874 46.3307 38.9834C46.3307 39.4794 46.4867 39.8874 46.7987 40.2074ZM57.2024 35.9834H58.7144V41.6954C58.7144 42.6154 58.4064 43.3234 57.7904 43.8194C57.1824 44.3074 56.4464 44.5514 55.5824 44.5514C54.9344 44.5514 54.3624 44.4274 53.8664 44.1794C53.3784 43.9314 53.0024 43.5674 52.7384 43.0874L54.0584 42.3314C54.3544 42.8914 54.8784 43.1714 55.6304 43.1714C56.1184 43.1714 56.5024 43.0434 56.7824 42.7874C57.0624 42.5394 57.2024 42.1754 57.2024 41.6954V41.0474C56.7464 41.6554 56.1064 41.9594 55.2824 41.9594C54.4344 41.9594 53.7224 41.6634 53.1464 41.0714C52.5784 40.4634 52.2944 39.7354 52.2944 38.8874C52.2944 38.0394 52.5824 37.3154 53.1584 36.7154C53.7344 36.1154 54.4424 35.8154 55.2824 35.8154C56.1064 35.8154 56.7464 36.1194 57.2024 36.7274V35.9834ZM57.2024 38.8874C57.2024 38.4074 57.0424 38.0194 56.7224 37.7234C56.4104 37.4114 56.0104 37.2554 55.5224 37.2554C55.0344 37.2554 54.6304 37.4114 54.3104 37.7234C53.9984 38.0274 53.8424 38.4154 53.8424 38.8874C53.8424 39.1274 53.8824 39.3474 53.9624 39.5474C54.0504 39.7474 54.1664 39.9234 54.3104 40.0754C54.4624 40.2194 54.6424 40.3314 54.8504 40.4114C55.0584 40.4914 55.2824 40.5314 55.5224 40.5314C55.7624 40.5314 55.9864 40.4914 56.1944 40.4114C56.4024 40.3314 56.5784 40.2194 56.7224 40.0754C56.8744 39.9234 56.9904 39.7474 57.0704 39.5474C57.1584 39.3474 57.2024 39.1274 57.2024 38.8874Z" fill="white"/>
<path d="M38.4242 69.112C37.8482 69.112 37.3709 68.9893 36.9922 68.744C36.6136 68.4987 36.3442 68.16 36.1842 67.728L37.2882 67.088C37.5122 67.6053 37.9042 67.864 38.4642 67.864C38.9709 67.864 39.2242 67.712 39.2242 67.408C39.2242 67.2373 39.1416 67.1093 38.9762 67.024C38.8056 66.9227 38.5016 66.8133 38.0642 66.696C37.8242 66.632 37.6162 66.56 37.4402 66.48C37.2696 66.4 37.0989 66.296 36.9282 66.168C36.7629 66.0347 36.6349 65.8693 36.5442 65.672C36.4589 65.4747 36.4162 65.248 36.4162 64.992C36.4162 64.48 36.6002 64.0667 36.9682 63.752C37.3416 63.4427 37.7842 63.288 38.2962 63.288C38.7602 63.288 39.1656 63.3947 39.5122 63.608C39.8642 63.8213 40.1416 64.136 40.3442 64.552L39.2642 65.184C39.1629 64.9707 39.0376 64.8107 38.8882 64.704C38.7389 64.592 38.5416 64.536 38.2962 64.536C38.1042 64.536 37.9549 64.5787 37.8482 64.664C37.7469 64.744 37.6962 64.8427 37.6962 64.96C37.6962 65.0987 37.7602 65.2187 37.8882 65.32C38.0216 65.4267 38.2936 65.5387 38.7042 65.656L39.2242 65.824C39.3576 65.8667 39.5122 65.9387 39.6882 66.04C39.8802 66.136 40.0242 66.24 40.1202 66.352C40.2216 66.4587 40.3096 66.6027 40.3842 66.784C40.4642 66.96 40.5042 67.1627 40.5042 67.392C40.5042 67.9253 40.3122 68.3467 39.9282 68.656C39.5442 68.96 39.0429 69.112 38.4242 69.112ZM44.3848 63.4H45.6648V69H44.3848V66.776H42.6248V69H41.3448V63.4H42.6248V65.544H44.3848V63.4ZM51.6021 68.272C51.0314 68.832 50.3434 69.112 49.5381 69.112C48.7274 69.112 48.0394 68.832 47.4741 68.272C46.9088 67.712 46.6261 67.0213 46.6261 66.2C46.6261 65.3787 46.9088 64.688 47.4741 64.128C48.0394 63.568 48.7274 63.288 49.5381 63.288C50.3434 63.288 51.0314 63.568 51.6021 64.128C52.1674 64.688 52.4501 65.3787 52.4501 66.2C52.4501 67.0213 52.1674 67.712 51.6021 68.272ZM48.3701 67.4C48.6794 67.7093 49.0688 67.864 49.5381 67.864C50.0021 67.864 50.3888 67.7093 50.6981 67.4C51.0128 67.0853 51.1701 66.6853 51.1701 66.2C51.1701 65.7147 51.0128 65.3147 50.6981 65C50.3888 64.6907 50.0021 64.536 49.5381 64.536C49.0688 64.536 48.6794 64.6907 48.3701 65C48.0608 65.3093 47.9061 65.7093 47.9061 66.2C47.9061 66.6907 48.0608 67.0907 48.3701 67.4ZM55.5308 63.4C56.0854 63.4 56.5494 63.5867 56.9228 63.96C57.3014 64.3387 57.4908 64.792 57.4908 65.32C57.4908 65.848 57.3014 66.3013 56.9228 66.68C56.5494 67.0533 56.0854 67.24 55.5308 67.24H54.6908V69H53.4108V63.4H55.5308ZM55.5308 66.04C55.7281 66.04 55.8908 65.9707 56.0188 65.832C56.1468 65.6933 56.2108 65.5227 56.2108 65.32C56.2108 65.1173 56.1468 64.9467 56.0188 64.808C55.8908 64.6693 55.7281 64.6 55.5308 64.6H54.6908V66.04H55.5308ZM63.7295 63.4H65.0095V69H64.0495L61.8895 65.96V69H60.6095V63.4H61.5695L63.7295 66.44V63.4ZM70.9449 68.272C70.3742 68.832 69.6862 69.112 68.8809 69.112C68.0702 69.112 67.3822 68.832 66.8169 68.272C66.2516 67.712 65.9689 67.0213 65.9689 66.2C65.9689 65.3787 66.2516 64.688 66.8169 64.128C67.3822 63.568 68.0702 63.288 68.8809 63.288C69.6862 63.288 70.3742 63.568 70.9449 64.128C71.5102 64.688 71.7929 65.3787 71.7929 66.2C71.7929 67.0213 71.5102 67.712 70.9449 68.272ZM67.7129 67.4C68.0222 67.7093 68.4116 67.864 68.8809 67.864C69.3449 67.864 69.7316 67.7093 70.0409 67.4C70.3556 67.0853 70.5129 66.6853 70.5129 66.2C70.5129 65.7147 70.3556 65.3147 70.0409 65C69.7316 64.6907 69.3449 64.536 68.8809 64.536C68.4116 64.536 68.0222 64.6907 67.7129 65C67.4036 65.3093 67.2489 65.7093 67.2489 66.2C67.2489 66.6907 67.4036 67.0907 67.7129 67.4ZM73.6554 69L72.1114 63.4H73.4554L74.4234 67.32L75.5034 63.4H76.5434L77.6234 67.32L78.5914 63.4H79.9354L78.3914 69H76.9354L76.0234 65.696L75.1114 69H73.6554Z" fill="white"/>
<path d="M89.12 31.816C89.12 32.44 88.908 32.964 88.484 33.388C88.068 33.804 87.52 34.048 86.84 34.12V35.2H86.12V34.132C85.472 34.092 84.92 33.92 84.464 33.616C84.008 33.312 83.68 32.904 83.48 32.392L84.2 31.972C84.496 32.788 85.136 33.236 86.12 33.316V30.004C85.936 29.94 85.776 29.88 85.64 29.824C85.504 29.768 85.376 29.712 85.256 29.656C85.136 29.6 85.02 29.54 84.908 29.476C84.804 29.404 84.692 29.324 84.572 29.236C84.34 29.06 84.168 28.844 84.056 28.588C83.952 28.332 83.9 28.032 83.9 27.688C83.9 27.064 84.108 26.556 84.524 26.164C84.956 25.756 85.488 25.524 86.12 25.468V24.4H86.84V25.48C87.32 25.536 87.74 25.696 88.1 25.96C88.468 26.216 88.748 26.572 88.94 27.028L88.232 27.424C87.984 26.792 87.52 26.42 86.84 26.308V29.428C87.192 29.548 87.484 29.664 87.716 29.776C87.948 29.888 88.18 30.036 88.412 30.22C88.884 30.588 89.12 31.12 89.12 31.816ZM84.74 27.688C84.74 28.056 84.848 28.348 85.064 28.564C85.288 28.78 85.64 28.98 86.12 29.164V26.296C85.704 26.344 85.368 26.492 85.112 26.74C84.864 26.98 84.74 27.296 84.74 27.688ZM86.84 33.304C87.296 33.24 87.648 33.08 87.896 32.824C88.152 32.56 88.28 32.224 88.28 31.816C88.28 31.424 88.16 31.116 87.92 30.892C87.68 30.66 87.32 30.448 86.84 30.256V33.304ZM91.9977 25.6H92.7177V34H91.8777V26.524L89.9937 27.088L89.7777 26.368L91.9977 25.6ZM96.8558 28.984C97.6478 28.984 98.3118 29.216 98.8478 29.68C99.3998 30.136 99.6758 30.764 99.6758 31.564C99.6758 32.364 99.3998 32.996 98.8478 33.46C98.3038 33.916 97.6398 34.144 96.8558 34.144C96.2238 34.144 95.6598 33.992 95.1638 33.688C94.6678 33.376 94.3318 32.932 94.1558 32.356L94.8638 31.948C94.9838 32.404 95.2198 32.748 95.5718 32.98C95.9238 33.212 96.3518 33.328 96.8558 33.328C97.1438 33.328 97.4078 33.288 97.6478 33.208C97.8958 33.128 98.1038 33.016 98.2718 32.872C98.4478 32.72 98.5838 32.536 98.6798 32.32C98.7838 32.096 98.8358 31.844 98.8358 31.564C98.8358 31.284 98.7838 31.036 98.6798 30.82C98.5838 30.596 98.4478 30.412 98.2718 30.268C98.1038 30.116 97.8958 30 97.6478 29.92C97.4078 29.84 97.1438 29.8 96.8558 29.8H94.5758L94.8758 25.6H99.3758V26.392H95.6198L95.4398 28.984H96.8558ZM105.793 28.228C105.793 28.86 105.621 29.42 105.277 29.908L102.529 34H101.581L103.645 30.928C103.429 30.976 103.205 31 102.973 31C102.141 31 101.465 30.744 100.945 30.232C100.417 29.72 100.153 29.052 100.153 28.228C100.153 27.42 100.417 26.756 100.945 26.236C101.481 25.716 102.157 25.456 102.973 25.456C103.789 25.456 104.465 25.716 105.001 26.236C105.529 26.756 105.793 27.42 105.793 28.228ZM101.533 26.812C101.173 27.172 100.993 27.644 100.993 28.228C100.993 28.812 101.173 29.284 101.533 29.644C101.901 30.004 102.381 30.184 102.973 30.184C103.565 30.184 104.041 30.004 104.401 29.644C104.769 29.284 104.953 28.812 104.953 28.228C104.953 27.644 104.769 27.172 104.401 26.812C104.041 26.452 103.565 26.272 102.973 26.272C102.381 26.272 101.901 26.452 101.533 26.812Z" fill="white"/>
</svg>
