<svg width="45" height="45" viewBox="0 0 45 45" fill="none" xmlns="http://www.w3.org/2000/svg">
<rect x="0.363281" y="0.108398" width="44.0625" height="44.0625" rx="8.8125" fill="#333333"/>
<path d="M17.4646 30.3198C22.0272 30.3198 25.726 26.621 25.726 22.0583C25.726 17.4956 22.0272 13.7969 17.4646 13.7969C12.9019 13.7969 9.20312 17.4956 9.20312 22.0583C9.20312 26.621 12.9019 30.3198 17.4646 30.3198Z" fill="#F93232"/>
<path d="M27.3786 13.7969C25.5231 13.7969 23.8163 14.4165 22.4383 15.4492H22.4218V15.4607C22.0946 15.7069 21.7939 15.9845 21.5072 16.2753H23.3363C23.5908 16.5339 23.8254 16.8106 24.0427 17.1015H20.7943C20.5943 17.365 20.4109 17.6401 20.2432 17.9276H24.592C24.7474 18.1953 24.8936 18.4679 25.02 18.7537H19.8227C19.7046 19.0222 19.6005 19.2973 19.5113 19.5799H25.3306C25.4165 19.8492 25.4843 20.126 25.5438 20.406H19.2956C19.2403 20.677 19.194 20.9513 19.1659 21.2322H25.6768C25.709 21.5031 25.7263 21.7783 25.7263 22.0583H19.1172C19.1172 22.3384 19.1395 22.6118 19.1668 22.8845H25.6784C25.647 23.1645 25.6016 23.4396 25.5446 23.7106H19.2965C19.3535 23.9923 19.427 24.2666 19.5121 24.5368H25.3314C25.2422 24.8193 25.1381 25.0944 25.02 25.3629H19.8227C19.9475 25.6471 20.0879 25.923 20.2432 26.189H24.592C24.4252 26.4765 24.2393 26.7516 24.0394 27.0152H20.7943C21.014 27.306 21.2511 27.5827 21.5064 27.8413H23.3363C23.0488 28.133 22.7489 28.4097 22.4218 28.6559C23.8031 29.696 25.5157 30.3198 27.3786 30.3198C31.9414 30.3198 35.6401 26.6203 35.6401 22.0583C35.6401 17.4963 31.9414 13.7969 27.3786 13.7969Z" fill="#FED049"/>
</svg>
