<svg width="497" height="259" viewBox="0 0 497 259" fill="none" xmlns="http://www.w3.org/2000/svg">
<g filter="url(#filter0_d_2455_6988)">
<path d="M11 18.6982C11 12.3577 16.1399 7.21777 22.4804 7.21777H474.52C480.86 7.21777 486 12.3577 486 18.6981V232.52C486 238.86 480.86 244 474.52 244H22.4804C16.1399 244 11 238.86 11 232.52V18.6982Z" fill="#F7F9FB"/>
<path d="M28.3714 27.8413H33.4945V28.9463H31.5156V34.873H30.3604V28.9463H28.3714V27.8413ZM35.7466 35.0036C35.0133 35.0036 34.3804 34.7525 33.8681 34.2402C33.3558 33.7279 33.0946 33.1051 33.0946 32.3617C33.0946 31.6184 33.3558 30.9956 33.8681 30.4832C34.3804 29.9709 35.0133 29.7198 35.7466 29.7198C36.49 29.7198 37.1128 29.9709 37.6251 30.4832C38.1374 30.9956 38.3986 31.6184 38.3986 32.3617C38.3986 33.1051 38.1374 33.7279 37.6251 34.2402C37.1128 34.7525 36.49 35.0036 35.7466 35.0036ZM34.6316 33.4968C34.9329 33.7982 35.3046 33.9489 35.7466 33.9489C36.1886 33.9489 36.5603 33.7982 36.8616 33.4968C37.163 33.1955 37.3137 32.8138 37.3137 32.3617C37.3137 31.9097 37.163 31.528 36.8616 31.2266C36.5603 30.9252 36.1886 30.7746 35.7466 30.7746C35.3046 30.7746 34.9329 30.9252 34.6316 31.2266C34.3302 31.528 34.1795 31.9097 34.1795 32.3617C34.1795 32.8138 34.3302 33.1955 34.6316 33.4968ZM42.0841 29.8504V30.8951H40.8385V33.306C40.8385 33.9489 41.2604 33.9388 42.0841 33.8987V34.873C40.4266 35.074 39.7536 34.6219 39.7536 33.306V30.8951H38.8294V29.8504H39.7536V28.7655L40.8385 28.444V29.8504H42.0841ZM46.84 30.5636V29.8504H47.9249V34.873H46.84V34.1498C46.4282 34.7224 45.8455 35.0036 45.0821 35.0036C44.389 35.0036 43.8063 34.7525 43.3141 34.2402C42.8219 33.7279 42.5808 33.095 42.5808 32.3617C42.5808 31.6184 42.8219 30.9956 43.3141 30.4832C43.8063 29.9709 44.389 29.7198 45.0821 29.7198C45.8455 29.7198 46.4282 30.0011 46.84 30.5636ZM44.1177 33.5169C44.4191 33.8183 44.8008 33.969 45.2529 33.969C45.7049 33.969 46.0866 33.8183 46.388 33.5169C46.6893 33.2055 46.84 32.8238 46.84 32.3617C46.84 31.8996 46.6893 31.5179 46.388 31.2166C46.0866 30.9051 45.7049 30.7545 45.2529 30.7545C44.8008 30.7545 44.4191 30.9051 44.1177 31.2166C43.8164 31.5179 43.6657 31.8996 43.6657 32.3617C43.6657 32.8238 43.8164 33.2055 44.1177 33.5169ZM50.2743 34.873H49.1894V27.54H50.2743V34.873ZM54.1156 27.8413H56.7073C57.3703 27.8413 57.9228 28.0623 58.3648 28.5043C58.8169 28.9463 59.0379 29.4988 59.0379 30.1517C59.0379 30.8047 58.8169 31.3471 58.3648 31.7992C57.9228 32.2412 57.3703 32.4622 56.7073 32.4622H55.2709V34.873H54.1156V27.8413ZM55.2709 31.3773H56.7073C57.3904 31.3773 57.8826 30.865 57.8826 30.1517C57.8826 29.4385 57.3904 28.9262 56.7073 28.9262H55.2709V31.3773ZM60.9573 29.8504V30.6942C61.2285 30.0714 61.7509 29.76 62.5043 29.76V30.9353C62.0924 30.9051 61.7308 31.0056 61.4194 31.2366C61.108 31.4576 60.9573 31.8293 60.9573 32.3416V34.873H59.8724V29.8504H60.9573ZM65.4411 35.0036C64.7078 35.0036 64.075 34.7525 63.5626 34.2402C63.0503 33.7279 62.7892 33.1051 62.7892 32.3617C62.7892 31.6184 63.0503 30.9956 63.5626 30.4832C64.075 29.9709 64.7078 29.7198 65.4411 29.7198C66.1845 29.7198 66.8073 29.9709 67.3196 30.4832C67.8319 30.9956 68.0931 31.6184 68.0931 32.3617C68.0931 33.1051 67.8319 33.7279 67.3196 34.2402C66.8073 34.7525 66.1845 35.0036 65.4411 35.0036ZM64.3261 33.4968C64.6274 33.7982 64.9991 33.9489 65.4411 33.9489C65.8831 33.9489 66.2548 33.7982 66.5561 33.4968C66.8575 33.1955 67.0082 32.8138 67.0082 32.3617C67.0082 31.9097 66.8575 31.528 66.5561 31.2266C66.2548 30.9252 65.8831 30.7746 65.4411 30.7746C64.9991 30.7746 64.6274 30.9252 64.3261 31.2266C64.0247 31.528 63.874 31.9097 63.874 32.3617C63.874 32.8138 64.0247 33.1955 64.3261 33.4968ZM70.344 29.8504H73.0964V34.873H72.0115V30.8951H70.344V34.873H69.2591V30.8951H68.4957V29.8504H69.2591V29.7499C69.2591 28.3938 70.0125 27.7107 71.5294 27.7107C71.8809 27.7107 72.2526 27.7509 72.6444 27.8413V28.8358C72.2928 28.7856 71.9211 28.7554 71.5294 28.7554C70.7257 28.7554 70.344 29.0166 70.344 29.7499V29.8504ZM77.1544 29.8504V30.8951H75.9088V33.306C75.9088 33.9489 76.3307 33.9388 77.1544 33.8987V34.873C75.497 35.074 74.8239 34.6219 74.8239 33.306V30.8951H73.8997V29.8504H74.8239V28.7655L75.9088 28.444V29.8504H77.1544Z" fill="#1C1C1C"/>
<path d="M90.1863 29.3522V28.5674H95.6656V29.3522H93.3683V35.873H92.4836V29.3522H90.1863ZM98.3481 35.9872C97.8535 35.9872 97.4195 35.8695 97.0461 35.634C96.6751 35.3986 96.385 35.0692 96.1757 34.6459C95.9688 34.2226 95.8653 33.728 95.8653 33.162C95.8653 32.5912 95.9688 32.093 96.1757 31.6673C96.385 31.2416 96.6751 30.911 97.0461 30.6756C97.4195 30.4402 97.8535 30.3224 98.3481 30.3224C98.8428 30.3224 99.2756 30.4402 99.6466 30.6756C100.02 30.911 100.31 31.2416 100.517 31.6673C100.726 32.093 100.831 32.5912 100.831 33.162C100.831 33.728 100.726 34.2226 100.517 34.6459C100.31 35.0692 100.02 35.3986 99.6466 35.634C99.2756 35.8695 98.8428 35.9872 98.3481 35.9872ZM98.3481 35.2309C98.7239 35.2309 99.033 35.1346 99.2756 34.942C99.5182 34.7494 99.6977 34.4961 99.8143 34.1822C99.9308 33.8683 99.9891 33.5282 99.9891 33.162C99.9891 32.7957 99.9308 32.4545 99.8143 32.1382C99.6977 31.8219 99.5182 31.5662 99.2756 31.3712C99.033 31.1762 98.7239 31.0787 98.3481 31.0787C97.9724 31.0787 97.6632 31.1762 97.4207 31.3712C97.1781 31.5662 96.9985 31.8219 96.882 32.1382C96.7655 32.4545 96.7072 32.7957 96.7072 33.162C96.7072 33.5282 96.7655 33.8683 96.882 34.1822C96.9985 34.4961 97.1781 34.7494 97.4207 34.942C97.6632 35.1346 97.9724 35.2309 98.3481 35.2309ZM104.499 30.3938V31.1072H101.659V30.3938H104.499ZM102.487 29.081H103.329V34.3035C103.329 34.5413 103.363 34.7196 103.432 34.8386C103.504 34.9551 103.594 35.0336 103.703 35.074C103.815 35.112 103.933 35.1311 104.057 35.1311C104.149 35.1311 104.225 35.1263 104.285 35.1168C104.344 35.1049 104.392 35.0954 104.428 35.0883L104.599 35.8445C104.542 35.8659 104.462 35.8873 104.36 35.9087C104.258 35.9325 104.128 35.9444 103.971 35.9444C103.733 35.9444 103.5 35.8933 103.272 35.791C103.046 35.6887 102.858 35.533 102.708 35.3237C102.561 35.1144 102.487 34.8504 102.487 34.5318V29.081ZM107.775 35.9872C107.319 35.9872 106.916 35.8719 106.566 35.6412C106.217 35.4081 105.943 35.0799 105.746 34.6566C105.548 34.2309 105.45 33.728 105.45 33.1477C105.45 32.5722 105.548 32.0728 105.746 31.6494C105.943 31.2261 106.218 30.8991 106.57 30.6685C106.922 30.4378 107.328 30.3224 107.79 30.3224C108.146 30.3224 108.428 30.3819 108.635 30.5008C108.844 30.6173 109.004 30.7505 109.113 30.9003C109.225 31.0478 109.312 31.1691 109.374 31.2642H109.445V30.3938H110.287V35.873H109.473V35.0312H109.374C109.312 35.1311 109.224 35.2571 109.11 35.4093C108.995 35.5591 108.833 35.6935 108.621 35.8124C108.409 35.9289 108.127 35.9872 107.775 35.9872ZM107.89 35.2309C108.227 35.2309 108.513 35.143 108.746 34.967C108.979 34.7886 109.156 34.5425 109.277 34.2286C109.399 33.9123 109.459 33.5472 109.459 33.1334C109.459 32.7244 109.4 32.3665 109.281 32.0597C109.162 31.7505 108.986 31.5103 108.753 31.3391C108.52 31.1655 108.232 31.0787 107.89 31.0787C107.533 31.0787 107.236 31.1702 106.998 31.3534C106.762 31.5341 106.585 31.7802 106.466 32.0918C106.35 32.4009 106.291 32.7482 106.291 33.1334C106.291 33.5234 106.351 33.8778 106.47 34.1964C106.591 34.5127 106.769 34.7648 107.005 34.9527C107.243 35.1382 107.538 35.2309 107.89 35.2309ZM112.787 28.5674V35.873H111.946V28.5674H112.787ZM117.269 35.873V28.5674H119.737C120.31 28.5674 120.779 28.6708 121.143 28.8777C121.509 29.0822 121.78 29.3593 121.956 29.7089C122.132 30.0585 122.22 30.4485 122.22 30.8789C122.22 31.3094 122.132 31.7006 121.956 32.0525C121.782 32.4045 121.514 32.6851 121.15 32.8944C120.786 33.1013 120.32 33.2048 119.752 33.2048H117.982V32.42H119.723C120.115 32.42 120.43 32.3522 120.668 32.2166C120.906 32.0811 121.079 31.898 121.186 31.6673C121.295 31.4342 121.35 31.1714 121.35 30.8789C121.35 30.5864 121.295 30.3248 121.186 30.0941C121.079 29.8635 120.905 29.6827 120.665 29.5519C120.425 29.4187 120.106 29.3522 119.709 29.3522H118.153V35.873H117.269ZM123.531 35.873V30.3938H124.344V31.2214H124.401C124.501 30.9503 124.682 30.7303 124.944 30.5614C125.205 30.3926 125.5 30.3082 125.828 30.3082C125.89 30.3082 125.967 30.3094 126.06 30.3117C126.153 30.3141 126.223 30.3177 126.271 30.3224V31.1786C126.242 31.1714 126.177 31.1607 126.074 31.1465C125.975 31.1298 125.869 31.1215 125.757 31.1215C125.491 31.1215 125.253 31.1774 125.043 31.2892C124.837 31.3986 124.673 31.5508 124.551 31.7458C124.432 31.9384 124.373 32.1584 124.373 32.4057V35.873H123.531ZM129.328 35.9872C128.833 35.9872 128.399 35.8695 128.026 35.634C127.655 35.3986 127.365 35.0692 127.155 34.6459C126.948 34.2226 126.845 33.728 126.845 33.162C126.845 32.5912 126.948 32.093 127.155 31.6673C127.365 31.2416 127.655 30.911 128.026 30.6756C128.399 30.4402 128.833 30.3224 129.328 30.3224C129.822 30.3224 130.255 30.4402 130.626 30.6756C131 30.911 131.29 31.2416 131.497 31.6673C131.706 32.093 131.811 32.5912 131.811 33.162C131.811 33.728 131.706 34.2226 131.497 34.6459C131.29 35.0692 131 35.3986 130.626 35.634C130.255 35.8695 129.822 35.9872 129.328 35.9872ZM129.328 35.2309C129.703 35.2309 130.013 35.1346 130.255 34.942C130.498 34.7494 130.677 34.4961 130.794 34.1822C130.91 33.8683 130.969 33.5282 130.969 33.162C130.969 32.7957 130.91 32.4545 130.794 32.1382C130.677 31.8219 130.498 31.5662 130.255 31.3712C130.013 31.1762 129.703 31.0787 129.328 31.0787C128.952 31.0787 128.643 31.1762 128.4 31.3712C128.158 31.5662 127.978 31.8219 127.862 32.1382C127.745 32.4545 127.687 32.7957 127.687 33.162C127.687 33.5282 127.745 33.8683 127.862 34.1822C127.978 34.4961 128.158 34.7494 128.4 34.942C128.643 35.1346 128.952 35.2309 129.328 35.2309ZM133.096 30.3938H133.937V36.2726C133.937 36.6103 133.879 36.9028 133.763 37.1501C133.649 37.3974 133.475 37.5889 133.242 37.7244C133.011 37.86 132.72 37.9278 132.368 37.9278C132.339 37.9278 132.311 37.9278 132.282 37.9278C132.254 37.9278 132.225 37.9278 132.197 37.9278V37.143C132.225 37.143 132.251 37.143 132.275 37.143C132.299 37.143 132.325 37.143 132.354 37.143C132.61 37.143 132.798 37.0669 132.917 36.9147C133.036 36.7649 133.096 36.5508 133.096 36.2726V30.3938ZM133.509 29.4806C133.345 29.4806 133.204 29.4247 133.085 29.3129C132.968 29.2011 132.91 29.0668 132.91 28.9098C132.91 28.7529 132.968 28.6185 133.085 28.5067C133.204 28.3949 133.345 28.3391 133.509 28.3391C133.674 28.3391 133.814 28.3949 133.93 28.5067C134.049 28.6185 134.109 28.7529 134.109 28.9098C134.109 29.0668 134.049 29.2011 133.93 29.3129C133.814 29.4247 133.674 29.4806 133.509 29.4806ZM137.777 35.9872C137.249 35.9872 136.793 35.8707 136.41 35.6376C136.03 35.4022 135.736 35.074 135.529 34.6531C135.325 34.2297 135.223 33.7375 135.223 33.1762C135.223 32.615 135.325 32.1203 135.529 31.6923C135.736 31.2618 136.024 30.9265 136.393 30.6863C136.764 30.4437 137.196 30.3224 137.691 30.3224C137.976 30.3224 138.258 30.37 138.537 30.4651C138.815 30.5603 139.068 30.7148 139.296 30.9289C139.525 31.1405 139.707 31.4211 139.842 31.7707C139.978 32.1203 140.045 32.5508 140.045 33.0621V33.4188H135.822V32.6911H139.189C139.189 32.3819 139.128 32.1061 139.004 31.8635C138.883 31.6209 138.709 31.4295 138.483 31.2892C138.259 31.1488 137.996 31.0787 137.691 31.0787C137.356 31.0787 137.066 31.1619 136.821 31.3284C136.578 31.4925 136.391 31.7065 136.261 31.9705C136.13 32.2345 136.064 32.5175 136.064 32.8195V33.3046C136.064 33.7184 136.136 34.0692 136.278 34.357C136.424 34.6424 136.625 34.86 136.881 35.0098C137.138 35.1572 137.437 35.2309 137.777 35.2309C137.998 35.2309 138.198 35.2 138.376 35.1382C138.557 35.074 138.713 34.9789 138.843 34.8528C138.974 34.7244 139.075 34.5651 139.147 34.3748L139.96 34.6031C139.874 34.879 139.73 35.1216 139.528 35.3308C139.326 35.5377 139.076 35.6994 138.779 35.816C138.482 35.9301 138.148 35.9872 137.777 35.9872ZM143.552 35.9872C143.038 35.9872 142.596 35.8659 142.225 35.6233C141.854 35.3808 141.569 35.0466 141.369 34.6209C141.169 34.1953 141.069 33.7089 141.069 33.162C141.069 32.6055 141.172 32.1144 141.376 31.6887C141.583 31.2606 141.871 30.9265 142.239 30.6863C142.61 30.4437 143.043 30.3224 143.538 30.3224C143.923 30.3224 144.27 30.3938 144.579 30.5365C144.889 30.6792 145.142 30.8789 145.339 31.1358C145.537 31.3926 145.659 31.6923 145.707 32.0347H144.865C144.801 31.785 144.658 31.5638 144.437 31.3712C144.218 31.1762 143.923 31.0787 143.552 31.0787C143.224 31.0787 142.936 31.1643 142.689 31.3355C142.444 31.5044 142.252 31.7434 142.114 32.0525C141.979 32.3593 141.911 32.7196 141.911 33.1334C141.911 33.5567 141.978 33.9253 142.111 34.2393C142.246 34.5532 142.437 34.7969 142.682 34.9705C142.929 35.1441 143.219 35.2309 143.552 35.2309C143.771 35.2309 143.969 35.1929 144.148 35.1168C144.326 35.0407 144.477 34.9313 144.601 34.7886C144.724 34.6459 144.812 34.4747 144.865 34.2749H145.707C145.659 34.5984 145.541 34.8897 145.354 35.1489C145.168 35.4057 144.922 35.6103 144.615 35.7625C144.311 35.9123 143.956 35.9872 143.552 35.9872ZM149.32 30.3938V31.1072H146.481V30.3938H149.32ZM147.308 29.081H148.15V34.3035C148.15 34.5413 148.185 34.7196 148.254 34.8386C148.325 34.9551 148.415 35.0336 148.525 35.074C148.637 35.112 148.754 35.1311 148.878 35.1311C148.971 35.1311 149.047 35.1263 149.106 35.1168C149.166 35.1049 149.213 35.0954 149.249 35.0883L149.42 35.8445C149.363 35.8659 149.283 35.8873 149.181 35.9087C149.079 35.9325 148.949 35.9444 148.792 35.9444C148.555 35.9444 148.321 35.8933 148.093 35.791C147.867 35.6887 147.679 35.533 147.53 35.3237C147.382 35.1144 147.308 34.8504 147.308 34.5318V29.081ZM154.37 31.6209L153.613 31.8349C153.566 31.7089 153.496 31.5864 153.403 31.4675C153.313 31.3462 153.189 31.2464 153.032 31.1679C152.875 31.0894 152.674 31.0502 152.429 31.0502C152.094 31.0502 151.814 31.1274 151.591 31.282C151.37 31.4342 151.259 31.628 151.259 31.8635C151.259 32.0728 151.335 32.238 151.487 32.3593C151.64 32.4806 151.877 32.5817 152.201 32.6625L153.014 32.8623C153.504 32.9812 153.869 33.1631 154.109 33.4081C154.349 33.6507 154.47 33.9634 154.47 34.3463C154.47 34.6602 154.379 34.9408 154.198 35.1881C154.02 35.4355 153.77 35.6305 153.449 35.7732C153.128 35.9159 152.755 35.9872 152.329 35.9872C151.77 35.9872 151.308 35.8659 150.942 35.6233C150.575 35.3808 150.343 35.0264 150.246 34.5603L151.045 34.3605C151.121 34.6554 151.265 34.8766 151.477 35.024C151.691 35.1715 151.97 35.2452 152.315 35.2452C152.707 35.2452 153.019 35.162 153.25 34.9955C153.483 34.8267 153.599 34.6245 153.599 34.3891C153.599 34.1988 153.533 34.0395 153.399 33.9111C153.266 33.7803 153.062 33.6828 152.786 33.6186L151.873 33.4045C151.371 33.2856 151.002 33.1013 150.767 32.8516C150.534 32.5995 150.417 32.2844 150.417 31.9063C150.417 31.5971 150.504 31.3236 150.678 31.0858C150.854 30.848 151.093 30.6613 151.395 30.5258C151.699 30.3902 152.044 30.3224 152.429 30.3224C152.971 30.3224 153.397 30.4413 153.706 30.6792C154.018 30.917 154.239 31.2309 154.37 31.6209Z" fill="#1C1C1C" fill-opacity="0.4"/>
<path d="M174.23 32.2202C174.23 32.9907 174.091 33.6566 173.813 34.2179C173.535 34.7791 173.153 35.2119 172.668 35.5163C172.183 35.8207 171.629 35.9729 171.006 35.9729C170.383 35.9729 169.829 35.8207 169.343 35.5163C168.858 35.2119 168.477 34.7791 168.198 34.2179C167.92 33.6566 167.781 32.9907 167.781 32.2202C167.781 31.4497 167.92 30.7838 168.198 30.2226C168.477 29.6613 168.858 29.2285 169.343 28.9241C169.829 28.6197 170.383 28.4675 171.006 28.4675C171.629 28.4675 172.183 28.6197 172.668 28.9241C173.153 29.2285 173.535 29.6613 173.813 30.2226C174.091 30.7838 174.23 31.4497 174.23 32.2202ZM173.374 32.2202C173.374 31.5876 173.269 31.0537 173.057 30.6185C172.848 30.1833 172.563 29.8539 172.204 29.6304C171.848 29.4068 171.448 29.2951 171.006 29.2951C170.563 29.2951 170.163 29.4068 169.804 29.6304C169.447 29.8539 169.163 30.1833 168.951 30.6185C168.742 31.0537 168.637 31.5876 168.637 32.2202C168.637 32.8528 168.742 33.3867 168.951 33.8219C169.163 34.2571 169.447 34.5865 169.804 34.81C170.163 35.0336 170.563 35.1453 171.006 35.1453C171.448 35.1453 171.848 35.0336 172.204 34.81C172.563 34.5865 172.848 34.2571 173.057 33.8219C173.269 33.3867 173.374 32.8528 173.374 32.2202ZM175.604 37.9278V30.3938H176.417V31.2642H176.517C176.579 31.1691 176.665 31.0478 176.774 30.9003C176.886 30.7505 177.045 30.6173 177.252 30.5008C177.461 30.3819 177.744 30.3224 178.101 30.3224C178.562 30.3224 178.969 30.4378 179.321 30.6685C179.673 30.8991 179.948 31.2261 180.145 31.6494C180.342 32.0728 180.441 32.5722 180.441 33.1477C180.441 33.728 180.342 34.2309 180.145 34.6566C179.948 35.0799 179.674 35.4081 179.324 35.6412C178.975 35.8719 178.572 35.9872 178.115 35.9872C177.763 35.9872 177.481 35.9289 177.27 35.8124C177.058 35.6935 176.895 35.5591 176.781 35.4093C176.667 35.2571 176.579 35.1311 176.517 35.0312H176.446V37.9278H175.604ZM176.431 33.1334C176.431 33.5472 176.492 33.9123 176.613 34.2286C176.735 34.5425 176.912 34.7886 177.145 34.967C177.378 35.143 177.663 35.2309 178.001 35.2309C178.353 35.2309 178.647 35.1382 178.882 34.9527C179.12 34.7648 179.298 34.5127 179.417 34.1964C179.539 33.8778 179.599 33.5234 179.599 33.1334C179.599 32.7482 179.54 32.4009 179.421 32.0918C179.304 31.7802 179.127 31.5341 178.889 31.3534C178.654 31.1702 178.358 31.0787 178.001 31.0787C177.659 31.0787 177.371 31.1655 177.138 31.3391C176.905 31.5103 176.729 31.7505 176.61 32.0597C176.491 32.3665 176.431 32.7244 176.431 33.1334ZM184.023 35.9872C183.495 35.9872 183.039 35.8707 182.656 35.6376C182.276 35.4022 181.982 35.074 181.775 34.6531C181.571 34.2297 181.468 33.7375 181.468 33.1762C181.468 32.615 181.571 32.1203 181.775 31.6923C181.982 31.2618 182.27 30.9265 182.638 30.6863C183.009 30.4437 183.442 30.3224 183.937 30.3224C184.222 30.3224 184.504 30.37 184.782 30.4651C185.061 30.5603 185.314 30.7148 185.542 30.9289C185.77 31.1405 185.952 31.4211 186.088 31.7707C186.224 32.1203 186.291 32.5508 186.291 33.0621V33.4188H182.068V32.6911H185.435C185.435 32.3819 185.373 32.1061 185.25 31.8635C185.128 31.6209 184.955 31.4295 184.729 31.2892C184.505 31.1488 184.241 31.0787 183.937 31.0787C183.602 31.0787 183.311 31.1619 183.067 31.3284C182.824 31.4925 182.637 31.7065 182.506 31.9705C182.376 32.2345 182.31 32.5175 182.31 32.8195V33.3046C182.31 33.7184 182.382 34.0692 182.524 34.357C182.669 34.6424 182.87 34.86 183.127 35.0098C183.384 35.1572 183.682 35.2309 184.023 35.2309C184.244 35.2309 184.443 35.2 184.622 35.1382C184.803 35.074 184.958 34.9789 185.089 34.8528C185.22 34.7244 185.321 34.5651 185.392 34.3748L186.206 34.6031C186.12 34.879 185.976 35.1216 185.774 35.3308C185.572 35.5377 185.322 35.6994 185.025 35.816C184.728 35.9301 184.394 35.9872 184.023 35.9872ZM187.572 35.873V30.3938H188.385V31.2214H188.442C188.542 30.9503 188.723 30.7303 188.985 30.5614C189.246 30.3926 189.541 30.3082 189.869 30.3082C189.931 30.3082 190.008 30.3094 190.101 30.3117C190.194 30.3141 190.264 30.3177 190.312 30.3224V31.1786C190.283 31.1714 190.218 31.1607 190.115 31.1465C190.015 31.1298 189.91 31.1215 189.798 31.1215C189.532 31.1215 189.294 31.1774 189.084 31.2892C188.878 31.3986 188.713 31.5508 188.592 31.7458C188.473 31.9384 188.414 32.1584 188.414 32.4057V35.873H187.572ZM193.212 35.9872C192.755 35.9872 192.352 35.8719 192.002 35.6412C191.653 35.4081 191.379 35.0799 191.182 34.6566C190.985 34.2309 190.886 33.728 190.886 33.1477C190.886 32.5722 190.985 32.0728 191.182 31.6494C191.379 31.2261 191.654 30.8991 192.006 30.6685C192.358 30.4378 192.765 30.3224 193.226 30.3224C193.583 30.3224 193.865 30.3819 194.071 30.5008C194.281 30.6173 194.44 30.7505 194.549 30.9003C194.661 31.0478 194.748 31.1691 194.81 31.2642H194.881V30.3938H195.723V35.873H194.91V35.0312H194.81C194.748 35.1311 194.66 35.2571 194.546 35.4093C194.432 35.5591 194.269 35.6935 194.057 35.8124C193.845 35.9289 193.564 35.9872 193.212 35.9872ZM193.326 35.2309C193.664 35.2309 193.949 35.143 194.182 34.967C194.415 34.7886 194.592 34.5425 194.714 34.2286C194.835 33.9123 194.895 33.5472 194.895 33.1334C194.895 32.7244 194.836 32.3665 194.717 32.0597C194.598 31.7505 194.422 31.5103 194.189 31.3391C193.956 31.1655 193.668 31.0787 193.326 31.0787C192.969 31.0787 192.672 31.1702 192.434 31.3534C192.199 31.5341 192.021 31.7802 191.903 32.0918C191.786 32.4009 191.728 32.7482 191.728 33.1334C191.728 33.5234 191.787 33.8778 191.906 34.1964C192.027 34.5127 192.206 34.7648 192.441 34.9527C192.679 35.1382 192.974 35.2309 193.326 35.2309ZM199.765 30.3938V31.1072H196.925V30.3938H199.765ZM197.753 29.081H198.595V34.3035C198.595 34.5413 198.629 34.7196 198.698 34.8386C198.769 34.9551 198.86 35.0336 198.969 35.074C199.081 35.112 199.199 35.1311 199.322 35.1311C199.415 35.1311 199.491 35.1263 199.551 35.1168C199.61 35.1049 199.658 35.0954 199.693 35.0883L199.865 35.8445C199.808 35.8659 199.728 35.8873 199.626 35.9087C199.523 35.9325 199.394 35.9444 199.237 35.9444C198.999 35.9444 198.766 35.8933 198.538 35.791C198.312 35.6887 198.124 35.533 197.974 35.3237C197.827 35.1144 197.753 34.8504 197.753 34.5318V29.081ZM201.031 35.873V30.3938H201.873V35.873H201.031ZM201.459 29.4806C201.295 29.4806 201.154 29.4247 201.035 29.3129C200.918 29.2011 200.86 29.0668 200.86 28.9098C200.86 28.7529 200.918 28.6185 201.035 28.5067C201.154 28.3949 201.295 28.3391 201.459 28.3391C201.623 28.3391 201.764 28.3949 201.88 28.5067C201.999 28.6185 202.058 28.7529 202.058 28.9098C202.058 29.0668 201.999 29.2011 201.88 29.3129C201.764 29.4247 201.623 29.4806 201.459 29.4806ZM204.257 32.5769V35.873H203.415V30.3938H204.228V31.2499H204.3C204.428 30.9717 204.623 30.7481 204.885 30.5793C205.146 30.4081 205.484 30.3224 205.898 30.3224C206.269 30.3224 206.593 30.3985 206.872 30.5507C207.15 30.7006 207.366 30.9289 207.521 31.2356C207.675 31.5401 207.753 31.9253 207.753 32.3914V35.873H206.911V32.4485C206.911 32.0181 206.799 31.6827 206.575 31.4425C206.352 31.2 206.045 31.0787 205.655 31.0787C205.386 31.0787 205.146 31.137 204.935 31.2535C204.725 31.37 204.56 31.5401 204.439 31.7636C204.317 31.9871 204.257 32.2583 204.257 32.5769ZM211.503 38.0419C211.096 38.0419 210.746 37.9896 210.454 37.885C210.161 37.7827 209.918 37.6471 209.723 37.4783C209.53 37.3118 209.377 37.1335 209.262 36.9432L209.933 36.4723C210.009 36.5722 210.106 36.6864 210.222 36.8148C210.339 36.9456 210.498 37.0586 210.7 37.1537C210.905 37.2512 211.172 37.2999 211.503 37.2999C211.945 37.2999 212.31 37.1929 212.598 36.9789C212.886 36.7649 213.029 36.4295 213.029 35.9729V34.86H212.958C212.896 34.9598 212.808 35.0835 212.694 35.2309C212.582 35.376 212.421 35.5056 212.209 35.6198C212 35.7315 211.717 35.7874 211.36 35.7874C210.918 35.7874 210.521 35.6828 210.169 35.4735C209.819 35.2642 209.542 34.9598 209.337 34.5603C209.135 34.1608 209.034 33.6756 209.034 33.1049C209.034 32.5436 209.133 32.0549 209.33 31.6387C209.528 31.2202 209.802 30.8968 210.154 30.6685C210.506 30.4378 210.913 30.3224 211.374 30.3224C211.731 30.3224 212.014 30.3819 212.223 30.5008C212.435 30.6173 212.597 30.7505 212.708 30.9003C212.823 31.0478 212.911 31.1691 212.972 31.2642H213.058V30.3938H213.871V36.03C213.871 36.5009 213.764 36.8838 213.55 37.1787C213.339 37.4759 213.053 37.6935 212.694 37.8315C212.337 37.9718 211.94 38.0419 211.503 38.0419ZM211.474 35.0312C211.812 35.0312 212.097 34.9539 212.33 34.7993C212.563 34.6447 212.741 34.4224 212.862 34.1322C212.983 33.8421 213.044 33.4949 213.044 33.0906C213.044 32.6958 212.984 32.3474 212.865 32.0454C212.746 31.7434 212.57 31.5068 212.337 31.3355C212.104 31.1643 211.817 31.0787 211.474 31.0787C211.117 31.0787 210.82 31.1691 210.582 31.3498C210.347 31.5305 210.17 31.7731 210.051 32.0775C209.934 32.3819 209.876 32.7196 209.876 33.0906C209.876 33.4711 209.935 33.8076 210.054 34.1001C210.176 34.3903 210.354 34.6186 210.589 34.785C210.827 34.9491 211.122 35.0312 211.474 35.0312ZM222.347 30.3938C222.304 30.0323 222.131 29.7517 221.826 29.5519C221.522 29.3522 221.148 29.2523 220.706 29.2523C220.383 29.2523 220.1 29.3046 219.857 29.4092C219.617 29.5139 219.429 29.6577 219.294 29.8409C219.16 30.024 219.094 30.2321 219.094 30.4651C219.094 30.6601 219.14 30.8278 219.233 30.9681C219.328 31.106 219.449 31.2214 219.597 31.3141C219.744 31.4045 219.899 31.4794 220.06 31.5389C220.222 31.5959 220.371 31.6423 220.506 31.678L221.248 31.8778C221.439 31.9277 221.65 31.9967 221.883 32.0846C222.119 32.1726 222.343 32.2927 222.558 32.4449C222.774 32.5948 222.952 32.7874 223.093 33.0228C223.233 33.2583 223.303 33.5472 223.303 33.8897C223.303 34.2844 223.2 34.6412 222.993 34.9598C222.788 35.2785 222.489 35.5318 222.094 35.7197C221.701 35.9075 221.225 36.0015 220.663 36.0015C220.14 36.0015 219.687 35.917 219.304 35.7482C218.924 35.5793 218.624 35.3439 218.405 35.0419C218.189 34.7399 218.066 34.3891 218.038 33.9895H218.951C218.975 34.2654 219.068 34.4937 219.229 34.6745C219.393 34.8528 219.6 34.986 219.85 35.074C220.102 35.1596 220.373 35.2024 220.663 35.2024C221.001 35.2024 221.304 35.1477 221.573 35.0383C221.842 34.9265 222.055 34.772 222.212 34.5746C222.368 34.3748 222.447 34.1418 222.447 33.8754C222.447 33.6328 222.379 33.4354 222.244 33.2832C222.108 33.131 221.93 33.0074 221.709 32.9122C221.487 32.8171 221.248 32.7339 220.992 32.6625L220.093 32.4057C219.522 32.2416 219.07 32.0074 218.737 31.703C218.404 31.3986 218.238 31.0002 218.238 30.5079C218.238 30.0989 218.348 29.7422 218.569 29.4378C218.793 29.131 219.093 28.8932 219.468 28.7243C219.846 28.5531 220.269 28.4675 220.735 28.4675C221.206 28.4675 221.624 28.5519 221.99 28.7208C222.357 28.8872 222.647 29.1155 222.861 29.4057C223.077 29.6958 223.191 30.0252 223.203 30.3938H222.347ZM227.026 30.3938V31.1072H224.187V30.3938H227.026ZM225.014 29.081H225.856V34.3035C225.856 34.5413 225.891 34.7196 225.96 34.8386C226.031 34.9551 226.121 35.0336 226.231 35.074C226.343 35.112 226.46 35.1311 226.584 35.1311C226.677 35.1311 226.753 35.1263 226.812 35.1168C226.872 35.1049 226.919 35.0954 226.955 35.0883L227.126 35.8445C227.069 35.8659 226.99 35.8873 226.887 35.9087C226.785 35.9325 226.655 35.9444 226.498 35.9444C226.261 35.9444 226.028 35.8933 225.799 35.791C225.573 35.6887 225.385 35.533 225.236 35.3237C225.088 35.1144 225.014 34.8504 225.014 34.5318V29.081ZM230.303 35.9872C229.846 35.9872 229.443 35.8719 229.094 35.6412C228.744 35.4081 228.471 35.0799 228.273 34.6566C228.076 34.2309 227.977 33.728 227.977 33.1477C227.977 32.5722 228.076 32.0728 228.273 31.6494C228.471 31.2261 228.745 30.8991 229.097 30.6685C229.449 30.4378 229.856 30.3224 230.317 30.3224C230.674 30.3224 230.956 30.3819 231.163 30.5008C231.372 30.6173 231.531 30.7505 231.641 30.9003C231.752 31.0478 231.839 31.1691 231.901 31.2642H231.972V30.3938H232.814V35.873H232.001V35.0312H231.901C231.839 35.1311 231.751 35.2571 231.637 35.4093C231.523 35.5591 231.36 35.6935 231.148 35.8124C230.937 35.9289 230.655 35.9872 230.303 35.9872ZM230.417 35.2309C230.755 35.2309 231.04 35.143 231.273 34.967C231.506 34.7886 231.683 34.5425 231.805 34.2286C231.926 33.9123 231.987 33.5472 231.987 33.1334C231.987 32.7244 231.927 32.3665 231.808 32.0597C231.689 31.7505 231.513 31.5103 231.28 31.3391C231.047 31.1655 230.759 31.0787 230.417 31.0787C230.06 31.0787 229.763 31.1702 229.525 31.3534C229.29 31.5341 229.113 31.7802 228.994 32.0918C228.877 32.4009 228.819 32.7482 228.819 33.1334C228.819 33.5234 228.878 33.8778 228.997 34.1964C229.119 34.5127 229.297 34.7648 229.532 34.9527C229.77 35.1382 230.065 35.2309 230.417 35.2309ZM236.856 30.3938V31.1072H234.016V30.3938H236.856ZM234.844 29.081H235.686V34.3035C235.686 34.5413 235.72 34.7196 235.789 34.8386C235.861 34.9551 235.951 35.0336 236.06 35.074C236.172 35.112 236.29 35.1311 236.414 35.1311C236.506 35.1311 236.582 35.1263 236.642 35.1168C236.701 35.1049 236.749 35.0954 236.785 35.0883L236.956 35.8445C236.899 35.8659 236.819 35.8873 236.717 35.9087C236.614 35.9325 236.485 35.9444 236.328 35.9444C236.09 35.9444 235.857 35.8933 235.629 35.791C235.403 35.6887 235.215 35.533 235.065 35.3237C234.918 35.1144 234.844 34.8504 234.844 34.5318V29.081ZM241.575 33.6328V30.3938H242.417V35.873H241.575V34.9456H241.518C241.39 35.2238 241.19 35.4604 240.919 35.6554C240.648 35.8481 240.305 35.9444 239.892 35.9444C239.549 35.9444 239.245 35.8695 238.978 35.7197C238.712 35.5675 238.503 35.3392 238.351 35.0347C238.198 34.728 238.122 34.3415 238.122 33.8754V30.3938H238.964V33.8183C238.964 34.2179 239.076 34.5365 239.299 34.7743C239.525 35.0122 239.813 35.1311 240.163 35.1311C240.372 35.1311 240.585 35.0776 240.801 34.9705C241.02 34.8635 241.203 34.6994 241.351 34.4783C241.5 34.2571 241.575 33.9753 241.575 33.6328ZM247.84 31.6209L247.084 31.8349C247.036 31.7089 246.966 31.5864 246.874 31.4675C246.783 31.3462 246.66 31.2464 246.503 31.1679C246.346 31.0894 246.145 31.0502 245.9 31.0502C245.564 31.0502 245.285 31.1274 245.061 31.282C244.84 31.4342 244.73 31.628 244.73 31.8635C244.73 32.0728 244.806 32.238 244.958 32.3593C245.11 32.4806 245.348 32.5817 245.671 32.6625L246.485 32.8623C246.975 32.9812 247.34 33.1631 247.58 33.4081C247.82 33.6507 247.94 33.9634 247.94 34.3463C247.94 34.6602 247.85 34.9408 247.669 35.1881C247.491 35.4355 247.241 35.6305 246.92 35.7732C246.599 35.9159 246.225 35.9872 245.8 35.9872C245.241 35.9872 244.778 35.8659 244.412 35.6233C244.046 35.3808 243.814 35.0264 243.717 34.5603L244.516 34.3605C244.592 34.6554 244.736 34.8766 244.947 35.024C245.161 35.1715 245.441 35.2452 245.786 35.2452C246.178 35.2452 246.489 35.162 246.72 34.9955C246.953 34.8267 247.07 34.6245 247.07 34.3891C247.07 34.1988 247.003 34.0395 246.87 33.9111C246.737 33.7803 246.532 33.6828 246.256 33.6186L245.343 33.4045C244.841 33.2856 244.473 33.1013 244.237 32.8516C244.004 32.5995 243.888 32.2844 243.888 31.9063C243.888 31.5971 243.975 31.3236 244.148 31.0858C244.324 30.848 244.563 30.6613 244.865 30.5258C245.17 30.3902 245.514 30.3224 245.9 30.3224C246.442 30.3224 246.868 30.4413 247.177 30.6792C247.488 30.917 247.709 31.2309 247.84 31.6209Z" fill="#1C1C1C" fill-opacity="0.4"/>
<path d="M262.66 26.213V38.2274H261.946V26.213H262.66Z" fill="#1C1C1C" fill-opacity="0.2"/>
<path d="M286.905 32.3733C286.905 33.5621 285.941 34.5258 284.752 34.5258C283.563 34.5258 282.6 33.5621 282.6 32.3733C282.6 31.1844 283.563 30.2207 284.752 30.2207C285.941 30.2207 286.905 31.1844 286.905 32.3733Z" fill="#1C1C1C"/>
<path d="M290.908 30.2837V29.611H295.605V30.2837H293.635V35.873H292.877V30.2837H290.908ZM297.399 33.0478V35.873H296.677V29.611H297.399V31.9104H297.46C297.57 31.6678 297.735 31.4752 297.955 31.3325C298.177 31.1877 298.473 31.1154 298.842 31.1154C299.162 31.1154 299.442 31.1796 299.683 31.308C299.923 31.4344 300.11 31.6291 300.242 31.892C300.377 32.1529 300.444 32.4852 300.444 32.8888V35.873H299.722V32.9377C299.722 32.5647 299.626 32.2763 299.432 32.0724C299.24 31.8665 298.974 31.7636 298.634 31.7636C298.397 31.7636 298.185 31.8135 297.998 31.9134C297.812 32.0133 297.666 32.1591 297.558 32.3507C297.452 32.5423 297.399 32.7747 297.399 33.0478ZM301.764 35.873V31.1765H302.486V35.873H301.764ZM302.131 30.3938C301.99 30.3938 301.869 30.3459 301.767 30.2501C301.667 30.1543 301.617 30.0391 301.617 29.9046C301.617 29.77 301.667 29.6549 301.767 29.5591C301.869 29.4632 301.99 29.4153 302.131 29.4153C302.272 29.4153 302.392 29.4632 302.492 29.5591C302.594 29.6549 302.645 29.77 302.645 29.9046C302.645 30.0391 302.594 30.1543 302.492 30.2501C302.392 30.3459 302.272 30.3938 302.131 30.3938ZM307.134 32.2284L306.486 32.4118C306.445 32.3038 306.385 32.1988 306.305 32.0969C306.228 31.9929 306.122 31.9073 305.987 31.84C305.853 31.7728 305.681 31.7391 305.471 31.7391C305.183 31.7391 304.944 31.8054 304.752 31.9379C304.563 32.0683 304.468 32.2345 304.468 32.4363C304.468 32.6157 304.533 32.7573 304.664 32.8613C304.794 32.9652 304.998 33.0519 305.275 33.1212L305.972 33.2924C306.392 33.3943 306.705 33.5503 306.911 33.7602C307.117 33.9681 307.22 34.2362 307.22 34.5644C307.22 34.8335 307.142 35.074 306.987 35.286C306.834 35.498 306.62 35.6651 306.345 35.7874C306.07 35.9097 305.75 35.9709 305.385 35.9709C304.906 35.9709 304.51 35.8669 304.196 35.659C303.882 35.4511 303.683 35.1474 303.599 34.7478L304.284 34.5766C304.35 34.8294 304.473 35.019 304.654 35.1453C304.838 35.2717 305.077 35.3349 305.373 35.3349C305.709 35.3349 305.976 35.2636 306.174 35.1209C306.374 34.9761 306.474 34.8029 306.474 34.6011C306.474 34.438 306.417 34.3014 306.302 34.1914C306.188 34.0792 306.013 33.9957 305.776 33.9406L304.994 33.7572C304.564 33.6552 304.248 33.4973 304.046 33.2832C303.846 33.0672 303.746 32.7971 303.746 32.473C303.746 32.208 303.821 31.9736 303.969 31.7697C304.12 31.5659 304.325 31.4059 304.584 31.2897C304.845 31.1735 305.141 31.1154 305.471 31.1154C305.935 31.1154 306.3 31.2173 306.565 31.4211C306.832 31.625 307.022 31.8941 307.134 32.2284ZM311.192 37.6342C311.07 37.6342 310.961 37.624 310.865 37.6037C310.769 37.5853 310.703 37.567 310.666 37.5486L310.85 36.9126C311.025 36.9575 311.18 36.9738 311.315 36.9616C311.449 36.9493 311.568 36.8892 311.672 36.7812C311.778 36.6752 311.875 36.5029 311.963 36.2644L312.097 35.8975L310.361 31.1765H311.143L312.44 34.9191H312.489L313.785 31.1765H314.568L312.574 36.558C312.485 36.8005 312.374 37.0013 312.241 37.1603C312.109 37.3213 311.955 37.4406 311.779 37.518C311.606 37.5955 311.41 37.6342 311.192 37.6342ZM317.321 35.9709C316.869 35.9709 316.478 35.871 316.15 35.6712C315.824 35.4694 315.572 35.1881 315.395 34.8273C315.22 34.4645 315.132 34.0425 315.132 33.5615C315.132 33.0804 315.22 32.6564 315.395 32.2895C315.572 31.9206 315.819 31.6331 316.135 31.4273C316.453 31.2193 316.824 31.1154 317.248 31.1154C317.493 31.1154 317.734 31.1562 317.973 31.2377C318.211 31.3192 318.428 31.4517 318.624 31.6352C318.82 31.8166 318.975 32.0571 319.092 32.3568C319.208 32.6564 319.266 33.0254 319.266 33.4636V33.7694H315.646V33.1456H318.532C318.532 32.8807 318.479 32.6442 318.373 32.4363C318.269 32.2284 318.12 32.0643 317.927 31.944C317.735 31.8237 317.509 31.7636 317.248 31.7636C316.961 31.7636 316.712 31.8349 316.502 31.9776C316.294 32.1183 316.134 32.3017 316.022 32.528C315.91 32.7543 315.854 32.9968 315.854 33.2557V33.6716C315.854 34.0262 315.915 34.3269 316.037 34.5736C316.161 34.8182 316.334 35.0047 316.554 35.1331C316.774 35.2595 317.03 35.3227 317.321 35.3227C317.511 35.3227 317.682 35.2962 317.835 35.2432C317.99 35.1881 318.123 35.1066 318.236 34.9986C318.348 34.8885 318.434 34.7519 318.495 34.5888L319.193 34.7845C319.119 35.021 318.996 35.2289 318.823 35.4083C318.649 35.5856 318.435 35.7242 318.181 35.8241C317.926 35.922 317.639 35.9709 317.321 35.9709ZM322.137 35.9709C321.746 35.9709 321.4 35.872 321.101 35.6743C320.801 35.4745 320.566 35.1932 320.397 34.8304C320.228 34.4655 320.144 34.0344 320.144 33.537C320.144 33.0437 320.228 32.6157 320.397 32.2528C320.566 31.89 320.802 31.6097 321.104 31.412C321.405 31.2142 321.754 31.1154 322.149 31.1154C322.455 31.1154 322.697 31.1663 322.874 31.2683C323.053 31.3681 323.19 31.4823 323.284 31.6107C323.379 31.7371 323.454 31.8411 323.507 31.9226H323.568V31.1765H324.29V35.873H323.593V35.1514H323.507C323.454 35.2371 323.378 35.3451 323.281 35.4756C323.183 35.604 323.043 35.7191 322.862 35.8211C322.68 35.9209 322.439 35.9709 322.137 35.9709ZM322.235 35.3227C322.524 35.3227 322.769 35.2473 322.969 35.0964C323.169 34.9435 323.32 34.7326 323.424 34.4635C323.528 34.1924 323.58 33.8795 323.58 33.5248C323.58 33.1742 323.529 32.8674 323.427 32.6044C323.325 32.3395 323.175 32.1336 322.975 31.9868C322.775 31.838 322.528 31.7636 322.235 31.7636C321.929 31.7636 321.674 31.8421 321.471 31.999C321.269 32.154 321.117 32.3649 321.015 32.632C320.915 32.897 320.865 33.1946 320.865 33.5248C320.865 33.8591 320.916 34.1628 321.018 34.436C321.122 34.7071 321.275 34.9231 321.477 35.0842C321.68 35.2432 321.933 35.3227 322.235 35.3227ZM325.711 35.873V31.1765H326.409V31.8859H326.458C326.543 31.6535 326.698 31.465 326.922 31.3202C327.146 31.1755 327.399 31.1032 327.681 31.1032C327.734 31.1032 327.8 31.1042 327.879 31.1062C327.959 31.1082 328.019 31.1113 328.06 31.1154V31.8492C328.035 31.8431 327.979 31.8339 327.892 31.8217C327.806 31.8074 327.715 31.8003 327.619 31.8003C327.391 31.8003 327.187 31.8482 327.008 31.944C326.831 32.0378 326.69 32.1682 326.586 32.3354C326.484 32.5005 326.433 32.689 326.433 32.901V35.873H325.711Z" fill="#1C1C1C"/>
<path d="M356.475 32.3733C356.475 33.5621 355.511 34.5258 354.322 34.5258C353.134 34.5258 352.17 33.5621 352.17 32.3733C352.17 31.1844 353.134 30.2207 354.322 30.2207C355.511 30.2207 356.475 31.1844 356.475 32.3733Z" fill="#A8C5DA"/>
<path d="M360.821 35.873V29.611H361.579V35.2004H364.49V35.873H360.821ZM367.34 35.9709C366.948 35.9709 366.603 35.872 366.303 35.6743C366.003 35.4745 365.769 35.1932 365.6 34.8304C365.431 34.4655 365.346 34.0344 365.346 33.537C365.346 33.0437 365.431 32.6157 365.6 32.2528C365.769 31.89 366.004 31.6097 366.306 31.412C366.608 31.2142 366.956 31.1154 367.352 31.1154C367.658 31.1154 367.899 31.1663 368.077 31.2683C368.256 31.3681 368.392 31.4823 368.486 31.6107C368.582 31.7371 368.656 31.8411 368.709 31.9226H368.771V31.1765H369.492V35.873H368.795V35.1514H368.709C368.656 35.2371 368.581 35.3451 368.483 35.4756C368.385 35.604 368.246 35.7191 368.064 35.8211C367.883 35.9209 367.641 35.9709 367.34 35.9709ZM367.437 35.3227C367.727 35.3227 367.972 35.2473 368.171 35.0964C368.371 34.9435 368.523 34.7326 368.627 34.4635C368.731 34.1924 368.783 33.8795 368.783 33.5248C368.783 33.1742 368.732 32.8674 368.63 32.6044C368.528 32.3395 368.377 32.1336 368.177 31.9868C367.978 31.838 367.731 31.7636 367.437 31.7636C367.132 31.7636 366.877 31.8421 366.673 31.999C366.471 32.154 366.319 32.3649 366.217 32.632C366.118 32.897 366.068 33.1946 366.068 33.5248C366.068 33.8591 366.119 34.1628 366.221 34.436C366.325 34.7071 366.477 34.9231 366.679 35.0842C366.883 35.2432 367.136 35.3227 367.437 35.3227ZM374.241 32.2284L373.592 32.4118C373.552 32.3038 373.492 32.1988 373.412 32.0969C373.335 31.9929 373.229 31.9073 373.094 31.84C372.96 31.7728 372.787 31.7391 372.577 31.7391C372.29 31.7391 372.05 31.8054 371.859 31.9379C371.669 32.0683 371.574 32.2345 371.574 32.4363C371.574 32.6157 371.64 32.7573 371.77 32.8613C371.901 32.9652 372.104 33.0519 372.382 33.1212L373.079 33.2924C373.499 33.3943 373.812 33.5503 374.018 33.7602C374.223 33.9681 374.326 34.2362 374.326 34.5644C374.326 34.8335 374.249 35.074 374.094 35.286C373.941 35.498 373.727 35.6651 373.452 35.7874C373.177 35.9097 372.857 35.9709 372.492 35.9709C372.013 35.9709 371.616 35.8669 371.302 35.659C370.988 35.4511 370.79 35.1474 370.706 34.7478L371.391 34.5766C371.456 34.8294 371.58 35.019 371.761 35.1453C371.944 35.2717 372.184 35.3349 372.48 35.3349C372.816 35.3349 373.083 35.2636 373.281 35.1209C373.48 34.9761 373.58 34.8029 373.58 34.6011C373.58 34.438 373.523 34.3014 373.409 34.1914C373.295 34.0792 373.12 33.9957 372.883 33.9406L372.1 33.7572C371.67 33.6552 371.354 33.4973 371.153 33.2832C370.953 33.0672 370.853 32.7971 370.853 32.473C370.853 32.208 370.927 31.9736 371.076 31.7697C371.227 31.5659 371.432 31.4059 371.691 31.2897C371.952 31.1735 372.247 31.1154 372.577 31.1154C373.042 31.1154 373.407 31.2173 373.672 31.4211C373.939 31.625 374.129 31.8941 374.241 32.2284ZM377.455 31.1765V31.7881H375.021V31.1765H377.455ZM375.731 30.0513H376.452V34.5277C376.452 34.7315 376.482 34.8844 376.541 34.9863C376.602 35.0862 376.679 35.1535 376.773 35.1881C376.869 35.2208 376.97 35.2371 377.076 35.2371C377.155 35.2371 377.221 35.233 377.272 35.2248C377.323 35.2146 377.363 35.2065 377.394 35.2004L377.541 35.8486C377.492 35.8669 377.423 35.8853 377.336 35.9036C377.248 35.924 377.137 35.9342 377.003 35.9342C376.799 35.9342 376.599 35.8904 376.403 35.8027C376.21 35.7151 376.049 35.5816 375.92 35.4022C375.794 35.2228 375.731 34.9965 375.731 34.7234V30.0513ZM381.427 37.6342C381.305 37.6342 381.196 37.624 381.1 37.6037C381.004 37.5853 380.938 37.567 380.901 37.5486L381.084 36.9126C381.26 36.9575 381.415 36.9738 381.549 36.9616C381.684 36.9493 381.803 36.8892 381.907 36.7812C382.013 36.6752 382.11 36.5029 382.197 36.2644L382.332 35.8975L380.595 31.1765H381.378L382.674 34.9191H382.723L384.02 31.1765H384.803L382.809 36.558C382.719 36.8005 382.608 37.0013 382.476 37.1603C382.343 37.3213 382.189 37.4406 382.014 37.518C381.841 37.5955 381.645 37.6342 381.427 37.6342ZM387.556 35.9709C387.103 35.9709 386.713 35.871 386.385 35.6712C386.059 35.4694 385.807 35.1881 385.63 34.8273C385.454 34.4645 385.367 34.0425 385.367 33.5615C385.367 33.0804 385.454 32.6564 385.63 32.2895C385.807 31.9206 386.054 31.6331 386.37 31.4273C386.688 31.2193 387.059 31.1154 387.483 31.1154C387.727 31.1154 387.969 31.1562 388.207 31.2377C388.446 31.3192 388.663 31.4517 388.858 31.6352C389.054 31.8166 389.21 32.0571 389.326 32.3568C389.442 32.6564 389.501 33.0254 389.501 33.4636V33.7694H385.88V33.1456H388.767C388.767 32.8807 388.714 32.6442 388.608 32.4363C388.504 32.2284 388.355 32.0643 388.161 31.944C387.97 31.8237 387.743 31.7636 387.483 31.7636C387.195 31.7636 386.946 31.8349 386.736 31.9776C386.529 32.1183 386.369 32.3017 386.256 32.528C386.144 32.7543 386.088 32.9968 386.088 33.2557V33.6716C386.088 34.0262 386.149 34.3269 386.272 34.5736C386.396 34.8182 386.568 35.0047 386.788 35.1331C387.009 35.2595 387.264 35.3227 387.556 35.3227C387.745 35.3227 387.917 35.2962 388.07 35.2432C388.225 35.1881 388.358 35.1066 388.47 34.9986C388.582 34.8885 388.669 34.7519 388.73 34.5888L389.427 34.7845C389.354 35.021 389.23 35.2289 389.057 35.4083C388.884 35.5856 388.67 35.7242 388.415 35.8241C388.16 35.922 387.874 35.9709 387.556 35.9709ZM392.372 35.9709C391.98 35.9709 391.635 35.872 391.335 35.6743C391.035 35.4745 390.801 35.1932 390.632 34.8304C390.463 34.4655 390.378 34.0344 390.378 33.537C390.378 33.0437 390.463 32.6157 390.632 32.2528C390.801 31.89 391.036 31.6097 391.338 31.412C391.64 31.2142 391.988 31.1154 392.384 31.1154C392.69 31.1154 392.931 31.1663 393.109 31.2683C393.288 31.3681 393.425 31.4823 393.518 31.6107C393.614 31.7371 393.688 31.8411 393.741 31.9226H393.803V31.1765H394.524V35.873H393.827V35.1514H393.741C393.688 35.2371 393.613 35.3451 393.515 35.4756C393.417 35.604 393.278 35.7191 393.096 35.8211C392.915 35.9209 392.673 35.9709 392.372 35.9709ZM392.47 35.3227C392.759 35.3227 393.004 35.2473 393.203 35.0964C393.403 34.9435 393.555 34.7326 393.659 34.4635C393.763 34.1924 393.815 33.8795 393.815 33.5248C393.815 33.1742 393.764 32.8674 393.662 32.6044C393.56 32.3395 393.409 32.1336 393.209 31.9868C393.01 31.838 392.763 31.7636 392.47 31.7636C392.164 31.7636 391.909 31.8421 391.705 31.999C391.503 32.154 391.351 32.3649 391.25 32.632C391.15 32.897 391.1 33.1946 391.1 33.5248C391.1 33.8591 391.151 34.1628 391.253 34.436C391.357 34.7071 391.509 34.9231 391.711 35.0842C391.915 35.2432 392.168 35.3227 392.47 35.3227ZM395.946 35.873V31.1765H396.643V31.8859H396.692C396.778 31.6535 396.933 31.465 397.157 31.3202C397.381 31.1755 397.634 31.1032 397.915 31.1032C397.968 31.1032 398.034 31.1042 398.114 31.1062C398.193 31.1082 398.254 31.1113 398.294 31.1154V31.8492C398.27 31.8431 398.214 31.8339 398.126 31.8217C398.04 31.8074 397.95 31.8003 397.854 31.8003C397.626 31.8003 397.422 31.8482 397.242 31.944C397.065 32.0378 396.924 32.1682 396.821 32.3354C396.719 32.5005 396.668 32.689 396.668 32.901V35.873H395.946Z" fill="#1C1C1C"/>
<path d="M29.3662 60.2231H30.1367C30.1591 60.4351 30.2315 60.6144 30.3538 60.7612C30.4781 60.9059 30.6391 61.016 30.8369 61.0914C31.0346 61.1648 31.2537 61.2015 31.4943 61.2015C31.7552 61.2015 31.9896 61.1577 32.1975 61.07C32.4054 60.9824 32.5705 60.8519 32.6928 60.6787C32.8152 60.5034 32.8763 60.2863 32.8763 60.0274C32.8763 59.8011 32.8233 59.5912 32.7173 59.3975C32.6113 59.2018 32.4411 59.0438 32.2067 58.9236C31.9723 58.8033 31.6614 58.7432 31.2741 58.7432H30.7727V58.1317L32.3382 56.2482V56.1992H29.6719V55.5266H33.3778V56.0769L31.7022 58.1072V58.1561C31.9712 58.1683 32.222 58.2234 32.4544 58.3212C32.6888 58.4191 32.8926 58.5516 33.0659 58.7187C33.2412 58.8859 33.3778 59.0805 33.4756 59.3027C33.5734 59.5249 33.6224 59.7665 33.6224 60.0274C33.6224 60.3841 33.5306 60.7021 33.3472 60.9814C33.1658 61.2586 32.914 61.4767 32.5919 61.6357C32.2719 61.7947 31.9019 61.8742 31.482 61.8742C31.111 61.8742 30.7696 61.809 30.4577 61.6785C30.1458 61.548 29.8921 61.3595 29.6964 61.1128C29.5007 60.8662 29.3906 60.5696 29.3662 60.2231ZM36.9131 61.8742C36.4525 61.8742 36.0601 61.7488 35.736 61.4981C35.4118 61.2453 35.1642 60.8794 34.9929 60.4004C34.8217 59.9193 34.7361 59.3384 34.7361 58.6576C34.7361 57.9808 34.8217 57.4029 34.9929 56.9239C35.1662 56.4428 35.4149 56.0759 35.739 55.8231C36.0652 55.5683 36.4565 55.4409 36.9131 55.4409C37.3697 55.4409 37.7601 55.5683 38.0842 55.8231C38.4104 56.0759 38.659 56.4428 38.8303 56.9239C39.0035 57.4029 39.0902 57.9808 39.0902 58.6576C39.0902 59.3384 39.0046 59.9193 38.8333 60.4004C38.6621 60.8794 38.4144 61.2453 38.0903 61.4981C37.7662 61.7488 37.3738 61.8742 36.9131 61.8742ZM36.9131 61.2015C37.3697 61.2015 37.7244 60.9814 37.9772 60.5411C38.23 60.1008 38.3563 59.4729 38.3563 58.6576C38.3563 58.1153 38.2982 57.6536 38.1821 57.2725C38.0679 56.8913 37.9028 56.6008 37.6867 56.401C37.4727 56.2013 37.2148 56.1014 36.9131 56.1014C36.4606 56.1014 36.1069 56.3246 35.8521 56.771C35.5973 57.2154 35.4699 57.8442 35.4699 58.6576C35.4699 59.1998 35.527 59.6605 35.6412 60.0396C35.7553 60.4188 35.9194 60.7072 36.1334 60.9049C36.3495 61.1026 36.6094 61.2015 36.9131 61.2015ZM40.3621 61.7886V55.5266H41.1204V58.6331H41.1938L44.0068 55.5266H44.9975L42.3679 58.3518L44.9975 61.7886H44.0802L41.9032 58.8777L41.1204 59.7583V61.7886H40.3621Z" fill="#1C1C1C" fill-opacity="0.4"/>
<path d="M29.6574 105.558V105.007L31.7243 102.745C31.9669 102.48 32.1667 102.249 32.3236 102.054C32.4806 101.856 32.5968 101.67 32.6722 101.497C32.7497 101.322 32.7884 101.138 32.7884 100.947C32.7884 100.727 32.7354 100.536 32.6294 100.375C32.5254 100.214 32.3828 100.09 32.2013 100.002C32.0199 99.9143 31.8161 99.8704 31.5898 99.8704C31.3493 99.8704 31.1393 99.9204 30.9599 100.02C30.7826 100.118 30.645 100.256 30.5472 100.433C30.4514 100.61 30.4035 100.818 30.4035 101.057H29.6819C29.6819 100.69 29.7664 100.368 29.9356 100.091C30.1048 99.8134 30.3352 99.5973 30.6267 99.4424C30.9202 99.2874 31.2494 99.21 31.6143 99.21C31.9812 99.21 32.3063 99.2874 32.5897 99.4424C32.873 99.5973 33.0952 99.8062 33.2562 100.069C33.4173 100.332 33.4978 100.625 33.4978 100.947C33.4978 101.177 33.456 101.402 33.3724 101.622C33.2909 101.841 33.1482 102.084 32.9443 102.353C32.7425 102.62 32.4623 102.946 32.1035 103.332L30.697 104.836V104.885H33.6078V105.558H29.6574ZM36.9131 105.643C36.4525 105.643 36.0601 105.518 35.7359 105.267C35.4118 105.014 35.1642 104.648 34.9929 104.169C34.8217 103.688 34.7361 103.107 34.7361 102.427C34.7361 101.75 34.8217 101.172 34.9929 100.693C35.1662 100.212 35.4149 99.845 35.739 99.5922C36.0652 99.3374 36.4565 99.21 36.9131 99.21C37.3697 99.21 37.7601 99.3374 38.0842 99.5922C38.4104 99.845 38.659 100.212 38.8303 100.693C39.0035 101.172 39.0902 101.75 39.0902 102.427C39.0902 103.107 39.0046 103.688 38.8333 104.169C38.6621 104.648 38.4144 105.014 38.0903 105.267C37.7662 105.518 37.3738 105.643 36.9131 105.643ZM36.9131 104.971C37.3697 104.971 37.7244 104.75 37.9772 104.31C38.23 103.87 38.3563 103.242 38.3563 102.427C38.3563 101.884 38.2982 101.423 38.182 101.042C38.0679 100.66 37.9028 100.37 37.6867 100.17C37.4727 99.9703 37.2148 99.8704 36.9131 99.8704C36.4606 99.8704 36.1069 100.094 35.8521 100.54C35.5973 100.984 35.4699 101.613 35.4699 102.427C35.4699 102.969 35.527 103.43 35.6412 103.809C35.7553 104.188 35.9194 104.476 36.1334 104.674C36.3495 104.872 36.6094 104.971 36.9131 104.971ZM40.3621 105.558V99.2956H41.1204V102.402H41.1938L44.0068 99.2956H44.9975L42.3679 102.121L44.9975 105.558H44.0802L41.9032 102.647L41.1204 103.527V105.558H40.3621Z" fill="#1C1C1C" fill-opacity="0.4"/>
<path d="M33.0758 143.064V149.326H32.3175V144.165H32.2686C32.2401 144.222 32.1667 144.287 32.0485 144.361C31.9302 144.432 31.7773 144.495 31.5898 144.55C31.4023 144.603 31.1882 144.63 30.9477 144.63V143.994C31.1903 143.994 31.4002 143.95 31.5776 143.862C31.7549 143.775 31.9027 143.672 32.0209 143.553C32.1412 143.435 32.2319 143.328 32.2931 143.232C32.3563 143.137 32.3929 143.08 32.4031 143.064H33.0758ZM36.9131 149.412C36.4525 149.412 36.0601 149.286 35.7359 149.036C35.4118 148.783 35.1642 148.417 34.9929 147.938C34.8217 147.457 34.7361 146.876 34.7361 146.195C34.7361 145.518 34.8217 144.941 34.9929 144.461C35.1662 143.98 35.4149 143.614 35.739 143.361C36.0652 143.106 36.4565 142.979 36.9131 142.979C37.3697 142.979 37.7601 143.106 38.0842 143.361C38.4104 143.614 38.659 143.98 38.8303 144.461C39.0035 144.941 39.0902 145.518 39.0902 146.195C39.0902 146.876 39.0046 147.457 38.8333 147.938C38.6621 148.417 38.4144 148.783 38.0903 149.036C37.7662 149.286 37.3738 149.412 36.9131 149.412ZM36.9131 148.739C37.3697 148.739 37.7244 148.519 37.9772 148.079C38.23 147.638 38.3563 147.011 38.3563 146.195C38.3563 145.653 38.2982 145.191 38.1821 144.81C38.0679 144.429 37.9028 144.138 37.6867 143.939C37.4727 143.739 37.2148 143.639 36.9131 143.639C36.4606 143.639 36.1069 143.862 35.8521 144.309C35.5973 144.753 35.4699 145.382 35.4699 146.195C35.4699 146.737 35.527 147.198 35.6412 147.577C35.7553 147.956 35.9194 148.245 36.1334 148.443C36.3495 148.64 36.6094 148.739 36.9131 148.739ZM40.3621 149.326V143.064H41.1204V146.171H41.1938L44.0068 143.064H44.9975L42.3679 145.889L44.9975 149.326H44.0802L41.9032 146.415L41.1204 147.296V149.326H40.3621Z" fill="#1C1C1C" fill-opacity="0.4"/>
<path d="M42.53 193.181C42.0693 193.181 41.6769 193.055 41.3528 192.805C41.0287 192.552 40.781 192.186 40.6098 191.707C40.4386 191.226 40.353 190.645 40.353 189.964C40.353 189.287 40.4386 188.71 40.6098 188.231C40.7831 187.749 41.0318 187.383 41.3559 187.13C41.682 186.875 42.0734 186.748 42.53 186.748C42.9866 186.748 43.377 186.875 43.7011 187.13C44.0272 187.383 44.2759 187.749 44.4471 188.231C44.6204 188.71 44.707 189.287 44.707 189.964C44.707 190.645 44.6214 191.226 44.4502 191.707C44.279 192.186 44.0313 192.552 43.7072 192.805C43.3831 193.055 42.9907 193.181 42.53 193.181ZM42.53 192.508C42.9866 192.508 43.3413 192.288 43.594 191.848C43.8468 191.407 43.9732 190.78 43.9732 189.964C43.9732 189.422 43.9151 188.96 43.7989 188.579C43.6848 188.198 43.5196 187.907 43.3036 187.708C43.0895 187.508 42.8317 187.408 42.53 187.408C42.0775 187.408 41.7238 187.631 41.469 188.078C41.2142 188.522 41.0868 189.151 41.0868 189.964C41.0868 190.506 41.1439 190.967 41.258 191.346C41.3722 191.725 41.5363 192.014 41.7503 192.212C41.9664 192.409 42.2263 192.508 42.53 192.508Z" fill="#1C1C1C" fill-opacity="0.4"/>
<path d="M81.761 217.536H82.5193V222.012C82.5193 222.412 82.4459 222.751 82.2992 223.03C82.1524 223.31 81.9455 223.522 81.6785 223.666C81.4115 223.811 81.0965 223.883 80.7337 223.883C80.3912 223.883 80.0865 223.821 79.8194 223.697C79.5524 223.571 79.3425 223.391 79.1896 223.159C79.0367 222.926 78.9603 222.65 78.9603 222.33H79.7063C79.7063 222.508 79.7501 222.662 79.8378 222.795C79.9275 222.925 80.0498 223.027 80.2047 223.101C80.3596 223.174 80.536 223.211 80.7337 223.211C80.9518 223.211 81.1373 223.165 81.2902 223.073C81.443 222.981 81.5592 222.847 81.6387 222.67C81.7203 222.49 81.761 222.271 81.761 222.012V217.536ZM85.7146 223.896C85.3232 223.896 84.9777 223.797 84.678 223.599C84.3784 223.399 84.144 223.118 83.9748 222.755C83.8056 222.39 83.721 221.959 83.721 221.462C83.721 220.969 83.8056 220.54 83.9748 220.178C84.144 219.815 84.3794 219.535 84.6811 219.337C84.9828 219.139 85.3313 219.04 85.7268 219.04C86.0325 219.04 86.2741 219.091 86.4514 219.193C86.6308 219.293 86.7674 219.407 86.8612 219.536C86.957 219.662 87.0314 219.766 87.0844 219.847H87.1455V219.101H87.8671V223.798H87.17V223.076H87.0844C87.0314 223.162 86.9559 223.27 86.8581 223.4C86.7603 223.529 86.6206 223.644 86.4392 223.746C86.2578 223.846 86.0162 223.896 85.7146 223.896ZM85.8124 223.247C86.1019 223.247 86.3465 223.172 86.5462 223.021C86.746 222.868 86.8979 222.657 87.0018 222.388C87.1058 222.117 87.1578 221.804 87.1578 221.45C87.1578 221.099 87.1068 220.792 87.0049 220.529C86.9029 220.264 86.7521 220.058 86.5523 219.912C86.3526 219.763 86.1059 219.688 85.8124 219.688C85.5066 219.688 85.2518 219.767 85.048 219.924C84.8462 220.079 84.6943 220.29 84.5924 220.557C84.4925 220.822 84.4426 221.119 84.4426 221.45C84.4426 221.784 84.4935 222.088 84.5955 222.361C84.6994 222.632 84.8523 222.848 85.0541 223.009C85.2579 223.168 85.5107 223.247 85.8124 223.247ZM90.0105 220.973V223.798H89.2889V219.101H89.9861V219.835H90.0472C90.1573 219.597 90.3244 219.405 90.5487 219.26C90.7729 219.114 91.0623 219.04 91.417 219.04C91.735 219.04 92.0133 219.105 92.2518 219.236C92.4902 219.364 92.6757 219.56 92.8082 219.823C92.9407 220.084 93.007 220.414 93.007 220.814V223.798H92.2854V220.863C92.2854 220.494 92.1896 220.206 91.998 220C91.8064 219.792 91.5434 219.688 91.2091 219.688C90.9788 219.688 90.7729 219.738 90.5915 219.838C90.4121 219.938 90.2704 220.084 90.1665 220.275C90.0625 220.467 90.0105 220.699 90.0105 220.973Z" fill="#1C1C1C" fill-opacity="0.4"/>
<path d="M138.229 223.798V217.536H141.984V218.209H138.987V220.324H141.702V220.997H138.987V223.798H138.229ZM144.809 223.896C144.356 223.896 143.966 223.796 143.638 223.596C143.312 223.394 143.06 223.113 142.883 222.752C142.707 222.389 142.62 221.967 142.62 221.486C142.62 221.005 142.707 220.581 142.883 220.214C143.06 219.845 143.306 219.558 143.622 219.352C143.94 219.144 144.311 219.04 144.735 219.04C144.98 219.04 145.222 219.081 145.46 219.162C145.699 219.244 145.916 219.377 146.111 219.56C146.307 219.741 146.463 219.982 146.579 220.282C146.695 220.581 146.753 220.95 146.753 221.388V221.694H143.133V221.07H146.02C146.02 220.805 145.967 220.569 145.861 220.361C145.757 220.153 145.608 219.989 145.414 219.869C145.223 219.749 144.996 219.688 144.735 219.688C144.448 219.688 144.199 219.76 143.989 219.902C143.781 220.043 143.621 220.227 143.509 220.453C143.397 220.679 143.341 220.922 143.341 221.181V221.596C143.341 221.951 143.402 222.252 143.525 222.498C143.649 222.743 143.821 222.929 144.041 223.058C144.261 223.184 144.517 223.247 144.809 223.247C144.998 223.247 145.17 223.221 145.322 223.168C145.477 223.113 145.611 223.031 145.723 222.923C145.835 222.813 145.922 222.677 145.983 222.514L146.68 222.709C146.607 222.946 146.483 223.154 146.31 223.333C146.137 223.51 145.923 223.649 145.668 223.749C145.413 223.847 145.127 223.896 144.809 223.896ZM147.949 223.798V217.536H148.671V219.847H148.732C148.785 219.766 148.858 219.662 148.952 219.536C149.048 219.407 149.184 219.293 149.362 219.193C149.541 219.091 149.784 219.04 150.089 219.04C150.485 219.04 150.833 219.139 151.135 219.337C151.437 219.535 151.672 219.815 151.841 220.178C152.011 220.54 152.095 220.969 152.095 221.462C152.095 221.959 152.011 222.39 151.841 222.755C151.672 223.118 151.438 223.399 151.138 223.599C150.838 223.797 150.493 223.896 150.102 223.896C149.8 223.896 149.558 223.846 149.377 223.746C149.195 223.644 149.056 223.529 148.958 223.4C148.86 223.27 148.785 223.162 148.732 223.076H148.646V223.798H147.949ZM148.658 221.45C148.658 221.804 148.71 222.117 148.814 222.388C148.918 222.657 149.07 222.868 149.27 223.021C149.47 223.172 149.714 223.247 150.004 223.247C150.305 223.247 150.557 223.168 150.759 223.009C150.963 222.848 151.116 222.632 151.218 222.361C151.322 222.088 151.374 221.784 151.374 221.45C151.374 221.119 151.323 220.822 151.221 220.557C151.121 220.29 150.969 220.079 150.765 219.924C150.563 219.767 150.309 219.688 150.004 219.688C149.71 219.688 149.464 219.763 149.264 219.912C149.064 220.058 148.913 220.264 148.811 220.529C148.709 220.792 148.658 221.099 148.658 221.45Z" fill="#1C1C1C" fill-opacity="0.4"/>
<path d="M196.524 217.536H197.429L199.557 222.734H199.631L201.759 217.536H202.664V223.798H201.955V219.04H201.893L199.937 223.798H199.252L197.295 219.04H197.234V223.798H196.524V217.536ZM205.86 223.896C205.469 223.896 205.123 223.797 204.823 223.599C204.524 223.399 204.289 223.118 204.12 222.755C203.951 222.39 203.866 221.959 203.866 221.462C203.866 220.969 203.951 220.54 204.12 220.178C204.289 219.815 204.525 219.535 204.826 219.337C205.128 219.139 205.477 219.04 205.872 219.04C206.178 219.04 206.419 219.091 206.597 219.193C206.776 219.293 206.913 219.407 207.007 219.536C207.102 219.662 207.177 219.766 207.23 219.847H207.291V219.101H208.012V223.798H207.315V223.076H207.23C207.177 223.162 207.101 223.27 207.003 223.4C206.906 223.529 206.766 223.644 206.585 223.746C206.403 223.846 206.162 223.896 205.86 223.896ZM205.958 223.247C206.247 223.247 206.492 223.172 206.692 223.021C206.891 222.868 207.043 222.657 207.147 222.388C207.251 222.117 207.303 221.804 207.303 221.45C207.303 221.099 207.252 220.792 207.15 220.529C207.048 220.264 206.897 220.058 206.698 219.912C206.498 219.763 206.251 219.688 205.958 219.688C205.652 219.688 205.397 219.767 205.193 219.924C204.992 220.079 204.84 220.29 204.738 220.557C204.638 220.822 204.588 221.119 204.588 221.45C204.588 221.784 204.639 222.088 204.741 222.361C204.845 222.632 204.998 222.848 205.199 223.009C205.403 223.168 205.656 223.247 205.958 223.247ZM209.434 223.798V219.101H210.131V219.811H210.18C210.266 219.578 210.421 219.39 210.645 219.245C210.869 219.1 211.122 219.028 211.403 219.028C211.456 219.028 211.523 219.029 211.602 219.031C211.682 219.033 211.742 219.036 211.783 219.04V219.774C211.758 219.768 211.702 219.759 211.614 219.746C211.529 219.732 211.438 219.725 211.342 219.725C211.114 219.725 210.91 219.773 210.731 219.869C210.553 219.963 210.413 220.093 210.309 220.26C210.207 220.425 210.156 220.614 210.156 220.826V223.798H209.434Z" fill="#1C1C1C" fill-opacity="0.4"/>
<path d="M256.621 223.798H255.826L258.126 217.536H258.908L261.208 223.798H260.413L258.542 218.527H258.493L256.621 223.798ZM256.915 221.352H260.119V222.024H256.915V221.352ZM262.085 225.559V219.101H262.782V219.847H262.868C262.921 219.766 262.994 219.662 263.088 219.536C263.184 219.407 263.321 219.293 263.498 219.193C263.677 219.091 263.92 219.04 264.226 219.04C264.621 219.04 264.97 219.139 265.271 219.337C265.573 219.535 265.809 219.815 265.978 220.178C266.147 220.54 266.231 220.969 266.231 221.462C266.231 221.959 266.147 222.39 265.978 222.755C265.809 223.118 265.574 223.399 265.274 223.599C264.975 223.797 264.629 223.896 264.238 223.896C263.936 223.896 263.695 223.846 263.513 223.746C263.332 223.644 263.192 223.529 263.094 223.4C262.997 223.27 262.921 223.162 262.868 223.076H262.807V225.559H262.085ZM262.795 221.45C262.795 221.804 262.847 222.117 262.951 222.388C263.055 222.657 263.206 222.868 263.406 223.021C263.606 223.172 263.851 223.247 264.14 223.247C264.442 223.247 264.693 223.168 264.895 223.009C265.099 222.848 265.252 222.632 265.354 222.361C265.458 222.088 265.51 221.784 265.51 221.45C265.51 221.119 265.459 220.822 265.357 220.557C265.257 220.29 265.105 220.079 264.901 219.924C264.7 219.767 264.446 219.688 264.14 219.688C263.847 219.688 263.6 219.763 263.4 219.912C263.2 220.058 263.05 220.264 262.948 220.529C262.846 220.792 262.795 221.099 262.795 221.45ZM267.332 223.798V219.101H268.029V219.811H268.078C268.164 219.578 268.319 219.39 268.543 219.245C268.767 219.1 269.02 219.028 269.301 219.028C269.354 219.028 269.421 219.029 269.5 219.031C269.58 219.033 269.64 219.036 269.68 219.04V219.774C269.656 219.768 269.6 219.759 269.512 219.746C269.427 219.732 269.336 219.725 269.24 219.725C269.012 219.725 268.808 219.773 268.629 219.869C268.451 219.963 268.311 220.093 268.207 220.26C268.105 220.425 268.054 220.614 268.054 220.826V223.798H267.332Z" fill="#1C1C1C" fill-opacity="0.4"/>
<path d="M313.466 217.536H314.371L316.499 222.734H316.572L318.701 217.536H319.606V223.798H318.896V219.04H318.835L316.878 223.798H316.193L314.236 219.04H314.175V223.798H313.466V217.536ZM322.802 223.896C322.41 223.896 322.065 223.797 321.765 223.599C321.465 223.399 321.231 223.118 321.062 222.755C320.893 222.39 320.808 221.959 320.808 221.462C320.808 220.969 320.893 220.54 321.062 220.178C321.231 219.815 321.466 219.535 321.768 219.337C322.07 219.139 322.418 219.04 322.814 219.04C323.12 219.04 323.361 219.091 323.539 219.193C323.718 219.293 323.854 219.407 323.948 219.536C324.044 219.662 324.118 219.766 324.171 219.847H324.233V219.101H324.954V223.798H324.257V223.076H324.171C324.118 223.162 324.043 223.27 323.945 223.4C323.847 223.529 323.708 223.644 323.526 223.746C323.345 223.846 323.103 223.896 322.802 223.896ZM322.899 223.247C323.189 223.247 323.434 223.172 323.633 223.021C323.833 222.868 323.985 222.657 324.089 222.388C324.193 222.117 324.245 221.804 324.245 221.45C324.245 221.099 324.194 220.792 324.092 220.529C323.99 220.264 323.839 220.058 323.639 219.912C323.44 219.763 323.193 219.688 322.899 219.688C322.594 219.688 322.339 219.767 322.135 219.924C321.933 220.079 321.781 220.29 321.679 220.557C321.58 220.822 321.53 221.119 321.53 221.45C321.53 221.784 321.581 222.088 321.683 222.361C321.786 222.632 321.939 222.848 322.141 223.009C322.345 223.168 322.598 223.247 322.899 223.247ZM326.841 225.559C326.718 225.559 326.609 225.549 326.514 225.528C326.418 225.51 326.352 225.492 326.315 225.473L326.498 224.837C326.674 224.882 326.829 224.899 326.963 224.886C327.098 224.874 327.217 224.814 327.321 224.706C327.427 224.6 327.524 224.428 327.611 224.189L327.746 223.822L326.009 219.101H326.792L328.088 222.844H328.137L329.434 219.101H330.216L328.223 224.483C328.133 224.725 328.022 224.926 327.89 225.085C327.757 225.246 327.603 225.365 327.428 225.443C327.255 225.52 327.059 225.559 326.841 225.559Z" fill="#1C1C1C" fill-opacity="0.4"/>
<path d="M376.275 217.536H377.033V222.012C377.033 222.412 376.96 222.751 376.813 223.03C376.667 223.31 376.46 223.522 376.193 223.666C375.926 223.811 375.611 223.883 375.248 223.883C374.905 223.883 374.601 223.821 374.334 223.697C374.067 223.571 373.857 223.391 373.704 223.159C373.551 222.926 373.474 222.65 373.474 222.33H374.22C374.22 222.508 374.264 222.662 374.352 222.795C374.442 222.925 374.564 223.027 374.719 223.101C374.874 223.174 375.05 223.211 375.248 223.211C375.466 223.211 375.651 223.165 375.804 223.073C375.957 222.981 376.073 222.847 376.153 222.67C376.234 222.49 376.275 222.271 376.275 222.012V217.536ZM381.415 221.878V219.101H382.137V223.798H381.415V223.003H381.366C381.256 223.241 381.085 223.444 380.852 223.611C380.62 223.776 380.327 223.859 379.972 223.859C379.678 223.859 379.417 223.795 379.189 223.666C378.961 223.536 378.781 223.34 378.651 223.079C378.521 222.816 378.455 222.485 378.455 222.086V219.101H379.177V222.037C379.177 222.379 379.273 222.652 379.464 222.856C379.658 223.06 379.905 223.162 380.204 223.162C380.384 223.162 380.566 223.116 380.752 223.024C380.939 222.933 381.096 222.792 381.222 222.602C381.351 222.413 381.415 222.171 381.415 221.878ZM384.18 220.973V223.798H383.458V219.101H384.155V219.835H384.217C384.327 219.597 384.494 219.405 384.718 219.26C384.942 219.114 385.232 219.04 385.586 219.04C385.904 219.04 386.183 219.105 386.421 219.236C386.66 219.364 386.845 219.56 386.978 219.823C387.11 220.084 387.176 220.414 387.176 220.814V223.798H386.455V220.863C386.455 220.494 386.359 220.206 386.167 220C385.976 219.792 385.713 219.688 385.379 219.688C385.148 219.688 384.942 219.738 384.761 219.838C384.581 219.938 384.44 220.084 384.336 220.275C384.232 220.467 384.18 220.699 384.18 220.973Z" fill="#1C1C1C" fill-opacity="0.4"/>
<path d="M436.641 217.536H437.399V222.012C437.399 222.412 437.326 222.751 437.179 223.03C437.032 223.31 436.826 223.522 436.558 223.666C436.291 223.811 435.977 223.883 435.614 223.883C435.271 223.883 434.966 223.821 434.699 223.697C434.432 223.571 434.222 223.391 434.07 223.159C433.917 222.926 433.84 222.65 433.84 222.33H434.586C434.586 222.508 434.63 222.662 434.718 222.795C434.807 222.925 434.93 223.027 435.085 223.101C435.24 223.174 435.416 223.211 435.614 223.211C435.832 223.211 436.017 223.165 436.17 223.073C436.323 222.981 436.439 222.847 436.519 222.67C436.6 222.49 436.641 222.271 436.641 222.012V217.536ZM441.781 221.878V219.101H442.503V223.798H441.781V223.003H441.732C441.622 223.241 441.451 223.444 441.218 223.611C440.986 223.776 440.692 223.859 440.338 223.859C440.044 223.859 439.783 223.795 439.555 223.666C439.327 223.536 439.147 223.34 439.017 223.079C438.886 222.816 438.821 222.485 438.821 222.086V219.101H439.543V222.037C439.543 222.379 439.639 222.652 439.83 222.856C440.024 223.06 440.27 223.162 440.57 223.162C440.749 223.162 440.932 223.116 441.117 223.024C441.305 222.933 441.462 222.792 441.588 222.602C441.717 222.413 441.781 222.171 441.781 221.878ZM444.546 217.536V223.798H443.824V217.536H444.546Z" fill="#1C1C1C" fill-opacity="0.4"/>
<mask id="mask0_2455_6988" style="mask-type:alpha" maskUnits="userSpaceOnUse" x="56" y="51" width="413" height="176">
<rect x="56.7012" y="51.7886" width="412.079" height="175.076" fill="black"/>
</mask>
<g mask="url(#mask0_2455_6988)">
<path d="M58.1738 183.824L83.189 152.081C86.0552 148.444 90.5002 146.413 95.1259 146.628L121.417 147.849L151.396 150.536C155.109 150.869 158.805 149.744 161.703 147.399L199.608 116.733C203.218 113.812 208.608 115.037 210.601 119.231L233.284 166.95C235.467 171.542 239.917 174.636 244.982 175.084L275.69 177.796C280.921 178.258 285.986 175.827 288.897 171.457L304.774 147.62C308.531 141.98 315.72 139.737 322.018 142.239L338.08 148.623C346.249 151.869 355.391 147.074 357.364 138.507L364.69 106.694C366.083 100.644 371.208 96.1762 377.391 95.6209L409.538 92.7335C411.398 92.5664 413.209 92.0375 414.867 91.1766L457.007 69.2959" stroke="#A8C5DA" stroke-width="0.717523" stroke-linecap="round" stroke-dasharray="1.44 2.87"/>
</g>
<mask id="mask1_2455_6988" style="mask-type:alpha" maskUnits="userSpaceOnUse" x="56" y="51" width="413" height="176">
<rect x="56.7012" y="51.7886" width="412.079" height="175.076" fill="black"/>
</mask>
<g mask="url(#mask1_2455_6988)">
<mask id="mask2_2455_6988" style="mask-type:alpha" maskUnits="userSpaceOnUse" x="58" y="80" width="400" height="147">
<path d="M74.6957 147.166L58.1738 154.526V226.864H457.007V100.744L432.215 104.307C429.301 104.726 426.585 106.031 424.438 108.045L408.971 122.555C403.319 127.857 394.48 127.714 389.002 122.233L379.067 112.292C372.244 105.464 361.71 104.013 353.296 108.742L347.181 112.178C341.629 115.299 334.596 112.941 332.046 107.105L323.412 87.3442C320.006 79.5504 309.327 78.6126 304.615 85.6935C298.496 94.8892 287.638 99.7505 276.704 98.1896L267.161 96.8275C261.194 95.9757 255.331 98.9437 252.484 104.257L234.381 138.046C231.604 143.229 225.947 146.193 220.105 145.527L197.648 142.965C188.526 141.924 179.456 145.311 173.248 152.076L172.056 153.375C163.236 162.987 151.404 169.308 138.51 171.296L131.217 172.421C127.68 172.966 124.275 174.169 121.18 175.966L120.693 176.249C113.3 180.541 103.816 177.458 100.361 169.638L93.6616 154.475C90.4516 147.21 81.951 143.934 74.6957 147.166Z" fill="url(#paint0_radial_2455_6988)"/>
</mask>
<g mask="url(#mask2_2455_6988)">
<path opacity="0.6" d="M74.6957 147.166L58.1738 154.526V226.864H457.007V100.744L432.215 104.307C429.301 104.726 426.585 106.031 424.438 108.045L408.971 122.555C403.319 127.857 394.48 127.714 389.002 122.233L379.067 112.292C372.244 105.464 361.71 104.013 353.296 108.742L347.181 112.178C341.629 115.299 334.596 112.941 332.046 107.105L323.412 87.3442C320.006 79.5504 309.327 78.6126 304.615 85.6935C298.496 94.8892 287.638 99.7505 276.704 98.1896L267.161 96.8275C261.194 95.9757 255.331 98.9437 252.484 104.257L234.381 138.046C231.604 143.229 225.947 146.193 220.105 145.527L197.648 142.965C188.526 141.924 179.456 145.311 173.248 152.076L172.056 153.375C163.236 162.987 151.404 169.308 138.51 171.296L131.217 172.421C127.68 172.966 124.275 174.169 121.18 175.966L120.693 176.249C113.3 180.541 103.816 177.458 100.361 169.638L93.6616 154.475C90.4516 147.21 81.951 143.934 74.6957 147.166Z" fill="#1C1C1C"/>
</g>
<path d="M58.1738 154.178L67.5825 150.004C74.2447 147.048 77.5758 145.57 80.6925 145.602C84.1509 145.637 87.4802 146.92 90.0679 149.215C92.3998 151.283 93.8777 154.614 96.8333 161.276L100.176 168.81C100.345 169.192 100.43 169.384 100.504 169.539C104.032 177.004 113.117 179.96 120.362 175.998C120.513 175.916 120.694 175.811 121.056 175.602V175.602C121.189 175.525 121.256 175.486 121.322 175.449C124.331 173.73 127.627 172.57 131.05 172.026C131.125 172.014 131.201 172.002 131.353 171.979L137.538 171.029C138.541 170.875 139.043 170.798 139.53 170.714C151.694 168.631 162.862 162.684 171.379 153.753C171.721 153.396 172.064 153.022 172.752 152.276V152.276C173.244 151.742 173.49 151.475 173.729 151.227C179.757 144.993 188.281 141.818 196.919 142.589C197.262 142.62 197.622 142.661 198.344 142.743L214.334 144.56C219.912 145.194 222.7 145.511 225.214 144.885C227.434 144.332 229.491 143.256 231.211 141.747C233.158 140.039 234.488 137.567 237.147 132.624L250.844 107.163C252.413 104.246 253.198 102.788 254.177 101.633C256.681 98.6836 260.269 96.8697 264.129 96.603C265.639 96.4987 267.279 96.7318 270.559 97.198L276.741 98.0769C287.657 99.6288 298.496 94.7845 304.622 85.6164V85.6164C309.34 78.5539 319.999 79.492 323.412 87.2701L330.845 104.213C331.949 106.729 332.501 107.987 333.163 108.908C335.864 112.665 340.664 114.274 345.084 112.906C346.168 112.57 347.366 111.899 349.764 110.558V110.558C353.169 108.652 354.871 107.699 356.524 107.101C363.186 104.69 370.607 105.711 376.37 109.831C377.8 110.854 379.182 112.231 381.946 114.985L384.434 117.464C388.723 121.738 390.867 123.875 393.24 124.948C396.852 126.581 400.977 126.647 404.639 125.132C407.046 124.136 409.258 122.069 413.683 117.936L422.462 109.733C424.421 107.903 425.401 106.987 426.509 106.279C427.493 105.651 428.549 105.144 429.656 104.772C430.902 104.352 432.229 104.162 434.884 103.782L457.007 100.616" stroke="url(#paint1_linear_2455_6988)" stroke-width="0.717523" stroke-linecap="round"/>
<path d="M58.1738 154.178L67.5825 150.004C74.2447 147.048 77.5758 145.57 80.6925 145.602C84.1509 145.637 87.4802 146.92 90.0679 149.215C92.3998 151.283 93.8777 154.614 96.8333 161.276L100.176 168.81C100.345 169.192 100.43 169.384 100.504 169.539C104.032 177.004 113.117 179.96 120.362 175.998C120.513 175.916 120.694 175.811 121.056 175.602V175.602C121.189 175.525 121.256 175.486 121.322 175.449C124.331 173.73 127.627 172.57 131.05 172.026C131.125 172.014 131.201 172.002 131.353 171.979L137.538 171.029C138.541 170.875 139.043 170.798 139.53 170.714C151.694 168.631 162.862 162.684 171.379 153.753C171.721 153.396 172.064 153.022 172.752 152.276V152.276C173.244 151.742 173.49 151.475 173.729 151.227C179.757 144.993 188.281 141.818 196.919 142.589C197.262 142.62 197.622 142.661 198.344 142.743L214.334 144.56C219.912 145.194 222.7 145.511 225.214 144.885C227.434 144.332 229.491 143.256 231.211 141.747C233.158 140.039 234.488 137.567 237.147 132.624L250.844 107.163C252.413 104.246 253.198 102.788 254.177 101.633C256.681 98.6836 260.269 96.8697 264.129 96.603C265.639 96.4987 267.279 96.7318 270.559 97.198L276.741 98.0769C287.657 99.6288 298.496 94.7845 304.622 85.6164V85.6164C309.34 78.5539 319.999 79.492 323.412 87.2701L330.845 104.213C331.949 106.729 332.501 107.987 333.163 108.908C335.864 112.665 340.664 114.274 345.084 112.906C346.168 112.57 347.366 111.899 349.764 110.558V110.558C353.169 108.652 354.871 107.699 356.524 107.101C363.186 104.69 370.607 105.711 376.37 109.831C377.8 110.854 379.182 112.231 381.946 114.985L384.434 117.464C388.723 121.738 390.867 123.875 393.24 124.948C396.852 126.581 400.977 126.647 404.639 125.132C407.046 124.136 409.258 122.069 413.683 117.936L422.462 109.733C424.421 107.903 425.401 106.987 426.509 106.279C427.493 105.651 428.549 105.144 429.656 104.772C430.902 104.352 432.229 104.162 434.884 103.782L457.007 100.616" stroke="#1C1C1C" stroke-width="0.717523" stroke-linecap="round" style="mix-blend-mode:screen"/>
</g>
</g>
<defs>
<filter id="filter0_d_2455_6988" x="0.429354" y="0.875386" width="496.141" height="257.924" filterUnits="userSpaceOnUse" color-interpolation-filters="sRGB">
<feFlood flood-opacity="0" result="BackgroundImageFix"/>
<feColorMatrix in="SourceAlpha" type="matrix" values="0 0 0 0 0 0 0 0 0 0 0 0 0 0 0 0 0 0 127 0" result="hardAlpha"/>
<feOffset dy="4.22826"/>
<feGaussianBlur stdDeviation="5.28532"/>
<feComposite in2="hardAlpha" operator="out"/>
<feColorMatrix type="matrix" values="0 0 0 0 0 0 0 0 0 0.213005 0 0 0 0 0.213005 0 0 0 0.15 0"/>
<feBlend mode="normal" in2="BackgroundImageFix" result="effect1_dropShadow_2455_6988"/>
<feBlend mode="normal" in="SourceGraphic" in2="effect1_dropShadow_2455_6988" result="shape"/>
</filter>
<radialGradient id="paint0_radial_2455_6988" cx="0" cy="0" r="1" gradientUnits="userSpaceOnUse" gradientTransform="translate(257.59 98.2401) rotate(90) scale(85.7402 195.678)">
<stop stop-opacity="0.08"/>
<stop offset="1" stop-opacity="0"/>
</radialGradient>
<linearGradient id="paint1_linear_2455_6988" x1="60.0538" y1="196.753" x2="457.007" y2="196.753" gradientUnits="userSpaceOnUse">
<stop stop-opacity="0.4"/>
<stop offset="1"/>
</linearGradient>
</defs>
</svg>
