<svg width="45" height="45" viewBox="0 0 45 45" fill="none" xmlns="http://www.w3.org/2000/svg">
<rect x="0.00390625" y="0.84375" width="44.0625" height="44.0625" rx="8.8125" fill="#333333"/>
<path d="M17.2897 31.2114L19.3095 22.2565L19.3287 22.2629H23.803C25.3286 22.2629 26.7918 21.6568 27.8707 20.578C28.9495 19.4991 29.5556 18.0359 29.5556 16.5103C31.0812 16.5103 32.5444 17.1163 33.6233 18.1952C34.7021 19.274 35.3082 20.7372 35.3082 22.2629C35.3082 23.7885 34.7021 25.2517 33.6233 26.3306C32.5444 27.4094 31.0812 28.0155 29.5556 28.0155H24.4421L21.8854 36.3248H16.1328L17.2897 31.2114Z" fill="#ADD1E9"/>
<path d="M22.6515 16.5103H29.5546C29.5546 18.0359 28.9485 19.4991 27.8697 20.578C26.7909 21.6568 25.3277 22.2629 23.802 22.2629H19.3278L19.3086 22.2565L20.1587 18.5045C20.2863 17.9386 20.6026 17.4329 21.0556 17.0705C21.5086 16.7081 22.0714 16.5105 22.6515 16.5103Z" fill="#E6EFF6"/>
<path d="M29.5557 16.5104H22.6526C22.0725 16.5107 21.5097 16.7083 21.0567 17.0707C20.6037 17.4331 20.2874 17.9388 20.1598 18.5047L19.3097 22.2566L17.2899 31.2115H11.0195L15.2765 11.7613C15.338 11.4767 15.4954 11.2218 15.7222 11.0392C15.949 10.8565 16.2316 10.7572 16.5229 10.7578H23.8031C25.3281 10.7602 26.7899 11.367 27.8682 12.4453C28.9465 13.5236 29.5533 14.9855 29.5557 16.5104Z" fill="#FDFEF9"/>
</svg>
