<svg width="230" height="156" viewBox="0 0 230 156" fill="none" xmlns="http://www.w3.org/2000/svg">
<g filter="url(#filter0_d_2455_7013)">
<path d="M10 13.7714C10 9.47938 13.4794 6 17.7714 6H212.057C216.349 6 219.829 9.47939 219.829 13.7714V134.229C219.829 138.521 216.349 142 212.057 142H17.7714C13.4794 142 10 138.521 10 134.229V13.7714Z" fill="#F7F9FB"/>
<path d="M23.0399 19.7118V24.6572H22.144V19.7118H23.0399ZM24.8456 22.4839V24.6572H23.9714V20.9481H24.8069V21.5784H24.8504C24.9357 21.3707 25.0717 21.2057 25.2585 21.0834C25.4468 20.961 25.6795 20.8998 25.9564 20.8998C26.2123 20.8998 26.4353 20.9546 26.6252 21.064C26.8168 21.1735 26.9649 21.3321 27.0696 21.5398C27.1758 21.7474 27.2281 21.9994 27.2265 22.2956V24.6572H26.3524V22.4308C26.3524 22.1829 26.288 21.9889 26.1592 21.8488C26.032 21.7088 25.8557 21.6388 25.6304 21.6388C25.4774 21.6388 25.3414 21.6726 25.2223 21.7402C25.1047 21.8062 25.0122 21.902 24.9446 22.0275C24.8786 22.1531 24.8456 22.3052 24.8456 22.4839ZM29.4916 24.7224C29.2002 24.7224 28.9394 24.6476 28.7092 24.4979C28.479 24.3481 28.2971 24.1308 28.1635 23.8459C28.0298 23.5609 27.963 23.2148 27.963 22.8075C27.963 22.3954 28.0306 22.0477 28.1659 21.7643C28.3027 21.4794 28.487 21.2645 28.7189 21.1196C28.9507 20.9731 29.2091 20.8998 29.494 20.8998C29.7113 20.8998 29.89 20.9369 30.0301 21.0109C30.1701 21.0834 30.2812 21.1711 30.3633 21.2741C30.4454 21.3756 30.509 21.4713 30.5541 21.5615H30.5903V19.7118H31.4669V24.6572H30.6072V24.0729H30.5541C30.509 24.163 30.4438 24.2588 30.3585 24.3602C30.2732 24.46 30.1605 24.5453 30.0204 24.6162C29.8804 24.687 29.7041 24.7224 29.4916 24.7224ZM29.7355 24.0052C29.9206 24.0052 30.0784 23.9553 30.2088 23.8555C30.3392 23.7541 30.4382 23.6132 30.5058 23.4329C30.5734 23.2526 30.6072 23.0425 30.6072 22.8027C30.6072 22.5628 30.5734 22.3543 30.5058 22.1773C30.4398 22.0002 30.3416 21.8625 30.2112 21.7643C30.0824 21.6661 29.9238 21.617 29.7355 21.617C29.5407 21.617 29.3781 21.6677 29.2477 21.7692C29.1173 21.8706 29.0191 22.0106 28.9531 22.1893C28.8871 22.368 28.8541 22.5725 28.8541 22.8027C28.8541 23.0345 28.8871 23.2414 28.9531 23.4233C29.0207 23.6036 29.1197 23.7461 29.2501 23.8507C29.3821 23.9537 29.5439 24.0052 29.7355 24.0052ZM32.3984 24.6572V20.9481H33.2725V24.6572H32.3984ZM32.8379 20.4217C32.6994 20.4217 32.5803 20.3758 32.4805 20.2841C32.3807 20.1907 32.3308 20.0788 32.3308 19.9484C32.3308 19.8164 32.3807 19.7045 32.4805 19.6128C32.5803 19.5194 32.6994 19.4727 32.8379 19.4727C32.9779 19.4727 33.097 19.5194 33.1952 19.6128C33.2951 19.7045 33.345 19.8164 33.345 19.9484C33.345 20.0788 33.2951 20.1907 33.1952 20.2841C33.097 20.3758 32.9779 20.4217 32.8379 20.4217ZM35.7893 24.7297C35.419 24.7297 35.1011 24.6484 34.8355 24.4858C34.5715 24.3232 34.3678 24.0986 34.2245 23.8121C34.0829 23.5239 34.012 23.1923 34.012 22.8172C34.012 22.4405 34.0845 22.108 34.2294 21.8199C34.3743 21.5301 34.5787 21.3047 34.8427 21.1437C35.1083 20.9811 35.4223 20.8998 35.7845 20.8998C36.0855 20.8998 36.352 20.9554 36.5838 21.0665C36.8172 21.1759 37.0031 21.3313 37.1416 21.5325C37.28 21.7321 37.3589 21.9656 37.3782 22.2328H36.5427C36.5089 22.0541 36.4284 21.9052 36.3012 21.7861C36.1757 21.6653 36.0074 21.605 35.7966 21.605C35.6179 21.605 35.4609 21.6532 35.3257 21.7498C35.1904 21.8448 35.085 21.9817 35.0093 22.1604C34.9353 22.339 34.8983 22.5532 34.8983 22.8027C34.8983 23.0554 34.9353 23.2728 35.0093 23.4547C35.0834 23.635 35.1872 23.7742 35.3208 23.8724C35.4561 23.969 35.6146 24.0173 35.7966 24.0173C35.9253 24.0173 36.0404 23.9932 36.1419 23.9449C36.2449 23.895 36.331 23.8233 36.4002 23.73C36.4695 23.6366 36.517 23.5231 36.5427 23.3895H37.3782C37.3573 23.6519 37.28 23.8845 37.1464 24.0873C37.0128 24.2886 36.8309 24.4463 36.6007 24.5606C36.3705 24.6733 36.1 24.7297 35.7893 24.7297ZM39.4724 24.7224C39.1811 24.7224 38.9203 24.6476 38.6901 24.4979C38.4598 24.3481 38.2779 24.1308 38.1443 23.8459C38.0107 23.5609 37.9439 23.2148 37.9439 22.8075C37.9439 22.3954 38.0115 22.0477 38.1467 21.7643C38.2836 21.4794 38.4679 21.2645 38.6997 21.1196C38.9315 20.9731 39.1899 20.8998 39.4749 20.8998C39.6922 20.8998 39.8709 20.9369 40.0109 21.0109C40.151 21.0834 40.2621 21.1711 40.3442 21.2741C40.4263 21.3756 40.4899 21.4713 40.5349 21.5615H40.5712V20.9481H41.4477V24.6572H40.5881V24.0729H40.5349C40.4899 24.163 40.4247 24.2588 40.3393 24.3602C40.254 24.46 40.1413 24.5453 40.0013 24.6162C39.8612 24.687 39.6849 24.7224 39.4724 24.7224ZM39.7163 24.0052C39.9015 24.0052 40.0592 23.9553 40.1896 23.8555C40.32 23.7541 40.419 23.6132 40.4866 23.4329C40.5543 23.2526 40.5881 23.0425 40.5881 22.8027C40.5881 22.5628 40.5543 22.3543 40.4866 22.1773C40.4206 22.0002 40.3224 21.8625 40.192 21.7643C40.0633 21.6661 39.9047 21.617 39.7163 21.617C39.5215 21.617 39.3589 21.6677 39.2286 21.7692C39.0982 21.8706 39 22.0106 38.9339 22.1893C38.8679 22.368 38.8349 22.5725 38.8349 22.8027C38.8349 23.0345 38.8679 23.2414 38.9339 23.4233C39.0016 23.6036 39.1006 23.7461 39.231 23.8507C39.363 23.9537 39.5248 24.0052 39.7163 24.0052ZM44.2314 20.9481V21.6243H42.0991V20.9481H44.2314ZM42.6255 20.0595H43.4997V23.5416C43.4997 23.6591 43.5174 23.7493 43.5528 23.8121C43.5898 23.8732 43.6381 23.9151 43.6977 23.9376C43.7573 23.9602 43.8233 23.9714 43.8957 23.9714C43.9504 23.9714 44.0003 23.9674 44.0454 23.9594C44.0921 23.9513 44.1275 23.9441 44.1517 23.9376L44.299 24.621C44.2523 24.6371 44.1855 24.6548 44.0985 24.6741C44.0132 24.6934 43.9086 24.7047 43.7846 24.7079C43.5657 24.7144 43.3685 24.6814 43.193 24.6089C43.0175 24.5349 42.8783 24.4206 42.7752 24.266C42.6738 24.1115 42.6239 23.9183 42.6255 23.6865V20.0595ZM46.5405 24.7297C46.1783 24.7297 45.8643 24.65 45.5987 24.4906C45.3331 24.3312 45.127 24.1083 44.9805 23.8217C44.8357 23.5352 44.7632 23.2003 44.7632 22.8172C44.7632 22.434 44.8357 22.0984 44.9805 21.8102C45.127 21.522 45.3331 21.2983 45.5987 21.1389C45.8643 20.9795 46.1783 20.8998 46.5405 20.8998C46.9027 20.8998 47.2166 20.9795 47.4822 21.1389C47.7479 21.2983 47.9531 21.522 48.098 21.8102C48.2445 22.0984 48.3178 22.434 48.3178 22.8172C48.3178 23.2003 48.2445 23.5352 48.098 23.8217C47.9531 24.1083 47.7479 24.3312 47.4822 24.4906C47.2166 24.65 46.9027 24.7297 46.5405 24.7297ZM46.5453 24.0294C46.7417 24.0294 46.9059 23.9755 47.0379 23.8676C47.1699 23.7581 47.2681 23.6116 47.3325 23.4281C47.3985 23.2446 47.4315 23.0401 47.4315 22.8148C47.4315 22.5878 47.3985 22.3825 47.3325 22.199C47.2681 22.0139 47.1699 21.8666 47.0379 21.7571C46.9059 21.6476 46.7417 21.5929 46.5453 21.5929C46.3441 21.5929 46.1767 21.6476 46.043 21.7571C45.911 21.8666 45.812 22.0139 45.746 22.199C45.6816 22.3825 45.6494 22.5878 45.6494 22.8148C45.6494 23.0401 45.6816 23.2446 45.746 23.4281C45.812 23.6116 45.911 23.7581 46.043 23.8676C46.1767 23.9755 46.3441 24.0294 46.5453 24.0294ZM49.0597 24.6572V20.9481H49.9073V21.5663H49.9459C50.0135 21.3522 50.1294 21.1872 50.2936 21.0713C50.4595 20.9538 50.6486 20.895 50.8611 20.895C50.9094 20.895 50.9633 20.8974 51.0229 20.9023C51.0841 20.9055 51.1348 20.9111 51.175 20.9192V21.7233C51.138 21.7104 51.0793 21.6991 50.9988 21.6895C50.9199 21.6782 50.8434 21.6726 50.7694 21.6726C50.61 21.6726 50.4667 21.7072 50.3395 21.7764C50.214 21.844 50.115 21.9382 50.0425 22.0589C49.9701 22.1797 49.9338 22.3189 49.9338 22.4767V24.6572H49.0597ZM53.4811 24.6572V19.7118H54.3553V21.5615H54.3915C54.4366 21.4713 54.5002 21.3756 54.5823 21.2741C54.6644 21.1711 54.7755 21.0834 54.9155 21.0109C55.0556 20.9369 55.2343 20.8998 55.4516 20.8998C55.7382 20.8998 55.9965 20.9731 56.2267 21.1196C56.4586 21.2645 56.6421 21.4794 56.7773 21.7643C56.9141 22.0477 56.9826 22.3954 56.9826 22.8075C56.9826 23.2148 56.9158 23.5609 56.7821 23.8459C56.6485 24.1308 56.4666 24.3481 56.2364 24.4979C56.0062 24.6476 55.7454 24.7224 55.454 24.7224C55.2415 24.7224 55.0652 24.687 54.9252 24.6162C54.7851 24.5453 54.6724 24.46 54.5871 24.3602C54.5034 24.2588 54.4382 24.163 54.3915 24.0729H54.3408V24.6572H53.4811ZM54.3384 22.8027C54.3384 23.0425 54.3722 23.2526 54.4398 23.4329C54.509 23.6132 54.608 23.7541 54.7368 23.8555C54.8672 23.9553 55.025 24.0052 55.2101 24.0052C55.4033 24.0052 55.5651 23.9537 55.6955 23.8507C55.8259 23.7461 55.9241 23.6036 55.9901 23.4233C56.0577 23.2414 56.0915 23.0345 56.0915 22.8027C56.0915 22.5725 56.0585 22.368 55.9925 22.1893C55.9265 22.0106 55.8283 21.8706 55.6979 21.7692C55.5675 21.6677 55.4049 21.617 55.2101 21.617C55.0234 21.617 54.8648 21.6661 54.7344 21.7643C54.604 21.8625 54.505 22.0002 54.4374 22.1773C54.3714 22.3543 54.3384 22.5628 54.3384 22.8027ZM58.1429 26.0481C58.0237 26.0481 57.9135 26.0385 57.812 26.0192C57.7122 26.0015 57.6325 25.9805 57.573 25.9564L57.7758 25.2754C57.903 25.3124 58.0165 25.3301 58.1163 25.3285C58.2161 25.3269 58.3038 25.2955 58.3795 25.2344C58.4568 25.1748 58.522 25.075 58.5751 24.9349L58.65 24.7345L57.3049 20.9481H58.2322L59.087 23.7493H59.1257L59.9829 20.9481H60.9126L59.4275 25.1064C59.3583 25.3028 59.2665 25.471 59.1522 25.6111C59.0379 25.7527 58.8979 25.8606 58.7321 25.9346C58.5679 26.0103 58.3715 26.0481 58.1429 26.0481ZM64.9187 24.6572H63.2429V19.7118H64.9525C65.4435 19.7118 65.8653 19.8108 66.2179 20.0088C66.572 20.2052 66.8441 20.4877 67.0341 20.8564C67.224 21.225 67.319 21.6661 67.319 22.1797C67.319 22.6948 67.2232 23.1375 67.0316 23.5078C66.8417 23.8781 66.5672 24.1622 66.2082 24.3602C65.8508 24.5582 65.421 24.6572 64.9187 24.6572ZM64.1387 23.8821H64.8752C65.2198 23.8821 65.5071 23.8193 65.7373 23.6937C65.9675 23.5666 66.1406 23.3774 66.2565 23.1263C66.3724 22.8735 66.4304 22.558 66.4304 22.1797C66.4304 21.8014 66.3724 21.4874 66.2565 21.2379C66.1406 20.9868 65.9691 20.7992 65.7422 20.6753C65.5168 20.5497 65.2367 20.4869 64.9018 20.4869H64.1387V23.8821ZM69.7736 24.7297C69.4017 24.7297 69.0806 24.6524 68.8101 24.4979C68.5413 24.3417 68.3344 24.1211 68.1895 23.8362C68.0446 23.5497 67.9722 23.2124 67.9722 22.8244C67.9722 22.4429 68.0446 22.108 68.1895 21.8199C68.336 21.5301 68.5405 21.3047 68.8029 21.1437C69.0653 20.9811 69.3736 20.8998 69.7277 20.8998C69.9563 20.8998 70.1721 20.9369 70.3749 21.0109C70.5793 21.0834 70.7596 21.1961 70.9158 21.349C71.0736 21.5019 71.1975 21.6967 71.2877 21.9334C71.3778 22.1684 71.4229 22.4485 71.4229 22.7737V23.0417H68.3827V22.4525H70.585C70.5834 22.2851 70.5471 22.1362 70.4763 22.0058C70.4055 21.8738 70.3065 21.77 70.1793 21.6943C70.0537 21.6186 69.9072 21.5808 69.7398 21.5808C69.5611 21.5808 69.4042 21.6243 69.2689 21.7112C69.1337 21.7965 69.0283 21.9092 68.9526 22.0493C68.8785 22.1877 68.8407 22.3398 68.8391 22.5057V23.02C68.8391 23.2357 68.8785 23.4209 68.9574 23.5754C69.0363 23.7283 69.1466 23.8459 69.2882 23.928C69.4299 24.0085 69.5957 24.0487 69.7857 24.0487C69.9129 24.0487 70.028 24.031 70.131 23.9956C70.234 23.9586 70.3234 23.9046 70.399 23.8338C70.4747 23.763 70.5319 23.6752 70.5705 23.5706L71.3867 23.6623C71.3352 23.8781 71.237 24.0664 71.0921 24.2274C70.9488 24.3868 70.7653 24.5107 70.5415 24.5993C70.3177 24.6862 70.0618 24.7297 69.7736 24.7297ZM75.3692 20.9481L74.0484 24.6572H73.0825L71.7616 20.9481H72.6937L73.5461 23.7034H73.5847L74.4396 20.9481H75.3692ZM75.9741 24.6572V20.9481H76.8483V24.6572H75.9741ZM76.4136 20.4217C76.2752 20.4217 76.1561 20.3758 76.0563 20.2841C75.9564 20.1907 75.9065 20.0788 75.9065 19.9484C75.9065 19.8164 75.9564 19.7045 76.0563 19.6128C76.1561 19.5194 76.2752 19.4727 76.4136 19.4727C76.5537 19.4727 76.6728 19.5194 76.771 19.6128C76.8708 19.7045 76.9207 19.8164 76.9207 19.9484C76.9207 20.0788 76.8708 20.1907 76.771 20.2841C76.6728 20.3758 76.5537 20.4217 76.4136 20.4217ZM79.3651 24.7297C78.9948 24.7297 78.6769 24.6484 78.4113 24.4858C78.1472 24.3232 77.9436 24.0986 77.8003 23.8121C77.6587 23.5239 77.5878 23.1923 77.5878 22.8172C77.5878 22.4405 77.6603 22.108 77.8052 21.8199C77.95 21.5301 78.1545 21.3047 78.4185 21.1437C78.6841 20.9811 78.9981 20.8998 79.3603 20.8998C79.6613 20.8998 79.9277 20.9554 80.1596 21.0665C80.393 21.1759 80.5789 21.3313 80.7174 21.5325C80.8558 21.7321 80.9347 21.9656 80.954 22.2328H80.1185C80.0847 22.0541 80.0042 21.9052 79.877 21.7861C79.7515 21.6653 79.5832 21.605 79.3723 21.605C79.1936 21.605 79.0367 21.6532 78.9015 21.7498C78.7662 21.8448 78.6608 21.9817 78.5851 22.1604C78.5111 22.339 78.474 22.5532 78.474 22.8027C78.474 23.0554 78.5111 23.2728 78.5851 23.4547C78.6592 23.635 78.763 23.7742 78.8966 23.8724C79.0319 23.969 79.1904 24.0173 79.3723 24.0173C79.5011 24.0173 79.6162 23.9932 79.7177 23.9449C79.8207 23.895 79.9068 23.8233 79.976 23.73C80.0453 23.6366 80.0927 23.5231 80.1185 23.3895H80.954C80.9331 23.6519 80.8558 23.8845 80.7222 24.0873C80.5886 24.2886 80.4067 24.4463 80.1765 24.5606C79.9463 24.6733 79.6758 24.7297 79.3651 24.7297ZM83.3138 24.7297C82.942 24.7297 82.6208 24.6524 82.3504 24.4979C82.0815 24.3417 81.8746 24.1211 81.7298 23.8362C81.5849 23.5497 81.5124 23.2124 81.5124 22.8244C81.5124 22.4429 81.5849 22.108 81.7298 21.8199C81.8763 21.5301 82.0807 21.3047 82.3431 21.1437C82.6055 20.9811 82.9138 20.8998 83.268 20.8998C83.4966 20.8998 83.7123 20.9369 83.9151 21.0109C84.1196 21.0834 84.2999 21.1961 84.456 21.349C84.6138 21.5019 84.7378 21.6967 84.8279 21.9334C84.9181 22.1684 84.9631 22.4485 84.9631 22.7737V23.0417H81.9229V22.4525H84.1252C84.1236 22.2851 84.0874 22.1362 84.0165 22.0058C83.9457 21.8738 83.8467 21.77 83.7195 21.6943C83.594 21.6186 83.4475 21.5808 83.28 21.5808C83.1013 21.5808 82.9444 21.6243 82.8092 21.7112C82.6739 21.7965 82.5685 21.9092 82.4928 22.0493C82.4188 22.1877 82.3809 22.3398 82.3793 22.5057V23.02C82.3793 23.2357 82.4188 23.4209 82.4977 23.5754C82.5765 23.7283 82.6868 23.8459 82.8285 23.928C82.9701 24.0085 83.136 24.0487 83.3259 24.0487C83.4531 24.0487 83.5682 24.031 83.6712 23.9956C83.7743 23.9586 83.8636 23.9046 83.9393 23.8338C84.0149 23.763 84.0721 23.6752 84.1107 23.5706L84.9269 23.6623C84.8754 23.8781 84.7772 24.0664 84.6323 24.2274C84.489 24.3868 84.3055 24.5107 84.0817 24.5993C83.858 24.6862 83.602 24.7297 83.3138 24.7297ZM88.6342 21.9285L87.8373 22.0155C87.8148 21.935 87.7753 21.8593 87.719 21.7885C87.6643 21.7176 87.5902 21.6605 87.4968 21.617C87.4035 21.5736 87.2892 21.5518 87.1539 21.5518C86.972 21.5518 86.8191 21.5913 86.6951 21.6702C86.5728 21.749 86.5124 21.8513 86.514 21.9768C86.5124 22.0847 86.5519 22.1724 86.6324 22.24C86.7145 22.3077 86.8497 22.3632 87.038 22.4067L87.6707 22.5419C88.0217 22.6175 88.2824 22.7375 88.4531 22.9017C88.6253 23.0659 88.7123 23.2808 88.7139 23.5464C88.7123 23.7799 88.6439 23.9859 88.5086 24.1646C88.375 24.3417 88.1891 24.4801 87.9508 24.58C87.7126 24.6798 87.4389 24.7297 87.1298 24.7297C86.6758 24.7297 86.3104 24.6347 86.0335 24.4447C85.7566 24.2532 85.5916 23.9867 85.5385 23.6454L86.3909 23.5633C86.4295 23.7308 86.5116 23.8571 86.6372 23.9425C86.7628 24.0278 86.9261 24.0704 87.1274 24.0704C87.3351 24.0704 87.5017 24.0278 87.6272 23.9425C87.7544 23.8571 87.818 23.7517 87.818 23.6261C87.818 23.5199 87.777 23.4321 87.6949 23.3629C87.6144 23.2937 87.4888 23.2406 87.3181 23.2035L86.6855 23.0707C86.3297 22.9967 86.0665 22.8719 85.8958 22.6964C85.7252 22.5193 85.6407 22.2956 85.6423 22.0251C85.6407 21.7965 85.7027 21.5985 85.8282 21.4311C85.9554 21.2621 86.1317 21.1317 86.3571 21.0399C86.5841 20.9465 86.8457 20.8998 87.1419 20.8998C87.5765 20.8998 87.9186 20.9924 88.1681 21.1775C88.4193 21.3627 88.5746 21.613 88.6342 21.9285Z" fill="#1C1C1C"/>
<path d="M22.9238 40.369H23.4454C23.4606 40.5125 23.5095 40.6339 23.5923 40.7333C23.6765 40.8312 23.7855 40.9057 23.9194 40.9568C24.0532 41.0065 24.2016 41.0313 24.3644 41.0313C24.541 41.0313 24.6997 41.0016 24.8404 40.9423C24.9812 40.883 25.0929 40.7947 25.1757 40.6774C25.2585 40.5587 25.2999 40.4117 25.2999 40.2365C25.2999 40.0833 25.2641 39.9412 25.1923 39.8101C25.1205 39.6777 25.0053 39.5707 24.8466 39.4893C24.688 39.4079 24.4775 39.3672 24.2154 39.3672H23.8759V38.9532L24.9356 37.6782V37.6451H23.1308V37.1897H25.6394V37.5623L24.5051 38.9367V38.9698C24.6873 38.9781 24.857 39.0153 25.0143 39.0816C25.173 39.1478 25.311 39.2375 25.4283 39.3506C25.5469 39.4638 25.6394 39.5956 25.7056 39.746C25.7718 39.8964 25.805 40.0599 25.805 40.2365C25.805 40.478 25.7429 40.6932 25.6187 40.8823C25.4959 41.0699 25.3255 41.2176 25.1074 41.3252C24.8908 41.4329 24.6404 41.4867 24.3561 41.4867C24.105 41.4867 23.8738 41.4425 23.6627 41.3542C23.4516 41.2659 23.2798 41.1382 23.1473 40.9713C23.0149 40.8043 22.9404 40.6035 22.9238 40.369ZM28.0326 41.4867C27.7207 41.4867 27.4551 41.4018 27.2357 41.2321C27.0163 41.061 26.8487 40.8133 26.7328 40.489C26.6168 40.1634 26.5589 39.7701 26.5589 39.3092C26.5589 38.8511 26.6168 38.4599 26.7328 38.1357C26.85 37.81 27.0184 37.5616 27.2378 37.3905C27.4586 37.218 27.7235 37.1318 28.0326 37.1318C28.3417 37.1318 28.6059 37.218 28.8253 37.3905C29.0461 37.5616 29.2144 37.81 29.3304 38.1357C29.4476 38.4599 29.5063 38.8511 29.5063 39.3092C29.5063 39.7701 29.4483 40.1634 29.3324 40.489C29.2165 40.8133 29.0489 41.061 28.8295 41.2321C28.6101 41.4018 28.3444 41.4867 28.0326 41.4867ZM28.0326 41.0313C28.3417 41.0313 28.5818 40.8823 28.7529 40.5842C28.924 40.2862 29.0095 39.8612 29.0095 39.3092C29.0095 38.9422 28.9702 38.6296 28.8916 38.3716C28.8143 38.1136 28.7025 37.9169 28.5562 37.7817C28.4114 37.6465 28.2368 37.5789 28.0326 37.5789C27.7263 37.5789 27.4869 37.73 27.3144 38.0322C27.1419 38.333 27.0556 38.7587 27.0556 39.3092C27.0556 39.6763 27.0943 39.9881 27.1716 40.2448C27.2488 40.5014 27.3599 40.6967 27.5048 40.8305C27.6511 40.9644 27.827 41.0313 28.0326 41.0313ZM30.3673 41.4287V37.1897H30.8806V39.2927H30.9303L32.8345 37.1897H33.5052L31.7251 39.1022L33.5052 41.4287H32.8842L31.4105 39.4583L30.8806 40.0544V41.4287H30.3673Z" fill="#1C1C1C" fill-opacity="0.4"/>
<path d="M23.1209 65.2285V64.856L24.5201 63.3243C24.6843 63.1449 24.8196 62.989 24.9258 62.8565C25.0321 62.7227 25.1107 62.5971 25.1618 62.4798C25.2142 62.3611 25.2404 62.237 25.2404 62.1072C25.2404 61.9582 25.2045 61.8292 25.1328 61.7202C25.0624 61.6112 24.9658 61.527 24.843 61.4677C24.7202 61.4083 24.5822 61.3787 24.4291 61.3787C24.2662 61.3787 24.1241 61.4125 24.0027 61.4801C23.8826 61.5463 23.7895 61.6395 23.7233 61.7595C23.6584 61.8796 23.626 62.0203 23.626 62.1818H23.1375C23.1375 61.9334 23.1948 61.7154 23.3093 61.5277C23.4238 61.34 23.5797 61.1938 23.7771 61.0889C23.9758 60.984 24.1986 60.9316 24.4456 60.9316C24.694 60.9316 24.9141 60.984 25.1059 61.0889C25.2977 61.1938 25.4481 61.3352 25.5571 61.5132C25.6661 61.6912 25.7206 61.8892 25.7206 62.1072C25.7206 62.2632 25.6923 62.4157 25.6358 62.5647C25.5806 62.7123 25.484 62.8772 25.346 63.0594C25.2094 63.2401 25.0196 63.4609 24.7768 63.7217L23.8247 64.74V64.7732H25.7951V65.2285H23.1209ZM28.0326 65.2865C27.7207 65.2865 27.4551 65.2016 27.2357 65.0319C27.0163 64.8608 26.8487 64.6131 26.7328 64.2888C26.6168 63.9632 26.5589 63.5699 26.5589 63.109C26.5589 62.6509 26.6168 62.2597 26.7328 61.9355C26.85 61.6098 27.0184 61.3614 27.2378 61.1903C27.4586 61.0178 27.7235 60.9316 28.0326 60.9316C28.3417 60.9316 28.6059 61.0178 28.8253 61.1903C29.0461 61.3614 29.2144 61.6098 29.3304 61.9355C29.4476 62.2597 29.5063 62.6509 29.5063 63.109C29.5063 63.5699 29.4483 63.9632 29.3324 64.2888C29.2165 64.6131 29.0489 64.8608 28.8295 65.0319C28.6101 65.2016 28.3444 65.2865 28.0326 65.2865ZM28.0326 64.8311C28.3417 64.8311 28.5818 64.6821 28.7529 64.384C28.924 64.086 29.0095 63.661 29.0095 63.109C29.0095 62.742 28.9702 62.4294 28.8916 62.1714C28.8143 61.9134 28.7025 61.7167 28.5562 61.5815C28.4114 61.4463 28.2368 61.3787 28.0326 61.3787C27.7263 61.3787 27.4869 61.5298 27.3144 61.832C27.1419 62.1328 27.0556 62.5585 27.0556 63.109C27.0556 63.4761 27.0943 63.7879 27.1716 64.0446C27.2488 64.3012 27.3599 64.4965 27.5048 64.6303C27.6511 64.7642 27.827 64.8311 28.0326 64.8311ZM30.3673 65.2285V60.9896H30.8806V63.0925H30.9303L32.8345 60.9896H33.5052L31.7251 62.9021L33.5052 65.2285H32.8842L31.4105 63.2581L30.8806 63.8542V65.2285H30.3673Z" fill="#1C1C1C" fill-opacity="0.4"/>
<path d="M25.435 84.7898V89.0288H24.9217V85.535H24.8886C24.8692 85.5736 24.8196 85.6178 24.7395 85.6674C24.6595 85.7157 24.556 85.7585 24.4291 85.7958C24.3021 85.8316 24.1572 85.8496 23.9944 85.8496V85.4191C24.1586 85.4191 24.3007 85.3894 24.4208 85.3301C24.5408 85.2707 24.6409 85.201 24.7209 85.121C24.8023 85.041 24.8637 84.9685 24.9051 84.9037C24.9479 84.8388 24.9727 84.8009 24.9796 84.7898H25.435ZM28.0326 89.0868C27.7207 89.0868 27.4551 89.0019 27.2357 88.8322C27.0163 88.6611 26.8487 88.4134 26.7328 88.0891C26.6168 87.7635 26.5589 87.3702 26.5589 86.9093C26.5589 86.4512 26.6168 86.06 26.7328 85.7357C26.85 85.4101 27.0184 85.1617 27.2378 84.9906C27.4586 84.8181 27.7235 84.7319 28.0326 84.7319C28.3417 84.7319 28.6059 84.8181 28.8253 84.9906C29.0461 85.1617 29.2144 85.4101 29.3304 85.7357C29.4476 86.06 29.5063 86.4512 29.5063 86.9093C29.5063 87.3702 29.4483 87.7635 29.3324 88.0891C29.2165 88.4134 29.0489 88.6611 28.8295 88.8322C28.6101 89.0019 28.3444 89.0868 28.0326 89.0868ZM28.0326 88.6314C28.3417 88.6314 28.5818 88.4824 28.7529 88.1843C28.924 87.8863 29.0095 87.4613 29.0095 86.9093C29.0095 86.5423 28.9702 86.2297 28.8916 85.9717C28.8143 85.7137 28.7025 85.517 28.5563 85.3818C28.4114 85.2466 28.2368 85.179 28.0326 85.179C27.7263 85.179 27.4869 85.3301 27.3144 85.6323C27.1419 85.9331 27.0556 86.3588 27.0556 86.9093C27.0556 87.2764 27.0943 87.5882 27.1716 87.8449C27.2488 88.1015 27.3599 88.2968 27.5048 88.4306C27.6511 88.5645 27.827 88.6314 28.0326 88.6314ZM30.3673 89.0288V84.7898H30.8806V86.8928H30.9303L32.8345 84.7898H33.5052L31.7251 86.7023L33.5052 89.0288H32.8842L31.4105 87.0584L30.8806 87.6545V89.0288H30.3673Z" fill="#1C1C1C" fill-opacity="0.4"/>
<path d="M31.8348 112.887C31.523 112.887 31.2573 112.802 31.0379 112.632C30.8185 112.461 30.6509 112.213 30.535 111.889C30.4191 111.563 30.3611 111.17 30.3611 110.709C30.3611 110.251 30.4191 109.86 30.535 109.536C30.6523 109.21 30.8206 108.962 31.04 108.79C31.2608 108.618 31.5257 108.532 31.8348 108.532C32.1439 108.532 32.4082 108.618 32.6276 108.79C32.8483 108.962 33.0167 109.21 33.1326 109.536C33.2499 109.86 33.3085 110.251 33.3085 110.709C33.3085 111.17 33.2506 111.563 33.1347 111.889C33.0188 112.213 32.8511 112.461 32.6317 112.632C32.4123 112.802 32.1467 112.887 31.8348 112.887ZM31.8348 112.431C32.1439 112.431 32.384 112.282 32.5551 111.984C32.7262 111.686 32.8118 111.261 32.8118 110.709C32.8118 110.342 32.7724 110.03 32.6938 109.772C32.6165 109.513 32.5047 109.317 32.3585 109.182C32.2136 109.046 32.039 108.979 31.8348 108.979C31.5285 108.979 31.2891 109.13 31.1166 109.432C30.9441 109.733 30.8579 110.159 30.8579 110.709C30.8579 111.076 30.8965 111.388 30.9738 111.645C31.0511 111.901 31.1621 112.097 31.307 112.23C31.4533 112.364 31.6292 112.431 31.8348 112.431Z" fill="#1C1C1C" fill-opacity="0.4"/>
<path d="M48.5335 127.714V123.475H49.0468V127.259H51.0173V127.714H48.5335ZM51.7458 127.714V124.535H52.2343V127.714H51.7458ZM51.9942 124.005C51.899 124.005 51.8169 123.973 51.7479 123.908C51.6803 123.843 51.6465 123.765 51.6465 123.674C51.6465 123.583 51.6803 123.505 51.7479 123.44C51.8169 123.375 51.899 123.343 51.9942 123.343C52.0894 123.343 52.1708 123.375 52.2384 123.44C52.3074 123.505 52.3419 123.583 52.3419 123.674C52.3419 123.765 52.3074 123.843 52.2384 123.908C52.1708 123.973 52.0894 124.005 51.9942 124.005ZM53.6175 125.802V127.714H53.129V124.535H53.6009V125.032H53.6423C53.7168 124.87 53.83 124.741 53.9817 124.643C54.1335 124.543 54.3295 124.494 54.5696 124.494C54.7848 124.494 54.9732 124.538 55.1346 124.626C55.2961 124.713 55.4216 124.846 55.5113 125.024C55.601 125.2 55.6459 125.424 55.6459 125.694V127.714H55.1574V125.727C55.1574 125.478 55.0925 125.283 54.9628 125.144C54.8331 125.003 54.6551 124.933 54.4288 124.933C54.2729 124.933 54.1335 124.966 54.0107 125.034C53.8893 125.102 53.7934 125.2 53.723 125.33C53.6526 125.46 53.6175 125.617 53.6175 125.802ZM58.542 126.415V124.535H59.0305V127.714H58.542V127.176H58.5089C58.4344 127.338 58.3185 127.475 58.1612 127.588C58.0039 127.7 57.8052 127.756 57.5651 127.756C57.3664 127.756 57.1898 127.712 57.0352 127.625C56.8807 127.537 56.7592 127.405 56.6709 127.228C56.5826 127.05 56.5385 126.826 56.5385 126.555V124.535H57.0269V126.522C57.0269 126.754 57.0918 126.939 57.2215 127.077C57.3526 127.215 57.5196 127.284 57.7224 127.284C57.8438 127.284 57.9673 127.253 58.0929 127.191C58.2198 127.129 58.3261 127.033 58.4116 126.905C58.4986 126.777 58.542 126.613 58.542 126.415ZM60.2895 124.535L61.0512 125.835L61.8128 124.535H62.3758L61.3492 126.125L62.3758 127.714H61.8128L61.0512 126.481L60.2895 127.714H59.7265L60.7365 126.125L59.7265 124.535H60.2895Z" fill="#1C1C1C" fill-opacity="0.4"/>
<path d="M77.5967 123.475H78.2093L79.6499 126.994H79.6996L81.1402 123.475H81.7528V127.714H81.2726V124.494H81.2312L79.9066 127.714H79.4429L78.1183 124.494H78.0769V127.714H77.5967V123.475ZM83.9163 127.781C83.6514 127.781 83.4175 127.714 83.2146 127.58C83.0118 127.445 82.8531 127.254 82.7386 127.009C82.624 126.762 82.5668 126.47 82.5668 126.133C82.5668 125.799 82.624 125.509 82.7386 125.264C82.8531 125.018 83.0125 124.828 83.2167 124.695C83.4209 124.561 83.6569 124.494 83.9246 124.494C84.1316 124.494 84.2951 124.528 84.4151 124.597C84.5365 124.665 84.629 124.742 84.6925 124.829C84.7573 124.915 84.8077 124.985 84.8436 125.04H84.885V124.535H85.3734V127.714H84.9015V127.226H84.8436C84.8077 127.284 84.7566 127.357 84.6904 127.445C84.6242 127.532 84.5296 127.61 84.4068 127.679C84.284 127.747 84.1205 127.781 83.9163 127.781ZM83.9825 127.342C84.1785 127.342 84.3441 127.291 84.4793 127.189C84.6145 127.085 84.7173 126.942 84.7877 126.76C84.8581 126.577 84.8932 126.365 84.8932 126.125C84.8932 125.887 84.8587 125.68 84.7898 125.502C84.7208 125.322 84.6186 125.183 84.4834 125.084C84.3482 124.983 84.1812 124.933 83.9825 124.933C83.7755 124.933 83.6031 124.986 83.4651 125.092C83.3285 125.197 83.2257 125.34 83.1567 125.52C83.0891 125.7 83.0553 125.901 83.0553 126.125C83.0553 126.351 83.0898 126.557 83.1587 126.742C83.2291 126.925 83.3326 127.071 83.4692 127.18C83.6072 127.288 83.7783 127.342 83.9825 127.342ZM87.6275 127.781C87.3294 127.781 87.0727 127.71 86.8575 127.569C86.6422 127.429 86.4766 127.235 86.3607 126.988C86.2448 126.741 86.1869 126.459 86.1869 126.141C86.1869 125.818 86.2462 125.533 86.3649 125.286C86.4849 125.038 86.6519 124.844 86.8658 124.705C87.081 124.564 87.3322 124.494 87.6192 124.494C87.8427 124.494 88.0442 124.535 88.2236 124.618C88.4029 124.701 88.5499 124.817 88.6644 124.966C88.779 125.115 88.85 125.289 88.8776 125.487H88.3891C88.3519 125.342 88.2691 125.214 88.1408 125.102C88.0138 124.989 87.8427 124.933 87.6275 124.933C87.437 124.933 87.2701 124.982 87.1266 125.082C86.9844 125.18 86.8734 125.318 86.7933 125.498C86.7147 125.676 86.6753 125.885 86.6753 126.125C86.6753 126.37 86.714 126.584 86.7913 126.766C86.8699 126.949 86.9803 127.09 87.1224 127.191C87.2659 127.291 87.4343 127.342 87.6275 127.342C87.7544 127.342 87.8696 127.32 87.9731 127.276C88.0766 127.231 88.1642 127.168 88.236 127.085C88.3077 127.002 88.3588 126.903 88.3891 126.787H88.8776C88.85 126.975 88.7817 127.144 88.6727 127.294C88.5651 127.443 88.4223 127.562 88.2443 127.65C88.0676 127.737 87.862 127.781 87.6275 127.781Z" fill="#1C1C1C" fill-opacity="0.4"/>
<path d="M106.58 127.714V124.535H107.069V127.714H106.58ZM106.829 124.005C106.733 124.005 106.651 123.973 106.582 123.908C106.515 123.843 106.481 123.765 106.481 123.674C106.481 123.583 106.515 123.505 106.582 123.44C106.651 123.375 106.733 123.343 106.829 123.343C106.924 123.343 107.005 123.375 107.073 123.44C107.142 123.505 107.176 123.583 107.176 123.674C107.176 123.765 107.142 123.843 107.073 123.908C107.005 123.973 106.924 124.005 106.829 124.005ZM111.606 125.595C111.606 126.042 111.526 126.428 111.364 126.754C111.203 127.08 110.981 127.331 110.7 127.507C110.418 127.684 110.097 127.772 109.735 127.772C109.374 127.772 109.052 127.684 108.771 127.507C108.489 127.331 108.268 127.08 108.106 126.754C107.945 126.428 107.864 126.042 107.864 125.595C107.864 125.148 107.945 124.761 108.106 124.436C108.268 124.11 108.489 123.859 108.771 123.682C109.052 123.506 109.374 123.417 109.735 123.417C110.097 123.417 110.418 123.506 110.7 123.682C110.981 123.859 111.203 124.11 111.364 124.436C111.526 124.761 111.606 125.148 111.606 125.595ZM111.11 125.595C111.11 125.228 111.048 124.918 110.925 124.666C110.804 124.413 110.639 124.222 110.431 124.092C110.224 123.962 109.992 123.898 109.735 123.898C109.479 123.898 109.246 123.962 109.038 124.092C108.831 124.222 108.666 124.413 108.543 124.666C108.422 124.918 108.361 125.228 108.361 125.595C108.361 125.962 108.422 126.272 108.543 126.524C108.666 126.777 108.831 126.968 109.038 127.098C109.246 127.227 109.479 127.292 109.735 127.292C109.992 127.292 110.224 127.227 110.431 127.098C110.639 126.968 110.804 126.777 110.925 126.524C111.048 126.272 111.11 125.962 111.11 125.595ZM114.788 124.535C114.763 124.325 114.662 124.163 114.485 124.047C114.309 123.931 114.092 123.873 113.835 123.873C113.648 123.873 113.484 123.903 113.343 123.964C113.203 124.025 113.094 124.108 113.016 124.214C112.939 124.321 112.9 124.441 112.9 124.577C112.9 124.69 112.927 124.787 112.981 124.868C113.036 124.948 113.106 125.015 113.192 125.069C113.277 125.122 113.367 125.165 113.461 125.2C113.555 125.233 113.641 125.26 113.72 125.28L114.15 125.396C114.26 125.425 114.383 125.465 114.518 125.516C114.655 125.567 114.785 125.637 114.91 125.725C115.035 125.812 115.139 125.924 115.22 126.061C115.302 126.197 115.342 126.365 115.342 126.564C115.342 126.793 115.282 127 115.162 127.184C115.044 127.369 114.87 127.516 114.641 127.625C114.413 127.734 114.136 127.789 113.811 127.789C113.507 127.789 113.244 127.74 113.022 127.642C112.801 127.544 112.627 127.407 112.5 127.232C112.375 127.057 112.304 126.853 112.287 126.621H112.817C112.831 126.782 112.885 126.914 112.979 127.019C113.074 127.122 113.194 127.2 113.339 127.251C113.485 127.3 113.642 127.325 113.811 127.325C114.007 127.325 114.182 127.293 114.338 127.23C114.494 127.165 114.618 127.075 114.709 126.961C114.8 126.845 114.846 126.71 114.846 126.555C114.846 126.415 114.806 126.3 114.728 126.212C114.649 126.123 114.545 126.052 114.417 125.996C114.289 125.941 114.15 125.893 114.001 125.852L113.479 125.703C113.148 125.607 112.886 125.471 112.693 125.295C112.5 125.118 112.403 124.887 112.403 124.601C112.403 124.364 112.467 124.157 112.596 123.98C112.725 123.802 112.899 123.664 113.117 123.566C113.337 123.467 113.582 123.417 113.852 123.417C114.125 123.417 114.368 123.466 114.581 123.564C114.793 123.661 114.961 123.793 115.086 123.962C115.211 124.13 115.277 124.321 115.284 124.535H114.788Z" fill="#1C1C1C" fill-opacity="0.4"/>
<path d="M127.429 127.714L126.27 123.475H126.792L127.678 126.928H127.719L128.622 123.475H129.201L130.104 126.928H130.145L131.031 123.475H131.552L130.393 127.714H129.864L128.928 124.336H128.895L127.959 127.714H127.429ZM132.126 127.714V124.535H132.614V127.714H132.126ZM132.374 124.005C132.279 124.005 132.197 123.973 132.128 123.908C132.06 123.843 132.026 123.765 132.026 123.674C132.026 123.583 132.06 123.505 132.128 123.44C132.197 123.375 132.279 123.343 132.374 123.343C132.469 123.343 132.551 123.375 132.618 123.44C132.687 123.505 132.722 123.583 132.722 123.674C132.722 123.765 132.687 123.843 132.618 123.908C132.551 123.973 132.469 124.005 132.374 124.005ZM133.997 125.802V127.714H133.509V124.535H133.981V125.032H134.022C134.097 124.87 134.21 124.741 134.362 124.643C134.513 124.543 134.709 124.494 134.95 124.494C135.165 124.494 135.353 124.538 135.515 124.626C135.676 124.713 135.802 124.846 135.891 125.024C135.981 125.2 136.026 125.424 136.026 125.694V127.714H135.537V125.727C135.537 125.478 135.473 125.283 135.343 125.144C135.213 125.003 135.035 124.933 134.809 124.933C134.653 124.933 134.513 124.966 134.391 125.034C134.269 125.102 134.173 125.2 134.103 125.33C134.033 125.46 133.997 125.617 133.997 125.802ZM138.119 127.781C137.854 127.781 137.62 127.714 137.417 127.58C137.214 127.445 137.056 127.254 136.941 127.009C136.827 126.762 136.769 126.47 136.769 126.133C136.769 125.799 136.827 125.509 136.941 125.264C137.056 125.018 137.215 124.828 137.419 124.695C137.624 124.561 137.86 124.494 138.127 124.494C138.334 124.494 138.498 124.528 138.618 124.597C138.739 124.665 138.832 124.742 138.895 124.829C138.96 124.915 139.01 124.985 139.046 125.04H139.088V123.475H139.576V127.714H139.104V127.226H139.046C139.01 127.284 138.959 127.357 138.893 127.445C138.827 127.532 138.732 127.61 138.609 127.679C138.487 127.747 138.323 127.781 138.119 127.781ZM138.185 127.342C138.381 127.342 138.547 127.291 138.682 127.189C138.817 127.085 138.92 126.942 138.99 126.76C139.061 126.577 139.096 126.365 139.096 126.125C139.096 125.887 139.061 125.68 138.992 125.502C138.923 125.322 138.821 125.183 138.686 125.084C138.551 124.983 138.384 124.933 138.185 124.933C137.978 124.933 137.806 124.986 137.668 125.092C137.531 125.197 137.428 125.34 137.359 125.52C137.292 125.7 137.258 125.901 137.258 126.125C137.258 126.351 137.292 126.557 137.361 126.742C137.432 126.925 137.535 127.071 137.672 127.18C137.81 127.288 137.981 127.342 138.185 127.342ZM141.83 127.781C141.543 127.781 141.291 127.712 141.075 127.576C140.859 127.439 140.691 127.248 140.57 127.002C140.45 126.757 140.389 126.47 140.389 126.141C140.389 125.81 140.45 125.521 140.57 125.274C140.691 125.027 140.859 124.835 141.075 124.699C141.291 124.562 141.543 124.494 141.83 124.494C142.117 124.494 142.368 124.562 142.583 124.699C142.8 124.835 142.968 125.027 143.089 125.274C143.21 125.521 143.271 125.81 143.271 126.141C143.271 126.47 143.21 126.757 143.089 127.002C142.968 127.248 142.8 127.439 142.583 127.576C142.368 127.712 142.117 127.781 141.83 127.781ZM141.83 127.342C142.048 127.342 142.227 127.286 142.368 127.174C142.509 127.062 142.613 126.915 142.681 126.733C142.748 126.551 142.782 126.354 142.782 126.141C142.782 125.929 142.748 125.731 142.681 125.547C142.613 125.364 142.509 125.215 142.368 125.102C142.227 124.989 142.048 124.933 141.83 124.933C141.612 124.933 141.433 124.989 141.292 125.102C141.151 125.215 141.047 125.364 140.979 125.547C140.912 125.731 140.878 125.929 140.878 126.141C140.878 126.354 140.912 126.551 140.979 126.733C141.047 126.915 141.151 127.062 141.292 127.174C141.433 127.286 141.612 127.342 141.83 127.342ZM144.628 127.714L143.66 124.535H144.173L144.86 126.969H144.893L145.572 124.535H146.094L146.764 126.961H146.798L147.485 124.535H147.998L147.029 127.714H146.549L145.854 125.272H145.804L145.109 127.714H144.628ZM150.896 125.247L150.457 125.371C150.429 125.298 150.389 125.227 150.335 125.158C150.282 125.088 150.211 125.03 150.12 124.984C150.029 124.939 149.912 124.916 149.77 124.916C149.575 124.916 149.413 124.961 149.283 125.051C149.155 125.139 149.091 125.251 149.091 125.388C149.091 125.509 149.135 125.605 149.223 125.676C149.312 125.746 149.45 125.805 149.637 125.852L150.109 125.967C150.394 126.036 150.605 126.142 150.745 126.284C150.884 126.425 150.954 126.606 150.954 126.828C150.954 127.011 150.901 127.173 150.796 127.317C150.693 127.46 150.548 127.574 150.362 127.656C150.176 127.739 149.959 127.781 149.712 127.781C149.388 127.781 149.119 127.71 148.907 127.569C148.694 127.429 148.56 127.223 148.503 126.953L148.967 126.837C149.011 127.008 149.094 127.136 149.217 127.222C149.341 127.307 149.504 127.35 149.704 127.35C149.931 127.35 150.112 127.302 150.246 127.205C150.381 127.107 150.449 126.99 150.449 126.853C150.449 126.743 150.41 126.65 150.333 126.576C150.256 126.5 150.137 126.443 149.977 126.406L149.447 126.282C149.156 126.213 148.942 126.106 148.805 125.961C148.67 125.815 148.602 125.632 148.602 125.413C148.602 125.233 148.653 125.075 148.754 124.937C148.856 124.799 148.994 124.69 149.17 124.612C149.346 124.533 149.546 124.494 149.77 124.494C150.084 124.494 150.331 124.563 150.511 124.701C150.692 124.839 150.82 125.021 150.896 125.247Z" fill="#1C1C1C" fill-opacity="0.4"/>
<path d="M156.412 127.714H155.873L157.43 123.475H157.96L159.516 127.714H158.978L157.711 124.146H157.678L156.412 127.714ZM156.61 126.059H158.779V126.514H156.61V126.059ZM160.599 125.802V127.714H160.11V124.535H160.582V125.032H160.624C160.698 124.87 160.811 124.741 160.963 124.643C161.115 124.543 161.311 124.494 161.551 124.494C161.766 124.494 161.955 124.538 162.116 124.626C162.277 124.713 162.403 124.846 162.493 125.024C162.582 125.2 162.627 125.424 162.627 125.694V127.714H162.139V125.727C162.139 125.478 162.074 125.283 161.944 125.144C161.814 125.003 161.636 124.933 161.41 124.933C161.254 124.933 161.115 124.966 160.992 125.034C160.871 125.102 160.775 125.2 160.704 125.33C160.634 125.46 160.599 125.617 160.599 125.802ZM164.72 127.781C164.455 127.781 164.221 127.714 164.019 127.58C163.816 127.445 163.657 127.254 163.543 127.009C163.428 126.762 163.371 126.47 163.371 126.133C163.371 125.799 163.428 125.509 163.543 125.264C163.657 125.018 163.817 124.828 164.021 124.695C164.225 124.561 164.461 124.494 164.729 124.494C164.936 124.494 165.099 124.528 165.219 124.597C165.341 124.665 165.433 124.742 165.496 124.829C165.561 124.915 165.612 124.985 165.648 125.04H165.689V123.475H166.177V127.714H165.706V127.226H165.648C165.612 127.284 165.561 127.357 165.494 127.445C165.428 127.532 165.334 127.61 165.211 127.679C165.088 127.747 164.925 127.781 164.72 127.781ZM164.787 127.342C164.982 127.342 165.148 127.291 165.283 127.189C165.419 127.085 165.521 126.942 165.592 126.76C165.662 126.577 165.697 126.365 165.697 126.125C165.697 125.887 165.663 125.68 165.594 125.502C165.525 125.322 165.423 125.183 165.287 125.084C165.152 124.983 164.985 124.933 164.787 124.933C164.58 124.933 164.407 124.986 164.269 125.092C164.132 125.197 164.03 125.34 163.961 125.52C163.893 125.7 163.859 125.901 163.859 126.125C163.859 126.351 163.894 126.557 163.963 126.742C164.033 126.925 164.137 127.071 164.273 127.18C164.411 127.288 164.582 127.342 164.787 127.342ZM167.14 127.714V124.535H167.612V125.015H167.645C167.703 124.858 167.808 124.73 167.96 124.632C168.111 124.534 168.282 124.485 168.473 124.485C168.509 124.485 168.554 124.486 168.607 124.488C168.661 124.489 168.702 124.491 168.73 124.494V124.99C168.713 124.986 168.675 124.98 168.616 124.972C168.558 124.962 168.496 124.957 168.431 124.957C168.277 124.957 168.139 124.99 168.018 125.055C167.897 125.118 167.802 125.206 167.732 125.32C167.663 125.431 167.628 125.559 167.628 125.703V127.714H167.14ZM170.503 127.781C170.216 127.781 169.965 127.712 169.748 127.576C169.533 127.439 169.364 127.248 169.243 127.002C169.123 126.757 169.063 126.47 169.063 126.141C169.063 125.81 169.123 125.521 169.243 125.274C169.364 125.027 169.533 124.835 169.748 124.699C169.965 124.562 170.216 124.494 170.503 124.494C170.79 124.494 171.041 124.562 171.257 124.699C171.473 124.835 171.642 125.027 171.762 125.274C171.883 125.521 171.944 125.81 171.944 126.141C171.944 126.47 171.883 126.757 171.762 127.002C171.642 127.248 171.473 127.439 171.257 127.576C171.041 127.712 170.79 127.781 170.503 127.781ZM170.503 127.342C170.721 127.342 170.901 127.286 171.041 127.174C171.182 127.062 171.286 126.915 171.354 126.733C171.422 126.551 171.455 126.354 171.455 126.141C171.455 125.929 171.422 125.731 171.354 125.547C171.286 125.364 171.182 125.215 171.041 125.102C170.901 124.989 170.721 124.933 170.503 124.933C170.285 124.933 170.106 124.989 169.965 125.102C169.824 125.215 169.72 125.364 169.653 125.547C169.585 125.731 169.551 125.929 169.551 126.141C169.551 126.354 169.585 126.551 169.653 126.733C169.72 126.915 169.824 127.062 169.965 127.174C170.106 127.286 170.285 127.342 170.503 127.342ZM172.69 127.714V124.535H173.178V127.714H172.69ZM172.938 124.005C172.843 124.005 172.761 123.973 172.692 123.908C172.624 123.843 172.59 123.765 172.59 123.674C172.59 123.583 172.624 123.505 172.692 123.44C172.761 123.375 172.843 123.343 172.938 123.343C173.033 123.343 173.115 123.375 173.182 123.44C173.251 123.505 173.286 123.583 173.286 123.674C173.286 123.765 173.251 123.843 173.182 123.908C173.115 123.973 173.033 124.005 172.938 124.005ZM175.273 127.781C175.008 127.781 174.774 127.714 174.572 127.58C174.369 127.445 174.21 127.254 174.095 127.009C173.981 126.762 173.924 126.47 173.924 126.133C173.924 125.799 173.981 125.509 174.095 125.264C174.21 125.018 174.369 124.828 174.574 124.695C174.778 124.561 175.014 124.494 175.281 124.494C175.488 124.494 175.652 124.528 175.772 124.597C175.893 124.665 175.986 124.742 176.049 124.829C176.114 124.915 176.165 124.985 176.2 125.04H176.242V123.475H176.73V127.714H176.258V127.226H176.2C176.165 127.284 176.114 127.357 176.047 127.445C175.981 127.532 175.887 127.61 175.764 127.679C175.641 127.747 175.477 127.781 175.273 127.781ZM175.339 127.342C175.535 127.342 175.701 127.291 175.836 127.189C175.971 127.085 176.074 126.942 176.145 126.76C176.215 126.577 176.25 126.365 176.25 126.125C176.25 125.887 176.216 125.68 176.147 125.502C176.078 125.322 175.976 125.183 175.84 125.084C175.705 124.983 175.538 124.933 175.339 124.933C175.132 124.933 174.96 124.986 174.822 125.092C174.685 125.197 174.583 125.34 174.514 125.52C174.446 125.7 174.412 125.901 174.412 126.125C174.412 126.351 174.447 126.557 174.516 126.742C174.586 126.925 174.69 127.071 174.826 127.18C174.964 127.288 175.135 127.342 175.339 127.342Z" fill="#1C1C1C" fill-opacity="0.4"/>
<path d="M190.551 125.595C190.551 126.042 190.47 126.428 190.309 126.754C190.147 127.08 189.926 127.331 189.644 127.507C189.363 127.684 189.041 127.772 188.68 127.772C188.318 127.772 187.997 127.684 187.715 127.507C187.434 127.331 187.212 127.08 187.051 126.754C186.889 126.428 186.809 126.042 186.809 125.595C186.809 125.148 186.889 124.761 187.051 124.436C187.212 124.11 187.434 123.859 187.715 123.682C187.997 123.506 188.318 123.417 188.68 123.417C189.041 123.417 189.363 123.506 189.644 123.682C189.926 123.859 190.147 124.11 190.309 124.436C190.47 124.761 190.551 125.148 190.551 125.595ZM190.054 125.595C190.054 125.228 189.993 124.918 189.87 124.666C189.749 124.413 189.584 124.222 189.375 124.092C189.168 123.962 188.937 123.898 188.68 123.898C188.423 123.898 188.191 123.962 187.982 124.092C187.775 124.222 187.61 124.413 187.488 124.666C187.366 124.918 187.306 125.228 187.306 125.595C187.306 125.962 187.366 126.272 187.488 126.524C187.61 126.777 187.775 126.968 187.982 127.098C188.191 127.227 188.423 127.292 188.68 127.292C188.937 127.292 189.168 127.227 189.375 127.098C189.584 126.968 189.749 126.777 189.87 126.524C189.993 126.272 190.054 125.962 190.054 125.595ZM192.73 124.535V124.949H191.083V124.535H192.73ZM191.563 123.773H192.052V126.804C192.052 126.942 192.072 127.045 192.112 127.114C192.153 127.182 192.205 127.227 192.269 127.251C192.334 127.273 192.402 127.284 192.474 127.284C192.528 127.284 192.572 127.281 192.606 127.276C192.641 127.269 192.668 127.263 192.689 127.259L192.788 127.698C192.755 127.71 192.709 127.723 192.65 127.735C192.59 127.749 192.515 127.756 192.424 127.756C192.286 127.756 192.151 127.726 192.018 127.667C191.887 127.607 191.778 127.517 191.691 127.396C191.606 127.274 191.563 127.121 191.563 126.936V123.773ZM194.022 125.802V127.714H193.534V123.475H194.022V125.032H194.063C194.138 124.868 194.25 124.737 194.399 124.641C194.549 124.543 194.749 124.494 194.999 124.494C195.216 124.494 195.405 124.537 195.568 124.624C195.731 124.71 195.857 124.841 195.947 125.019C196.038 125.196 196.084 125.421 196.084 125.694V127.714H195.595V125.727C195.595 125.475 195.53 125.28 195.398 125.142C195.269 125.002 195.089 124.933 194.858 124.933C194.698 124.933 194.555 124.966 194.428 125.034C194.302 125.102 194.203 125.2 194.13 125.33C194.058 125.46 194.022 125.617 194.022 125.802ZM198.31 127.781C198.004 127.781 197.74 127.713 197.517 127.578C197.297 127.441 197.126 127.251 197.006 127.006C196.888 126.761 196.828 126.475 196.828 126.15C196.828 125.824 196.888 125.537 197.006 125.289C197.126 125.039 197.293 124.844 197.507 124.705C197.722 124.564 197.973 124.494 198.26 124.494C198.426 124.494 198.59 124.521 198.751 124.577C198.912 124.632 199.059 124.721 199.192 124.846C199.324 124.968 199.43 125.131 199.509 125.334C199.587 125.537 199.627 125.787 199.627 126.083V126.29H197.176V125.868H199.13C199.13 125.689 199.094 125.529 199.022 125.388C198.952 125.247 198.851 125.136 198.72 125.055C198.59 124.973 198.437 124.933 198.26 124.933C198.066 124.933 197.898 124.981 197.755 125.077C197.615 125.173 197.506 125.297 197.43 125.45C197.355 125.603 197.317 125.767 197.317 125.943V126.224C197.317 126.464 197.358 126.668 197.441 126.835C197.525 127 197.642 127.127 197.791 127.213C197.94 127.299 198.113 127.342 198.31 127.342C198.438 127.342 198.554 127.324 198.658 127.288C198.763 127.251 198.853 127.196 198.929 127.122C199.005 127.048 199.064 126.955 199.105 126.845L199.577 126.978C199.527 127.138 199.444 127.278 199.326 127.4C199.209 127.52 199.064 127.614 198.892 127.681C198.719 127.747 198.525 127.781 198.31 127.781ZM200.37 127.714V124.535H200.842V125.015H200.875C200.933 124.858 201.037 124.73 201.189 124.632C201.341 124.534 201.512 124.485 201.703 124.485C201.738 124.485 201.783 124.486 201.837 124.488C201.891 124.489 201.932 124.491 201.959 124.494V124.99C201.943 124.986 201.905 124.98 201.845 124.972C201.787 124.962 201.726 124.957 201.661 124.957C201.507 124.957 201.369 124.99 201.247 125.055C201.127 125.118 201.032 125.206 200.962 125.32C200.893 125.431 200.858 125.559 200.858 125.703V127.714H200.37Z" fill="#1C1C1C" fill-opacity="0.4"/>
<path d="M48.5234 82.7475C48.5234 80.4656 48.5234 79.3247 48.9675 78.4531C49.3581 77.6865 49.9814 77.0632 50.7481 76.6726C51.6196 76.2285 52.7605 76.2285 55.0424 76.2285H55.6045C57.8863 76.2285 59.0273 76.2285 59.8988 76.6726C60.6654 77.0632 61.2887 77.6865 61.6794 78.4531C62.1234 79.3247 62.1234 80.4656 62.1234 82.7475V86.4285H48.5234V82.7475Z" fill="#95A4FC"/>
<rect x="48.5234" y="86.4287" width="13.6" height="10.2" fill="#95A4FC"/>
<rect x="48.5234" y="96.6289" width="13.6" height="10.2" fill="#95A4FC"/>
<path d="M48.5234 106.829H62.1234V110.51C62.1234 112.792 62.1234 113.932 61.6794 114.804C61.2887 115.571 60.6654 116.194 59.8988 116.585C59.0273 117.029 57.8863 117.029 55.6045 117.029H55.0424C52.7605 117.029 51.6196 117.029 50.7481 116.585C49.9814 116.194 49.3581 115.571 48.9675 114.804C48.5234 113.932 48.5234 112.792 48.5234 110.51V106.829Z" fill="#95A4FC"/>
<path d="M76.3145 52.1479C76.3145 49.866 76.3145 48.7251 76.7585 47.8535C77.1492 47.0869 77.7724 46.4636 78.5391 46.073C79.4106 45.6289 80.5516 45.6289 82.8334 45.6289H83.3955C85.6774 45.6289 86.8183 45.6289 87.6898 46.073C88.4565 46.4636 89.0798 47.0869 89.4704 47.8535C89.9145 48.7251 89.9145 49.866 89.9145 52.1479V55.8289H76.3145V52.1479Z" fill="#BAEDBD"/>
<rect x="76.3145" y="55.8286" width="13.6" height="10.2" fill="#BAEDBD"/>
<rect x="76.3145" y="66.0288" width="13.6" height="10.2" fill="#BAEDBD"/>
<rect x="76.3145" y="76.2285" width="13.6" height="10.2" fill="#BAEDBD"/>
<rect x="76.3145" y="86.4287" width="13.6" height="10.2" fill="#BAEDBD"/>
<rect x="76.3145" y="96.6289" width="13.6" height="10.2" fill="#BAEDBD"/>
<path d="M76.3145 106.829H89.9145V110.51C89.9145 112.792 89.9145 113.932 89.4704 114.804C89.0798 115.571 88.4565 116.194 87.6898 116.585C86.8183 117.029 85.6774 117.029 83.3955 117.029H82.8334C80.5516 117.029 79.4106 117.029 78.5391 116.585C77.7724 116.194 77.1492 115.571 76.7585 114.804C76.3145 113.932 76.3145 112.792 76.3145 110.51V106.829Z" fill="#BAEDBD"/>
<path d="M104.104 72.5478C104.104 70.2659 104.104 69.125 104.548 68.2534C104.938 67.4868 105.562 66.8635 106.328 66.4729C107.2 66.0288 108.341 66.0288 110.622 66.0288H111.185C113.466 66.0288 114.607 66.0288 115.479 66.4729C116.246 66.8635 116.869 67.4868 117.259 68.2534C117.704 69.125 117.704 70.2659 117.704 72.5478V76.2288H104.104V72.5478Z" fill="#1C1C1C"/>
<rect x="104.104" y="76.2285" width="13.6" height="10.2" fill="#1C1C1C"/>
<rect x="104.104" y="86.4287" width="13.6" height="10.2" fill="#1C1C1C"/>
<rect x="104.104" y="96.6289" width="13.6" height="10.2" fill="#1C1C1C"/>
<path d="M104.104 106.829H117.704V110.51C117.704 112.792 117.704 113.932 117.259 114.804C116.869 115.571 116.246 116.194 115.479 116.585C114.607 117.029 113.466 117.029 111.185 117.029H110.622C108.341 117.029 107.2 117.029 106.328 116.585C105.562 116.194 104.938 115.571 104.548 114.804C104.104 113.932 104.104 112.792 104.104 110.51V106.829Z" fill="#1C1C1C"/>
<path d="M131.895 41.9477C131.895 39.6658 131.895 38.5249 132.339 37.6533C132.729 36.8867 133.353 36.2634 134.119 35.8728C134.991 35.4287 136.132 35.4287 138.413 35.4287H138.976C141.257 35.4287 142.398 35.4287 143.27 35.8728C144.037 36.2634 144.66 36.8867 145.05 37.6533C145.495 38.5249 145.495 39.6658 145.495 41.9477V45.6287H131.895V41.9477Z" fill="#B1E3FF"/>
<rect x="131.895" y="45.6289" width="13.6" height="10.2" fill="#B1E3FF"/>
<rect x="131.895" y="55.8286" width="13.6" height="10.2" fill="#B1E3FF"/>
<rect x="131.895" y="66.0288" width="13.6" height="10.2" fill="#B1E3FF"/>
<rect x="131.895" y="76.2285" width="13.6" height="10.2" fill="#B1E3FF"/>
<rect x="131.895" y="86.4287" width="13.6" height="10.2" fill="#B1E3FF"/>
<rect x="131.895" y="96.6289" width="13.6" height="10.2" fill="#B1E3FF"/>
<path d="M131.895 106.829H145.495V110.51C145.495 112.792 145.495 113.932 145.05 114.804C144.66 115.571 144.037 116.194 143.27 116.585C142.398 117.029 141.257 117.029 138.976 117.029H138.413C136.132 117.029 134.991 117.029 134.119 116.585C133.353 116.194 132.729 115.571 132.339 114.804C131.895 113.932 131.895 112.792 131.895 110.51V106.829Z" fill="#B1E3FF"/>
<path d="M159.686 92.9477C159.686 90.6658 159.686 89.5249 160.13 88.6533C160.52 87.8867 161.144 87.2634 161.91 86.8728C162.782 86.4287 163.923 86.4287 166.204 86.4287H166.767C169.048 86.4287 170.189 86.4287 171.061 86.8728C171.828 87.2634 172.451 87.8867 172.841 88.6533C173.286 89.5249 173.286 90.6658 173.286 92.9477V96.6287H159.686V92.9477Z" fill="#A8C5DA"/>
<rect x="159.686" y="96.6289" width="13.6" height="10.2" fill="#A8C5DA"/>
<path d="M159.686 106.829H173.286V110.51C173.286 112.792 173.286 113.932 172.841 114.804C172.451 115.571 171.828 116.194 171.061 116.585C170.189 117.029 169.048 117.029 166.767 117.029H166.204C163.923 117.029 162.782 117.029 161.91 116.585C161.144 116.194 160.52 115.571 160.13 114.804C159.686 113.932 159.686 112.792 159.686 110.51V106.829Z" fill="#A8C5DA"/>
<path d="M187.477 62.3476C187.477 60.0657 187.477 58.9248 187.921 58.0532C188.311 57.2866 188.935 56.6633 189.701 56.2727C190.573 55.8286 191.714 55.8286 193.996 55.8286H194.558C196.839 55.8286 197.98 55.8286 198.852 56.2727C199.619 56.6633 200.242 57.2866 200.632 58.0532C201.077 58.9248 201.077 60.0657 201.077 62.3476V66.0286H187.477V62.3476Z" fill="#A1E3CB"/>
<rect x="187.477" y="66.0288" width="13.6" height="10.2" fill="#A1E3CB"/>
<rect x="187.477" y="76.2285" width="13.6" height="10.2" fill="#A1E3CB"/>
<rect x="187.477" y="86.4287" width="13.6" height="10.2" fill="#A1E3CB"/>
<rect x="187.477" y="96.6289" width="13.6" height="10.2" fill="#A1E3CB"/>
<path d="M187.477 106.829H201.077V110.51C201.077 112.792 201.077 113.932 200.632 114.804C200.242 115.571 199.619 116.194 198.852 116.585C197.98 117.029 196.839 117.029 194.558 117.029H193.996C191.714 117.029 190.573 117.029 189.701 116.585C188.935 116.194 188.311 115.571 187.921 114.804C187.477 113.932 187.477 112.792 187.477 110.51V106.829Z" fill="#A1E3CB"/>
</g>
<defs>
<filter id="filter0_d_2455_7013" x="0" y="0" width="229.828" height="156" filterUnits="userSpaceOnUse" color-interpolation-filters="sRGB">
<feFlood flood-opacity="0" result="BackgroundImageFix"/>
<feColorMatrix in="SourceAlpha" type="matrix" values="0 0 0 0 0 0 0 0 0 0 0 0 0 0 0 0 0 0 127 0" result="hardAlpha"/>
<feOffset dy="4"/>
<feGaussianBlur stdDeviation="5"/>
<feComposite in2="hardAlpha" operator="out"/>
<feColorMatrix type="matrix" values="0 0 0 0 0 0 0 0 0 0.213005 0 0 0 0 0.213005 0 0 0 0.15 0"/>
<feBlend mode="normal" in2="BackgroundImageFix" result="effect1_dropShadow_2455_7013"/>
<feBlend mode="normal" in="SourceGraphic" in2="effect1_dropShadow_2455_7013" result="shape"/>
</filter>
</defs>
</svg>
