<svg width="102" height="150" viewBox="0 0 102 150" fill="none" xmlns="http://www.w3.org/2000/svg">
<path d="M14.375 98C14.375 81.1984 14.375 72.7976 17.2067 64.7454C19.6976 57.6624 23.6721 50.7783 28.5607 45.0797C34.1183 38.6012 41.3936 34.4008 55.9442 26L59.4083 24C73.9589 15.5992 81.2342 11.3988 86.7918 11.4599C91.6804 11.5137 95.6549 13.8084 98.1458 18.0152C100.978 22.7976 100.978 31.1984 100.978 48V52C100.978 68.8016 100.978 77.2024 98.1458 85.2546C95.6549 92.3376 91.6804 99.2217 86.7918 104.92C81.2342 111.399 73.9589 115.599 59.4083 124L55.9442 126C41.3936 134.401 34.1183 138.601 28.5607 138.54C23.6721 138.486 19.6976 136.192 17.2067 131.985C14.375 127.202 14.375 118.802 14.375 102V98Z" fill="#56B4F3" stroke="#333333" stroke-width="0.5"/>
<path d="M14.375 98C14.375 81.1984 14.375 72.7976 17.2067 64.7454C19.6976 57.6624 23.6721 50.7783 28.5607 45.0797C34.1183 38.6012 41.3936 34.4008 55.9442 26L59.4083 24C73.9589 15.5992 81.2342 11.3988 86.7918 11.4599C91.6804 11.5137 95.6549 13.8084 98.1458 18.0152C100.978 22.7976 100.978 31.1984 100.978 48V52C100.978 68.8016 100.978 77.2024 98.1458 85.2546C95.6549 92.3376 91.6804 99.2217 86.7918 104.92C81.2342 111.399 73.9589 115.599 59.4083 124L55.9442 126C41.3936 134.401 34.1183 138.601 28.5607 138.54C23.6721 138.486 19.6976 136.192 17.2067 131.985C14.375 127.202 14.375 118.802 14.375 102V98Z" fill="#56B4F3" stroke="#333333" stroke-width="0.5"/>
<path fill-rule="evenodd" clip-rule="evenodd" d="M37.322 90.8736C50.288 76.8639 58.9358 67.5686 63.2626 62.9927C75.6163 49.9269 78.1811 47.4156 79.8535 46.4167C80.2232 46.1965 81.0464 45.828 81.5779 46.0181C82.0285 46.1815 82.1527 46.6768 82.2105 47.0436C82.2711 47.4088 82.3433 48.2777 82.2856 49.0248C81.6154 57.533 78.7213 78.9118 77.2453 88.8591C76.6214 93.0682 75.3938 95.0676 74.2067 95.8798C71.6245 97.6474 69.6633 96.5318 67.159 96.0832C63.2453 95.3812 61.0327 94.8142 57.2345 94.1154C52.8412 93.31 55.6892 89.828 58.1905 85.3821C58.8462 84.2198 70.2265 65.6959 70.4489 64.4836C70.4749 64.3318 70.5009 63.8099 70.2409 63.6931C69.981 63.5764 69.5968 63.8916 69.3195 64.1217C68.9267 64.4519 62.6734 72.8349 50.5566 89.276C48.7831 91.7073 47.1742 93.3233 45.7329 94.1188C44.1443 94.9959 41.0912 95.7614 38.8181 96.22C36.0337 96.7836 33.8183 97.509 34.0118 95.623C34.1129 94.6374 35.2163 93.0565 37.322 90.8736Z" fill="white"/>
<path d="M87.5121 11.4598C81.9545 11.3987 74.6792 15.5991 60.1286 23.9999L56.665 25.9998C42.1144 34.4006 34.8395 38.6011 29.2819 45.0796C24.3933 50.7782 20.4183 57.6623 17.9274 64.7452C15.0957 72.7975 15.0954 81.1983 15.0954 97.9999V102C15.0954 118.801 15.0954 127.202 17.927 131.985C19.5755 134.769 21.8744 136.716 24.6577 137.729L10.568 132.601C7.78229 131.588 5.48185 129.641 3.83216 126.855C1.00043 122.072 1 113.671 1 96.8696V92.8696C1 76.068 1 67.6672 3.83173 59.615C6.3226 52.532 10.2974 45.6479 15.186 39.9492C20.7436 33.4708 28.0193 29.2705 42.5697 20.8698L46.0334 18.8696C60.584 10.4688 67.8591 6.26839 73.4167 6.32952C75.0676 6.34767 76.6145 6.62141 78.035 7.13803L92.1304 12.2683C90.7099 11.7517 89.163 11.478 87.5121 11.4598Z" fill="#3B9FE0"/>
<path d="M24.6577 137.729C21.8744 136.716 19.5755 134.769 17.927 131.985C15.0954 127.202 15.0954 118.801 15.0954 102V97.9999C15.0954 81.1983 15.0957 72.7975 17.9274 64.7452C20.4183 57.6623 24.3933 50.7782 29.2819 45.0796C34.8395 38.6011 42.1144 34.4006 56.665 25.9998L60.1286 23.9999C74.6792 15.5991 81.9545 11.3987 87.5121 11.4598C89.163 11.478 90.7099 11.7517 92.1304 12.2683L78.035 7.13803C76.6145 6.62141 75.0676 6.34767 73.4167 6.32952C67.8591 6.26839 60.584 10.4688 46.0334 18.8696L42.5697 20.8698C28.0193 29.2705 20.7436 33.4708 15.186 39.9492C10.2974 45.6479 6.3226 52.532 3.83173 59.615C1 67.6672 1 76.068 1 92.8696V96.8696C1 113.671 1.00043 122.072 3.83216 126.855C5.48185 129.641 7.78229 131.588 10.568 132.601L24.6577 137.729ZM24.6577 137.729L24.6634 137.731" stroke="#333333" stroke-width="0.5"/>
</svg>
