<svg width="512" height="512" viewBox="0 0 512 512" fill="none" xmlns="http://www.w3.org/2000/svg">
<path d="M256 512C397.382 512 512 397.382 512 256C512 114.601 397.382 0 256 0C114.618 0 0 114.601 0 256C0 397.382 114.618 512 256 512Z" fill="url(#paint0_linear_2799_6895)"/>
<path fill-rule="evenodd" clip-rule="evenodd" d="M115.886 253.284C190.509 220.769 240.279 199.325 265.181 188.968C336.279 159.395 351.04 154.259 360.665 154.092C362.793 154.059 367.531 154.591 370.589 157.068C373.183 159.179 373.897 162.005 374.23 164C374.579 165.995 374.995 170.533 374.662 174.09C370.805 214.568 354.149 312.796 345.654 358.128C342.064 377.311 334.999 383.744 328.167 384.376C313.305 385.756 302.018 374.552 287.605 365.11C265.081 350.348 252.347 341.155 230.487 326.743C205.203 310.086 221.594 300.927 235.99 285.966C239.763 282.059 305.26 222.481 306.54 217.078C306.689 216.397 306.838 213.87 305.342 212.54C303.846 211.21 301.635 211.676 300.04 212.025C297.779 212.54 261.79 236.328 192.055 283.406C181.848 290.421 172.588 293.845 164.293 293.662C155.15 293.463 137.579 288.492 124.497 284.237C108.472 279.034 95.7216 276.274 96.8354 267.431C97.4172 262.809 103.768 258.105 115.886 253.284Z" fill="white"/>
<defs>
<linearGradient id="paint0_linear_2799_6895" x1="256" y1="0" x2="256" y2="508.193" gradientUnits="userSpaceOnUse">
<stop stop-color="#2AABEE"/>
<stop offset="1" stop-color="#229ED9"/>
</linearGradient>
</defs>
</svg>
