<svg width="512" height="512" viewBox="0 0 512 512" fill="none" xmlns="http://www.w3.org/2000/svg">
<g clip-path="url(#clip0_2799_6903)">
<path d="M256 512C397.385 512 512 397.385 512 256C512 114.615 397.385 0 256 0C114.615 0 0 114.615 0 256C0 397.385 114.615 512 256 512Z" fill="#6B46B3"/>
<path d="M133.322 172.531V350.619H194.661V384H228.143L261.558 350.585H311.748L378.678 283.857V128H150.03L133.322 172.531ZM172.362 150.232H356.379V272.842L317.339 311.646H256L222.552 344.994V311.646H172.362V150.232Z" fill="white"/>
<path d="M233.701 194.796H256V261.558H233.701V194.796Z" fill="white"/>
<path d="M295.006 194.796H317.305V261.558H295.006V194.796Z" fill="white"/>
</g>
<defs>
<clipPath id="clip0_2799_6903">
<rect width="512" height="512" fill="white"/>
</clipPath>
</defs>
</svg>
