<svg width="48" height="49" viewBox="0 0 48 49" fill="none" xmlns="http://www.w3.org/2000/svg">
<g clip-path="url(#clip0_777_4305)">
<g clip-path="url(#clip1_777_4305)">
<path d="M22.3102 12.5906C18.4639 9.89541 13.0659 8.67401 9.04807 8.22C7.0596 7.99531 5.43604 9.6558 5.43604 11.7045V32.1067C5.43604 34.1554 7.0596 35.8165 9.04807 36.0412C13.0659 36.4952 18.4639 37.7166 22.3102 40.4119C23.0495 40.9299 24.0456 40.9299 24.785 40.4119C28.6312 37.7166 34.0293 36.4952 38.047 36.0412C40.0356 35.8165 41.6591 34.1554 41.6591 32.1067V11.7045C41.6591 9.6558 40.0356 7.99531 38.047 8.22C34.0293 8.67401 28.6312 9.89541 24.785 12.5906C24.0456 13.1086 23.0495 13.1086 22.3102 12.5906Z" fill="#EE5A29"/>
<path d="M11.0079 16.8217C10.5137 16.7451 10.0509 17.0838 9.97442 17.5779C9.8979 18.0722 10.2365 18.535 10.7308 18.6115L11.0079 16.8217ZM17.7873 20.4325C18.2537 20.6129 18.7782 20.381 18.9586 19.9145C19.1389 19.448 18.907 18.9237 18.4406 18.7433L17.7873 20.4325ZM11.0079 24.0663C10.5137 23.9897 10.0509 24.3284 9.97442 24.8226C9.8979 25.3168 10.2365 25.7796 10.7308 25.8561L11.0079 24.0663ZM14.2701 26.5704C14.7551 26.6928 15.2473 26.3988 15.3697 25.9139C15.492 25.4289 15.1981 24.9367 14.7131 24.8143L14.2701 26.5704ZM24.453 13.7297C24.453 13.2296 24.0475 12.8241 23.5474 12.8241C23.0472 12.8241 22.6418 13.2296 22.6418 13.7297H24.453ZM22.6418 39.5371C22.6418 40.0372 23.0472 40.4427 23.5474 40.4427C24.0475 40.4427 24.453 40.0372 24.453 39.5371H22.6418ZM10.7308 18.6115C12.9786 18.9596 15.4694 19.5362 17.7873 20.4325L18.4406 18.7433C15.9691 17.7876 13.3451 17.1837 11.0079 16.8217L10.7308 18.6115ZM10.7308 25.8561C11.8644 26.0317 13.0623 26.2658 14.2701 26.5704L14.7131 24.8143C13.4443 24.4942 12.1905 24.2494 11.0079 24.0663L10.7308 25.8561ZM22.6418 13.7297V39.5371H24.453V13.7297H22.6418ZM8.9462 9.11987C12.9133 9.56815 18.13 10.7674 21.7904 13.3322L22.8297 11.849C18.7974 9.02346 13.2181 7.77992 9.14953 7.32017L8.9462 9.11987ZM8.9462 36.9411C12.9133 37.3893 18.13 38.5886 21.7904 41.1535L22.8297 39.6702C18.7974 36.8447 13.2181 35.6011 9.14953 35.1414L8.9462 36.9411ZM4.53027 11.7046V32.1067H6.34143V11.7046H4.53027ZM9.14953 35.1414C7.58143 34.9642 6.34143 33.6578 6.34143 32.1067H4.53027C4.53027 34.653 6.53739 36.6689 8.9462 36.9411L9.14953 35.1414ZM9.14953 7.32017C6.54035 7.02534 4.53027 9.20335 4.53027 11.7046H6.34143C6.34143 10.1083 7.57847 8.96532 8.9462 9.11987L9.14953 7.32017ZM37.9452 7.32017C33.8767 7.77992 28.2974 9.02346 24.2651 11.849L25.3044 13.3322C28.9647 10.7674 34.1815 9.56815 38.1485 9.11987L37.9452 7.32017ZM37.9452 35.1414C33.8767 35.6011 28.2974 36.8447 24.2651 39.6702L25.3044 41.1535C28.9647 38.5886 34.1815 37.3893 38.1485 36.9411L37.9452 35.1414ZM40.7533 11.7046V32.1067H42.5645V11.7046H40.7533ZM38.1485 36.9411C40.5574 36.6689 42.5645 34.653 42.5645 32.1067H40.7533C40.7533 33.6578 39.5133 34.9642 37.9452 35.1414L38.1485 36.9411ZM38.1485 9.11987C39.5163 8.96532 40.7533 10.1083 40.7533 11.7046H42.5645C42.5645 9.20335 40.5544 7.02534 37.9452 7.32017L38.1485 9.11987ZM21.7904 41.1535C22.8416 41.8901 24.2532 41.8901 25.3044 41.1535L24.2651 39.6702C23.8378 39.9697 23.257 39.9697 22.8297 39.6702L21.7904 41.1535ZM21.7904 13.3322C22.8416 14.0689 24.2532 14.0689 25.3044 13.3322L24.2651 11.849C23.8378 12.1485 23.257 12.1485 22.8297 11.849L21.7904 13.3322Z" fill="#333333"/>
<path d="M23.5476 39.5371V13.7297L22.3102 12.5906C18.4639 9.89541 13.0659 8.67401 9.04807 8.22C7.0596 7.99531 5.43604 9.6558 5.43604 11.7045V32.1067C5.43604 34.1554 7.0596 35.8165 9.04807 36.0412C12.9847 36.4861 18.2461 37.6675 22.075 40.2501C22.2292 40.3542 22.4108 40.4149 22.5945 40.3854C22.9588 40.3271 23.5445 40.1396 23.5476 39.5371Z" fill="white"/>
<path d="M11.0079 16.8217C10.5137 16.7451 10.0509 17.0838 9.97442 17.5779C9.8979 18.0722 10.2365 18.535 10.7308 18.6115L11.0079 16.8217ZM17.7873 20.4325C18.2537 20.6129 18.7782 20.381 18.9586 19.9145C19.1389 19.448 18.907 18.9237 18.4406 18.7433L17.7873 20.4325ZM11.0079 24.0663C10.5137 23.9897 10.0509 24.3284 9.97442 24.8226C9.8979 25.3168 10.2365 25.7796 10.7308 25.8561L11.0079 24.0663ZM14.2701 26.5704C14.7551 26.6928 15.2473 26.3989 15.3697 25.9139C15.492 25.4289 15.1981 24.9367 14.7131 24.8143L14.2701 26.5704ZM23.5474 13.7297H24.453V13.3325L24.1607 13.0635L23.5474 13.7297ZM23.5474 39.5371L24.453 39.5416V39.5371H23.5474ZM22.31 12.5907L22.9234 11.9244L22.8791 11.8836L22.8297 11.849L22.31 12.5907ZM10.7308 18.6115C12.9786 18.9596 15.4694 19.5362 17.7873 20.4325L18.4406 18.7433C15.9691 17.7876 13.3451 17.1837 11.0079 16.8217L10.7308 18.6115ZM10.7308 25.8561C11.8645 26.0317 13.0623 26.2658 14.2701 26.5704L14.7131 24.8143C13.4443 24.4942 12.1905 24.2494 11.0079 24.0663L10.7308 25.8561ZM22.6418 13.7297V39.5371H24.453V13.7297H22.6418ZM8.9462 9.11987C12.9133 9.56815 18.13 10.7674 21.7904 13.3322L22.8297 11.849C18.7974 9.02346 13.2181 7.77992 9.14953 7.32017L8.9462 9.11987ZM8.9462 36.9411C12.8308 37.38 17.9196 38.5398 21.5684 41.001L22.5812 39.4994C18.5723 36.7954 13.1381 35.5921 9.14953 35.1414L8.9462 36.9411ZM4.53027 11.7046V32.1067H6.34143V11.7046H4.53027ZM9.14953 35.1414C7.58143 34.9642 6.34143 33.6578 6.34143 32.1067H4.53027C4.53027 34.653 6.53739 36.6689 8.9462 36.9411L9.14953 35.1414ZM9.14953 7.32017C6.54035 7.02534 4.53027 9.20335 4.53027 11.7046H6.34143C6.34143 10.1083 7.57847 8.96532 8.9462 9.11987L9.14953 7.32017ZM21.6968 13.2569L22.934 14.396L24.1607 13.0635L22.9234 11.9244L21.6968 13.2569ZM22.6418 39.5325C22.6418 39.5338 22.6418 39.5244 22.6463 39.5076C22.651 39.4905 22.6586 39.4722 22.6689 39.4547C22.6899 39.4193 22.7093 39.4082 22.7006 39.4141C22.69 39.4212 22.6621 39.4367 22.6115 39.4534C22.5622 39.4698 22.5066 39.4824 22.451 39.4913L22.7375 41.2797C22.9731 41.2419 23.3608 41.1529 23.712 40.9166C24.1031 40.6532 24.4496 40.1981 24.453 39.5416L22.6418 39.5325ZM21.5684 41.001C21.8493 41.1904 22.261 41.356 22.7375 41.2797L22.451 39.4913C22.5041 39.4829 22.5454 39.4896 22.5674 39.4957C22.5874 39.5013 22.5911 39.506 22.5812 39.4994L21.5684 41.001Z" fill="#333333"/>
</g>
</g>
<defs>
<clipPath id="clip0_777_4305">
<rect width="48" height="47.09" fill="white" transform="translate(0 0.954956)"/>
</clipPath>
<clipPath id="clip1_777_4305">
<rect width="48" height="47.09" fill="white" transform="translate(0 0.954956)"/>
</clipPath>
</defs>
</svg>
