<svg width="48" height="49" viewBox="0 0 48 49" fill="none" xmlns="http://www.w3.org/2000/svg">
<g clip-path="url(#clip0_777_4320)">
<g clip-path="url(#clip1_777_4320)">
<path d="M16.9067 29.7523C16.9067 21.5735 25.4534 13.5169 28.5122 10.8953C29.1373 10.3596 30.0324 10.3596 30.6576 10.8953C33.7163 13.5169 42.2629 21.5735 42.2629 29.7523C42.2629 36.0914 37.462 42.6115 29.5848 42.6115C21.7077 42.6115 16.9067 36.0914 16.9067 29.7523Z" fill="white"/>
<path d="M17.8121 29.7523C17.8121 25.9574 19.8077 22.0941 22.2871 18.7826C24.7504 15.4928 27.5969 12.8722 29.1013 11.5829L27.9227 10.2076C26.3683 11.5398 23.4121 14.2584 20.8374 17.697C18.2789 21.114 16.001 25.3683 16.001 29.7523H17.8121ZM30.068 11.5829C31.5725 12.8722 34.419 15.4928 36.8822 18.7826C39.3617 22.0941 41.3571 25.9574 41.3571 29.7523H43.1683C43.1683 25.3683 40.8905 21.114 38.332 17.697C35.7572 14.2584 32.8011 11.5398 31.2466 10.2076L30.068 11.5829ZM41.3571 29.7523C41.3571 35.6813 36.8761 41.7059 29.5846 41.7059V43.517C38.0476 43.517 43.1683 36.5013 43.1683 29.7523H41.3571ZM29.5846 41.7059C22.2933 41.7059 17.8121 35.6813 17.8121 29.7523H16.001C16.001 36.5013 21.1217 43.517 29.5846 43.517V41.7059ZM29.1013 11.5829C29.3872 11.3378 29.7821 11.3378 30.068 11.5829L31.2466 10.2076C30.2825 9.38131 28.8869 9.38131 27.9227 10.2076L29.1013 11.5829Z" fill="#333333"/>
<path d="M15.8131 7.33023C13.0563 9.81031 6.03955 16.8214 6.03955 23.9365C6.03955 29.5712 10.1546 35.3669 16.9064 35.3669C17.3296 35.3669 17.7424 35.3441 18.1444 35.3C17.3344 33.5535 16.9064 31.6449 16.9064 29.7523C16.9064 24.1095 20.9748 18.5247 24.5022 14.743C22.2923 11.4019 19.5121 8.69104 18.0034 7.33335C17.3736 6.76674 16.4429 6.7637 15.8131 7.33023Z" fill="#EE5A29"/>
<path d="M24.5025 14.743L25.1648 15.3607L25.6516 14.8388L25.2579 14.2434L24.5025 14.743ZM18.1447 35.3001L18.2433 36.2003L19.4967 36.063L18.9662 34.9191L18.1447 35.3001ZM6.94543 23.9366C6.94543 20.6583 8.57248 17.3153 10.6309 14.42C12.676 11.5434 15.0659 9.22083 16.4191 8.00354L15.2078 6.65705C13.804 7.91984 11.3072 10.3429 9.15472 13.3706C7.01557 16.3796 5.13428 20.0998 5.13428 23.9366H6.94543ZM16.9068 34.4613C10.7697 34.4613 6.94543 29.1939 6.94543 23.9366H5.13428C5.13428 29.9486 9.54023 36.2725 16.9067 36.2725L16.9068 34.4613ZM17.3979 8.00659C18.881 9.3411 21.5978 11.993 23.7472 15.2427L25.2579 14.2434C22.9874 10.8109 20.144 8.0411 18.6093 6.66025L17.3979 8.00659ZM17.8123 29.7523C17.8123 27.1433 18.7556 24.493 20.1698 21.9961C21.581 19.5044 23.4301 17.2204 25.1648 15.3607L23.8403 14.1254C22.0475 16.0473 20.0986 18.4467 18.5939 21.1035C17.0921 23.7551 16.0012 26.7185 16.0012 29.7523H17.8123ZM18.046 34.4C17.6772 34.4403 17.2974 34.4613 16.9068 34.4613L16.9067 36.2725C17.3624 36.2725 17.8081 36.248 18.2433 36.2003L18.046 34.4ZM18.9662 34.9191C18.2102 33.289 17.8123 31.51 17.8123 29.7523H16.0012C16.0012 31.7798 16.4592 33.8182 17.3231 35.6811L18.9662 34.9191ZM16.4191 8.00354C16.7022 7.74889 17.1102 7.74774 17.3979 8.00659L18.6093 6.66025C17.6376 5.78587 16.1842 5.77863 15.2078 6.65705L16.4191 8.00354Z" fill="#333333"/>
<path d="M37.7134 31.9413C37.8221 31.4531 37.5144 30.9692 37.0262 30.8606C36.538 30.7519 36.0542 31.0595 35.9455 31.5477L37.7134 31.9413ZM31.2241 36.2889C30.7331 36.3838 30.412 36.8588 30.5069 37.3499C30.6019 37.8409 31.0768 38.162 31.5679 38.0671L31.2241 36.2889ZM35.9455 31.5477C35.442 33.8096 33.7419 35.8021 31.2241 36.2889L31.5679 38.0671C34.8999 37.4229 37.0781 34.7952 37.7134 31.9413L35.9455 31.5477Z" fill="#333333"/>
</g>
</g>
<defs>
<clipPath id="clip0_777_4320">
<rect width="48" height="47.09" fill="white" transform="translate(0 0.954956)"/>
</clipPath>
<clipPath id="clip1_777_4320">
<rect width="48" height="47.09" fill="white" transform="translate(0 0.954956)"/>
</clipPath>
</defs>
</svg>
