<svg width="191" height="96" viewBox="0 0 191 96" fill="none" xmlns="http://www.w3.org/2000/svg">
<g filter="url(#filter0_d_2418_6136)">
<rect x="24" y="20" width="143" height="48" rx="12" fill="white" shape-rendering="crispEdges"/>
<rect x="28" y="24" width="135" height="40" rx="8" fill="#007C23"/>
<path d="M75.83 37.7C77.174 37.7 78.2893 38.1713 79.176 39.114C80.072 40.0567 80.52 41.2187 80.52 42.6C80.52 43.972 80.072 45.134 79.176 46.086C78.2893 47.0287 77.174 47.5 75.83 47.5H71.98V37.7H75.83ZM75.83 45.96C76.754 45.96 77.5053 45.6427 78.084 45.008C78.672 44.3827 78.966 43.58 78.966 42.6C78.966 41.6293 78.672 40.8267 78.084 40.192C77.5053 39.5573 76.754 39.24 75.83 39.24H73.59V45.96H75.83ZM85.1938 47.682C84.1578 47.682 83.2851 47.3273 82.5758 46.618C81.8571 45.8993 81.4978 45.0267 81.4978 44C81.4978 42.9733 81.8571 42.1007 82.5758 41.382C83.2851 40.6727 84.1578 40.318 85.1938 40.318C86.2298 40.318 87.1025 40.6727 87.8118 41.382C88.5305 42.1007 88.8898 42.9733 88.8898 44C88.8898 45.0267 88.5305 45.8993 87.8118 46.618C87.1025 47.3273 86.2298 47.682 85.1938 47.682ZM83.6398 45.582C84.0598 46.002 84.5778 46.212 85.1938 46.212C85.8098 46.212 86.3278 46.002 86.7478 45.582C87.1678 45.162 87.3778 44.6347 87.3778 44C87.3778 43.3653 87.1678 42.838 86.7478 42.418C86.3278 41.998 85.8098 41.788 85.1938 41.788C84.5778 41.788 84.0598 41.998 83.6398 42.418C83.2198 42.838 83.0098 43.3653 83.0098 44C83.0098 44.6347 83.2198 45.162 83.6398 45.582ZM93.939 40.318C94.751 40.318 95.3997 40.5747 95.885 41.088C96.3797 41.592 96.627 42.2967 96.627 43.202V47.5H95.115V43.356C95.115 42.824 94.975 42.4227 94.695 42.152C94.415 41.872 94.0323 41.732 93.547 41.732C93.015 41.732 92.5857 41.9 92.259 42.236C91.9323 42.5627 91.769 43.0667 91.769 43.748V47.5H90.257V40.5H91.769V41.396C92.2357 40.6773 92.959 40.318 93.939 40.318ZM103.799 40.5H105.311V47.5H103.799V46.492C103.23 47.2853 102.413 47.682 101.349 47.682C100.388 47.682 99.5664 47.3273 98.885 46.618C98.2037 45.9087 97.863 45.036 97.863 44C97.863 42.964 98.2037 42.0913 98.885 41.382C99.5664 40.6727 100.388 40.318 101.349 40.318C102.404 40.318 103.22 40.71 103.799 41.494V40.5ZM100.005 45.61C100.425 46.03 100.952 46.24 101.587 46.24C102.222 46.24 102.749 46.03 103.169 45.61C103.589 45.1807 103.799 44.644 103.799 44C103.799 43.356 103.589 42.824 103.169 42.404C102.749 41.9747 102.222 41.76 101.587 41.76C100.952 41.76 100.425 41.9747 100.005 42.404C99.585 42.824 99.375 43.356 99.375 44C99.375 44.644 99.585 45.1807 100.005 45.61ZM110.979 41.956H109.243V45.316C109.243 45.54 109.281 45.7127 109.355 45.834C109.43 45.9553 109.537 46.0393 109.677 46.086C109.827 46.1327 110.009 46.1607 110.223 46.17C110.438 46.17 110.69 46.1607 110.979 46.142V47.5C109.822 47.64 108.991 47.542 108.487 47.206C107.983 46.8607 107.731 46.2307 107.731 45.316V41.956H106.443V40.5H107.731V38.988L109.243 38.54V40.5H110.979V41.956ZM113.254 44.644C113.366 45.176 113.618 45.5867 114.01 45.876C114.411 46.156 114.906 46.296 115.494 46.296C116.287 46.296 116.889 46.0067 117.3 45.428L118.546 46.156C117.864 47.1733 116.842 47.682 115.48 47.682C114.35 47.682 113.431 47.3367 112.722 46.646C112.022 45.946 111.672 45.064 111.672 44C111.672 42.964 112.017 42.0913 112.708 41.382C113.389 40.6727 114.276 40.318 115.368 40.318C116.385 40.318 117.225 40.6773 117.888 41.396C118.55 42.1147 118.882 42.9873 118.882 44.014C118.882 44.0887 118.877 44.182 118.868 44.294C118.858 44.3967 118.844 44.5133 118.826 44.644H113.254ZM117.356 43.412C117.253 42.8427 117.02 42.4133 116.656 42.124C116.292 41.8347 115.858 41.69 115.354 41.69C114.794 41.69 114.327 41.844 113.954 42.152C113.58 42.46 113.342 42.88 113.24 43.412H117.356Z" fill="white"/>
</g>
<defs>
<filter id="filter0_d_2418_6136" x="0" y="0" width="191" height="96" filterUnits="userSpaceOnUse" color-interpolation-filters="sRGB">
<feFlood flood-opacity="0" result="BackgroundImageFix"/>
<feColorMatrix in="SourceAlpha" type="matrix" values="0 0 0 0 0 0 0 0 0 0 0 0 0 0 0 0 0 0 127 0" result="hardAlpha"/>
<feOffset dy="4"/>
<feGaussianBlur stdDeviation="12"/>
<feComposite in2="hardAlpha" operator="out"/>
<feColorMatrix type="matrix" values="0 0 0 0 0 0 0 0 0 0 0 0 0 0 0 0 0 0 0.25 0"/>
<feBlend mode="normal" in2="BackgroundImageFix" result="effect1_dropShadow_2418_6136"/>
<feBlend mode="normal" in="SourceGraphic" in2="effect1_dropShadow_2418_6136" result="shape"/>
</filter>
</defs>
</svg>
