<svg width="111" height="97" viewBox="0 0 111 97" fill="none" xmlns="http://www.w3.org/2000/svg">
<path d="M25 3.5C25 5.43311 26.567 7 28.5 7H50.0503L1.02512 56.0249C-0.341705 57.3921 -0.341705 59.6079 1.02512 60.9751C2.39194 62.3418 4.608 62.3418 5.97482 60.9751L55 11.9497V34C55 35.9331 56.567 37.5 58.5 37.5C60.433 37.5 62 35.9331 62 34V3.5C62 1.56689 60.433 0 58.5 0H28.5C26.567 0 25 1.56689 25 3.5Z" fill="url(#paint0_linear_1243_26314)"/>
<path fill-rule="evenodd" clip-rule="evenodd" d="M77 47C81.9706 47 86 42.9707 86 38C86 33.0293 81.9706 29 77 29C72.0294 29 68 33.0293 68 38C68 42.9707 72.0294 47 77 47ZM77 41C78.6568 41 80 39.6567 80 38C80 36.3433 78.6568 35 77 35C75.3431 35 74 36.3433 74 38C74 39.6567 75.3431 41 77 41Z" fill="url(#paint1_linear_1243_26314)"/>
<path fill-rule="evenodd" clip-rule="evenodd" d="M86 63C86 67.9707 81.9706 72 77 72C72.0294 72 68 67.9707 68 63C68 58.0293 72.0294 54 77 54C81.9706 54 86 58.0293 86 63ZM80 63C80 64.6567 78.6568 66 77 66C75.3431 66 74 64.6567 74 63C74 61.3433 75.3431 60 77 60C78.6568 60 80 61.3433 80 63Z" fill="url(#paint2_linear_1243_26314)"/>
<path fill-rule="evenodd" clip-rule="evenodd" d="M102 72C106.971 72 111 67.9707 111 63C111 58.0293 106.971 54 102 54C97.0294 54 93 58.0293 93 63C93 67.9707 97.0294 72 102 72ZM102 66C103.657 66 105 64.6567 105 63C105 61.3433 103.657 60 102 60C100.343 60 99 61.3433 99 63C99 64.6567 100.343 66 102 66Z" fill="url(#paint3_linear_1243_26314)"/>
<path fill-rule="evenodd" clip-rule="evenodd" d="M102 97C106.971 97 111 92.9707 111 88C111 83.0293 106.971 79 102 79C97.0294 79 93 83.0293 93 88C93 92.9707 97.0294 97 102 97ZM102 91C103.657 91 105 89.6567 105 88C105 86.3433 103.657 85 102 85C100.343 85 99 86.3433 99 88C99 89.6567 100.343 91 102 91Z" fill="url(#paint4_linear_1243_26314)"/>
<path fill-rule="evenodd" clip-rule="evenodd" d="M52 72C56.9706 72 61 67.9707 61 63C61 58.0293 56.9706 54 52 54C47.0294 54 43 58.0293 43 63C43 67.9707 47.0294 72 52 72ZM52 66C53.6568 66 55 64.6567 55 63C55 61.3433 53.6568 60 52 60C50.3431 60 49 61.3433 49 63C49 64.6567 50.3431 66 52 66Z" fill="url(#paint5_linear_1243_26314)"/>
<path fill-rule="evenodd" clip-rule="evenodd" d="M111 38C111 42.9707 106.971 47 102 47C97.0294 47 93 42.9707 93 38C93 33.0293 97.0294 29 102 29C106.971 29 111 33.0293 111 38ZM105 38C105 39.6567 103.657 41 102 41C100.343 41 99 39.6567 99 38C99 36.3433 100.343 35 102 35C103.657 35 105 36.3433 105 38Z" fill="url(#paint6_linear_1243_26314)"/>
<path fill-rule="evenodd" clip-rule="evenodd" d="M102 22C106.971 22 111 17.9707 111 13C111 8.0293 106.971 4 102 4C97.0294 4 93 8.0293 93 13C93 17.9707 97.0294 22 102 22ZM102 16C103.657 16 105 14.6567 105 13C105 11.3433 103.657 10 102 10C100.343 10 99 11.3433 99 13C99 14.6567 100.343 16 102 16Z" fill="url(#paint7_linear_1243_26314)"/>
<path fill-rule="evenodd" clip-rule="evenodd" d="M86 88C86 92.9707 81.9706 97 77 97C72.0294 97 68 92.9707 68 88C68 83.0293 72.0294 79 77 79C81.9706 79 86 83.0293 86 88ZM80 88C80 89.6567 78.6568 91 77 91C75.3431 91 74 89.6567 74 88C74 86.3433 75.3431 85 77 85C78.6568 85 80 86.3433 80 88Z" fill="url(#paint8_linear_1243_26314)"/>
<path fill-rule="evenodd" clip-rule="evenodd" d="M52 97C56.9706 97 61 92.9707 61 88C61 83.0293 56.9706 79 52 79C47.0294 79 43 83.0293 43 88C43 92.9707 47.0294 97 52 97ZM52 91C53.6568 91 55 89.6567 55 88C55 86.3433 53.6568 85 52 85C50.3431 85 49 86.3433 49 88C49 89.6567 50.3431 91 52 91Z" fill="url(#paint9_linear_1243_26314)"/>
<path fill-rule="evenodd" clip-rule="evenodd" d="M36 88C36 92.9707 31.9706 97 27 97C22.0294 97 18 92.9707 18 88C18 83.0293 22.0294 79 27 79C31.9706 79 36 83.0293 36 88ZM30 88C30 89.6567 28.6568 91 27 91C25.3431 91 24 89.6567 24 88C24 86.3433 25.3431 85 27 85C28.6568 85 30 86.3433 30 88Z" fill="url(#paint10_linear_1243_26314)"/>
<defs>
<linearGradient id="paint0_linear_1243_26314" x1="103" y1="-7.23886e-07" x2="32.5" y2="100" gradientUnits="userSpaceOnUse">
<stop stop-color="#E6A4B4"/>
<stop offset="1" stop-color="#E6A4B4" stop-opacity="0"/>
</linearGradient>
<linearGradient id="paint1_linear_1243_26314" x1="103" y1="-7.23886e-07" x2="32.5" y2="100" gradientUnits="userSpaceOnUse">
<stop stop-color="#E6A4B4"/>
<stop offset="1" stop-color="#E6A4B4" stop-opacity="0"/>
</linearGradient>
<linearGradient id="paint2_linear_1243_26314" x1="103" y1="-7.23886e-07" x2="32.5" y2="100" gradientUnits="userSpaceOnUse">
<stop stop-color="#E6A4B4"/>
<stop offset="1" stop-color="#E6A4B4" stop-opacity="0"/>
</linearGradient>
<linearGradient id="paint3_linear_1243_26314" x1="103" y1="-7.23886e-07" x2="32.5" y2="100" gradientUnits="userSpaceOnUse">
<stop stop-color="#E6A4B4"/>
<stop offset="1" stop-color="#E6A4B4" stop-opacity="0"/>
</linearGradient>
<linearGradient id="paint4_linear_1243_26314" x1="103" y1="-7.23886e-07" x2="32.5" y2="100" gradientUnits="userSpaceOnUse">
<stop stop-color="#E6A4B4"/>
<stop offset="1" stop-color="#E6A4B4" stop-opacity="0"/>
</linearGradient>
<linearGradient id="paint5_linear_1243_26314" x1="103" y1="-7.23886e-07" x2="32.5" y2="100" gradientUnits="userSpaceOnUse">
<stop stop-color="#E6A4B4"/>
<stop offset="1" stop-color="#E6A4B4" stop-opacity="0"/>
</linearGradient>
<linearGradient id="paint6_linear_1243_26314" x1="103" y1="-7.23886e-07" x2="32.5" y2="100" gradientUnits="userSpaceOnUse">
<stop stop-color="#E6A4B4"/>
<stop offset="1" stop-color="#E6A4B4" stop-opacity="0"/>
</linearGradient>
<linearGradient id="paint7_linear_1243_26314" x1="103" y1="-7.23886e-07" x2="32.5" y2="100" gradientUnits="userSpaceOnUse">
<stop stop-color="#E6A4B4"/>
<stop offset="1" stop-color="#E6A4B4" stop-opacity="0"/>
</linearGradient>
<linearGradient id="paint8_linear_1243_26314" x1="103" y1="-7.23886e-07" x2="32.5" y2="100" gradientUnits="userSpaceOnUse">
<stop stop-color="#E6A4B4"/>
<stop offset="1" stop-color="#E6A4B4" stop-opacity="0"/>
</linearGradient>
<linearGradient id="paint9_linear_1243_26314" x1="103" y1="-7.23886e-07" x2="32.5" y2="100" gradientUnits="userSpaceOnUse">
<stop stop-color="#E6A4B4"/>
<stop offset="1" stop-color="#E6A4B4" stop-opacity="0"/>
</linearGradient>
<linearGradient id="paint10_linear_1243_26314" x1="103" y1="-7.23886e-07" x2="32.5" y2="100" gradientUnits="userSpaceOnUse">
<stop stop-color="#E6A4B4"/>
<stop offset="1" stop-color="#E6A4B4" stop-opacity="0"/>
</linearGradient>
</defs>
</svg>
