<svg width="247" height="63" viewBox="0 0 247 63" fill="none" xmlns="http://www.w3.org/2000/svg">
<mask id="mask0_3026_2889" style="mask-type:alpha" maskUnits="userSpaceOnUse" x="0" y="7" width="51" height="51">
<path d="M0 16.4154C0 12.0865 0 9.92206 1.34482 8.57724C2.68964 7.23242 4.85409 7.23242 9.183 7.23242H47.8008C49.2951 7.23242 50.5065 8.44381 50.5065 9.93813C50.5065 36.3378 29.1054 57.7389 2.70571 57.7389C1.21139 57.7389 0 56.5276 0 55.0332V16.4154Z" fill="#99EA48"/>
</mask>
<g mask="url(#mask0_3026_2889)">
<path d="M0 16.4154C0 12.0865 0 9.92206 1.34482 8.57724C2.68964 7.23242 4.85409 7.23242 9.183 7.23242H47.8008C49.2951 7.23242 50.5065 8.44381 50.5065 9.93813C50.5065 36.3378 29.1054 57.7389 2.70571 57.7389C1.21139 57.7389 0 56.5276 0 55.0332V16.4154Z" fill="#EE5A29"/>
<path d="M30.6104 27.8941C30.6104 32.2231 30.6104 34.3875 29.2655 35.7323C27.9207 37.0771 25.7563 37.0771 21.4273 37.0771H10.3312C9.69726 37.0771 9.18334 36.5632 9.18334 35.9293C9.18334 24.7294 18.2626 15.6501 29.4625 15.6501C30.0964 15.6501 30.6104 16.1641 30.6104 16.798V27.8941Z" fill="white"/>
</g>
<path d="M82.1918 46.6189C78.4418 46.6189 75.2918 45.3689 72.7418 42.8189C70.2418 40.2689 68.9918 37.1689 68.9918 33.4189C68.9918 29.6689 70.2418 26.5689 72.7418 24.0189C75.2918 21.4689 78.4418 20.2189 82.1918 20.2189C87.0418 20.2189 91.3418 22.7189 93.3918 26.6689L87.8418 29.9189C86.8418 27.8689 84.6918 26.5689 82.1418 26.5689C78.2918 26.5689 75.4418 29.4189 75.4418 33.4189C75.4418 35.3689 76.0918 37.0189 77.3418 38.3189C78.5918 39.5689 80.1918 40.2189 82.1418 40.2189C84.7418 40.2189 86.8918 38.9689 87.8918 36.9189L93.4918 40.1189C91.2918 44.0689 87.0418 46.6189 82.1918 46.6189ZM110.803 20.2189C113.553 20.2189 115.803 21.1189 117.553 22.9689C119.353 24.8189 120.253 27.3189 120.253 30.5689V45.9189H113.803V31.3689C113.803 28.0189 111.853 26.2189 108.853 26.2189C105.503 26.2189 103.353 28.2689 103.353 32.4189V45.9189H96.9031V10.9189H103.353V23.7189C104.903 21.3689 107.403 20.2189 110.803 20.2189ZM150.061 36.0689H131.211C132.061 39.2189 134.411 40.7689 138.261 40.7689C140.711 40.7689 142.611 39.9189 143.861 38.2689L149.061 41.2689C146.611 44.8189 142.961 46.6189 138.161 46.6189C134.011 46.6189 130.711 45.3689 128.211 42.8689C125.711 40.3689 124.461 37.2189 124.461 33.4189C124.461 29.6689 125.711 26.5189 128.161 24.0189C130.611 21.4689 133.811 20.2189 137.661 20.2189C141.311 20.2189 144.361 21.4689 146.711 24.0189C149.111 26.5689 150.311 29.6689 150.311 33.4189C150.311 34.2689 150.211 35.1189 150.061 36.0689ZM131.111 31.0689H143.861C143.111 27.6689 140.611 26.0189 137.661 26.0189C134.211 26.0189 131.861 27.8689 131.111 31.0689ZM166.518 46.6189C162.768 46.6189 159.618 45.3689 157.068 42.8189C154.568 40.2689 153.318 37.1689 153.318 33.4189C153.318 29.6689 154.568 26.5689 157.068 24.0189C159.618 21.4689 162.768 20.2189 166.518 20.2189C171.368 20.2189 175.668 22.7189 177.718 26.6689L172.168 29.9189C171.168 27.8689 169.018 26.5689 166.468 26.5689C162.618 26.5689 159.768 29.4189 159.768 33.4189C159.768 35.3689 160.418 37.0189 161.668 38.3189C162.918 39.5689 164.518 40.2189 166.468 40.2189C169.068 40.2189 171.218 38.9689 172.218 36.9189L177.818 40.1189C175.618 44.0689 171.368 46.6189 166.518 46.6189ZM193.929 33.2689L204.279 45.9189H196.779L187.679 34.5689V45.9189H181.229V10.9189H187.679V31.9189L196.279 20.9189H203.979L193.929 33.2689ZM210.699 17.9189C208.549 17.9189 206.749 16.1189 206.749 13.9689C206.749 11.8189 208.549 9.96894 210.699 9.96894C212.899 9.96894 214.699 11.8189 214.699 13.9689C214.699 16.1189 212.899 17.9189 210.699 17.9189ZM213.949 45.9189H207.499V20.9189H213.949V45.9189ZM244.152 36.0689H225.302C226.152 39.2189 228.502 40.7689 232.352 40.7689C234.802 40.7689 236.702 39.9189 237.952 38.2689L243.152 41.2689C240.702 44.8189 237.052 46.6189 232.252 46.6189C228.102 46.6189 224.802 45.3689 222.302 42.8689C219.802 40.3689 218.552 37.2189 218.552 33.4189C218.552 29.6689 219.802 26.5189 222.252 24.0189C224.702 21.4689 227.902 20.2189 231.752 20.2189C235.402 20.2189 238.452 21.4689 240.802 24.0189C243.202 26.5689 244.402 29.6689 244.402 33.4189C244.402 34.2689 244.302 35.1189 244.152 36.0689ZM225.202 31.0689H237.952C237.202 27.6689 234.702 26.0189 231.752 26.0189C228.302 26.0189 225.952 27.8689 225.202 31.0689Z" fill="#333333"/>
</svg>
