<svg width="44" height="44" viewBox="0 0 44 44" fill="none" xmlns="http://www.w3.org/2000/svg">
<g clip-path="url(#clip0_1003_3191)">
<path d="M37.3251 6.67704C36.9559 6.30785 36.3575 6.30785 35.9881 6.67704L31.5103 11.1546C31.1411 11.5237 31.1411 12.1223 31.5103 12.4915C31.6949 12.6761 31.9368 12.7684 32.1787 12.7684C32.4205 12.7684 32.6625 12.6761 32.8471 12.4915L37.325 8.01379C37.6943 7.64478 37.6943 7.04622 37.3251 6.67704Z" fill="#EE5A29"/>
<path d="M41.0137 15.2724C40.9045 14.762 40.4025 14.4369 39.8914 14.546L35.4135 15.505C34.9031 15.6143 34.5778 16.1168 34.6872 16.6273C34.7822 17.0712 35.1744 17.3749 35.6106 17.3749C35.6762 17.3749 35.7428 17.368 35.8094 17.3537L40.2873 16.3948C40.7979 16.2854 41.123 15.783 41.0137 15.2724Z" fill="#EE5A29"/>
<path d="M28.7294 2.988C28.2193 2.87851 27.7165 3.20387 27.6071 3.71434L26.6481 8.19203C26.5388 8.7025 26.864 9.20506 27.3744 9.31437C27.4411 9.32872 27.5077 9.3356 27.5733 9.3356C28.0095 9.3356 28.4017 9.03181 28.4967 8.58803L29.4557 4.11034C29.5651 3.59979 29.2399 3.09731 28.7294 2.988Z" fill="#EE5A29"/>
<path d="M11.1551 31.5083L6.67728 35.986C6.30809 36.3551 6.30809 36.9536 6.67728 37.3228C6.86187 37.5074 7.10379 37.5997 7.3457 37.5997C7.58753 37.5997 7.82953 37.5074 8.01412 37.3228L12.492 32.8451C12.8612 32.476 12.8612 31.8775 12.492 31.5083C12.1228 31.1391 11.5244 31.1392 11.1551 31.5083Z" fill="#EE5A29"/>
<path d="M9.31452 27.373C9.20529 26.8625 8.70333 26.5376 8.19218 26.6465L3.71432 27.6055C3.20385 27.7148 2.87857 28.2173 2.98797 28.7279C3.08293 29.1717 3.47515 29.4754 3.91137 29.4754C3.97694 29.4754 4.04354 29.4686 4.11023 29.4543L8.58809 28.4953C9.09865 28.3859 9.42383 27.8834 9.31452 27.373Z" fill="#EE5A29"/>
<path d="M16.6279 34.6857C16.1177 34.5765 15.6149 34.9015 15.5056 35.412L14.5465 39.8897C14.4372 40.4002 14.7624 40.9027 15.2729 41.0121C15.3396 41.0264 15.4062 41.0333 15.4717 41.0333C15.908 41.0333 16.3002 40.7295 16.3951 40.2857L17.3542 35.808C17.4637 35.2975 17.1385 34.7951 16.6279 34.6857Z" fill="#EE5A29"/>
<path d="M41.2676 28.0538L35.3095 22.0959C33.5459 20.3324 31.1997 19.3613 28.7032 19.3613C27.5212 19.3613 26.3791 19.5759 25.2995 19.9983L24.0029 18.7018C24.4254 17.6223 24.64 16.4805 24.64 15.2984C24.64 12.802 23.6687 10.456 21.9053 8.69258L15.9471 2.73462C14.1836 0.97118 11.8374 0 9.34089 0C6.84441 0 4.49831 0.97118 2.7347 2.73462C0.971266 4.49823 0 6.84423 0 9.34055C8.59375e-05 11.8369 0.971352 14.1829 2.73479 15.9463L8.69301 21.9041C10.4564 23.6676 12.8025 24.6388 15.299 24.6388C16.4813 24.6388 17.6234 24.4242 18.7028 24.0017L20.0033 25.302C18.668 28.7311 19.474 32.6845 22.0971 35.3075L28.0553 41.2654C29.8189 43.0288 32.1649 44 34.6615 44C37.158 44 39.5042 43.0288 41.2676 41.2653C43.0296 39.5034 44 37.1574 44 34.6596C44 32.1617 43.0296 29.8157 41.2676 28.0538ZM36.4121 32.9091C36.8787 33.3756 37.1357 33.9973 37.1357 34.6595C37.1357 35.3219 36.8787 35.9434 36.4121 36.41C35.4469 37.3753 33.8761 37.3752 32.911 36.41L27.2846 30.7839C28.1769 30.7237 29.0064 30.3498 29.6423 29.714L29.7155 29.6408C30.3515 29.0048 30.7254 28.1753 30.7857 27.283L36.4121 32.9091ZM28.9047 27.0273C28.9047 27.5112 28.7178 27.9646 28.3787 28.3038L28.3055 28.3769C27.9663 28.7161 27.5129 28.9029 27.029 28.9029C26.5451 28.9029 26.0916 28.7161 25.7523 28.3767L15.624 18.2492C14.9202 17.5453 14.9202 16.3998 15.6239 15.6961L15.6968 15.6233C16.0362 15.2839 16.4897 15.097 16.9736 15.097C17.4575 15.097 17.911 15.2838 18.2503 15.6232L28.3785 25.7508C28.7178 26.0901 28.9047 26.5435 28.9047 27.0273ZM7.59034 11.0909C7.1237 10.6244 6.86675 10.0027 6.86675 9.34046C6.86675 8.67814 7.1237 8.05655 7.59034 7.59C8.55542 6.62484 10.1262 6.62466 11.0914 7.59L16.7179 13.2161C15.8255 13.2763 14.996 13.6503 14.36 14.2863L14.287 14.3592C13.6316 15.0147 13.2754 15.8572 13.2162 16.7165L7.59034 11.0909ZM15.299 22.7481C13.3075 22.7481 11.4362 21.9735 10.0299 20.5672L4.07172 14.6094C2.66535 13.203 1.89071 11.3318 1.89062 9.34046C1.89062 7.3492 2.66518 5.47791 4.07163 4.07146C5.478 2.66518 7.34946 1.89062 9.34089 1.89062C11.3323 1.89062 13.2037 2.66518 14.6101 4.07146L20.5684 10.0294C21.9748 11.4357 22.7494 13.3069 22.7494 15.2983C22.7494 15.9516 22.6672 16.5889 22.5056 17.2046C22.5056 17.2046 19.5504 14.2515 19.5322 14.234C19.341 13.4684 18.9483 12.7726 18.3866 12.2109L12.4284 6.25298C10.7259 4.55065 7.95592 4.55065 6.25341 6.25298C5.42979 7.07661 4.97612 8.17309 4.97612 9.34037C4.97612 10.5077 5.42979 11.6041 6.25341 12.4278L12.2116 18.3856C12.7737 18.9476 13.4692 19.3401 14.235 19.5313C14.2967 19.6009 17.1419 22.4379 17.2055 22.5043C16.5898 22.6659 15.9525 22.7481 15.299 22.7481ZM39.9307 39.9285C38.5243 41.3348 36.653 42.1094 34.6615 42.1094C32.6699 42.1094 30.7986 41.3348 29.3923 39.9285L23.434 33.9706C21.5459 32.0824 20.8386 29.3297 21.5013 26.7998C21.5013 26.7998 24.452 29.7484 24.4702 29.7658C24.6614 30.5315 25.054 31.2272 25.6159 31.7891L31.5741 37.7469C32.4254 38.5982 33.5433 39.0238 34.6616 39.0237C35.7796 39.0236 36.8979 38.598 37.7491 37.7469C38.5727 36.9233 39.0264 35.8268 39.0264 34.6595C39.0264 33.4922 38.5727 32.3959 37.7491 31.5722L31.7909 25.6144C31.2289 25.0524 30.5334 24.6599 29.7677 24.4687C29.7503 24.4505 26.7971 21.4956 26.7971 21.4956C27.4129 21.334 28.0502 21.2519 28.7034 21.2519C30.6949 21.2519 32.5663 22.0265 33.9727 23.4328L39.9307 29.3906C41.3357 30.7955 42.1094 32.6667 42.1094 34.6596C42.1094 36.6524 41.3356 38.5235 39.9307 39.9285Z" fill="#333333"/>
</g>
<defs>
<clipPath id="clip0_1003_3191">
<rect width="44" height="44" fill="white"/>
</clipPath>
</defs>
</svg>
