<svg width="347" height="347" viewBox="0 0 347 347" fill="none" xmlns="http://www.w3.org/2000/svg">
<path d="M344 167.31C313 142.81 234 134.81 183 197.81" stroke="#99BC85" stroke-width="5" stroke-linecap="round" stroke-linejoin="round" stroke-dasharray="10 10"/>
<path d="M197.407 183.972C190.664 119.909 228.134 75.05 263.5 57.0256" stroke="#99BC85" stroke-width="5" stroke-linecap="round" stroke-linejoin="round" stroke-dasharray="10 10"/>
<path d="M167.31 3C142.81 34 134.81 113 197.81 164" stroke="#99BC85" stroke-width="5" stroke-linecap="round" stroke-linejoin="round" stroke-dasharray="10 10"/>
<path d="M183.972 149.593C110.373 157.34 62.1208 106.731 50.7856 68" stroke="#99BC85" stroke-width="5" stroke-linecap="round" stroke-linejoin="round" stroke-dasharray="10 10"/>
<path d="M3 179.69C34 204.19 113 212.19 164 149.19" stroke="#99BC85" stroke-width="5" stroke-linecap="round" stroke-linejoin="round" stroke-dasharray="10 10"/>
<path d="M149.593 163.028C156.913 232.571 112.132 279.484 74.5 294.006" stroke="#99BC85" stroke-width="5" stroke-linecap="round" stroke-linejoin="round" stroke-dasharray="10 10"/>
<path d="M179.69 344C204.19 313 212.19 234 149.19 183" stroke="#99BC85" stroke-width="5" stroke-linecap="round" stroke-linejoin="round" stroke-dasharray="10 10"/>
<path d="M163.028 197.407C225.583 190.823 269.828 226.395 288.657 261" stroke="#99BC85" stroke-width="5" stroke-linecap="round" stroke-linejoin="round" stroke-dasharray="10 10"/>
</svg>
