<svg width="156" height="61" viewBox="0 0 156 61" fill="none" xmlns="http://www.w3.org/2000/svg">
<rect x="0.725586" y="0.791992" width="155" height="60" rx="18" fill="white"/>
<rect x="10.7256" y="10.792" width="135" height="40" rx="8" fill="#EE5A29"/>
<path d="M48.4676 34.474C47.5156 34.474 46.7129 34.264 46.0596 33.844C45.4063 33.4147 44.9489 32.822 44.6876 32.066L46.0736 31.254C46.4656 32.3553 47.2776 32.906 48.5096 32.906C49.1256 32.906 49.5829 32.7893 49.8816 32.556C50.1803 32.3227 50.3296 32.01 50.3296 31.618C50.3296 31.226 50.1663 30.9227 49.8396 30.708C49.5129 30.4933 48.9343 30.26 48.1036 30.008C47.8703 29.9427 47.6603 29.8773 47.4736 29.812C47.2963 29.7467 47.1283 29.6813 46.9696 29.616C46.8109 29.5507 46.6569 29.4807 46.5076 29.406C46.3676 29.322 46.2136 29.224 46.0456 29.112C45.4109 28.664 45.0936 28.006 45.0936 27.138C45.0936 26.27 45.4016 25.584 46.0176 25.08C46.6243 24.5667 47.3663 24.31 48.2436 24.31C49.0369 24.31 49.7229 24.5013 50.3016 24.884C50.8896 25.2667 51.3423 25.794 51.6596 26.466L50.3016 27.25C49.8909 26.3353 49.2049 25.878 48.2436 25.878C47.7676 25.878 47.3896 25.99 47.1096 26.214C46.8389 26.4287 46.7036 26.7227 46.7036 27.096C46.7036 27.2827 46.7363 27.446 46.8016 27.586C46.8669 27.7167 46.9743 27.8427 47.1236 27.964C47.2823 28.076 47.4876 28.188 47.7396 28.3C47.9916 28.4027 48.3043 28.51 48.6776 28.622C48.8643 28.6873 49.0229 28.7433 49.1536 28.79C49.2936 28.8273 49.4056 28.8647 49.4896 28.902C49.5829 28.93 49.6856 28.9673 49.7976 29.014C49.9189 29.0607 50.0589 29.1167 50.2176 29.182C50.3763 29.2473 50.5163 29.3127 50.6376 29.378C50.7589 29.4433 50.8569 29.5087 50.9316 29.574C51.0623 29.6767 51.1883 29.798 51.3096 29.938C51.4403 30.0687 51.5523 30.218 51.6456 30.386C51.7483 30.554 51.8276 30.7407 51.8836 30.946C51.9396 31.142 51.9583 31.3567 51.9396 31.59C51.9396 32.486 51.6176 33.1907 50.9736 33.704C50.3483 34.2173 49.5129 34.474 48.4676 34.474ZM57.9604 27.292H59.4724V34.292H57.9604V33.396C57.4937 34.1147 56.7704 34.474 55.7904 34.474C54.9784 34.474 54.325 34.222 53.8304 33.718C53.345 33.2047 53.1024 32.4953 53.1024 31.59V27.292H54.6144V31.436C54.6144 31.968 54.7544 32.374 55.0344 32.654C55.3144 32.9247 55.697 33.06 56.1824 33.06C56.7144 33.06 57.1437 32.8967 57.4704 32.57C57.797 32.234 57.9604 31.7253 57.9604 31.044V27.292ZM65.2024 27.11C66.1637 27.11 66.9851 27.4647 67.6664 28.174C68.3477 28.8833 68.6884 29.756 68.6884 30.792C68.6884 31.828 68.3477 32.7007 67.6664 33.41C66.9851 34.1193 66.1637 34.474 65.2024 34.474C64.1384 34.474 63.3217 34.0773 62.7524 33.284V34.292H61.2404V24.492H62.7524V28.286C63.3217 27.502 64.1384 27.11 65.2024 27.11ZM63.3824 32.402C63.8024 32.822 64.3297 33.032 64.9644 33.032C65.5991 33.032 66.1264 32.822 66.5464 32.402C66.9664 31.9727 67.1764 31.436 67.1764 30.792C67.1764 30.148 66.9664 29.616 66.5464 29.196C66.1264 28.7667 65.5991 28.552 64.9644 28.552C64.3297 28.552 63.8024 28.7667 63.3824 29.196C62.9624 29.616 62.7524 30.148 62.7524 30.792C62.7524 31.436 62.9624 31.9727 63.3824 32.402ZM71.28 29.224C71.28 29.4573 71.406 29.644 71.658 29.784C71.9194 29.9147 72.232 30.0313 72.596 30.134C72.8667 30.19 73.1467 30.2693 73.436 30.372C73.7254 30.4653 73.9914 30.596 74.234 30.764C74.4767 30.9227 74.6727 31.128 74.822 31.38C74.9807 31.632 75.0554 31.9447 75.046 32.318C75.046 32.99 74.7847 33.5173 74.262 33.9C73.7394 34.2827 73.0907 34.474 72.316 34.474C71.616 34.474 71.0187 34.3293 70.524 34.04C70.0387 33.7507 69.684 33.3493 69.46 32.836L70.762 32.08C70.9954 32.752 71.5134 33.088 72.316 33.088C73.1094 33.088 73.506 32.8267 73.506 32.304C73.506 32.08 73.3754 31.898 73.114 31.758C72.862 31.618 72.5494 31.5013 72.176 31.408C71.9147 31.3427 71.6394 31.2633 71.35 31.17C71.0607 31.0767 70.7947 30.9507 70.552 30.792C70.3094 30.624 70.1087 30.4187 69.95 30.176C69.8007 29.924 69.7307 29.616 69.74 29.252C69.74 28.608 69.9827 28.09 70.468 27.698C70.9534 27.306 71.5647 27.11 72.302 27.11C72.89 27.11 73.408 27.2407 73.856 27.502C74.304 27.754 74.6494 28.1087 74.892 28.566L73.618 29.28C73.3754 28.748 72.9367 28.482 72.302 28.482C72.0127 28.482 71.77 28.5473 71.574 28.678C71.378 28.7993 71.28 28.9813 71.28 29.224ZM79.5014 34.474C78.4468 34.474 77.5648 34.1193 76.8554 33.41C76.1554 32.7007 75.8054 31.828 75.8054 30.792C75.8054 29.7467 76.1554 28.874 76.8554 28.174C77.5648 27.4647 78.4468 27.11 79.5014 27.11C80.1828 27.11 80.8034 27.2733 81.3634 27.6C81.9234 27.9173 82.3434 28.356 82.6234 28.916L81.3214 29.672C81.1628 29.336 80.9201 29.0747 80.5934 28.888C80.2761 28.692 79.9074 28.594 79.4874 28.594C78.8714 28.594 78.3534 28.804 77.9334 29.224C77.5228 29.6533 77.3174 30.176 77.3174 30.792C77.3174 31.408 77.5228 31.9307 77.9334 32.36C78.3534 32.78 78.8714 32.99 79.4874 32.99C79.9074 32.99 80.2808 32.892 80.6074 32.696C80.9341 32.5 81.1814 32.2387 81.3494 31.912L82.6514 32.654C82.3528 33.214 81.9234 33.6573 81.3634 33.984C80.8034 34.3107 80.1828 34.474 79.5014 34.474ZM85.2973 28.468C85.6707 27.6 86.3893 27.166 87.4533 27.166V28.804C86.8747 28.7667 86.3707 28.9067 85.9413 29.224C85.512 29.532 85.2973 30.0453 85.2973 30.764V34.292H83.7853V27.292H85.2973V28.468ZM89.9985 25.962C89.8118 26.1487 89.5878 26.242 89.3265 26.242C89.0651 26.242 88.8365 26.1487 88.6405 25.962C88.4538 25.766 88.3605 25.5373 88.3605 25.276C88.3605 25.0147 88.4538 24.7907 88.6405 24.604C88.8271 24.408 89.0558 24.31 89.3265 24.31C89.5971 24.31 89.8258 24.408 90.0125 24.604C90.1991 24.7907 90.2925 25.0147 90.2925 25.276C90.2925 25.5373 90.1945 25.766 89.9985 25.962ZM88.5705 34.292V27.292H90.0825V34.292H88.5705ZM95.8001 27.11C96.7614 27.11 97.5827 27.4647 98.2641 28.174C98.9454 28.8833 99.2861 29.756 99.2861 30.792C99.2861 31.828 98.9454 32.7007 98.2641 33.41C97.5827 34.1193 96.7614 34.474 95.8001 34.474C94.7361 34.474 93.9194 34.0773 93.3501 33.284V34.292H91.8381V24.492H93.3501V28.286C93.9194 27.502 94.7361 27.11 95.8001 27.11ZM93.9801 32.402C94.4001 32.822 94.9274 33.032 95.5621 33.032C96.1967 33.032 96.7241 32.822 97.1441 32.402C97.5641 31.9727 97.7741 31.436 97.7741 30.792C97.7741 30.148 97.5641 29.616 97.1441 29.196C96.7241 28.7667 96.1967 28.552 95.5621 28.552C94.9274 28.552 94.4001 28.7667 93.9801 29.196C93.5601 29.616 93.3501 30.148 93.3501 30.792C93.3501 31.436 93.5601 31.9727 93.9801 32.402ZM101.846 31.436C101.958 31.968 102.21 32.3787 102.602 32.668C103.004 32.948 103.498 33.088 104.086 33.088C104.88 33.088 105.482 32.7987 105.892 32.22L107.138 32.948C106.457 33.9653 105.435 34.474 104.072 34.474C102.943 34.474 102.024 34.1287 101.314 33.438C100.614 32.738 100.264 31.856 100.264 30.792C100.264 29.756 100.61 28.8833 101.3 28.174C101.982 27.4647 102.868 27.11 103.96 27.11C104.978 27.11 105.818 27.4693 106.48 28.188C107.143 28.9067 107.474 29.7793 107.474 30.806C107.474 30.8807 107.47 30.974 107.46 31.086C107.451 31.1887 107.437 31.3053 107.418 31.436H101.846ZM105.948 30.204C105.846 29.6347 105.612 29.2053 105.248 28.916C104.884 28.6267 104.45 28.482 103.946 28.482C103.386 28.482 102.92 28.636 102.546 28.944C102.173 29.252 101.935 29.672 101.832 30.204H105.948ZM109.113 31.212L108.805 27.292V24.492H110.625V27.292L110.303 31.212H109.113ZM109.715 32.36C110.004 32.36 110.252 32.4627 110.457 32.668C110.662 32.8733 110.765 33.1207 110.765 33.41C110.765 33.6993 110.662 33.9467 110.457 34.152C110.252 34.3573 110.004 34.46 109.715 34.46C109.426 34.46 109.178 34.3573 108.973 34.152C108.768 33.9467 108.665 33.6993 108.665 33.41C108.665 33.1207 108.763 32.8733 108.959 32.668C109.164 32.4627 109.416 32.36 109.715 32.36Z" fill="white"/>
</svg>
