<svg width="49" height="48" viewBox="0 0 49 48" fill="none" xmlns="http://www.w3.org/2000/svg">
<g clip-path="url(#clip0_777_4292)">
<g clip-path="url(#clip1_777_4292)">
<path d="M38.9022 5.55029H32.3587C30.5517 5.55029 29.0869 7.01511 29.0869 8.82205V15.3656C29.0869 17.1725 30.5517 18.6373 32.3587 18.6373H38.9022C40.7091 18.6373 42.1739 17.1725 42.1739 15.3656V8.82205C42.1739 7.01511 40.7091 5.55029 38.9022 5.55029Z" fill="#EE5A29"/>
<path fill-rule="evenodd" clip-rule="evenodd" d="M9.57666 15.3949C9.57666 11.8314 12.4654 8.94263 16.0289 8.94263H32.3293C35.8927 8.94263 38.7815 11.8314 38.7815 15.3949V31.6952C38.7815 35.2587 35.8927 38.1475 32.3293 38.1475H16.0289C12.4654 38.1475 9.57666 35.2587 9.57666 31.6952V15.3949ZM16.0289 10.9802C13.5907 10.9802 11.6142 12.9567 11.6142 15.3949V31.6952C11.6142 34.1334 13.5907 36.1099 16.0289 36.1099H32.3293C34.7675 36.1099 36.744 34.1334 36.744 31.6952V15.3949C36.744 12.9567 34.7675 10.9802 32.3293 10.9802H16.0289ZM24.1791 14.3761C24.5904 14.3761 24.9613 14.6234 25.1195 15.003L31.9114 31.3034C32.1277 31.8228 31.8821 32.4193 31.3628 32.6357C30.8434 32.852 30.2469 32.6064 30.0305 32.0871L28.0278 27.2806H20.3304L18.3277 32.0871C18.1113 32.6064 17.5148 32.852 16.9954 32.6357C16.4761 32.4193 16.2305 31.8228 16.4468 31.3034L23.2386 15.003C23.3968 14.6234 23.7678 14.3761 24.1791 14.3761ZM21.1794 25.243H27.1788L24.1791 18.0437L21.1794 25.243Z" fill="#333333"/>
<path d="M16.254 14.2305H15.8047C14.8571 14.2305 14.0889 14.9987 14.0889 15.9464V16.2405C14.0889 17.1881 14.8571 17.9563 15.8047 17.9563H16.0293L15.3909 19.1822C15.0925 19.755 15.5082 20.4402 16.1541 20.4402C16.475 20.4402 16.7691 20.2617 16.9173 19.9772L17.7758 18.3288C17.9033 18.0841 17.9699 17.8122 17.9699 17.5363V15.9464C17.9699 14.9987 17.2017 14.2305 16.254 14.2305Z" stroke="#333333" stroke-width="1.28687" stroke-linecap="round" stroke-linejoin="round"/>
</g>
</g>
<defs>
<clipPath id="clip0_777_4292">
<rect width="48" height="47.09" fill="white" transform="translate(0.330078)"/>
</clipPath>
<clipPath id="clip1_777_4292">
<rect width="48" height="47.09" fill="white" transform="translate(0.330078)"/>
</clipPath>
</defs>
</svg>
