<svg width="45" height="45" viewBox="0 0 45 45" fill="none" xmlns="http://www.w3.org/2000/svg">
<rect x="0.832031" y="0.108398" width="44.0625" height="44.0625" rx="8.8125" fill="#333333"/>
<path d="M28.0675 8.28906H27.8849C26.5186 8.46707 25.0925 9.26699 24.3147 10.1659C23.476 11.1305 22.7838 12.3665 22.9055 14.1277C24.7307 14.269 25.8591 13.3378 26.6832 12.3777C27.523 11.4109 28.2141 10.0758 28.0675 8.28906Z" fill="white"/>
<path d="M33.4102 26.9364V26.8863C31.6245 26.0497 30.1951 24.6301 29.9967 22.2036C29.7734 19.5324 31.08 17.9682 32.7326 16.9302C31.8759 15.6084 30.4893 14.7518 28.5357 14.4603C27.0349 14.2374 25.8685 14.6584 24.7082 15.0772C24.6117 15.112 24.5153 15.1468 24.4187 15.1812C24.3143 15.2188 24.2102 15.2602 24.1063 15.3016C23.7829 15.4302 23.4617 15.558 23.1392 15.5673C22.6464 15.5821 22.1321 15.3661 21.6772 15.175C21.5514 15.1222 21.4302 15.0713 21.3152 15.0277C20.7549 14.8185 20.1158 14.6072 19.4901 14.5115C18.0302 14.2912 16.7192 14.7841 15.7655 15.3626C13.9584 16.4506 12.5988 18.6958 12.4805 21.4571V22.5908C12.76 26.4491 14.2627 29.4641 16.2074 31.7982C16.8668 32.5881 17.7721 33.4648 18.8938 33.625H19.4146C20.0673 33.5342 20.6089 33.328 21.1455 33.1237C21.8646 32.8499 22.5748 32.5795 23.5315 32.5948C24.3171 32.6081 24.9653 32.8567 25.608 33.1033C26.2573 33.3524 26.901 33.5994 27.6755 33.5994C29.3717 33.5994 30.3582 32.2518 31.1518 31.1676C31.1926 31.1119 31.2329 31.0569 31.2728 31.0027C32.1656 29.7834 32.8972 28.4695 33.4102 26.9364Z" fill="white"/>
</svg>
