<svg width="222" height="132" viewBox="0 0 222 132" fill="none" xmlns="http://www.w3.org/2000/svg">
<g filter="url(#filter0_d_2455_6991)">
<path d="M10 31.6C10 22.6392 10 18.1587 11.7439 14.7362C13.2779 11.7256 15.7256 9.27787 18.7362 7.7439C22.1587 6 26.6392 6 35.6 6H186.4C195.361 6 199.841 6 203.264 7.7439C206.274 9.27787 208.722 11.7256 210.256 14.7362C212 18.1587 212 22.6392 212 31.6V92.4C212 101.361 212 105.841 210.256 109.264C208.722 112.274 206.274 114.722 203.264 116.256C199.841 118 195.361 118 186.4 118H35.6C26.6392 118 22.1587 118 18.7362 116.256C15.7256 114.722 13.2779 112.274 11.7439 109.264C10 105.841 10 101.361 10 92.4V31.6Z" fill="#E6A4B4" fill-opacity="0.15" shape-rendering="crispEdges"/>
<path d="M37.6 42.144C36.064 42.144 34.912 41.376 34.48 40.092L35.2 39.672C35.5 40.716 36.328 41.328 37.612 41.328C38.86 41.328 39.592 40.728 39.592 39.816C39.592 39.372 39.436 39.048 39.112 38.82C38.788 38.592 38.26 38.364 37.528 38.124C36.652 37.836 36.076 37.608 35.8 37.428C35.164 37.044 34.84 36.492 34.84 35.76C34.84 35.052 35.092 34.488 35.584 34.08C36.076 33.66 36.688 33.456 37.42 33.456C38.728 33.456 39.724 34.212 40.192 35.268L39.484 35.664C39.1 34.74 38.416 34.272 37.42 34.272C36.376 34.272 35.68 34.812 35.68 35.724C35.68 36.144 35.824 36.456 36.112 36.66C36.4 36.864 36.88 37.08 37.54 37.296L38.188 37.524C38.32 37.56 38.512 37.632 38.764 37.74C39.016 37.836 39.208 37.92 39.328 38.004C39.568 38.148 39.988 38.436 40.132 38.712C40.288 38.964 40.432 39.36 40.432 39.792C40.432 40.5 40.168 41.076 39.652 41.508C39.136 41.928 38.452 42.144 37.6 42.144ZM47.0312 37.176V36H47.8233V42H47.0312V40.824C46.4793 41.7 45.6753 42.144 44.6073 42.144C43.7553 42.144 43.0233 41.844 42.4113 41.232C41.8113 40.62 41.5113 39.876 41.5113 39C41.5113 38.124 41.8113 37.38 42.4113 36.768C43.0233 36.156 43.7553 35.856 44.6073 35.856C45.6753 35.856 46.4793 36.3 47.0312 37.176ZM42.9873 40.692C43.4433 41.148 44.0073 41.376 44.6673 41.376C45.3273 41.376 45.8913 41.148 46.3473 40.692C46.8033 40.224 47.0312 39.66 47.0312 39C47.0312 38.34 46.8033 37.776 46.3473 37.32C45.8913 36.852 45.3273 36.624 44.6673 36.624C44.0073 36.624 43.4433 36.852 42.9873 37.32C42.5312 37.776 42.3033 38.34 42.3033 39C42.3033 39.66 42.5312 40.224 42.9873 40.692ZM50.2922 42H49.5002V33.24H50.2922V42ZM54.7448 35.856C55.6328 35.856 56.3528 36.168 56.8928 36.804C57.4448 37.428 57.7208 38.172 57.7208 39.024C57.7208 39.108 57.7088 39.24 57.6968 39.396H52.4288C52.5848 40.608 53.5328 41.376 54.8168 41.376C55.7288 41.376 56.4128 40.968 56.7488 40.356L57.4448 40.764C56.9168 41.616 55.9688 42.144 54.8048 42.144C53.8568 42.144 53.0888 41.844 52.5008 41.256C51.9128 40.668 51.6128 39.912 51.6128 39C51.6128 38.1 51.9008 37.356 52.4888 36.756C53.0768 36.156 53.8208 35.856 54.7448 35.856ZM54.7448 36.624C53.4968 36.624 52.5848 37.44 52.4288 38.628H56.9048C56.8208 37.992 56.5808 37.5 56.1728 37.152C55.7648 36.804 55.2848 36.624 54.7448 36.624ZM59.3703 37.572C59.3703 38.112 59.9223 38.412 60.6063 38.592C61.6143 38.844 62.8743 39.12 62.8743 40.416C62.8743 40.932 62.6703 41.34 62.2623 41.664C61.8663 41.988 61.3383 42.144 60.7023 42.144C59.5503 42.144 58.7103 41.58 58.3863 40.764L59.0583 40.368C59.2863 40.992 59.8983 41.376 60.7023 41.376C61.4823 41.376 62.0823 41.076 62.0823 40.416C62.0823 39.876 61.5303 39.576 60.8463 39.396C59.8383 39.144 58.5783 38.868 58.5783 37.572C58.5783 37.08 58.7703 36.672 59.1543 36.348C59.5503 36.024 60.0423 35.856 60.6303 35.856C61.6023 35.856 62.3823 36.324 62.7303 37.08L62.0703 37.464C61.8423 36.9 61.3623 36.624 60.6303 36.624C59.9463 36.624 59.3703 36.96 59.3703 37.572Z" fill="#1C1C1C"/>
<g clip-path="url(#clip0_2455_6991)">
<path d="M46.408 -171.064C45.256 -169.48 43.648 -168.688 41.56 -168.688C39.472 -168.688 37.864 -169.48 36.688 -171.064C35.536 -172.648 34.96 -174.76 34.96 -177.4C34.96 -180.04 35.536 -182.152 36.688 -183.736C37.864 -185.32 39.472 -186.112 41.56 -186.112C43.648 -186.112 45.256 -185.32 46.408 -183.736C47.584 -182.152 48.16 -180.04 48.16 -177.4C48.16 -174.76 47.584 -172.648 46.408 -171.064ZM41.56 -171.376C44.056 -171.376 45.4 -173.536 45.4 -177.4C45.4 -181.264 44.056 -183.424 41.56 -183.424C39.088 -183.424 37.72 -181.264 37.72 -177.4C37.72 -173.536 39.088 -171.376 41.56 -171.376ZM34.312 -148.24L38.728 -149.8H41.128V-133H38.368V-146.848L34.984 -145.888L34.312 -148.24ZM45.808 -97H34.744V-99.16L40.6 -105.136C42.016 -106.552 42.736 -107.8 42.736 -108.832C42.736 -110.464 41.656 -111.424 40.144 -111.424C38.728 -111.424 37.696 -110.728 37.024 -109.336L34.696 -110.704C35.752 -112.936 37.792 -114.112 40.12 -114.112C41.584 -114.112 42.856 -113.656 43.912 -112.72C44.968 -111.784 45.496 -110.536 45.496 -108.928C45.496 -107.224 44.536 -105.4 42.64 -103.456L38.848 -99.664H45.808V-97ZM45.424 -75.448L42.016 -70.936C44.44 -70.36 46.12 -68.608 46.12 -66.088C46.12 -64.408 45.544 -63.088 44.416 -62.128C43.288 -61.168 41.896 -60.688 40.24 -60.688C37.672 -60.688 35.488 -61.888 34.6 -64.168L36.952 -65.536C37.456 -64.096 38.536 -63.376 40.24 -63.376C42.16 -63.376 43.36 -64.432 43.36 -66.088C43.36 -67.744 42.16 -68.776 40.24 -68.776H39.616L38.512 -70.432L42.136 -75.208H35.104V-77.8H45.424V-75.448ZM45.592 -30.592H47.512V-28.024H45.592V-25H42.808V-28.024H34.552V-30.592L40.336 -41.8H43.336L37.552 -30.592H42.808V-34.96H45.592V-30.592ZM38.488 0.536H40.6C42.208 0.536 43.552 1.016 44.656 1.976C45.76 2.912 46.312 4.232 46.312 5.912C46.312 7.592 45.736 8.912 44.608 9.872C43.48 10.832 42.088 11.312 40.432 11.312C37.768 11.312 35.584 10.04 34.72 7.712L37.096 6.344C37.552 7.856 38.656 8.624 40.432 8.624C42.328 8.624 43.552 7.568 43.552 5.912C43.552 4.256 42.328 3.224 40.48 3.224H35.584L36.232 -5.8H45.592V-3.208H38.776L38.488 0.536ZM40.24 35.84H40.552C42.304 35.84 43.72 36.368 44.824 37.448C45.928 38.504 46.48 39.872 46.48 41.576C46.48 43.28 45.928 44.648 44.824 45.728C43.72 46.784 42.304 47.312 40.552 47.312C38.8 47.312 37.36 46.784 36.256 45.728C35.152 44.648 34.6 43.28 34.6 41.576C34.6 40.304 34.936 39.176 35.608 38.192L40.936 30.2H44.08L40.24 35.84ZM40.552 44.696C42.4 44.696 43.72 43.472 43.72 41.576C43.72 39.68 42.4 38.456 40.552 38.456C38.656 38.456 37.36 39.68 37.36 41.576C37.36 43.472 38.656 44.696 40.552 44.696ZM46.456 78.392C46.456 81.104 44.536 82.904 41.728 83.264V85.4H40.168V83.288C37.504 83.12 35.56 81.8 34.72 79.592L37.096 78.224C37.648 79.64 38.68 80.408 40.168 80.576V75.584C38.728 75.032 38.008 74.72 36.976 73.952C35.992 73.184 35.488 72.08 35.488 70.616C35.488 69.272 35.944 68.192 36.832 67.352C37.72 66.512 38.848 66.032 40.168 65.912V63.8H41.728V65.936C43.864 66.224 45.352 67.328 46.192 69.224L43.864 70.568C43.456 69.536 42.736 68.888 41.728 68.672V73.424C42.232 73.616 42.616 73.76 42.88 73.88C43.432 74.096 44.488 74.6 44.968 75.056C45.76 75.728 46.552 76.856 46.456 78.392ZM38.248 70.616C38.248 71.6 38.8 72.152 40.168 72.8V68.624C38.992 68.816 38.248 69.56 38.248 70.616ZM41.728 76.184V80.552C43 80.288 43.696 79.472 43.696 78.416C43.696 77.36 43.072 76.784 41.728 76.184ZM44.152 110.264C45.808 111.176 46.624 112.544 46.624 114.344C46.624 117.416 44.296 119.312 40.744 119.312C38.968 119.312 37.528 118.88 36.448 117.992C35.368 117.104 34.84 115.88 34.84 114.344C34.84 112.616 35.752 111.128 37.312 110.264C36.04 109.424 35.416 108.248 35.416 106.712C35.416 105.176 35.92 104 36.952 103.16C37.984 102.32 39.232 101.888 40.744 101.888C42.232 101.888 43.48 102.32 44.512 103.16C45.544 104 46.072 105.176 46.072 106.712C46.072 108.248 45.424 109.424 44.152 110.264ZM40.744 104.504C39.232 104.504 38.176 105.32 38.176 106.832C38.176 108.272 39.28 109.16 40.744 109.16C42.184 109.16 43.312 108.272 43.312 106.832C43.312 105.32 42.208 104.504 40.744 104.504ZM40.744 116.696C42.592 116.696 43.864 115.736 43.864 114.08C43.864 112.424 42.592 111.464 40.744 111.464C38.848 111.464 37.6 112.424 37.6 114.08C37.6 115.736 38.848 116.696 40.744 116.696ZM46.48 143.624C46.48 144.896 46.144 146.024 45.472 147.008L40.168 155H37L40.84 149.36H40.552C38.8 149.36 37.384 148.832 36.256 147.776C35.152 146.696 34.6 145.328 34.6 143.624C34.6 141.92 35.152 140.552 36.256 139.496C37.384 138.416 38.8 137.888 40.552 137.888C42.304 137.888 43.72 138.416 44.824 139.496C45.928 140.552 46.48 141.92 46.48 143.624ZM37.36 143.624C37.36 145.472 38.704 146.744 40.552 146.744C42.4 146.744 43.72 145.52 43.72 143.624C43.72 141.728 42.4 140.504 40.552 140.504C38.704 140.504 37.36 141.728 37.36 143.624ZM46.408 188.936C45.256 190.52 43.648 191.312 41.56 191.312C39.472 191.312 37.864 190.52 36.688 188.936C35.536 187.352 34.96 185.24 34.96 182.6C34.96 179.96 35.536 177.848 36.688 176.264C37.864 174.68 39.472 173.888 41.56 173.888C43.648 173.888 45.256 174.68 46.408 176.264C47.584 177.848 48.16 179.96 48.16 182.6C48.16 185.24 47.584 187.352 46.408 188.936ZM41.56 188.624C44.056 188.624 45.4 186.464 45.4 182.6C45.4 178.736 44.056 176.576 41.56 176.576C39.088 176.576 37.72 178.736 37.72 182.6C37.72 186.464 39.088 188.624 41.56 188.624Z" fill="#1C1C1C"/>
</g>
<g clip-path="url(#clip1_2455_6991)">
<path d="M50.312 67.76L54.728 66.2H57.128V83H54.368V69.152L50.984 70.112L50.312 67.76Z" fill="#1C1C1C"/>
</g>
<g clip-path="url(#clip2_2455_6991)">
<path d="M80.408 8.936C79.256 10.52 77.648 11.312 75.56 11.312C73.472 11.312 71.864 10.52 70.688 8.936C69.536 7.352 68.96 5.24 68.96 2.6C68.96 -0.0400002 69.536 -2.152 70.688 -3.736C71.864 -5.32 73.472 -6.112 75.56 -6.112C77.648 -6.112 79.256 -5.32 80.408 -3.736C81.584 -2.152 82.16 -0.0400002 82.16 2.6C82.16 5.24 81.584 7.352 80.408 8.936ZM75.56 8.624C78.056 8.624 79.4 6.464 79.4 2.6C79.4 -1.264 78.056 -3.424 75.56 -3.424C73.088 -3.424 71.72 -1.264 71.72 2.6C71.72 6.464 73.088 8.624 75.56 8.624ZM68.312 31.76L72.728 30.2H75.128V47H72.368V33.152L68.984 34.112L68.312 31.76ZM79.808 83H68.744V80.84L74.6 74.864C76.016 73.448 76.736 72.2 76.736 71.168C76.736 69.536 75.656 68.576 74.144 68.576C72.728 68.576 71.696 69.272 71.024 70.664L68.696 69.296C69.752 67.064 71.792 65.888 74.12 65.888C75.584 65.888 76.856 66.344 77.912 67.28C78.968 68.216 79.496 69.464 79.496 71.072C79.496 72.776 78.536 74.6 76.64 76.544L72.848 80.336H79.808V83ZM79.424 104.552L76.016 109.064C78.44 109.64 80.12 111.392 80.12 113.912C80.12 115.592 79.544 116.912 78.416 117.872C77.288 118.832 75.896 119.312 74.24 119.312C71.672 119.312 69.488 118.112 68.6 115.832L70.952 114.464C71.456 115.904 72.536 116.624 74.24 116.624C76.16 116.624 77.36 115.568 77.36 113.912C77.36 112.256 76.16 111.224 74.24 111.224H73.616L72.512 109.568L76.136 104.792H69.104V102.2H79.424V104.552ZM79.592 149.408H81.512V151.976H79.592V155H76.808V151.976H68.552V149.408L74.336 138.2H77.336L71.552 149.408H76.808V145.04H79.592V149.408ZM72.488 180.536H74.6C76.208 180.536 77.552 181.016 78.656 181.976C79.76 182.912 80.312 184.232 80.312 185.912C80.312 187.592 79.736 188.912 78.608 189.872C77.48 190.832 76.088 191.312 74.432 191.312C71.768 191.312 69.584 190.04 68.72 187.712L71.096 186.344C71.552 187.856 72.656 188.624 74.432 188.624C76.328 188.624 77.552 187.568 77.552 185.912C77.552 184.256 76.328 183.224 74.48 183.224H69.584L70.232 174.2H79.592V176.792H72.776L72.488 180.536ZM74.24 215.84H74.552C76.304 215.84 77.72 216.368 78.824 217.448C79.928 218.504 80.48 219.872 80.48 221.576C80.48 223.28 79.928 224.648 78.824 225.728C77.72 226.784 76.304 227.312 74.552 227.312C72.8 227.312 71.36 226.784 70.256 225.728C69.152 224.648 68.6 223.28 68.6 221.576C68.6 220.304 68.936 219.176 69.608 218.192L74.936 210.2H78.08L74.24 215.84ZM74.552 224.696C76.4 224.696 77.72 223.472 77.72 221.576C77.72 219.68 76.4 218.456 74.552 218.456C72.656 218.456 71.36 219.68 71.36 221.576C71.36 223.472 72.656 224.696 74.552 224.696ZM68.36 248.84V246.2H79.04V248.6L73.136 263H70.232L76.04 248.84H68.36ZM78.152 290.264C79.808 291.176 80.624 292.544 80.624 294.344C80.624 297.416 78.296 299.312 74.744 299.312C72.968 299.312 71.528 298.88 70.448 297.992C69.368 297.104 68.84 295.88 68.84 294.344C68.84 292.616 69.752 291.128 71.312 290.264C70.04 289.424 69.416 288.248 69.416 286.712C69.416 285.176 69.92 284 70.952 283.16C71.984 282.32 73.232 281.888 74.744 281.888C76.232 281.888 77.48 282.32 78.512 283.16C79.544 284 80.072 285.176 80.072 286.712C80.072 288.248 79.424 289.424 78.152 290.264ZM74.744 284.504C73.232 284.504 72.176 285.32 72.176 286.832C72.176 288.272 73.28 289.16 74.744 289.16C76.184 289.16 77.312 288.272 77.312 286.832C77.312 285.32 76.208 284.504 74.744 284.504ZM74.744 296.696C76.592 296.696 77.864 295.736 77.864 294.08C77.864 292.424 76.592 291.464 74.744 291.464C72.848 291.464 71.6 292.424 71.6 294.08C71.6 295.736 72.848 296.696 74.744 296.696ZM80.48 323.624C80.48 324.896 80.144 326.024 79.472 327.008L74.168 335H71L74.84 329.36H74.552C72.8 329.36 71.384 328.832 70.256 327.776C69.152 326.696 68.6 325.328 68.6 323.624C68.6 321.92 69.152 320.552 70.256 319.496C71.384 318.416 72.8 317.888 74.552 317.888C76.304 317.888 77.72 318.416 78.824 319.496C79.928 320.552 80.48 321.92 80.48 323.624ZM71.36 323.624C71.36 325.472 72.704 326.744 74.552 326.744C76.4 326.744 77.72 325.52 77.72 323.624C77.72 321.728 76.4 320.504 74.552 320.504C72.704 320.504 71.36 321.728 71.36 323.624ZM80.408 368.936C79.256 370.52 77.648 371.312 75.56 371.312C73.472 371.312 71.864 370.52 70.688 368.936C69.536 367.352 68.96 365.24 68.96 362.6C68.96 359.96 69.536 357.848 70.688 356.264C71.864 354.68 73.472 353.888 75.56 353.888C77.648 353.888 79.256 354.68 80.408 356.264C81.584 357.848 82.16 359.96 82.16 362.6C82.16 365.24 81.584 367.352 80.408 368.936ZM75.56 368.624C78.056 368.624 79.4 366.464 79.4 362.6C79.4 358.736 78.056 356.576 75.56 356.576C73.088 356.576 71.72 358.736 71.72 362.6C71.72 366.464 73.088 368.624 75.56 368.624Z" fill="#1C1C1C"/>
</g>
<g clip-path="url(#clip3_2455_6991)">
<path d="M96.408 -135.064C95.256 -133.48 93.648 -132.688 91.56 -132.688C89.472 -132.688 87.864 -133.48 86.688 -135.064C85.536 -136.648 84.96 -138.76 84.96 -141.4C84.96 -144.04 85.536 -146.152 86.688 -147.736C87.864 -149.32 89.472 -150.112 91.56 -150.112C93.648 -150.112 95.256 -149.32 96.408 -147.736C97.584 -146.152 98.16 -144.04 98.16 -141.4C98.16 -138.76 97.584 -136.648 96.408 -135.064ZM91.56 -135.376C94.056 -135.376 95.4 -137.536 95.4 -141.4C95.4 -145.264 94.056 -147.424 91.56 -147.424C89.088 -147.424 87.72 -145.264 87.72 -141.4C87.72 -137.536 89.088 -135.376 91.56 -135.376ZM84.312 -112.24L88.728 -113.8H91.128V-97H88.368V-110.848L84.984 -109.888L84.312 -112.24ZM95.808 -61H84.744V-63.16L90.6 -69.136C92.016 -70.552 92.736 -71.8 92.736 -72.832C92.736 -74.464 91.656 -75.424 90.144 -75.424C88.728 -75.424 87.696 -74.728 87.024 -73.336L84.696 -74.704C85.752 -76.936 87.792 -78.112 90.12 -78.112C91.584 -78.112 92.856 -77.656 93.912 -76.72C94.968 -75.784 95.496 -74.536 95.496 -72.928C95.496 -71.224 94.536 -69.4 92.64 -67.456L88.848 -63.664H95.808V-61ZM95.424 -39.448L92.016 -34.936C94.44 -34.36 96.12 -32.608 96.12 -30.088C96.12 -28.408 95.544 -27.088 94.416 -26.128C93.288 -25.168 91.896 -24.688 90.24 -24.688C87.672 -24.688 85.488 -25.888 84.6 -28.168L86.952 -29.536C87.456 -28.096 88.536 -27.376 90.24 -27.376C92.16 -27.376 93.36 -28.432 93.36 -30.088C93.36 -31.744 92.16 -32.776 90.24 -32.776H89.616L88.512 -34.432L92.136 -39.208H85.104V-41.8H95.424V-39.448ZM95.592 5.408H97.512V7.976H95.592V11H92.808V7.976H84.552V5.408L90.336 -5.8H93.336L87.552 5.408H92.808V1.04H95.592V5.408ZM88.488 36.536H90.6C92.208 36.536 93.552 37.016 94.656 37.976C95.76 38.912 96.312 40.232 96.312 41.912C96.312 43.592 95.736 44.912 94.608 45.872C93.48 46.832 92.088 47.312 90.432 47.312C87.768 47.312 85.584 46.04 84.72 43.712L87.096 42.344C87.552 43.856 88.656 44.624 90.432 44.624C92.328 44.624 93.552 43.568 93.552 41.912C93.552 40.256 92.328 39.224 90.48 39.224H85.584L86.232 30.2H95.592V32.792H88.776L88.488 36.536ZM90.24 71.84H90.552C92.304 71.84 93.72 72.368 94.824 73.448C95.928 74.504 96.48 75.872 96.48 77.576C96.48 79.28 95.928 80.648 94.824 81.728C93.72 82.784 92.304 83.312 90.552 83.312C88.8 83.312 87.36 82.784 86.256 81.728C85.152 80.648 84.6 79.28 84.6 77.576C84.6 76.304 84.936 75.176 85.608 74.192L90.936 66.2H94.08L90.24 71.84ZM90.552 80.696C92.4 80.696 93.72 79.472 93.72 77.576C93.72 75.68 92.4 74.456 90.552 74.456C88.656 74.456 87.36 75.68 87.36 77.576C87.36 79.472 88.656 80.696 90.552 80.696ZM84.36 104.84V102.2H95.04V104.6L89.136 119H86.232L92.04 104.84H84.36ZM94.152 146.264C95.808 147.176 96.624 148.544 96.624 150.344C96.624 153.416 94.296 155.312 90.744 155.312C88.968 155.312 87.528 154.88 86.448 153.992C85.368 153.104 84.84 151.88 84.84 150.344C84.84 148.616 85.752 147.128 87.312 146.264C86.04 145.424 85.416 144.248 85.416 142.712C85.416 141.176 85.92 140 86.952 139.16C87.984 138.32 89.232 137.888 90.744 137.888C92.232 137.888 93.48 138.32 94.512 139.16C95.544 140 96.072 141.176 96.072 142.712C96.072 144.248 95.424 145.424 94.152 146.264ZM90.744 140.504C89.232 140.504 88.176 141.32 88.176 142.832C88.176 144.272 89.28 145.16 90.744 145.16C92.184 145.16 93.312 144.272 93.312 142.832C93.312 141.32 92.208 140.504 90.744 140.504ZM90.744 152.696C92.592 152.696 93.864 151.736 93.864 150.08C93.864 148.424 92.592 147.464 90.744 147.464C88.848 147.464 87.6 148.424 87.6 150.08C87.6 151.736 88.848 152.696 90.744 152.696ZM96.48 179.624C96.48 180.896 96.144 182.024 95.472 183.008L90.168 191H87L90.84 185.36H90.552C88.8 185.36 87.384 184.832 86.256 183.776C85.152 182.696 84.6 181.328 84.6 179.624C84.6 177.92 85.152 176.552 86.256 175.496C87.384 174.416 88.8 173.888 90.552 173.888C92.304 173.888 93.72 174.416 94.824 175.496C95.928 176.552 96.48 177.92 96.48 179.624ZM87.36 179.624C87.36 181.472 88.704 182.744 90.552 182.744C92.4 182.744 93.72 181.52 93.72 179.624C93.72 177.728 92.4 176.504 90.552 176.504C88.704 176.504 87.36 177.728 87.36 179.624ZM96.408 224.936C95.256 226.52 93.648 227.312 91.56 227.312C89.472 227.312 87.864 226.52 86.688 224.936C85.536 223.352 84.96 221.24 84.96 218.6C84.96 215.96 85.536 213.848 86.688 212.264C87.864 210.68 89.472 209.888 91.56 209.888C93.648 209.888 95.256 210.68 96.408 212.264C97.584 213.848 98.16 215.96 98.16 218.6C98.16 221.24 97.584 223.352 96.408 224.936ZM91.56 224.624C94.056 224.624 95.4 222.464 95.4 218.6C95.4 214.736 94.056 212.576 91.56 212.576C89.088 212.576 87.72 214.736 87.72 218.6C87.72 222.464 89.088 224.624 91.56 224.624Z" fill="#1C1C1C"/>
</g>
<g clip-path="url(#clip4_2455_6991)">
<path d="M112.408 -99.064C111.256 -97.48 109.648 -96.688 107.56 -96.688C105.472 -96.688 103.864 -97.48 102.688 -99.064C101.536 -100.648 100.96 -102.76 100.96 -105.4C100.96 -108.04 101.536 -110.152 102.688 -111.736C103.864 -113.32 105.472 -114.112 107.56 -114.112C109.648 -114.112 111.256 -113.32 112.408 -111.736C113.584 -110.152 114.16 -108.04 114.16 -105.4C114.16 -102.76 113.584 -100.648 112.408 -99.064ZM107.56 -99.376C110.056 -99.376 111.4 -101.536 111.4 -105.4C111.4 -109.264 110.056 -111.424 107.56 -111.424C105.088 -111.424 103.72 -109.264 103.72 -105.4C103.72 -101.536 105.088 -99.376 107.56 -99.376ZM100.312 -76.24L104.728 -77.8H107.128V-61H104.368V-74.848L100.984 -73.888L100.312 -76.24ZM111.808 -25H100.744V-27.16L106.6 -33.136C108.016 -34.552 108.736 -35.8 108.736 -36.832C108.736 -38.464 107.656 -39.424 106.144 -39.424C104.728 -39.424 103.696 -38.728 103.024 -37.336L100.696 -38.704C101.752 -40.936 103.792 -42.112 106.12 -42.112C107.584 -42.112 108.856 -41.656 109.912 -40.72C110.968 -39.784 111.496 -38.536 111.496 -36.928C111.496 -35.224 110.536 -33.4 108.64 -31.456L104.848 -27.664H111.808V-25ZM111.424 -3.448L108.016 1.064C110.44 1.64 112.12 3.392 112.12 5.912C112.12 7.592 111.544 8.912 110.416 9.872C109.288 10.832 107.896 11.312 106.24 11.312C103.672 11.312 101.488 10.112 100.6 7.832L102.952 6.464C103.456 7.904 104.536 8.624 106.24 8.624C108.16 8.624 109.36 7.568 109.36 5.912C109.36 4.256 108.16 3.224 106.24 3.224H105.616L104.512 1.568L108.136 -3.208H101.104V-5.8H111.424V-3.448ZM111.592 41.408H113.512V43.976H111.592V47H108.808V43.976H100.552V41.408L106.336 30.2H109.336L103.552 41.408H108.808V37.04H111.592V41.408ZM104.488 72.536H106.6C108.208 72.536 109.552 73.016 110.656 73.976C111.76 74.912 112.312 76.232 112.312 77.912C112.312 79.592 111.736 80.912 110.608 81.872C109.48 82.832 108.088 83.312 106.432 83.312C103.768 83.312 101.584 82.04 100.72 79.712L103.096 78.344C103.552 79.856 104.656 80.624 106.432 80.624C108.328 80.624 109.552 79.568 109.552 77.912C109.552 76.256 108.328 75.224 106.48 75.224H101.584L102.232 66.2H111.592V68.792H104.776L104.488 72.536ZM106.24 107.84H106.552C108.304 107.84 109.72 108.368 110.824 109.448C111.928 110.504 112.48 111.872 112.48 113.576C112.48 115.28 111.928 116.648 110.824 117.728C109.72 118.784 108.304 119.312 106.552 119.312C104.8 119.312 103.36 118.784 102.256 117.728C101.152 116.648 100.6 115.28 100.6 113.576C100.6 112.304 100.936 111.176 101.608 110.192L106.936 102.2H110.08L106.24 107.84ZM106.552 116.696C108.4 116.696 109.72 115.472 109.72 113.576C109.72 111.68 108.4 110.456 106.552 110.456C104.656 110.456 103.36 111.68 103.36 113.576C103.36 115.472 104.656 116.696 106.552 116.696ZM100.36 140.84V138.2H111.04V140.6L105.136 155H102.232L108.04 140.84H100.36ZM110.152 182.264C111.808 183.176 112.624 184.544 112.624 186.344C112.624 189.416 110.296 191.312 106.744 191.312C104.968 191.312 103.528 190.88 102.448 189.992C101.368 189.104 100.84 187.88 100.84 186.344C100.84 184.616 101.752 183.128 103.312 182.264C102.04 181.424 101.416 180.248 101.416 178.712C101.416 177.176 101.92 176 102.952 175.16C103.984 174.32 105.232 173.888 106.744 173.888C108.232 173.888 109.48 174.32 110.512 175.16C111.544 176 112.072 177.176 112.072 178.712C112.072 180.248 111.424 181.424 110.152 182.264ZM106.744 176.504C105.232 176.504 104.176 177.32 104.176 178.832C104.176 180.272 105.28 181.16 106.744 181.16C108.184 181.16 109.312 180.272 109.312 178.832C109.312 177.32 108.208 176.504 106.744 176.504ZM106.744 188.696C108.592 188.696 109.864 187.736 109.864 186.08C109.864 184.424 108.592 183.464 106.744 183.464C104.848 183.464 103.6 184.424 103.6 186.08C103.6 187.736 104.848 188.696 106.744 188.696ZM112.48 215.624C112.48 216.896 112.144 218.024 111.472 219.008L106.168 227H103L106.84 221.36H106.552C104.8 221.36 103.384 220.832 102.256 219.776C101.152 218.696 100.6 217.328 100.6 215.624C100.6 213.92 101.152 212.552 102.256 211.496C103.384 210.416 104.8 209.888 106.552 209.888C108.304 209.888 109.72 210.416 110.824 211.496C111.928 212.552 112.48 213.92 112.48 215.624ZM103.36 215.624C103.36 217.472 104.704 218.744 106.552 218.744C108.4 218.744 109.72 217.52 109.72 215.624C109.72 213.728 108.4 212.504 106.552 212.504C104.704 212.504 103.36 213.728 103.36 215.624ZM112.408 260.936C111.256 262.52 109.648 263.312 107.56 263.312C105.472 263.312 103.864 262.52 102.688 260.936C101.536 259.352 100.96 257.24 100.96 254.6C100.96 251.96 101.536 249.848 102.688 248.264C103.864 246.68 105.472 245.888 107.56 245.888C109.648 245.888 111.256 246.68 112.408 248.264C113.584 249.848 114.16 251.96 114.16 254.6C114.16 257.24 113.584 259.352 112.408 260.936ZM107.56 260.624C110.056 260.624 111.4 258.464 111.4 254.6C111.4 250.736 110.056 248.576 107.56 248.576C105.088 248.576 103.72 250.736 103.72 254.6C103.72 258.464 105.088 260.624 107.56 260.624Z" fill="#1C1C1C"/>
</g>
<path d="M147.624 74.416H149.76V75.184H147.624V77.32H146.856V75.184H144.72V74.416H146.856V72.28H147.624V74.416ZM150.66 71.368L152.88 70.6H153.6V79H152.76V71.524L150.876 72.088L150.66 71.368ZM156.323 73.984H157.739C158.519 73.984 159.191 74.212 159.731 74.68C160.283 75.136 160.559 75.76 160.559 76.564C160.559 77.368 160.283 77.992 159.731 78.46C159.191 78.916 158.519 79.144 157.739 79.144C156.479 79.144 155.387 78.508 155.039 77.356L155.747 76.948C155.987 77.848 156.743 78.328 157.739 78.328C158.891 78.328 159.719 77.68 159.719 76.564C159.719 75.448 158.891 74.8 157.739 74.8H155.459L155.759 70.6H160.259V71.392H156.503L156.323 73.984ZM163.361 74.056C162.845 74.056 162.401 73.888 162.053 73.54C161.705 73.192 161.525 72.76 161.525 72.256C161.525 71.752 161.705 71.332 162.053 70.984C162.401 70.636 162.845 70.456 163.361 70.456C163.877 70.456 164.321 70.636 164.669 70.984C165.017 71.332 165.197 71.752 165.197 72.256C165.197 72.76 165.029 73.192 164.681 73.54C164.333 73.888 163.901 74.056 163.361 74.056ZM162.593 73.024C162.989 73.444 163.733 73.444 164.129 73.024C164.525 72.604 164.525 71.908 164.129 71.488C163.733 71.068 162.989 71.068 162.593 71.488C162.197 71.908 162.197 72.604 162.593 73.024ZM162.449 78.148L161.945 77.86L167.573 71.536L168.089 71.824L162.449 78.148ZM168.065 78.628C167.717 78.976 167.273 79.144 166.757 79.144C166.241 79.144 165.797 78.976 165.449 78.628C165.101 78.28 164.921 77.848 164.921 77.344C164.921 76.84 165.101 76.42 165.449 76.072C165.797 75.724 166.241 75.544 166.757 75.544C167.273 75.544 167.717 75.724 168.065 76.072C168.413 76.42 168.593 76.84 168.593 77.344C168.593 77.848 168.413 78.28 168.065 78.628ZM165.989 78.112C166.385 78.532 167.129 78.532 167.525 78.112C167.921 77.692 167.921 76.996 167.525 76.576C167.129 76.156 166.385 76.156 165.989 76.576C165.593 76.996 165.593 77.692 165.989 78.112Z" fill="#007C23"/>
<path fill-rule="evenodd" clip-rule="evenodd" d="M182.455 73.6078L188 72L186.62 77.6061L184.898 75.9532L182.121 78.8463C182.026 78.9445 181.896 79 181.76 79C181.624 79 181.494 78.9445 181.399 78.8463L179.36 76.722L176.361 79.8463C176.169 80.0455 175.853 80.0519 175.654 79.8607C175.455 79.6695 175.448 79.3529 175.639 79.1537L178.999 75.6537C179.094 75.5555 179.224 75.5 179.36 75.5C179.496 75.5 179.626 75.5555 179.721 75.6537L181.76 77.778L184.177 75.2607L182.455 73.6078Z" fill="#007C23"/>
</g>
<defs>
<filter id="filter0_d_2455_6991" x="0" y="0" width="222" height="132" filterUnits="userSpaceOnUse" color-interpolation-filters="sRGB">
<feFlood flood-opacity="0" result="BackgroundImageFix"/>
<feColorMatrix in="SourceAlpha" type="matrix" values="0 0 0 0 0 0 0 0 0 0 0 0 0 0 0 0 0 0 127 0" result="hardAlpha"/>
<feOffset dy="4"/>
<feGaussianBlur stdDeviation="5"/>
<feComposite in2="hardAlpha" operator="out"/>
<feColorMatrix type="matrix" values="0 0 0 0 0 0 0 0 0 0.213005 0 0 0 0 0.213005 0 0 0 0.15 0"/>
<feBlend mode="normal" in2="BackgroundImageFix" result="effect1_dropShadow_2455_6991"/>
<feBlend mode="normal" in="SourceGraphic" in2="effect1_dropShadow_2455_6991" result="shape"/>
</filter>
<clipPath id="clip0_2455_6991">
<path d="M34 62C34 59.7909 35.7909 58 38 58H46C48.2091 58 50 59.7909 50 62V90C50 92.2091 48.2091 94 46 94H38C35.7909 94 34 92.2091 34 90V62Z" fill="white"/>
</clipPath>
<clipPath id="clip1_2455_6991">
<path d="M50 62C50 59.7909 51.7909 58 54 58H55C57.2091 58 59 59.7909 59 62V90C59 92.2091 57.2091 94 55 94H54C51.7909 94 50 92.2091 50 90V62Z" fill="white"/>
</clipPath>
<clipPath id="clip2_2455_6991">
<path d="M68 62C68 59.7909 69.7909 58 72 58H80C82.2091 58 84 59.7909 84 62V90C84 92.2091 82.2091 94 80 94H72C69.7909 94 68 92.2091 68 90V62Z" fill="white"/>
</clipPath>
<clipPath id="clip3_2455_6991">
<path d="M84 62C84 59.7909 85.7909 58 88 58H96C98.2091 58 100 59.7909 100 62V90C100 92.2091 98.2091 94 96 94H88C85.7909 94 84 92.2091 84 90V62Z" fill="white"/>
</clipPath>
<clipPath id="clip4_2455_6991">
<path d="M100 62C100 59.7909 101.791 58 104 58H112C114.209 58 116 59.7909 116 62V90C116 92.2091 114.209 94 112 94H104C101.791 94 100 92.2091 100 90V62Z" fill="white"/>
</clipPath>
</defs>
</svg>
