<svg width="26" height="26" viewBox="0 0 26 26" fill="none" xmlns="http://www.w3.org/2000/svg">
<g clip-path="url(#clip0_1243_25684)">
<path d="M19.4862 0.0599976H5.9142C2.75844 0.0599976 0.200195 2.61824 0.200195 5.774V19.346C0.200195 22.5018 2.75844 25.06 5.9142 25.06H19.4862C22.6419 25.06 25.2002 22.5018 25.2002 19.346V5.774C25.2002 2.61824 22.6419 0.0599976 19.4862 0.0599976Z" fill="#2D2D2D"/>
<path d="M14.1322 11.411L19.7192 5.06H18.3952L13.5432 10.575L9.6702 5.06H5.2002L11.0602 13.4L5.2002 20.06H6.5252L11.6482 14.236L15.7402 20.06H20.2092L14.1302 11.41L14.1322 11.411ZM12.3182 13.473L11.7242 12.643L7.0012 6.034H9.0342L12.8462 11.367L13.4402 12.197L18.3952 19.129H16.3622L12.3182 13.473Z" fill="white"/>
</g>
<defs>
<clipPath id="clip0_1243_25684">
<rect width="26" height="26" fill="white"/>
</clipPath>
</defs>
</svg>
