<svg width="62" height="71" viewBox="0 0 62 71" fill="none" xmlns="http://www.w3.org/2000/svg">
<mask id="mask0_1282_29840" style="mask-type:luminance" maskUnits="userSpaceOnUse" x="0" y="0" width="62" height="71">
<path d="M61.1204 0H0V70.3598H61.1204V0Z" fill="white"/>
</mask>
<g mask="url(#mask0_1282_29840)">
<path d="M61.0809 31.6542C60.671 31.6542 60.3582 31.6542 60.049 31.6542C55.3391 31.6542 50.6293 31.6525 45.9194 31.6542C40.6738 31.6562 36.1294 36.7606 36.1114 42.6771C36.0898 48.7797 40.5444 53.9516 45.8583 53.9698C50.8846 53.9859 55.9108 53.974 60.9047 53.974C60.973 54.0638 61.0485 54.1118 61.0485 54.1618C61.0557 57.0553 61.1959 59.9603 61.0233 62.8413C60.768 67.0915 57.9025 69.9845 54.1706 69.9924C46.3975 70.0106 38.6245 69.9986 30.855 69.9986C23.0244 69.9986 15.1938 69.9986 7.36323 69.9986C2.78279 69.9986 0.00362077 66.8171 0.00362077 61.567C2.5455e-05 48.9858 0.00359532 36.4084 0 23.831C0 22.0923 0.319994 20.4574 1.17927 19.013C2.58864 16.6501 4.60925 15.6374 7.04328 15.6357C17.2144 15.6254 27.382 15.6316 37.5531 15.6295C42.9857 15.6295 48.4181 15.6254 53.8507 15.6295C58.2549 15.6337 61.0737 18.8628 61.0809 23.9092C61.0845 26.438 61.0809 28.9652 61.0809 31.6542Z" fill="white"/>
<path d="M49.9204 12.4802C49.5573 12.4802 49.2444 12.4802 48.9316 12.4802C35.0968 12.4802 21.2657 12.4942 7.42735 12.4665C5.11556 12.4624 3.05543 13.1866 1.21103 14.7772C1.12114 14.8575 1.02763 14.9394 0.926961 15.0036C0.883817 15.0313 0.822678 15.0193 0.660889 15.0396C0.775939 14.7292 0.851461 14.461 0.973702 14.2271C1.96241 12.3204 3.44373 11.1677 5.28813 10.6636C18.58 7.02396 31.8791 3.40042 45.1782 -0.206971C47.8819 -0.93954 49.9707 0.987494 49.9923 4.17272C50.0103 6.80004 49.9958 9.42694 49.9887 12.0563C49.9887 12.1524 49.96 12.2463 49.9204 12.4802Z" fill="white"/>
<path d="M61.1172 34.8141C61.1172 40.1784 61.1172 45.4446 61.1172 50.7829C60.8835 50.7965 60.6893 50.8189 60.4952 50.8189C55.6163 50.821 50.7339 50.8487 45.8551 50.8069C43.1011 50.7829 40.8935 49.4841 39.6783 46.5551C38.4379 43.5755 38.6177 40.6022 40.3039 37.8731C41.5191 35.9005 43.2916 34.8778 45.3409 34.8418C50.5649 34.7541 55.7889 34.8141 61.1172 34.8141ZM50.0184 42.7693C50.0076 40.3605 47.9583 38.0312 45.8658 38.0432C43.7662 38.0531 41.7456 40.3862 41.7384 42.8012C41.7312 45.2526 43.8058 47.6113 45.9342 47.5774C48.0339 47.5434 50.0328 45.1884 50.0184 42.7693Z" fill="white"/>
</g>
</svg>
