<svg width="44" height="44" viewBox="0 0 44 44" fill="none" xmlns="http://www.w3.org/2000/svg">
<g clip-path="url(#clip0_1008_4067)">
<path d="M31.6614 16.6078C31.2728 16.6078 30.9087 16.3663 30.7708 15.9794C29.9937 13.797 27.9144 12.3308 25.5969 12.3308C23.2863 12.3308 21.2092 13.7912 20.4281 15.9648C20.2516 16.4562 19.7101 16.7116 19.2187 16.5348C18.7274 16.3583 18.4721 15.8168 18.6487 15.3255C19.6988 12.4033 22.4911 10.4401 25.5969 10.4401C28.7122 10.4401 31.5073 12.4113 32.5521 15.3451C32.7272 15.837 32.4704 16.3777 31.9786 16.5528C31.8737 16.5901 31.7666 16.6078 31.6614 16.6078Z" fill="#EE5A29"/>
<path d="M40.4043 35.0795H29.1898C26.3099 35.0795 23.9668 32.7361 23.9668 29.8557C23.9668 26.9753 26.3099 24.6318 29.1898 24.6318H40.4043C40.9264 24.6318 41.3497 25.0551 41.3497 25.5772C41.3497 26.0993 40.9264 26.5226 40.4043 26.5226H29.1898C27.3524 26.5226 25.8575 28.0177 25.8575 29.8556C25.8575 31.6935 27.3524 33.1887 29.1898 33.1887H40.4043C40.9264 33.1887 41.3497 33.612 41.3497 34.1341C41.3497 34.6562 40.9265 35.0795 40.4043 35.0795Z" fill="#EE5A29"/>
<path d="M32.3518 30.801H29.7296C29.2074 30.801 28.7842 30.3778 28.7842 29.8556C28.7842 29.3335 29.2074 28.9103 29.7296 28.9103H32.3518C32.8739 28.9103 33.2972 29.3335 33.2972 29.8556C33.2972 30.3778 32.8739 30.801 32.3518 30.801Z" fill="#EE5A29"/>
<path d="M39.4749 16.0416C39.8393 15.406 40.0334 14.6845 40.0334 13.9332C40.0334 12.7903 39.5845 11.7164 38.7696 10.9091L29.0139 1.24533C27.3375 -0.415083 24.6099 -0.415169 22.9335 1.24542L15.8432 8.26893H6.63855C4.15566 8.26893 2.13574 10.2893 2.13574 12.7725C2.13574 12.7961 2.1366 12.8195 2.13832 12.8427C2.1366 12.8659 2.13574 12.8893 2.13574 12.9129V39.4964C2.13574 41.9798 4.17121 43.9999 6.67318 43.9999H37.0383C39.6998 43.9999 41.8652 41.8511 41.8652 39.2098V20.1755C41.8651 18.4155 40.9038 16.8743 39.4749 16.0416ZM24.2641 2.58871C25.2068 1.65485 26.7406 1.65494 27.6834 2.58862L37.439 12.2524C37.8928 12.7018 38.1427 13.2987 38.1427 13.9332C38.1427 14.4798 37.9572 14.9987 37.6156 15.4194C37.4264 15.3969 37.2338 15.3853 37.0384 15.3853H11.3457L24.2641 2.58871ZM6.63855 10.1597H13.9345L8.65915 15.3853H6.63855C5.2296 15.3853 4.08312 14.2833 4.02846 12.8763C4.02777 12.859 4.02657 12.8417 4.02502 12.8246C4.02597 12.8073 4.02649 12.79 4.02649 12.7726C4.02649 11.3318 5.19823 10.1597 6.63855 10.1597ZM39.9743 39.2099C39.9743 40.8087 38.6573 42.1093 37.0383 42.1093H6.67318C5.21379 42.1093 4.02649 40.9372 4.02649 39.4965V16.4475C4.76284 16.9703 5.6643 17.2761 6.63855 17.2761H37.0383C38.6572 17.2761 39.9744 18.5767 39.9744 20.1755L39.9743 39.2099Z" fill="#333333"/>
</g>
<defs>
<clipPath id="clip0_1008_4067">
<rect width="44" height="44" fill="white"/>
</clipPath>
</defs>
</svg>
