<svg width="512" height="512" viewBox="0 0 512 512" fill="none" xmlns="http://www.w3.org/2000/svg">
<path d="M511.999 256C511.999 114.615 397.385 0 256 0C114.615 0 0 114.615 0 256C0 397.385 114.615 512 256 512C397.385 512 511.999 397.385 511.999 256Z" fill="#FC3F1D"/>
<path d="M339.19 384.774H292.256V151.666H271.313C232.913 151.666 212.748 171.051 212.748 199.749C212.748 232.324 226.717 247.462 255.415 266.866L279.067 282.764L210.8 384.774H159.99L221.282 293.616C185.98 268.406 166.205 243.974 166.205 202.476C166.205 150.497 202.267 115.195 270.923 115.195H339.19V384.774Z" fill="white"/>
</svg>
