<svg width="512" height="512" viewBox="0 0 512 512" fill="none" xmlns="http://www.w3.org/2000/svg">
<g clip-path="url(#clip0_2799_6896)">
<path d="M256 512C397.385 512 512 397.385 512 256C512 114.615 397.385 0 256 0C114.615 0 0 114.615 0 256C0 397.385 114.615 512 256 512Z" fill="#FF0000"/>
<path d="M339.773 159.697H172.228C165.532 159.697 158.902 161.016 152.717 163.579C146.531 166.143 140.912 169.9 136.179 174.636C131.446 179.372 127.693 184.994 125.133 191.181C122.574 197.368 121.259 203.999 121.264 210.695V301.305C121.259 308.001 122.574 314.632 125.133 320.819C127.693 327.006 131.446 332.628 136.179 337.364C140.912 342.1 146.531 345.857 152.717 348.42C158.902 350.984 165.532 352.303 172.228 352.303H339.773C346.469 352.303 353.099 350.984 359.284 348.42C365.47 345.857 371.089 342.1 375.822 337.364C380.555 332.628 384.308 327.006 386.868 320.819C389.427 314.632 390.742 308.001 390.737 301.305V210.695C390.742 203.999 389.427 197.368 386.868 191.181C384.308 184.994 380.555 179.372 375.822 174.636C371.089 169.9 365.47 166.143 359.284 163.579C353.099 161.016 346.469 159.697 339.773 159.697ZM220.497 297.297V214.703L291.504 256L220.497 297.297Z" fill="white"/>
</g>
<defs>
<clipPath id="clip0_2799_6896">
<rect width="512" height="512" fill="white"/>
</clipPath>
</defs>
</svg>
