<svg width="44" height="44" viewBox="0 0 44 44" fill="none" xmlns="http://www.w3.org/2000/svg">
<path d="M19.3926 31.3583V22.1284C19.3926 21.9388 19.5468 21.7847 19.7363 21.7847H22.8287C23.0183 21.7847 23.1725 21.9388 23.1725 22.1284V31.3582H25.0631V22.1284C25.0631 20.8964 24.0607 19.894 22.8287 19.894H19.7363C18.5043 19.894 17.502 20.8964 17.502 22.1284V31.3582H19.3926V31.3583Z" fill="#EE5A29"/>
<path d="M9.14355 31.3583V25.5234C9.14355 25.3339 9.29773 25.1797 9.4873 25.1797H12.5798C12.7693 25.1797 12.9235 25.3339 12.9235 25.5234V31.3583H14.8141V25.5234C14.8141 24.2914 13.8118 23.2891 12.5798 23.2891H9.4873C8.2553 23.2891 7.25293 24.2914 7.25293 25.5234V31.3583H9.14355Z" fill="#EE5A29"/>
<path d="M27.7503 18.801V31.3583H29.641V18.5875C29.641 17.821 29.1194 17.174 28.4124 16.983L31.5309 13.1772L34.6495 16.983C33.9425 17.174 33.4209 17.821 33.4209 18.5875V31.3582H35.3116V18.801C35.8653 18.7262 36.3413 18.3817 36.5862 17.8647C36.864 17.2777 36.781 16.601 36.3694 16.0988L32.8175 11.7643C32.5003 11.3773 32.0314 11.1553 31.531 11.1553C31.0306 11.1553 30.5616 11.3773 30.2445 11.7643L26.6926 16.0988C26.281 16.6011 26.198 17.2777 26.4758 17.8647C26.7206 18.3817 27.1966 18.7262 27.7503 18.801Z" fill="#EE5A29"/>
<path d="M42.1953 30.4154H41.6877V10.0575C41.6877 7.6112 39.6975 5.62097 37.2512 5.62097H6.74884C4.30255 5.62097 2.31232 7.6112 2.31232 10.0575V30.4153H1.80469C0.809531 30.4153 0 31.2248 0 32.22V33.9962C0 36.413 1.96608 38.3791 4.38281 38.3791H39.6172C42.0339 38.3791 44 36.413 44 33.9962V32.22C44 31.2249 43.1905 30.4154 42.1953 30.4154ZM4.20295 10.0575C4.20295 8.65371 5.34505 7.5116 6.74884 7.5116H37.2512C38.6549 7.5116 39.7971 8.65371 39.7971 10.0575V30.4153H4.20295V10.0575ZM42.1094 33.9963C42.1094 35.3706 40.9914 36.4885 39.6172 36.4885H4.38281C3.00859 36.4885 1.89062 35.3706 1.89062 33.9963V32.306H42.1094V33.9963Z" fill="#333333"/>
<path d="M14.6446 10.9529H7.77051C7.24844 10.9529 6.8252 11.3761 6.8252 11.8982C6.8252 12.4203 7.24844 12.8435 7.77051 12.8435H14.6446C15.1667 12.8435 15.59 12.4203 15.59 11.8982C15.59 11.3761 15.1667 10.9529 14.6446 10.9529Z" fill="#333333"/>
<path d="M13.068 15.0586H7.77051C7.24844 15.0586 6.8252 15.4818 6.8252 16.0039C6.8252 16.526 7.24844 16.9492 7.77051 16.9492H13.068C13.59 16.9492 14.0133 16.526 14.0133 16.0039C14.0133 15.4818 13.59 15.0586 13.068 15.0586Z" fill="#333333"/>
</svg>
