<svg width="25" height="24" viewBox="0 0 25 24" fill="none" xmlns="http://www.w3.org/2000/svg">
<path d="M12.7168 0C6.09973 0 0.716797 5.38293 0.716797 12C0.716797 18.6171 6.09973 24 12.7168 24C19.3339 24 24.7168 18.6171 24.7168 12C24.7168 5.38293 19.3339 0 12.7168 0Z" fill="#1572A1"/>
<path d="M18.7988 9.45703L12.2988 15.9569C12.1038 16.1519 11.8478 16.2501 11.5918 16.2501C11.3358 16.2501 11.0798 16.1519 10.8848 15.9569L7.63489 12.707C7.24377 12.316 7.24377 11.684 7.63489 11.293C8.02582 10.9019 8.65771 10.9019 9.04883 11.293L11.5918 13.836L17.3849 8.04309C17.7758 7.65198 18.4077 7.65198 18.7988 8.04309C19.1898 8.43402 19.1898 9.06592 18.7988 9.45703Z" fill="white"/>
</svg>
