<svg width="44" height="44" viewBox="0 0 44 44" fill="none" xmlns="http://www.w3.org/2000/svg">
<path d="M37.0325 12.2285C36.5104 12.2285 36.0872 11.8053 36.0872 11.2832V8.32642H25.7666V11.2832C25.7666 11.8053 25.3434 12.2285 24.8213 12.2285C24.2992 12.2285 23.876 11.8053 23.876 11.2832V7.3811C23.876 6.85903 24.2992 6.43579 24.8213 6.43579H37.0325C37.5546 6.43579 37.9778 6.85903 37.9778 7.3811V11.2832C37.9778 11.8053 37.5546 12.2285 37.0325 12.2285Z" fill="#EE5A29"/>
<path d="M15.4541 12.2284C14.932 12.2284 14.5088 11.8052 14.5088 11.2831V3.09375C14.5088 2.57168 14.932 2.14844 15.4541 2.14844H29.673C30.195 2.14844 30.6183 2.57168 30.6183 3.09375V6.95131C30.6183 7.47338 30.195 7.89663 29.673 7.89663C29.1509 7.89663 28.7277 7.47338 28.7277 6.95131V4.03906H16.3994V11.2831C16.3994 11.8052 15.9762 12.2284 15.4541 12.2284Z" fill="#EE5A29"/>
<path d="M14.5254 31.3619L40.4402 29.1293C40.8713 29.0922 41.2222 28.7671 41.2919 28.3401L43.9875 11.8654C44.0323 11.5916 43.9546 11.312 43.775 11.1006C43.5954 10.8893 43.332 10.7675 43.0546 10.7675H10.157L8.03533 2.84909C7.92464 2.43581 7.55004 2.14844 7.12224 2.14844H0.945312C0.423242 2.14844 0 2.57168 0 3.09375C0 3.61582 0.423242 4.03906 0.945312 4.03906H6.39693L13.2693 29.687C11.3119 30.2937 10.4695 31.9857 10.5346 33.5004C10.6012 35.05 11.6229 36.6159 13.4761 37.0233C13.2397 37.4785 13.1059 37.9954 13.1059 38.543C13.1059 40.3673 14.5901 41.8516 16.4145 41.8516C18.2389 41.8516 19.7231 40.3673 19.7231 38.543C19.7231 38.0359 19.6084 37.555 19.4036 37.1251H35.0068C34.802 37.555 34.6873 38.0359 34.6873 38.543C34.6873 40.3673 36.1715 41.8516 37.9959 41.8516C39.8203 41.8516 41.3045 40.3673 41.3045 38.543C41.3045 36.7186 39.8203 35.2344 37.9959 35.2344C37.9915 35.2344 37.9871 35.2345 37.9827 35.2345H16.4276C16.4232 35.2345 16.4188 35.2344 16.4144 35.2344C16.41 35.2344 16.4056 35.2345 16.4013 35.2345H14.4443C13.1022 35.2345 12.4623 34.3228 12.4234 33.4192C12.3863 32.5569 12.9146 31.5006 14.5254 31.3619ZM10.6636 12.6581H41.9421L39.5449 27.3088L15.1523 29.4101L10.6636 12.6581ZM17.8324 38.543C17.8324 39.3248 17.1963 39.9609 16.4144 39.9609C15.6325 39.9609 14.9964 39.3248 14.9964 38.543C14.9964 37.7656 15.6254 37.1322 16.4011 37.1251H16.4277C17.2034 37.1322 17.8324 37.7656 17.8324 38.543ZM39.4138 38.543C39.4138 39.3248 38.7777 39.9609 37.9958 39.9609C37.2139 39.9609 36.5778 39.3248 36.5778 38.543C36.5778 37.7656 37.2068 37.1322 37.9825 37.1251H37.9958C37.9973 37.1251 37.9987 37.1251 38.0003 37.125C38.78 37.1274 39.4138 37.7626 39.4138 38.543Z" fill="#333333"/>
<path d="M20.1426 23.6405C20.6646 23.6405 21.0879 23.2172 21.0879 22.6951V17.0664C21.0879 16.5443 20.6646 16.1211 20.1426 16.1211C19.6205 16.1211 19.1973 16.5443 19.1973 17.0664V22.6951C19.1973 23.2172 19.6205 23.6405 20.1426 23.6405Z" fill="#333333"/>
<path d="M26.6729 23.6405C27.1949 23.6405 27.6182 23.2172 27.6182 22.6951V17.0664C27.6182 16.5443 27.1949 16.1211 26.6729 16.1211C26.1508 16.1211 25.7275 16.5443 25.7275 17.0664V22.6951C25.7275 23.2172 26.1508 23.6405 26.6729 23.6405Z" fill="#333333"/>
<path d="M33.2031 23.6405C33.7252 23.6405 34.1484 23.2172 34.1484 22.6951V17.0664C34.1484 16.5443 33.7252 16.1211 33.2031 16.1211C32.6811 16.1211 32.2578 16.5443 32.2578 17.0664V22.6951C32.2578 23.2172 32.6811 23.6405 33.2031 23.6405Z" fill="#333333"/>
</svg>
