<svg width="44" height="44" viewBox="0 0 44 44" fill="none" xmlns="http://www.w3.org/2000/svg">
<g clip-path="url(#clip0_1008_4090)">
<path d="M10.7708 44.0001H4.37869C3.20908 44.0001 2.10951 43.5446 1.28253 42.7176C0.455469 41.8905 0 40.7909 0 39.6215C0 37.9618 0.645734 36.403 1.81818 35.2305L7.99691 29.0518C8.36619 28.6826 8.96457 28.6826 9.33384 29.0518C9.70303 29.421 9.70303 30.0195 9.33384 30.3887L3.15511 36.5674C2.33973 37.3827 1.89062 38.4668 1.89062 39.6199C1.89062 40.286 2.14947 40.9107 2.61937 41.3807C3.08928 41.8507 3.71405 42.1095 4.37869 42.1095H10.7708C11.2929 42.1095 11.7161 42.5327 11.7161 43.0548C11.7161 43.5769 11.2929 44.0001 10.7708 44.0001Z" fill="#333333"/>
<path d="M39.5853 43.9999H33.2295C32.7074 43.9999 32.2842 43.5767 32.2842 43.0546C32.2842 42.5326 32.7074 42.1093 33.2295 42.1093H39.5853C40.9772 42.1093 42.1097 40.9768 42.1097 39.5848C42.1097 38.4541 41.6696 37.3915 40.8704 36.5922L34.6665 30.3885C34.2974 30.0193 34.2974 29.4207 34.6665 29.0515C35.0358 28.6824 35.6342 28.6824 36.0035 29.0515L42.2073 35.2554C43.3636 36.4118 44.0003 37.9491 44.0003 39.5843C44.0003 42.0193 42.0197 43.9999 39.5853 43.9999Z" fill="#333333"/>
<path d="M31.8493 4.07945C30.5104 2.74141 28.6533 2.02469 26.8847 2.13555C25.7134 0.806094 23.8932 0 22 0C20.1068 0 18.2867 0.806953 17.1154 2.13555C15.3468 2.02469 13.4888 2.74141 12.1507 4.07945C11.9041 4.32609 11.8139 4.68789 11.9144 5.02133C11.9213 5.04539 12.6329 7.46367 12.6329 12.876V14.9815C12.6329 18.9812 15.1523 22.4029 18.6872 23.7438C19.7175 24.1346 20.7961 23.4676 21.9619 23.4676C23.1937 23.4676 24.409 24.1097 25.4873 23.6756C28.9303 22.2898 31.3672 18.9152 31.3672 14.9815V12.876C31.3672 7.51352 32.0797 5.04281 32.0857 5.02133C32.1862 4.68789 32.096 4.32609 31.8493 4.07945ZM17.3715 4.0657C17.7281 4.125 18.0882 3.97633 18.2979 3.68156C19.073 2.59359 20.5262 1.89062 22 1.89062C23.4739 1.89062 24.9271 2.59359 25.7022 3.68156C25.9119 3.97633 26.272 4.125 26.6286 4.0657C27.7922 3.86977 29.1174 4.26078 30.1289 5.07289C29.9415 5.93656 29.6313 7.74812 29.5187 10.6365L26.8796 7.99734C26.6897 7.80656 26.4258 7.70687 26.1586 7.72148C25.9334 7.73438 25.722 7.82633 25.5604 7.9793C25.5544 7.98531 25.5475 7.99133 25.5415 7.99734C24.5962 8.94352 23.3381 9.4643 22 9.4643C20.662 9.4643 19.4039 8.94352 18.4586 7.99734C18.4379 7.97758 18.4165 7.95781 18.3941 7.93891C18.0186 7.62609 17.4668 7.65102 17.1205 7.99734L14.4814 10.6365C14.3688 7.74812 14.0586 5.93656 13.8712 5.07289C14.8836 4.26078 16.2079 3.86977 17.3715 4.0657ZM29.4766 14.9815C29.4766 19.1048 26.1225 22.458 22 22.458C17.8776 22.458 14.5235 19.1048 14.5235 14.9815V13.2679L17.8338 9.95758C19.0266 10.8642 20.4755 11.3549 22 11.3549C23.5246 11.3549 24.9735 10.8642 26.1663 9.95758L29.4766 13.2679V14.9815Z" fill="#333333"/>
<path d="M33.2288 43.9999H10.7704C10.2999 43.9999 9.90114 43.654 9.83454 43.1884L7.48509 26.7415C7.33109 25.6641 7.65181 24.5745 8.36509 23.7521C9.0782 22.9299 10.1114 22.4583 11.1999 22.4583H32.7992C33.8877 22.4583 34.9209 22.9299 35.6341 23.7521C36.3473 24.5745 36.668 25.6641 36.514 26.7415L34.1645 43.1883C34.098 43.654 33.6993 43.9999 33.2288 43.9999ZM11.5902 42.1093H32.4089L34.6425 26.4741C34.7189 25.9395 34.5597 25.3989 34.2059 24.9909C33.852 24.5829 33.3393 24.3489 32.7993 24.3489H11.2C10.66 24.3489 10.1473 24.5829 9.79346 24.9908C9.43957 25.3989 9.28033 25.9395 9.35681 26.474L11.5902 42.1093Z" fill="#EE5A29"/>
<path d="M21.9997 36.9817C19.9305 36.9817 18.2471 35.2983 18.2471 33.2291C18.2471 31.16 19.9305 29.4766 21.9997 29.4766C24.0689 29.4766 25.7523 31.16 25.7523 33.2292C25.7523 35.2984 24.0689 36.9817 21.9997 36.9817ZM21.9997 31.3672C20.973 31.3672 20.1377 32.2025 20.1377 33.2292C20.1377 34.2559 20.973 35.0912 21.9997 35.0912C23.0264 35.0912 23.8617 34.2559 23.8617 33.2292C23.8617 32.2025 23.0264 31.3672 21.9997 31.3672Z" fill="#EE5A29"/>
</g>
<defs>
<clipPath id="clip0_1008_4090">
<rect width="44" height="44" fill="white"/>
</clipPath>
</defs>
</svg>
