<svg width="527" height="68" viewBox="0 0 527 68" fill="none" xmlns="http://www.w3.org/2000/svg">
<path d="M513.5 37.5375L519.262 37.9024L516.697 32.7299L513.5 37.5375ZM207 65.0479L202.103 61.9901L201.903 67.7601L207 65.0479ZM492.366 5.4249C492.698 5.51703 493.027 5.60938 493.354 5.70195L493.626 4.73975C493.298 4.64675 492.967 4.55397 492.634 4.46142L492.366 5.4249ZM495.313 6.26696C495.974 6.46115 496.625 6.65625 497.266 6.85225L497.558 5.89595C496.913 5.69887 496.259 5.50273 495.595 5.30754L495.313 6.26696ZM499.211 7.45944C499.867 7.66878 500.513 7.8791 501.147 8.09038L501.463 7.14164C500.825 6.92895 500.175 6.71729 499.514 6.50667L499.211 7.45944ZM503.073 8.74714C503.724 8.97442 504.362 9.20275 504.987 9.4321L505.331 8.49337C504.702 8.26211 504.059 8.03199 503.403 7.80303L503.073 8.74714ZM506.895 10.1518C507.541 10.4022 508.171 10.6537 508.786 10.9064L509.166 9.98151C508.545 9.72615 507.908 9.4721 507.256 9.21936L506.895 10.1518ZM510.654 11.6995C511.29 11.9782 511.906 12.2581 512.503 12.5392L512.929 11.6346C512.323 11.3494 511.699 11.0658 511.056 10.7837L510.654 11.6995ZM514.325 13.4325C514.945 13.7487 515.54 14.0663 516.11 14.3851L516.598 13.5124C516.016 13.1869 515.41 12.8634 514.78 12.5419L514.325 13.4325ZM517.85 15.4107C518.445 15.7804 519.005 16.1516 519.532 16.5239L520.109 15.7074C519.565 15.3228 518.988 14.9409 518.379 14.5616L517.85 15.4107ZM521.126 17.7403C521.666 18.1872 522.156 18.635 522.596 19.0833L523.309 18.3826C522.843 17.9073 522.327 17.4365 521.764 16.9702L521.126 17.7403ZM523.876 20.5755C524.285 21.1332 524.616 21.6894 524.87 22.2438L525.779 21.8278C525.494 21.2044 525.127 20.5897 524.682 19.9838L523.876 20.5755ZM525.427 24.0597C525.476 24.3726 525.5 24.686 525.5 25H526.5C526.5 24.6338 526.471 24.269 526.415 23.9057L525.427 24.0597ZM525.5 25C525.5 25.2851 525.48 25.5697 525.44 25.8539L526.43 25.9941C526.476 25.6639 526.5 25.3325 526.5 25H525.5ZM524.976 27.5126C524.763 28.0243 524.484 28.5375 524.138 29.0522L524.968 29.6101C525.346 29.0468 525.658 28.4759 525.899 27.8975L524.976 27.5126ZM523.035 30.4509C522.653 30.8736 522.226 31.2961 521.755 31.7181L522.422 32.4629C522.917 32.02 523.369 31.5729 523.777 31.1216L523.035 30.4509ZM520.355 32.8721C519.891 33.226 519.396 33.579 518.871 33.9309L519.427 34.7617C519.968 34.3994 520.48 34.0346 520.961 33.6673L520.355 32.8721ZM517.324 34.9111C516.817 35.2161 516.286 35.5201 515.734 35.823L516.214 36.6999C516.778 36.3911 517.32 36.0805 517.839 35.7681L517.324 34.9111ZM49.8935 0.652334C49.5585 0.725344 49.2249 0.798535 48.8929 0.871905L49.1086 1.84835C49.4397 1.77519 49.7723 1.70221 50.1065 1.6294L49.8935 0.652334ZM46.9156 1.31493C46.2471 1.46681 45.585 1.61943 44.9294 1.77279L45.1571 2.74651C45.8107 2.59364 46.4707 2.44149 47.1372 2.29007L46.9156 1.31493ZM42.9487 2.24298C42.2843 2.40308 41.6269 2.56395 40.9763 2.72559L41.2175 3.69608C41.8657 3.53502 42.5208 3.37471 43.183 3.21515L42.9487 2.24298ZM39.0092 3.22218C38.3435 3.39293 37.6855 3.56452 37.0353 3.73692L37.2916 4.70352C37.9391 4.53183 38.5945 4.36092 39.2577 4.19082L39.0092 3.22218ZM35.0692 4.26724C34.4078 4.44875 33.755 4.63114 33.1107 4.81439L33.3843 5.77624C34.0255 5.59385 34.6754 5.41229 35.3339 5.23158L35.0692 4.26724ZM31.1596 5.37986C30.5017 5.57417 29.8534 5.76943 29.2147 5.96561L29.5084 6.92152C30.1434 6.72643 30.7883 6.53222 31.4429 6.33891L31.1596 5.37986ZM27.2681 6.57614C26.6111 6.78658 25.9652 6.99806 25.3304 7.21055L25.6478 8.15883C26.2783 7.94776 26.9202 7.73764 27.5732 7.52848L27.2681 6.57614ZM23.402 7.87134C22.7497 8.10021 22.1103 8.33023 21.4838 8.56139L21.83 9.49956C22.4512 9.27032 23.0856 9.04211 23.7331 8.81494L23.402 7.87134ZM19.5771 9.28409C18.9307 9.53589 18.2996 9.789 17.6839 10.0434L18.0658 10.9676C18.6749 10.7159 19.2998 10.4653 19.9401 10.2159L19.5771 9.28409ZM15.8071 10.844C15.1697 11.125 14.5508 11.4075 13.9509 11.6915L14.3787 12.5953C14.9701 12.3153 15.5808 12.0366 16.2104 11.7591L15.8071 10.844ZM12.1186 12.5937C11.4907 12.9157 10.8868 13.2397 10.3071 13.5656L10.7972 14.4373C11.365 14.118 11.9577 13.8001 12.575 13.4835L12.1186 12.5937ZM8.54006 14.6124C7.93819 14.9889 7.36821 15.3681 6.83079 15.75L7.41001 16.5652C7.93017 16.1956 8.48375 15.8272 9.07043 15.4601L8.54006 14.6124ZM5.18591 17.0118C4.62779 17.4766 4.11672 17.9459 3.65421 18.4197L4.36978 19.1182C4.8058 18.6716 5.29123 18.2255 5.82587 17.7802L5.18591 17.0118ZM2.29344 20.0171C1.85472 20.619 1.49252 21.2297 1.21118 21.849L2.12164 22.2626C2.37171 21.7121 2.698 21.1598 3.10157 20.6061L2.29344 20.0171ZM0.584045 23.913C0.528167 24.2739 0.5 24.6363 0.5 25H1.5C1.5 24.6881 1.52414 24.3769 1.57227 24.0661L0.584045 23.913ZM0.5 25C0.5 25.3554 0.526895 25.7095 0.580265 26.0622L1.56901 25.9126C1.52305 25.6089 1.5 25.3047 1.5 25H0.5ZM1.18029 28.0822C1.45049 28.6906 1.79872 29.2906 2.22084 29.8822L3.03487 29.3014C2.64727 28.7582 2.33406 28.2163 2.0942 27.6763L1.18029 28.0822ZM3.53903 31.4611C3.99151 31.9337 4.49224 32.4018 5.03969 32.8654L5.68594 32.1023C5.16214 31.6587 4.68721 31.2143 4.26133 30.7695L3.53903 31.4611ZM6.64365 34.116C7.16254 34.4906 7.71271 34.8626 8.29353 35.2321L8.83026 34.3883C8.26459 34.0285 7.73073 33.6674 7.22899 33.3052L6.64365 34.116ZM10.0405 36.2833C10.5995 36.6023 11.1817 36.9195 11.7869 37.2348L12.249 36.348C11.6544 36.0382 11.0833 35.7271 10.5361 35.4148L10.0405 36.2833ZM13.5877 38.1353C14.1736 38.4169 14.7781 38.697 15.4008 38.9755L15.8091 38.0627C15.1943 37.7877 14.5981 37.5114 14.0208 37.234L13.5877 38.1353ZM17.2427 39.7729C17.842 40.0242 18.4564 40.2742 19.0856 40.523L19.4532 39.593C18.8301 39.3467 18.2221 39.0992 17.6293 38.8507L17.2427 39.7729ZM20.971 41.248C21.5758 41.4744 22.193 41.6996 22.8225 41.9238L23.158 40.9817C22.5333 40.7593 21.9211 40.5359 21.3215 40.3115L20.971 41.248ZM24.7477 42.593C25.3566 42.7997 25.976 43.0054 26.6059 43.2102L26.9151 42.2591C26.2891 42.0557 25.6738 41.8513 25.0691 41.6461L24.7477 42.593ZM28.5157 43.818C29.146 44.0145 29.7859 44.2101 30.4355 44.4047L30.7225 43.4468C30.0764 43.2532 29.44 43.0587 28.8134 42.8634L28.5157 43.818ZM32.3257 44.9606C32.9646 45.1451 33.6121 45.3286 34.2682 45.5113L34.5364 44.548C33.8833 44.3661 33.2388 44.1834 32.6031 43.9999L32.3257 44.9606ZM36.1816 46.035C36.8121 46.2047 37.4501 46.3736 38.0956 46.5417L38.3476 45.5739C37.7047 45.4065 37.0693 45.2383 36.4415 45.0694L36.1816 46.035ZM40.0541 47.0435C40.687 47.2031 41.3266 47.362 41.9729 47.5201L42.2105 46.5487C41.5665 46.3912 40.9291 46.2329 40.2986 46.0739L40.0541 47.0435ZM43.8983 47.9842C44.5466 48.1381 45.2013 48.2914 45.8623 48.4439L46.0871 47.4695C45.4281 47.3175 44.7756 47.1647 44.1294 47.0112L43.8983 47.9842ZM47.7977 48.8842C48.435 49.0272 49.078 49.1696 49.7266 49.3112L49.9399 48.3342C49.2932 48.193 48.6521 48.0511 48.0166 47.9085L47.7977 48.8842ZM51.689 49.7341C52.3375 49.8721 52.9914 50.0093 53.6506 50.1459L53.8534 49.1667C53.196 49.0304 52.5438 48.8936 51.897 48.756L51.689 49.7341ZM55.5776 50.5402C56.2248 50.671 56.877 50.8012 57.5341 50.9307L57.7276 49.9496C57.072 49.8204 56.4214 49.6905 55.7757 49.56L55.5776 50.5402ZM59.52 51.3175C60.1593 51.4404 60.803 51.5628 61.4511 51.6846L61.6358 50.7018C60.989 50.5802 60.3467 50.4581 59.7089 50.3355L59.52 51.3175ZM63.3991 52.0463C64.0527 52.1663 64.7107 52.2857 65.373 52.4045L65.5496 51.4202C64.8886 51.3017 64.2319 51.1825 63.5796 51.0628L63.3991 52.0463ZM67.348 52.7547C67.9901 52.8673 68.636 52.9793 69.2858 53.0907L69.4548 52.1051C68.8062 51.9939 68.1615 51.8821 67.5207 51.7698L67.348 52.7547ZM71.2467 53.4234C71.9042 53.5337 72.5656 53.6434 73.2307 53.7526L73.3926 52.7658C72.7287 52.6568 72.0685 52.5473 71.4122 52.4372L71.2467 53.4234ZM75.1961 54.0717C75.8418 54.1755 76.491 54.2787 77.1437 54.3813L77.2991 53.3935C76.6475 53.291 75.9994 53.188 75.3547 53.0844L75.1961 54.0717ZM79.1119 54.6877C79.7714 54.7893 80.4343 54.8904 81.1006 54.9908L81.2498 54.002C80.5845 53.9017 79.9226 53.8008 79.2641 53.6994L79.1119 54.6877ZM83.0658 55.2842C83.7136 55.3799 84.3646 55.4752 85.0187 55.5699L85.162 54.5802C84.5089 54.4856 83.8588 54.3905 83.2119 54.295L83.0658 55.2842ZM86.9901 55.8524C87.6503 55.9461 88.3136 56.0392 88.9799 56.1318L89.1176 55.1414C88.4522 55.0489 87.7898 54.9558 87.1306 54.8623L86.9901 55.8524ZM90.9526 56.4033C91.6015 56.4917 92.2532 56.5797 92.9076 56.6671L93.04 55.6759C92.3864 55.5886 91.7356 55.5008 91.0876 55.4125L90.9526 56.4033ZM94.8793 56.9279C95.5393 57.0143 96.2021 57.1002 96.8675 57.1857L96.9949 56.1938C96.3302 56.1085 95.6683 56.0227 95.0092 55.9363L94.8793 56.9279ZM98.8542 57.4382C99.5033 57.5199 100.155 57.6011 100.809 57.6819L100.932 56.6894C100.278 56.6087 99.6274 56.5276 98.9791 56.446L98.8542 57.4382ZM102.779 57.9227C103.438 58.0024 104.1 58.0817 104.764 58.1606L104.882 57.1675C104.218 57.0888 103.557 57.0096 102.899 56.9299L102.779 57.9227ZM106.763 58.3956C107.414 58.4713 108.067 58.5466 108.722 58.6214L108.836 57.6278C108.181 57.5531 107.529 57.4779 106.879 57.4023L106.763 58.3956ZM110.689 58.8437C111.347 58.9173 112.007 58.9905 112.669 59.0632L112.778 58.0692C112.117 57.9965 111.457 57.9234 110.8 57.8499L110.689 58.8437ZM114.663 59.28C115.322 59.3509 115.984 59.4214 116.647 59.4915L116.752 58.497C116.089 58.427 115.429 58.3566 114.77 58.2857L114.663 59.28ZM118.61 59.6966C119.266 59.7646 119.924 59.8321 120.585 59.8991L120.686 58.9042C120.026 58.8372 119.368 58.7698 118.713 58.702L118.61 59.6966ZM122.572 60.0989C123.236 60.165 123.903 60.2307 124.571 60.2959L124.668 59.3006C124.001 59.2355 123.335 59.1699 122.671 59.1038L122.572 60.0989ZM126.542 60.4863C127.197 60.5489 127.853 60.6111 128.511 60.6728L128.605 59.6772C127.947 59.6155 127.291 59.5534 126.637 59.4909L126.542 60.4863ZM130.492 60.8567C131.154 60.9176 131.817 60.978 132.483 61.038L132.573 60.042C131.908 59.9821 131.245 59.9217 130.583 59.8609L130.492 60.8567ZM134.486 61.2166C135.139 61.2742 135.793 61.3314 136.449 61.3882L136.536 60.3919C135.88 60.3352 135.226 60.278 134.574 60.2204L134.486 61.2166ZM138.423 61.5572C139.082 61.6131 139.744 61.6686 140.407 61.7236L140.489 60.7271C139.827 60.6721 139.166 60.6166 138.507 60.5608L138.423 61.5572ZM142.4 61.8875C143.065 61.9415 143.731 61.9952 144.399 62.0484L144.479 61.0515C143.811 60.9984 143.146 60.9448 142.481 60.8908L142.4 61.8875ZM146.366 62.2033C147.023 62.2546 147.682 62.3054 148.342 62.3558L148.418 61.3587C147.759 61.3083 147.1 61.2576 146.444 61.2064L146.366 62.2033ZM150.328 62.5057C150.991 62.5553 151.656 62.6045 152.322 62.6532L152.395 61.6558C151.729 61.6071 151.065 61.558 150.402 61.5085L150.328 62.5057ZM154.322 62.7977C154.977 62.8445 155.633 62.891 156.291 62.937L156.36 61.9394C155.703 61.8934 155.047 61.8471 154.393 61.8003L154.322 62.7977ZM158.268 63.0737C158.928 63.1189 159.59 63.1637 160.254 63.208L160.321 62.2103C159.658 62.1659 158.996 62.1212 158.336 62.0761L158.268 63.0737ZM162.248 63.3398C162.914 63.3834 163.582 63.4265 164.251 63.4692L164.314 62.4712C163.646 62.4285 162.979 62.3855 162.313 62.342L162.248 63.3398ZM166.221 63.5934C166.879 63.6345 167.539 63.6751 168.199 63.7153L168.26 62.7171C167.6 62.6769 166.941 62.6364 166.284 62.5954L166.221 63.5934ZM170.185 63.8346C170.848 63.874 171.512 63.913 172.178 63.9516L172.236 62.9533C171.57 62.9147 170.907 62.8758 170.244 62.8364L170.185 63.8346ZM174.179 64.0661C174.837 64.1033 175.497 64.1401 176.158 64.1765L176.213 63.178C175.553 63.1416 174.893 63.1048 174.235 63.0677L174.179 64.0661ZM178.135 64.284C178.796 64.3194 179.457 64.3545 180.12 64.3891L180.172 63.3904C179.51 63.3558 178.849 63.3208 178.189 63.2854L178.135 64.284ZM182.111 64.4918C182.776 64.5256 183.442 64.559 184.11 64.5921L184.159 63.5933C183.492 63.5603 182.827 63.5269 182.162 63.4931L182.111 64.4918ZM186.1 64.6892C186.757 64.7208 187.416 64.7521 188.076 64.7829L188.123 63.784C187.463 63.7532 186.805 63.7219 186.148 63.6903L186.1 64.6892ZM190.059 64.8743C190.721 64.9044 191.384 64.934 192.049 64.9633L192.093 63.9643C191.429 63.935 190.766 63.9054 190.104 63.8753L190.059 64.8743ZM194.044 65.0499C194.711 65.0784 195.378 65.1064 196.046 65.1341L196.088 64.135C195.42 64.1073 194.753 64.0793 194.087 64.0508L194.044 65.0499ZM198.021 65.2146C198.681 65.241 199.341 65.2671 200.003 65.2927L200.041 64.2935C199.38 64.2678 198.72 64.2418 198.061 64.2154L198.021 65.2146ZM201.99 65.3685C202.653 65.3934 203.317 65.4178 203.983 65.4419L204.019 64.4426C203.354 64.4185 202.69 64.3941 202.027 64.3692L201.99 65.3685ZM513.5 37.5375L519.262 37.9024L516.697 32.7299L513.5 37.5375ZM207 65.0479L202.103 61.9901L201.903 67.7601L207 65.0479ZM492.366 5.4249C492.698 5.51703 493.027 5.60938 493.354 5.70195L493.626 4.73975C493.298 4.64675 492.967 4.55397 492.634 4.46142L492.366 5.4249ZM495.313 6.26696C495.974 6.46115 496.625 6.65625 497.266 6.85225L497.558 5.89595C496.913 5.69887 496.259 5.50273 495.595 5.30754L495.313 6.26696ZM499.211 7.45944C499.867 7.66878 500.513 7.8791 501.147 8.09038L501.463 7.14164C500.825 6.92895 500.175 6.71729 499.514 6.50667L499.211 7.45944ZM503.073 8.74714C503.724 8.97442 504.362 9.20275 504.987 9.4321L505.331 8.49337C504.702 8.26211 504.059 8.03199 503.403 7.80303L503.073 8.74714ZM506.895 10.1518C507.541 10.4022 508.171 10.6537 508.786 10.9064L509.166 9.98151C508.545 9.72615 507.908 9.4721 507.256 9.21936L506.895 10.1518ZM510.654 11.6995C511.29 11.9782 511.906 12.2581 512.503 12.5392L512.929 11.6346C512.323 11.3494 511.699 11.0658 511.056 10.7837L510.654 11.6995ZM514.325 13.4325C514.945 13.7487 515.54 14.0663 516.11 14.3851L516.598 13.5124C516.016 13.1869 515.41 12.8634 514.78 12.5419L514.325 13.4325ZM517.85 15.4107C518.445 15.7804 519.005 16.1516 519.532 16.5239L520.109 15.7074C519.565 15.3228 518.988 14.9409 518.379 14.5616L517.85 15.4107ZM521.126 17.7403C521.666 18.1872 522.156 18.635 522.596 19.0833L523.309 18.3826C522.843 17.9073 522.327 17.4365 521.764 16.9702L521.126 17.7403ZM523.876 20.5755C524.285 21.1332 524.616 21.6894 524.87 22.2438L525.779 21.8278C525.494 21.2044 525.127 20.5897 524.682 19.9838L523.876 20.5755ZM525.427 24.0597C525.476 24.3726 525.5 24.686 525.5 25H526.5C526.5 24.6338 526.471 24.269 526.415 23.9057L525.427 24.0597ZM525.5 25C525.5 25.2851 525.48 25.5697 525.44 25.8539L526.43 25.9941C526.476 25.6639 526.5 25.3325 526.5 25H525.5ZM524.976 27.5126C524.763 28.0243 524.484 28.5375 524.138 29.0522L524.968 29.6101C525.346 29.0468 525.658 28.4759 525.899 27.8975L524.976 27.5126ZM523.035 30.4509C522.653 30.8736 522.226 31.2961 521.755 31.7181L522.422 32.4629C522.917 32.02 523.369 31.5729 523.777 31.1216L523.035 30.4509ZM520.355 32.8721C519.891 33.226 519.396 33.579 518.871 33.9309L519.427 34.7617C519.968 34.3994 520.48 34.0346 520.961 33.6673L520.355 32.8721ZM517.324 34.9111C516.817 35.2161 516.286 35.5201 515.734 35.823L516.214 36.6999C516.778 36.3911 517.32 36.0805 517.839 35.7681L517.324 34.9111ZM49.8935 0.652334C49.5585 0.725344 49.2249 0.798535 48.8929 0.871905L49.1086 1.84835C49.4397 1.77519 49.7723 1.70221 50.1065 1.6294L49.8935 0.652334ZM46.9156 1.31493C46.2471 1.46681 45.585 1.61943 44.9294 1.77279L45.1571 2.74651C45.8107 2.59364 46.4707 2.44149 47.1372 2.29007L46.9156 1.31493ZM42.9487 2.24298C42.2843 2.40308 41.6269 2.56395 40.9763 2.72559L41.2175 3.69608C41.8657 3.53502 42.5208 3.37471 43.183 3.21515L42.9487 2.24298ZM39.0092 3.22218C38.3435 3.39293 37.6855 3.56452 37.0353 3.73692L37.2916 4.70352C37.9391 4.53183 38.5945 4.36092 39.2577 4.19082L39.0092 3.22218ZM35.0692 4.26724C34.4078 4.44875 33.755 4.63114 33.1107 4.81439L33.3843 5.77624C34.0255 5.59385 34.6754 5.41229 35.3339 5.23158L35.0692 4.26724ZM31.1596 5.37986C30.5017 5.57417 29.8534 5.76943 29.2147 5.96561L29.5084 6.92152C30.1434 6.72643 30.7883 6.53222 31.4429 6.33891L31.1596 5.37986ZM27.2681 6.57614C26.6111 6.78658 25.9652 6.99806 25.3304 7.21055L25.6478 8.15883C26.2783 7.94776 26.9202 7.73764 27.5732 7.52848L27.2681 6.57614ZM23.402 7.87134C22.7497 8.10021 22.1103 8.33023 21.4838 8.56139L21.83 9.49956C22.4512 9.27032 23.0856 9.04211 23.7331 8.81494L23.402 7.87134ZM19.5771 9.28409C18.9307 9.53589 18.2996 9.789 17.6839 10.0434L18.0658 10.9676C18.6749 10.7159 19.2998 10.4653 19.9401 10.2159L19.5771 9.28409ZM15.8071 10.844C15.1697 11.125 14.5508 11.4075 13.9509 11.6915L14.3787 12.5953C14.9701 12.3153 15.5808 12.0366 16.2104 11.7591L15.8071 10.844ZM12.1186 12.5937C11.4907 12.9157 10.8868 13.2397 10.3071 13.5656L10.7972 14.4373C11.365 14.118 11.9577 13.8001 12.575 13.4835L12.1186 12.5937ZM8.54006 14.6124C7.93819 14.9889 7.36821 15.3681 6.83079 15.75L7.41001 16.5652C7.93017 16.1956 8.48375 15.8272 9.07043 15.4601L8.54006 14.6124ZM5.18591 17.0118C4.62779 17.4766 4.11672 17.9459 3.65421 18.4197L4.36978 19.1182C4.8058 18.6716 5.29123 18.2255 5.82587 17.7802L5.18591 17.0118ZM2.29344 20.0171C1.85472 20.619 1.49252 21.2297 1.21118 21.849L2.12164 22.2626C2.37171 21.7121 2.698 21.1598 3.10157 20.6061L2.29344 20.0171ZM0.584045 23.913C0.528167 24.2739 0.5 24.6363 0.5 25H1.5C1.5 24.6881 1.52414 24.3769 1.57227 24.0661L0.584045 23.913ZM0.5 25C0.5 25.3554 0.526895 25.7095 0.580265 26.0622L1.56901 25.9126C1.52305 25.6089 1.5 25.3047 1.5 25H0.5ZM1.18029 28.0822C1.45049 28.6906 1.79872 29.2906 2.22084 29.8822L3.03487 29.3014C2.64727 28.7582 2.33406 28.2163 2.0942 27.6763L1.18029 28.0822ZM3.53903 31.4611C3.99151 31.9337 4.49224 32.4018 5.03969 32.8654L5.68594 32.1023C5.16214 31.6587 4.68721 31.2143 4.26133 30.7695L3.53903 31.4611ZM6.64365 34.116C7.16254 34.4906 7.71271 34.8626 8.29353 35.2321L8.83026 34.3883C8.26459 34.0285 7.73073 33.6674 7.22899 33.3052L6.64365 34.116ZM10.0405 36.2833C10.5995 36.6023 11.1817 36.9195 11.7869 37.2348L12.249 36.348C11.6544 36.0382 11.0833 35.7271 10.5361 35.4148L10.0405 36.2833ZM13.5877 38.1353C14.1736 38.4169 14.7781 38.697 15.4008 38.9755L15.8091 38.0627C15.1943 37.7877 14.5981 37.5114 14.0208 37.234L13.5877 38.1353ZM17.2427 39.7729C17.842 40.0242 18.4564 40.2742 19.0856 40.523L19.4532 39.593C18.8301 39.3467 18.2221 39.0992 17.6293 38.8507L17.2427 39.7729ZM20.971 41.248C21.5758 41.4744 22.193 41.6996 22.8225 41.9238L23.158 40.9817C22.5333 40.7593 21.9211 40.5359 21.3215 40.3115L20.971 41.248ZM24.7477 42.593C25.3566 42.7997 25.976 43.0054 26.6059 43.2102L26.9151 42.2591C26.2891 42.0557 25.6738 41.8513 25.0691 41.6461L24.7477 42.593ZM28.5157 43.818C29.146 44.0145 29.7859 44.2101 30.4355 44.4047L30.7225 43.4468C30.0764 43.2532 29.44 43.0587 28.8134 42.8634L28.5157 43.818ZM32.3257 44.9606C32.9646 45.1451 33.6121 45.3286 34.2682 45.5113L34.5364 44.548C33.8833 44.3661 33.2388 44.1834 32.6031 43.9999L32.3257 44.9606ZM36.1816 46.035C36.8121 46.2047 37.4501 46.3736 38.0956 46.5417L38.3476 45.5739C37.7047 45.4065 37.0693 45.2383 36.4415 45.0694L36.1816 46.035ZM40.0541 47.0435C40.687 47.2031 41.3266 47.362 41.9729 47.5201L42.2105 46.5487C41.5665 46.3912 40.9291 46.2329 40.2986 46.0739L40.0541 47.0435ZM43.8983 47.9842C44.5466 48.1381 45.2013 48.2914 45.8623 48.4439L46.0871 47.4695C45.4281 47.3175 44.7756 47.1647 44.1294 47.0112L43.8983 47.9842ZM47.7977 48.8842C48.435 49.0272 49.078 49.1696 49.7266 49.3112L49.9399 48.3342C49.2932 48.193 48.6521 48.0511 48.0166 47.9085L47.7977 48.8842ZM51.689 49.7341C52.3375 49.8721 52.9914 50.0093 53.6506 50.1459L53.8534 49.1667C53.196 49.0304 52.5438 48.8936 51.897 48.756L51.689 49.7341ZM55.5776 50.5402C56.2248 50.671 56.877 50.8012 57.5341 50.9307L57.7276 49.9496C57.072 49.8204 56.4214 49.6905 55.7757 49.56L55.5776 50.5402ZM59.52 51.3175C60.1593 51.4404 60.803 51.5628 61.4511 51.6846L61.6358 50.7018C60.989 50.5802 60.3467 50.4581 59.7089 50.3355L59.52 51.3175ZM63.3991 52.0463C64.0527 52.1663 64.7107 52.2857 65.373 52.4045L65.5496 51.4202C64.8886 51.3017 64.2319 51.1825 63.5796 51.0628L63.3991 52.0463ZM67.348 52.7547C67.9901 52.8673 68.636 52.9793 69.2858 53.0907L69.4548 52.1051C68.8062 51.9939 68.1615 51.8821 67.5207 51.7698L67.348 52.7547ZM71.2467 53.4234C71.9042 53.5337 72.5656 53.6434 73.2307 53.7526L73.3926 52.7658C72.7287 52.6568 72.0685 52.5473 71.4122 52.4372L71.2467 53.4234ZM75.1961 54.0717C75.8418 54.1755 76.491 54.2787 77.1437 54.3813L77.2991 53.3935C76.6475 53.291 75.9994 53.188 75.3547 53.0844L75.1961 54.0717ZM79.1119 54.6877C79.7714 54.7893 80.4343 54.8904 81.1006 54.9908L81.2498 54.002C80.5845 53.9017 79.9226 53.8008 79.2641 53.6994L79.1119 54.6877ZM83.0658 55.2842C83.7136 55.3799 84.3646 55.4752 85.0187 55.5699L85.162 54.5802C84.5089 54.4856 83.8588 54.3905 83.2119 54.295L83.0658 55.2842ZM86.9901 55.8524C87.6503 55.9461 88.3136 56.0392 88.9799 56.1318L89.1176 55.1414C88.4522 55.0489 87.7898 54.9558 87.1306 54.8623L86.9901 55.8524ZM90.9526 56.4033C91.6015 56.4917 92.2532 56.5797 92.9076 56.6671L93.04 55.6759C92.3864 55.5886 91.7356 55.5008 91.0876 55.4125L90.9526 56.4033ZM94.8793 56.9279C95.5393 57.0143 96.2021 57.1002 96.8675 57.1857L96.9949 56.1938C96.3302 56.1085 95.6683 56.0227 95.0092 55.9363L94.8793 56.9279ZM98.8542 57.4382C99.5033 57.5199 100.155 57.6011 100.809 57.6819L100.932 56.6894C100.278 56.6087 99.6274 56.5276 98.9791 56.446L98.8542 57.4382ZM102.779 57.9227C103.438 58.0024 104.1 58.0817 104.764 58.1606L104.882 57.1675C104.218 57.0888 103.557 57.0096 102.899 56.9299L102.779 57.9227ZM106.763 58.3956C107.414 58.4713 108.067 58.5466 108.722 58.6214L108.836 57.6278C108.181 57.5531 107.529 57.4779 106.879 57.4023L106.763 58.3956ZM110.689 58.8437C111.347 58.9173 112.007 58.9905 112.669 59.0632L112.778 58.0692C112.117 57.9965 111.457 57.9234 110.8 57.8499L110.689 58.8437ZM114.663 59.28C115.322 59.3509 115.984 59.4214 116.647 59.4915L116.752 58.497C116.089 58.427 115.429 58.3566 114.77 58.2857L114.663 59.28ZM118.61 59.6966C119.266 59.7646 119.924 59.8321 120.585 59.8991L120.686 58.9042C120.026 58.8372 119.368 58.7698 118.713 58.702L118.61 59.6966ZM122.572 60.0989C123.236 60.165 123.903 60.2307 124.571 60.2959L124.668 59.3006C124.001 59.2355 123.335 59.1699 122.671 59.1038L122.572 60.0989ZM126.542 60.4863C127.197 60.5489 127.853 60.6111 128.511 60.6728L128.605 59.6772C127.947 59.6155 127.291 59.5534 126.637 59.4909L126.542 60.4863ZM130.492 60.8567C131.154 60.9176 131.817 60.978 132.483 61.038L132.573 60.042C131.908 59.9821 131.245 59.9217 130.583 59.8609L130.492 60.8567ZM134.486 61.2166C135.139 61.2742 135.793 61.3314 136.449 61.3882L136.536 60.3919C135.88 60.3352 135.226 60.278 134.574 60.2204L134.486 61.2166ZM138.423 61.5572C139.082 61.6131 139.744 61.6686 140.407 61.7236L140.489 60.7271C139.827 60.6721 139.166 60.6166 138.507 60.5608L138.423 61.5572ZM142.4 61.8875C143.065 61.9415 143.731 61.9952 144.399 62.0484L144.479 61.0515C143.811 60.9984 143.146 60.9448 142.481 60.8908L142.4 61.8875ZM146.366 62.2033C147.023 62.2546 147.682 62.3054 148.342 62.3558L148.418 61.3587C147.759 61.3083 147.1 61.2576 146.444 61.2064L146.366 62.2033ZM150.328 62.5057C150.991 62.5553 151.656 62.6045 152.322 62.6532L152.395 61.6558C151.729 61.6071 151.065 61.558 150.402 61.5085L150.328 62.5057ZM154.322 62.7977C154.977 62.8445 155.633 62.891 156.291 62.937L156.36 61.9394C155.703 61.8934 155.047 61.8471 154.393 61.8003L154.322 62.7977ZM158.268 63.0737C158.928 63.1189 159.59 63.1637 160.254 63.208L160.321 62.2103C159.658 62.1659 158.996 62.1212 158.336 62.0761L158.268 63.0737ZM162.248 63.3398C162.914 63.3834 163.582 63.4265 164.251 63.4692L164.314 62.4712C163.646 62.4285 162.979 62.3855 162.313 62.342L162.248 63.3398ZM166.221 63.5934C166.879 63.6345 167.539 63.6751 168.199 63.7153L168.26 62.7171C167.6 62.6769 166.941 62.6364 166.284 62.5954L166.221 63.5934ZM170.185 63.8346C170.848 63.874 171.512 63.913 172.178 63.9516L172.236 62.9533C171.57 62.9147 170.907 62.8758 170.244 62.8364L170.185 63.8346ZM174.179 64.0661C174.837 64.1033 175.497 64.1401 176.158 64.1765L176.213 63.178C175.553 63.1416 174.893 63.1048 174.235 63.0677L174.179 64.0661ZM178.135 64.284C178.796 64.3194 179.457 64.3545 180.12 64.3891L180.172 63.3904C179.51 63.3558 178.849 63.3208 178.189 63.2854L178.135 64.284ZM182.111 64.4918C182.776 64.5256 183.442 64.559 184.11 64.5921L184.159 63.5933C183.492 63.5603 182.827 63.5269 182.162 63.4931L182.111 64.4918ZM186.1 64.6892C186.757 64.7208 187.416 64.7521 188.076 64.7829L188.123 63.784C187.463 63.7532 186.805 63.7219 186.148 63.6903L186.1 64.6892ZM190.059 64.8743C190.721 64.9044 191.384 64.934 192.049 64.9633L192.093 63.9643C191.429 63.935 190.766 63.9054 190.104 63.8753L190.059 64.8743ZM194.044 65.0499C194.711 65.0784 195.378 65.1064 196.046 65.1341L196.088 64.135C195.42 64.1073 194.753 64.0793 194.087 64.0508L194.044 65.0499ZM198.021 65.2146C198.681 65.241 199.341 65.2671 200.003 65.2927L200.041 64.2935C199.38 64.2678 198.72 64.2418 198.061 64.2154L198.021 65.2146ZM201.99 65.3685C202.653 65.3934 203.317 65.4178 203.983 65.4419L204.019 64.4426C203.354 64.4185 202.69 64.3941 202.027 64.3692L201.99 65.3685Z" fill="#333333"/>
</svg>
