<svg width="191" height="96" viewBox="0 0 191 96" fill="none" xmlns="http://www.w3.org/2000/svg">
<g filter="url(#filter0_d_2418_6133)">
<rect x="24" y="20" width="143" height="48" rx="12" fill="white" shape-rendering="crispEdges"/>
<rect x="28" y="24" width="135" height="40" rx="8" fill="#333333"/>
<path d="M67.742 47.682C65.852 47.682 64.48 46.772 63.962 45.274L65.348 44.462C65.74 45.568 66.552 46.114 67.784 46.114C69.002 46.114 69.604 45.596 69.604 44.826C69.604 44.42 69.436 44.126 69.114 43.916C68.792 43.706 68.204 43.468 67.378 43.216C66.44 42.936 65.978 42.754 65.32 42.32C64.69 41.872 64.368 41.228 64.368 40.346C64.368 39.478 64.676 38.792 65.292 38.288C65.908 37.77 66.65 37.518 67.518 37.518C69.086 37.518 70.304 38.33 70.934 39.674L69.576 40.458C69.17 39.548 68.484 39.086 67.518 39.086C66.58 39.086 65.978 39.562 65.978 40.304C65.978 41.032 66.454 41.368 67.952 41.83C68.33 41.956 68.596 42.04 68.764 42.11C68.946 42.166 69.184 42.264 69.492 42.39C69.814 42.516 70.052 42.656 70.206 42.782C70.724 43.188 71.284 43.86 71.214 44.798C71.214 45.68 70.892 46.394 70.248 46.912C69.618 47.43 68.778 47.682 67.742 47.682ZM77.2348 44.252V40.5H78.7468V47.5H77.2348V46.604C76.7728 47.318 76.0588 47.682 75.0648 47.682C73.4548 47.682 72.3768 46.59 72.3768 44.798V40.5H73.8888V44.644C73.8888 45.694 74.4908 46.268 75.4568 46.268C76.5208 46.268 77.2348 45.61 77.2348 44.252ZM84.4768 40.318C85.4428 40.318 86.2548 40.668 86.9408 41.382C87.6268 42.096 87.9628 42.964 87.9628 44C87.9628 45.022 87.6268 45.904 86.9408 46.618C86.2548 47.332 85.4428 47.682 84.4768 47.682C83.4128 47.682 82.6008 47.29 82.0268 46.492V47.5H80.5148V37.7H82.0268V41.494C82.6008 40.71 83.4128 40.318 84.4768 40.318ZM82.6568 45.61C83.0768 46.03 83.6088 46.24 84.2388 46.24C84.8688 46.24 85.4008 46.03 85.8208 45.61C86.2408 45.176 86.4508 44.644 86.4508 44C86.4508 43.356 86.2408 42.824 85.8208 42.404C85.4008 41.97 84.8688 41.76 84.2388 41.76C83.6088 41.76 83.0768 41.97 82.6568 42.404C82.2368 42.824 82.0268 43.356 82.0268 44C82.0268 44.644 82.2368 45.176 82.6568 45.61ZM90.5545 42.432C90.5545 42.894 91.1425 43.132 91.8705 43.342C92.9485 43.58 94.3485 44.028 94.3205 45.526C94.3205 46.198 94.0545 46.73 93.5365 47.108C93.0185 47.486 92.3745 47.682 91.5905 47.682C90.2045 47.682 89.1825 47.066 88.7345 46.044L90.0365 45.288C90.2745 45.96 90.7925 46.296 91.5905 46.296C92.3885 46.296 92.7805 46.03 92.7805 45.512C92.7805 45.064 92.1925 44.798 91.4505 44.616C90.4005 44.35 88.9865 43.93 89.0145 42.46C89.0145 41.816 89.2525 41.298 89.7425 40.906C90.2325 40.514 90.8485 40.318 91.5765 40.318C92.7385 40.318 93.6765 40.864 94.1665 41.774L92.8925 42.488C92.6545 41.956 92.2065 41.69 91.5765 41.69C91.0025 41.69 90.5545 41.942 90.5545 42.432ZM98.7758 47.682C97.7258 47.682 96.8438 47.332 96.1298 46.618C95.4298 45.904 95.0798 45.036 95.0798 44C95.0798 42.95 95.4298 42.082 96.1298 41.382C96.8438 40.668 97.7258 40.318 98.7758 40.318C100.134 40.318 101.338 41.018 101.898 42.124L100.596 42.88C100.274 42.208 99.6018 41.802 98.7618 41.802C98.1458 41.802 97.6278 42.012 97.2078 42.432C96.8018 42.852 96.5918 43.37 96.5918 44C96.5918 44.63 96.8018 45.148 97.2078 45.568C97.6278 45.988 98.1458 46.198 98.7618 46.198C99.5878 46.198 100.288 45.778 100.624 45.12L101.926 45.862C101.324 46.982 100.134 47.682 98.7758 47.682ZM104.572 40.5V41.676C104.95 40.808 105.678 40.374 106.728 40.374V42.012C106.154 41.97 105.65 42.11 105.216 42.432C104.782 42.74 104.572 43.258 104.572 43.972V47.5H103.06V40.5H104.572ZM109.273 39.17C108.895 39.548 108.307 39.548 107.915 39.17C107.537 38.778 107.537 38.19 107.915 37.812C108.293 37.42 108.909 37.42 109.287 37.812C109.665 38.19 109.665 38.778 109.273 39.17ZM109.357 47.5H107.845V40.5H109.357V47.5ZM115.074 40.318C116.04 40.318 116.852 40.668 117.538 41.382C118.224 42.096 118.56 42.964 118.56 44C118.56 45.022 118.224 45.904 117.538 46.618C116.852 47.332 116.04 47.682 115.074 47.682C114.01 47.682 113.198 47.29 112.624 46.492V47.5H111.112V37.7H112.624V41.494C113.198 40.71 114.01 40.318 115.074 40.318ZM113.254 45.61C113.674 46.03 114.206 46.24 114.836 46.24C115.466 46.24 115.998 46.03 116.418 45.61C116.838 45.176 117.048 44.644 117.048 44C117.048 43.356 116.838 42.824 116.418 42.404C115.998 41.97 115.466 41.76 114.836 41.76C114.206 41.76 113.674 41.97 113.254 42.404C112.834 42.824 112.624 43.356 112.624 44C112.624 44.644 112.834 45.176 113.254 45.61ZM126.693 44.644H121.121C121.345 45.708 122.199 46.296 123.361 46.296C124.159 46.296 124.761 46.002 125.167 45.428L126.413 46.156C125.727 47.178 124.705 47.682 123.347 47.682C122.213 47.682 121.289 47.332 120.589 46.646C119.889 45.946 119.539 45.064 119.539 44C119.539 42.95 119.889 42.082 120.575 41.382C121.261 40.668 122.157 40.318 123.235 40.318C124.257 40.318 125.097 40.682 125.755 41.396C126.413 42.11 126.749 42.992 126.749 44.014C126.749 44.168 126.735 44.378 126.693 44.644ZM121.107 43.412H125.223C125.013 42.278 124.215 41.69 123.221 41.69C122.101 41.69 121.317 42.348 121.107 43.412Z" fill="white"/>
</g>
<defs>
<filter id="filter0_d_2418_6133" x="0" y="0" width="191" height="96" filterUnits="userSpaceOnUse" color-interpolation-filters="sRGB">
<feFlood flood-opacity="0" result="BackgroundImageFix"/>
<feColorMatrix in="SourceAlpha" type="matrix" values="0 0 0 0 0 0 0 0 0 0 0 0 0 0 0 0 0 0 127 0" result="hardAlpha"/>
<feOffset dy="4"/>
<feGaussianBlur stdDeviation="12"/>
<feComposite in2="hardAlpha" operator="out"/>
<feColorMatrix type="matrix" values="0 0 0 0 0 0 0 0 0 0 0 0 0 0 0 0 0 0 0.25 0"/>
<feBlend mode="normal" in2="BackgroundImageFix" result="effect1_dropShadow_2418_6133"/>
<feBlend mode="normal" in="SourceGraphic" in2="effect1_dropShadow_2418_6133" result="shape"/>
</filter>
</defs>
</svg>
