<svg width="512" height="512" viewBox="0 0 512 512" fill="none" xmlns="http://www.w3.org/2000/svg">
<g clip-path="url(#clip0_2799_6931)">
<path d="M256 512C397.385 512 512 397.385 512 256C512 114.615 397.385 0 256 0C114.615 0 0 114.615 0 256C0 397.385 114.615 512 256 512Z" fill="white"/>
<path d="M222.914 125.902C218.058 129.865 213.959 134.674 210.817 140.096L107.066 319.028C100.142 331.052 98.2569 345.327 101.823 358.736C105.389 372.145 114.117 383.598 126.099 390.593C138.123 397.518 152.399 399.403 165.807 395.836C179.216 392.27 190.669 383.543 197.664 371.56L286.841 217.774C267.164 189.527 238.46 148.326 222.914 125.902Z" fill="#FEBD00"/>
<path d="M152.364 397.658C181.284 397.658 204.729 374.214 204.729 345.294C204.729 316.374 181.284 292.929 152.364 292.929C123.444 292.929 100 316.374 100 345.294C100 374.214 123.444 397.658 152.364 397.658Z" fill="#25A84A"/>
<path d="M314.112 371.676C328.572 396.721 360.597 405.302 385.641 390.842C410.686 376.382 419.267 344.357 404.807 319.312L301.387 140.19C286.927 115.145 254.902 106.564 229.858 121.024C204.813 135.484 196.232 167.509 210.692 192.554L314.112 371.676Z" fill="#2E8ADD"/>
</g>
<defs>
<clipPath id="clip0_2799_6931">
<rect width="512" height="512" fill="white"/>
</clipPath>
</defs>
</svg>
