<svg width="26" height="26" viewBox="0 0 26 26" fill="none" xmlns="http://www.w3.org/2000/svg">
<g clip-path="url(#clip0_1243_25681)">
<rect x="6" y="3" width="16" height="18" fill="white"/>
<path fill-rule="evenodd" clip-rule="evenodd" d="M17.8543 0.139988C15.5543 0.0319882 9.85726 0.0369882 7.55526 0.139988C5.53326 0.232988 3.74826 0.720988 2.31026 2.15999C0.158265 4.31299 0.178265 7.13399 0.206265 11.107C0.209265 11.574 0.213265 12.057 0.213265 12.557C0.213265 13.024 0.210265 13.476 0.208265 13.913C0.185265 18.019 0.170264 20.81 2.31026 22.95C4.46526 25.105 7.31626 25.083 11.2453 25.054C11.7153 25.051 12.2023 25.047 12.7053 25.047H12.7723C17.5363 25.047 19.1923 25.047 20.8863 24.391C23.2023 23.491 24.9503 21.422 25.1213 17.704C25.2293 15.404 25.2233 9.70799 25.1213 7.40599C24.9153 3.01699 22.5593 0.355988 17.8543 0.138988V0.139988ZM21.6283 6.01299C21.6339 6.25102 21.5919 6.48777 21.5047 6.70933C21.4175 6.93088 21.2869 7.13277 21.1205 7.30311C20.9542 7.47345 20.7554 7.60881 20.536 7.70122C20.3166 7.79364 20.0809 7.84125 19.8428 7.84125C19.6047 7.84125 19.369 7.79364 19.1495 7.70122C18.9301 7.60881 18.7314 7.47345 18.565 7.30311C18.3987 7.13277 18.268 6.93088 18.1808 6.70933C18.0936 6.48777 18.0516 6.25102 18.0573 6.01299C18.0683 5.54676 18.2613 5.10334 18.5949 4.7775C18.9285 4.45166 19.3764 4.26925 19.8428 4.26925C20.3091 4.26925 20.757 4.45166 21.0906 4.7775C21.4243 5.10334 21.6172 5.54676 21.6283 6.01299ZM12.7003 17.322C13.9632 17.322 15.1745 16.8203 16.0675 15.9272C16.9606 15.0342 17.4623 13.823 17.4623 12.56C17.4623 11.297 16.9606 10.0858 16.0675 9.19275C15.1745 8.2997 13.9632 7.79799 12.7003 7.79799C11.4373 7.79799 10.2261 8.2997 9.33302 9.19275C8.43997 10.0858 7.93826 11.297 7.93826 12.56C7.93826 13.823 8.43997 15.0342 9.33302 15.9272C10.2261 16.8203 11.4373 17.322 12.7003 17.322Z" fill="#2D2D2D"/>
</g>
<defs>
<clipPath id="clip0_1243_25681">
<rect width="26" height="26" fill="white"/>
</clipPath>
</defs>
</svg>
