<svg width="177" height="373" viewBox="0 0 177 373" fill="none" xmlns="http://www.w3.org/2000/svg">
<path fill-rule="evenodd" clip-rule="evenodd" d="M0 35.2C0 22.8788 0 16.7183 2.39786 12.0122C4.50707 7.87264 7.87264 4.50707 12.0122 2.39786C16.7183 0 22.8788 0 35.2 0H140.94C153.261 0 159.422 0 164.128 2.39786C168.267 4.50707 171.633 7.87264 173.742 12.0122C176.14 16.7183 176.14 22.8788 176.14 35.2V337.8C176.14 350.121 176.14 356.282 173.742 360.988C171.633 365.127 168.267 368.493 164.128 370.602C159.422 373 153.261 373 140.94 373H35.2C22.8788 373 16.7183 373 12.0122 370.602C7.87264 368.493 4.50707 365.127 2.39786 360.988C0 356.282 0 350.121 0 337.8V35.2ZM4 34.4C4 23.759 4 18.4385 6.07088 14.3742C7.89247 10.7991 10.7991 7.89247 14.3742 6.07088C18.4385 4 23.759 4 34.4 4H45.0558C46.826 4.06777 48.3493 5.29634 48.782 7.0269L49.581 10.2231C50.7843 15.0361 55.1087 18.4125 60.0698 18.4125H116.076C121.037 18.4125 125.361 15.0361 126.565 10.2231L127.364 7.02686C127.796 5.29673 129.319 4.06834 131.089 4H141.74C152.381 4 157.701 4 161.766 6.07088C165.341 7.89247 168.248 10.7991 170.069 14.3742C172.14 18.4385 172.14 23.759 172.14 34.4V338.6C172.14 349.241 172.14 354.561 170.069 358.626C168.248 362.201 165.341 365.108 161.766 366.929C157.701 369 152.381 369 141.74 369H34.4C23.759 369 18.4385 369 14.3742 366.929C10.7991 365.108 7.89247 362.201 6.07088 358.626C4 354.561 4 349.241 4 338.6V34.4Z" fill="black"/>
</svg>
