<svg width="26" height="26" viewBox="0 0 26 26" fill="none" xmlns="http://www.w3.org/2000/svg">
<g clip-path="url(#clip0_1243_25675)">
<path d="M19.4862 0.0609741H5.9142C2.75844 0.0609741 0.200195 2.61922 0.200195 5.77497V19.347C0.200195 22.5027 2.75844 25.061 5.9142 25.061H19.4862C22.6419 25.061 25.2002 22.5027 25.2002 19.347V5.77497C25.2002 2.61922 22.6419 0.0609741 19.4862 0.0609741Z" fill="#2D2D2D"/>
<path d="M8.6992 9.88H5.6802C5.64833 9.87987 5.61676 9.88603 5.58728 9.89813C5.5578 9.91023 5.53101 9.92804 5.50843 9.95052C5.48585 9.97301 5.46794 9.99973 5.45571 10.0292C5.44349 10.0586 5.4372 10.0901 5.4372 10.122V19.818C5.4372 19.951 5.5462 20.06 5.6802 20.06H8.6982C8.76238 20.06 8.82393 20.0345 8.86932 19.9891C8.9147 19.9437 8.9402 19.8822 8.9402 19.818V10.122C8.9402 10.0582 8.91498 9.99691 8.87002 9.95158C8.82507 9.90625 8.76303 9.88053 8.6992 9.88ZM7.1922 5.06C6.66431 5.06026 6.1581 5.26994 5.78464 5.64303C5.41118 6.01611 5.20099 6.52211 5.2002 7.05C5.2002 8.147 6.0932 9.04 7.1922 9.04C8.2892 9.04 9.1822 8.147 9.1822 7.05C9.1822 5.953 8.2892 5.06 7.1922 5.06ZM16.3762 9.64C15.1642 9.64 14.2682 10.16 13.7242 10.753V10.123C13.7242 10.0588 13.6987 9.99726 13.6533 9.95188C13.6079 9.90649 13.5464 9.881 13.4822 9.881H10.5922C10.5603 9.88087 10.5288 9.88703 10.4993 9.89913C10.4698 9.91123 10.443 9.92904 10.4204 9.95152C10.3979 9.97401 10.3799 10.0007 10.3677 10.0302C10.3555 10.0596 10.3492 10.0911 10.3492 10.123V19.818C10.3492 19.952 10.4572 20.061 10.5912 20.061H13.6032C13.6351 20.061 13.6666 20.0547 13.696 20.0425C13.7255 20.0303 13.7522 20.0123 13.7747 19.9898C13.7972 19.9672 13.815 19.9404 13.8271 19.9109C13.8392 19.8814 13.8453 19.8499 13.8452 19.818V15.021C13.8452 13.405 14.2852 12.775 15.4112 12.775C16.6382 12.775 16.7362 13.785 16.7362 15.105V19.818C16.7362 19.952 16.8442 20.061 16.9782 20.061H19.9912C20.0231 20.061 20.0546 20.0547 20.084 20.0425C20.1135 20.0303 20.1402 20.0123 20.1627 19.9898C20.1852 19.9672 20.203 19.9404 20.2151 19.9109C20.2272 19.8814 20.2333 19.8499 20.2332 19.818V14.5C20.2332 12.097 19.7752 9.64 16.3762 9.64Z" fill="white"/>
</g>
<defs>
<clipPath id="clip0_1243_25675">
<rect width="26" height="26" fill="white"/>
</clipPath>
</defs>
</svg>
