<svg width="44" height="44" viewBox="0 0 44 44" fill="none" xmlns="http://www.w3.org/2000/svg">
<path d="M35.6162 11.0922L36.4658 13.0491C39.653 13.5091 42.1096 16.2584 42.1096 19.5708V19.9226C42.1096 23.235 39.653 25.9844 36.4659 26.4441L35.6163 28.4011C40.248 28.3495 44.0003 24.5662 44.0003 19.9225V19.5707C44.0003 14.927 40.248 11.1438 35.6162 11.0922Z" fill="#EE5A29"/>
<path d="M8.00663 41.3238H6.01434C5.21702 41.3238 4.56836 40.6751 4.56836 39.8778V26.9027C4.56836 26.3806 4.9916 25.9574 5.51367 25.9574C6.03574 25.9574 6.45898 26.3806 6.45898 26.9027V39.4332H8.00663C9.81106 39.4332 11.279 37.9651 11.279 36.1607V26.4541C11.279 25.932 11.7023 25.5088 12.2244 25.5088C12.7464 25.5088 13.1697 25.932 13.1697 26.4541V36.1607C13.1697 39.0076 10.8536 41.3238 8.00663 41.3238Z" fill="#EE5A29"/>
<path d="M31.655 2.67627C29.1834 2.67627 27.1422 4.55005 26.875 6.95149L24.4758 8.49621C20.8196 10.85 16.5889 12.0942 12.2406 12.0942H6.08317C2.72886 12.0941 0 14.823 0 18.1772V21.3161C0 24.6704 2.72886 27.3994 6.08317 27.3994H12.2406C16.5889 27.3994 20.8197 28.6436 24.4757 30.9973L26.8749 32.542C27.1421 34.9434 29.1834 36.8173 31.655 36.8173C34.3075 36.8173 36.4656 34.6593 36.4656 32.0067V7.48679C36.4656 4.83425 34.3075 2.67627 31.655 2.67627ZM1.89063 21.3161V18.1772C1.89063 15.8654 3.77137 13.9847 6.08317 13.9847H11.2953V25.5087H6.08317C3.77137 25.5087 1.89063 23.6279 1.89063 21.3161ZM13.1859 25.5269V13.9666C17.5641 13.7986 21.8029 12.4655 25.4992 10.0858L26.8444 9.21964V30.2737L25.4991 29.4076C21.8028 27.0279 17.5641 25.6948 13.1859 25.5269ZM34.575 32.0067C34.575 33.6167 33.2651 34.9266 31.655 34.9266C30.0449 34.9266 28.735 33.6168 28.735 32.0067V7.48679C28.735 5.87675 30.0449 4.56689 31.655 4.56689C33.2651 4.56689 34.575 5.87675 34.575 7.48679V32.0067Z" fill="#333333"/>
</svg>
