<svg width="102" height="150" viewBox="0 0 102 150" fill="none" xmlns="http://www.w3.org/2000/svg">
<path d="M15.0957 98C15.0957 81.1984 15.0957 72.7976 17.9274 64.7454C20.4183 57.6624 24.3929 50.7783 29.2814 45.0797C34.839 38.6012 42.1143 34.4008 56.6649 26L60.129 24C74.6796 15.5992 81.9549 11.3988 87.5125 11.4599C92.4011 11.5137 96.3756 13.8084 98.8665 18.0152C101.698 22.7976 101.698 31.1984 101.698 48V52C101.698 68.8016 101.698 77.2024 98.8665 85.2546C96.3756 92.3376 92.4011 99.2217 87.5125 104.92C81.9549 111.399 74.6796 115.599 60.129 124L56.6649 126C42.1143 134.401 34.839 138.601 29.2814 138.54C24.3929 138.486 20.4183 136.192 17.9274 131.985C15.0957 127.202 15.0957 118.802 15.0957 102V98Z" fill="#007AF4" stroke="#333333" stroke-width="0.5"/>
<path fill-rule="evenodd" clip-rule="evenodd" d="M48.54 62.7955C48.4741 62.8335 48.4084 62.8721 48.3428 62.9114C43.8806 65.5713 39.9285 71.1335 37.0166 77.8386L37.0331 77.8486C33.9049 85.0797 32 93.6346 32 101.304C32 103.115 32.1474 104.712 32.433 106.08C32.8821 108.233 33.6728 109.822 34.7691 110.801C36.5626 112.401 39.1738 112.365 42.4451 110.476C47.1511 107.759 50.5372 103.246 56.5632 87.6133C56.5632 87.6133 58.1831 83.3811 59.7128 79.3736L60.1223 78.3004C60.3528 77.6962 60.5775 77.1069 60.7902 76.5485C62.2845 78.4568 63.9957 80.7626 65.5279 82.9279C70.983 90.3249 74.0426 92.1767 79.5163 89.0724C79.5594 89.048 79.6026 89.0232 79.646 88.9981C86.0163 85.3202 89.5631 77.2951 89.5631 67.7788V67.7788C89.5631 52.1791 82.2283 43.319 73.3098 48.4681C68.5923 51.1918 64.8963 57.4343 61.5562 64.5715L61.5479 64.5902C56.9605 60.502 53.1284 60.1464 48.54 62.7955ZM79.1714 82.0374C79.365 81.9517 79.5645 81.8483 79.772 81.7285C82.6759 80.0519 84.0763 76.3806 84.0763 71.4502C84.0763 58.5012 79.1177 50.8273 72.9195 54.4058C69.9352 56.1288 67.4215 60.2839 64.3798 67.4608L64.3331 67.5791C65.8655 69.3862 67.736 71.7894 70.3784 75.2279L70.3829 75.2209C74.5714 80.5831 76.2751 82.5423 78.1872 82.3225C78.5056 82.2858 78.8296 82.1889 79.1714 82.0374ZM38.2212 97.8368C38.2271 87.4827 42.5095 74.4481 47.7582 70.542C47.9906 70.3693 48.2247 70.2145 48.4603 70.0785C51.479 68.3356 53.9698 68.8857 57.8264 73.0341L57.8338 73.0175L57.8373 73.0213C54.1826 81.6138 51.9605 86.9572 51.9605 86.9572C47.0823 98.6139 45.395 101.563 42.6747 103.133C39.8773 104.748 38.2251 102.873 38.2212 97.8368Z" fill="white"/>
<path d="M87.5121 11.4598C81.9545 11.3987 74.6792 15.5991 60.1286 23.9999L56.665 25.9998C42.1144 34.4006 34.8395 38.6011 29.2819 45.0796C24.3933 50.7782 20.4183 57.6623 17.9274 64.7452C15.0957 72.7975 15.0954 81.1983 15.0954 97.9999V102C15.0954 118.801 15.0954 127.202 17.927 131.985C19.5755 134.769 21.8744 136.716 24.6577 137.729L10.568 132.601C7.78229 131.588 5.48185 129.641 3.83216 126.855C1.00043 122.072 1 113.671 1 96.8696V92.8696C1 76.068 1 67.6672 3.83173 59.615C6.3226 52.532 10.2974 45.6479 15.186 39.9492C20.7436 33.4708 28.0193 29.2705 42.5697 20.8698L46.0334 18.8696C60.584 10.4688 67.8591 6.26839 73.4167 6.32952C75.0676 6.34767 76.6145 6.62141 78.035 7.13803L92.1304 12.2683C90.7099 11.7517 89.163 11.478 87.5121 11.4598Z" fill="#0064E0"/>
<path d="M24.6577 137.729C21.8744 136.716 19.5755 134.769 17.927 131.985C15.0954 127.202 15.0954 118.801 15.0954 102V97.9999C15.0954 81.1983 15.0957 72.7975 17.9274 64.7452C20.4183 57.6623 24.3933 50.7782 29.2819 45.0796C34.8395 38.6011 42.1144 34.4006 56.665 25.9998L60.1286 23.9999C74.6792 15.5991 81.9545 11.3987 87.5121 11.4598C89.163 11.478 90.7099 11.7517 92.1304 12.2683L78.035 7.13803C76.6145 6.62141 75.0676 6.34767 73.4167 6.32952C67.8591 6.26839 60.584 10.4688 46.0334 18.8696L42.5697 20.8698C28.0193 29.2705 20.7436 33.4708 15.186 39.9492C10.2974 45.6479 6.3226 52.532 3.83173 59.615C1 67.6672 1 76.068 1 92.8696V96.8696C1 113.671 1.00043 122.072 3.83216 126.855C5.48185 129.641 7.78229 131.588 10.568 132.601L24.6577 137.729ZM24.6577 137.729L24.6634 137.731" stroke="#333333" stroke-width="0.5"/>
</svg>
