<svg width="44" height="44" viewBox="0 0 44 44" fill="none" xmlns="http://www.w3.org/2000/svg">
<g clip-path="url(#clip0_1003_3283)">
<path d="M9.76898 5.25269H6.27441C5.75234 5.25269 5.3291 5.67593 5.3291 6.198V13.2016V16.7034C5.3291 17.2255 5.75234 17.6487 6.27441 17.6487C6.79648 17.6487 7.21973 17.2255 7.21973 16.7034V14.1469H9.76898C12.2172 14.1469 14.2089 12.1519 14.2089 9.69978C14.2089 7.24764 12.2172 5.25269 9.76898 5.25269ZM9.76898 12.2562H7.21973V7.14331H9.76898C11.1747 7.14331 12.3182 8.29015 12.3182 9.69978C12.3182 11.1094 11.1747 12.2562 9.76898 12.2562Z" fill="#EE5A29"/>
<path d="M38.1937 5.37685C37.7403 5.11826 37.1629 5.27622 36.9043 5.72971L34.2309 10.4179L31.5577 5.72971C31.2989 5.27622 30.7217 5.11826 30.2682 5.37685C29.8147 5.63552 29.6567 6.21276 29.9153 6.66634L33.2857 12.5769V16.7035C33.2857 17.2256 33.7089 17.6488 34.231 17.6488C34.7531 17.6488 35.1763 17.2256 35.1763 16.7035V12.5769L38.5468 6.66634C38.8054 6.21285 38.6473 5.63552 38.1937 5.37685Z" fill="#EE5A29"/>
<path d="M22.0004 5.25281C19.5522 5.25281 17.5605 7.24776 17.5605 9.6999V16.7911C17.5605 17.3132 17.9838 17.7364 18.5059 17.7364C19.0279 17.7364 19.4512 17.3132 19.4512 16.7911V13.2716H24.5497V16.7036C24.5497 17.2257 24.9729 17.6489 25.495 17.6489C26.0171 17.6489 26.4403 17.2257 26.4403 16.7036V9.69999C26.4403 7.24776 24.4485 5.25281 22.0004 5.25281ZM19.4512 11.381V9.6999C19.4512 8.29027 20.5947 7.14343 22.0004 7.14343C23.406 7.14343 24.5497 8.29027 24.5497 9.6999V11.381H19.4512Z" fill="#EE5A29"/>
<path d="M37.8128 0H6.18716C2.77552 0 0 2.78042 0 6.19807V16.7035C0 20.1211 2.77552 22.9015 6.18716 22.9015H14.9392V30.6522L13.2853 28.995C12.5795 28.2877 11.641 27.8982 10.6426 27.8982C9.64416 27.8982 8.70564 28.2877 7.99992 28.9951C6.67846 30.3193 6.54113 32.4372 7.68066 33.9214L13.0363 40.8973C14.528 42.8401 16.8792 44 19.3257 44H29.8628C34.2378 44 37.7971 40.4341 37.7971 36.051V30.7984V29.0474C37.7971 27.078 36.1973 25.4757 34.2309 25.4757C33.1955 25.4757 32.2621 25.9203 31.61 26.6284C30.958 25.9203 30.0246 25.4757 28.9891 25.4757C27.9537 25.4757 27.0203 25.9203 26.3682 26.6284C25.7161 25.9203 24.7827 25.4757 23.7473 25.4757C23.1419 25.4757 22.5716 25.628 22.0717 25.8957V22.9015H37.8128C41.2245 22.9015 44 20.1211 44 16.7035V6.19807C44 2.78042 41.2245 0 37.8128 0ZM23.7473 27.3664C24.6712 27.3664 25.4229 28.1204 25.4229 29.0474V30.7984C25.4229 31.3204 25.8461 31.7437 26.3682 31.7437C26.8903 31.7437 27.3135 31.3204 27.3135 30.7984V29.0474C27.3135 28.1205 28.0652 27.3664 28.9891 27.3664C29.913 27.3664 30.6647 28.1204 30.6647 29.0474V30.7984C30.6647 31.3204 31.088 31.7437 31.61 31.7437C32.1321 31.7437 32.5554 31.3204 32.5554 30.7984V29.0474C32.5554 28.1205 33.307 27.3664 34.2309 27.3664C35.1548 27.3664 35.9065 28.1204 35.9065 29.0474V30.7984V36.051C35.9065 39.3916 33.1952 42.1094 29.8628 42.1094H19.3257C17.4628 42.1094 15.6722 41.2258 14.5361 39.746L9.18045 32.7701C8.61609 32.0349 8.68398 30.9861 9.33831 30.3304C9.68688 29.9812 10.1501 29.7888 10.6428 29.7888C11.1354 29.7888 11.5986 29.9811 11.9472 30.3304L15.2155 33.6054C15.7731 34.2024 16.8569 33.7538 16.8299 32.9376V20.2929C16.8299 19.3659 17.5816 18.6118 18.5054 18.6118C19.4294 18.6118 20.181 19.3658 20.181 20.2929V29.0474V30.7984C20.181 31.3204 20.6043 31.7437 21.1264 31.7437C21.6484 31.7437 22.0717 31.3204 22.0717 30.7984V29.0474C22.0717 28.1205 22.8234 27.3664 23.7473 27.3664ZM42.1094 16.7035C42.1094 19.0786 40.182 21.0109 37.8128 21.0109H22.0717V20.2929C22.0717 18.3234 20.4719 16.7212 18.5054 16.7212C16.539 16.7212 14.9393 18.3234 14.9393 20.2929V21.0109H6.18716C3.81803 21.0109 1.89062 19.0786 1.89062 16.7035V6.19807C1.89062 3.82293 3.81803 1.89062 6.18716 1.89062H37.8128C40.182 1.89062 42.1094 3.82293 42.1094 6.19807V16.7035Z" fill="#333333"/>
</g>
<defs>
<clipPath id="clip0_1003_3283">
<rect width="44" height="44" fill="white"/>
</clipPath>
</defs>
</svg>
