<svg width="271" height="144" viewBox="0 0 271 144" fill="none" xmlns="http://www.w3.org/2000/svg">
<g filter="url(#filter0_d_2842_6999)">
<rect x="31.9971" y="26.793" width="206.193" height="79.8166" rx="23.945" fill="white" shape-rendering="crispEdges"/>
<rect x="45.2998" y="40.0958" width="179.587" height="53.211" rx="10.6422" fill="#1572A1"/>
<path d="M95.7363 72.4435C94.4699 72.4435 93.4021 72.1641 92.533 71.6054C91.6639 71.0343 91.0555 70.2458 90.7078 69.2402L92.5516 68.16C93.0731 69.6251 94.1533 70.3576 95.7922 70.3576C96.6116 70.3576 97.22 70.2024 97.6173 69.892C98.0146 69.5816 98.2133 69.1657 98.2133 68.6442C98.2133 68.1227 97.996 67.7192 97.5614 67.4336C97.1269 67.1481 96.3571 66.8377 95.2521 66.5025C94.9417 66.4155 94.6623 66.3286 94.414 66.2417C94.1781 66.1548 93.9546 66.0679 93.7435 65.981C93.5325 65.8941 93.3276 65.801 93.129 65.7016C92.9427 65.5899 92.7379 65.4595 92.5144 65.3105C91.6701 64.7146 91.2479 63.8392 91.2479 62.6846C91.2479 61.5299 91.6577 60.6173 92.4771 59.9469C93.2842 59.264 94.2712 58.9225 95.4383 58.9225C96.4937 58.9225 97.4062 59.1771 98.176 59.6861C98.9582 60.1952 99.5604 60.8967 99.9825 61.7906L98.176 62.8336C97.6297 61.6168 96.7171 61.0084 95.4383 61.0084C94.8051 61.0084 94.3023 61.1574 93.9298 61.4554C93.5697 61.741 93.3897 62.1321 93.3897 62.6287C93.3897 62.877 93.4331 63.0943 93.5201 63.2805C93.607 63.4543 93.7497 63.622 93.9484 63.7834C94.1595 63.9324 94.4326 64.0813 94.7679 64.2303C95.1031 64.3669 95.519 64.5097 96.0157 64.6587C96.264 64.7456 96.475 64.8201 96.6489 64.8822C96.8351 64.9318 96.9841 64.9815 97.0958 65.0312C97.22 65.0684 97.3566 65.1181 97.5056 65.1802C97.667 65.2422 97.8532 65.3167 98.0643 65.4036C98.2753 65.4906 98.4616 65.5775 98.623 65.6644C98.7844 65.7513 98.9148 65.8382 99.0141 65.9251C99.1879 66.0617 99.3555 66.2231 99.5169 66.4093C99.6908 66.5832 99.8398 66.7818 99.9639 67.0053C100.1 67.2288 100.206 67.4771 100.281 67.7503C100.355 68.011 100.38 68.2966 100.355 68.6069C100.355 69.7989 99.9267 70.7363 99.07 71.4192C98.2381 72.102 97.1269 72.4435 95.7363 72.4435ZM108.364 62.8894H110.376V72.2014H108.364V71.0094C107.743 71.9655 106.781 72.4435 105.478 72.4435C104.397 72.4435 103.528 72.1082 102.87 71.4378C102.225 70.7549 101.902 69.8113 101.902 68.6069V62.8894H103.913V68.4021C103.913 69.1098 104.099 69.6499 104.472 70.0224C104.844 70.3824 105.353 70.5625 105.999 70.5625C106.707 70.5625 107.278 70.3452 107.712 69.9106C108.147 69.4636 108.364 68.787 108.364 67.8806V62.8894ZM117.998 62.6473C119.277 62.6473 120.37 63.1191 121.276 64.0627C122.182 65.0063 122.636 66.1672 122.636 67.5454C122.636 68.9236 122.182 70.0844 121.276 71.0281C120.37 71.9717 119.277 72.4435 117.998 72.4435C116.583 72.4435 115.496 71.9158 114.739 70.8604V72.2014H112.728V59.1646H114.739V64.2117C115.496 63.1688 116.583 62.6473 117.998 62.6473ZM115.577 69.6871C116.136 70.2458 116.837 70.5252 117.682 70.5252C118.526 70.5252 119.227 70.2458 119.786 69.6871C120.345 69.116 120.624 68.4021 120.624 67.5454C120.624 66.6887 120.345 65.981 119.786 65.4223C119.227 64.8511 118.526 64.5656 117.682 64.5656C116.837 64.5656 116.136 64.8511 115.577 65.4223C115.018 65.981 114.739 66.6887 114.739 67.5454C114.739 68.4021 115.018 69.116 115.577 69.6871ZM126.083 65.4595C126.083 65.7699 126.251 66.0182 126.586 66.2045C126.934 66.3783 127.35 66.5335 127.834 66.6701C128.194 66.7446 128.566 66.8501 128.951 66.9867C129.336 67.1108 129.69 67.2847 130.013 67.5081C130.336 67.7192 130.596 67.9924 130.795 68.3276C131.006 68.6628 131.105 69.0788 131.093 69.5754C131.093 70.4693 130.745 71.1708 130.05 71.6799C129.355 72.1889 128.492 72.4435 127.461 72.4435C126.53 72.4435 125.736 72.251 125.077 71.8661C124.432 71.4812 123.96 70.9473 123.662 70.2645L125.394 69.2588C125.704 70.1527 126.394 70.5997 127.461 70.5997C128.517 70.5997 129.044 70.2521 129.044 69.5568C129.044 69.2588 128.871 69.0167 128.523 68.8304C128.188 68.6442 127.772 68.489 127.275 68.3648C126.927 68.2779 126.561 68.1724 126.176 68.0482C125.791 67.9241 125.438 67.7565 125.115 67.5454C124.792 67.3219 124.525 67.0488 124.314 66.7259C124.115 66.3907 124.022 65.981 124.035 65.4968C124.035 64.6401 124.357 63.951 125.003 63.4295C125.649 62.908 126.462 62.6473 127.443 62.6473C128.225 62.6473 128.914 62.8211 129.51 63.1688C130.106 63.504 130.565 63.9758 130.888 64.5842L129.193 65.534C128.871 64.8263 128.287 64.4725 127.443 64.4725C127.058 64.4725 126.735 64.5594 126.474 64.7332C126.214 64.8946 126.083 65.1367 126.083 65.4595ZM137.02 72.4435C135.617 72.4435 134.444 71.9717 133.5 71.0281C132.569 70.0844 132.103 68.9236 132.103 67.5454C132.103 66.1548 132.569 64.9939 133.5 64.0627C134.444 63.1191 135.617 62.6473 137.02 62.6473C137.926 62.6473 138.752 62.8646 139.497 63.2991C140.242 63.7213 140.801 64.3048 141.173 65.0498L139.441 66.0555C139.23 65.6085 138.907 65.2609 138.473 65.0125C138.05 64.7518 137.56 64.6214 137.001 64.6214C136.182 64.6214 135.493 64.9008 134.934 65.4595C134.388 66.0306 134.115 66.7259 134.115 67.5454C134.115 68.3648 134.388 69.0601 134.934 69.6313C135.493 70.19 136.182 70.4693 137.001 70.4693C137.56 70.4693 138.057 70.339 138.491 70.0782C138.926 69.8175 139.255 69.4699 139.478 69.0353L141.21 70.0224C140.813 70.7673 140.242 71.3571 139.497 71.7916C138.752 72.2262 137.926 72.4435 137.02 72.4435ZM144.73 64.4538C145.227 63.2991 146.183 62.7218 147.598 62.7218V64.9008C146.828 64.8511 146.158 65.0374 145.587 65.4595C145.016 65.8692 144.73 66.5521 144.73 67.5081V72.2014H142.719L142.719 62.8894H144.73V64.4538ZM150.984 61.1202C150.736 61.3685 150.438 61.4926 150.09 61.4926C149.742 61.4926 149.438 61.3685 149.177 61.1202C148.929 60.8594 148.805 60.5552 148.805 60.2076C148.805 59.8599 148.929 59.562 149.177 59.3136C149.426 59.0529 149.73 58.9225 150.09 58.9225C150.45 58.9225 150.754 59.0529 151.002 59.3136C151.251 59.562 151.375 59.8599 151.375 60.2076C151.375 60.5552 151.245 60.8594 150.984 61.1202ZM149.084 72.2014L149.084 62.8894H151.096V72.2014H149.084ZM158.702 62.6473C159.98 62.6473 161.073 63.1191 161.979 64.0627C162.886 65.0063 163.339 66.1672 163.339 67.5454C163.339 68.9236 162.886 70.0844 161.979 71.0281C161.073 71.9717 159.98 72.4435 158.702 72.4435C157.286 72.4435 156.2 71.9158 155.442 70.8604V72.2014H153.431L153.431 59.1646H155.442V64.2117C156.2 63.1688 157.286 62.6473 158.702 62.6473ZM156.28 69.6871C156.839 70.2458 157.541 70.5252 158.385 70.5252C159.229 70.5252 159.931 70.2458 160.489 69.6871C161.048 69.116 161.328 68.4021 161.328 67.5454C161.328 66.6887 161.048 65.981 160.489 65.4223C159.931 64.8511 159.229 64.5656 158.385 64.5656C157.541 64.5656 156.839 64.8511 156.28 65.4223C155.722 65.981 155.442 66.6887 155.442 67.5454C155.442 68.4021 155.722 69.116 156.28 69.6871ZM166.745 68.4021C166.894 69.1098 167.229 69.6561 167.751 70.041C168.284 70.4135 168.942 70.5997 169.725 70.5997C170.78 70.5997 171.581 70.2148 172.127 69.445L173.785 70.4135C172.878 71.7668 171.519 72.4435 169.706 72.4435C168.204 72.4435 166.981 71.9841 166.037 71.0653C165.106 70.1341 164.64 68.9608 164.64 67.5454C164.64 66.1672 165.1 65.0063 166.019 64.0627C166.925 63.1191 168.104 62.6473 169.557 62.6473C170.91 62.6473 172.028 63.1253 172.909 64.0813C173.791 65.0374 174.232 66.1983 174.232 67.564C174.232 67.6633 174.225 67.7875 174.213 67.9365C174.201 68.0731 174.182 68.2283 174.157 68.4021H166.745ZM172.202 66.7632C172.065 66.0058 171.755 65.4347 171.27 65.0498C170.786 64.6649 170.209 64.4725 169.538 64.4725C168.793 64.4725 168.173 64.6773 167.676 65.087C167.179 65.4968 166.863 66.0555 166.726 66.7632H172.202ZM176.411 68.1041L176.002 62.8894V59.1646H178.423V62.8894L177.994 68.1041H176.411ZM177.212 69.6313C177.597 69.6313 177.926 69.7678 178.199 70.041C178.472 70.3141 178.609 70.6432 178.609 71.0281C178.609 71.4129 178.472 71.742 178.199 72.0151C177.926 72.2883 177.597 72.4248 177.212 72.4248C176.827 72.4248 176.498 72.2883 176.225 72.0151C175.952 71.742 175.815 71.4129 175.815 71.0281C175.815 70.6432 175.946 70.3141 176.206 70.041C176.48 69.7678 176.815 69.6313 177.212 69.6313Z" fill="white"/>
</g>
<defs>
<filter id="filter0_d_2842_6999" x="0.0704422" y="0.187445" width="270.046" height="143.67" filterUnits="userSpaceOnUse" color-interpolation-filters="sRGB">
<feFlood flood-opacity="0" result="BackgroundImageFix"/>
<feColorMatrix in="SourceAlpha" type="matrix" values="0 0 0 0 0 0 0 0 0 0 0 0 0 0 0 0 0 0 127 0" result="hardAlpha"/>
<feOffset dy="5.3211"/>
<feGaussianBlur stdDeviation="15.9633"/>
<feComposite in2="hardAlpha" operator="out"/>
<feColorMatrix type="matrix" values="0 0 0 0 0 0 0 0 0 0 0 0 0 0 0 0 0 0 0.25 0"/>
<feBlend mode="normal" in2="BackgroundImageFix" result="effect1_dropShadow_2842_6999"/>
<feBlend mode="normal" in="SourceGraphic" in2="effect1_dropShadow_2842_6999" result="shape"/>
</filter>
</defs>
</svg>
