<svg width="197" height="308" viewBox="0 0 197 308" fill="none" xmlns="http://www.w3.org/2000/svg">
<g filter="url(#filter0_d_2455_6983)">
<path d="M10 19.9636C10 12.2517 16.2517 6 23.9636 6H172.327C180.039 6 186.291 12.2517 186.291 19.9636V280.036C186.291 287.748 180.039 294 172.327 294H23.9636C16.2517 294 10 287.748 10 280.036V19.9636Z" fill="#F7F9FB"/>
<path d="M31.4313 32.4087V31.0594H38.5209V32.4087H35.7744V39.9453H34.1778V32.4087H31.4313ZM39.1262 39.9453V33.2808H40.6491V34.3916H40.7186C40.84 34.0069 41.0483 33.7104 41.3433 33.5021C41.6413 33.291 41.9812 33.1854 42.363 33.1854C42.4498 33.1854 42.5467 33.1897 42.6537 33.1984C42.7636 33.2042 42.8547 33.2143 42.927 33.2288V34.6736C42.8605 34.6505 42.7549 34.6302 42.6103 34.6129C42.4686 34.5926 42.3312 34.5825 42.1981 34.5825C41.9117 34.5825 41.6543 34.6447 41.4258 34.7691C41.2002 34.8906 41.0223 35.0598 40.8921 35.2767C40.7619 35.4937 40.6969 35.7439 40.6969 36.0273V39.9453H39.1262ZM46.1692 40.0625C45.6457 40.0625 45.1771 39.928 44.7634 39.6589C44.3498 39.3899 44.0229 38.9994 43.7829 38.4875C43.5428 37.9755 43.4227 37.3536 43.4227 36.6218C43.4227 35.8813 43.5442 35.2565 43.7872 34.7474C44.0331 34.2354 44.3643 33.8492 44.7808 33.5889C45.1973 33.3257 45.6616 33.1941 46.1736 33.1941C46.5641 33.1941 46.8851 33.2606 47.1368 33.3937C47.3884 33.5238 47.588 33.6815 47.7356 33.8666C47.8831 34.0488 47.9973 34.2209 48.0783 34.3829H48.1434V33.2808H49.7184V39.9453H48.1738V38.8953H48.0783C47.9973 39.0573 47.8802 39.2294 47.7269 39.4116C47.5736 39.591 47.3711 39.7443 47.1194 39.8716C46.8678 39.9988 46.551 40.0625 46.1692 40.0625ZM46.6075 38.7738C46.9401 38.7738 47.2236 38.6842 47.4579 38.5048C47.6922 38.3226 47.8701 38.0695 47.9915 37.7455C48.113 37.4216 48.1738 37.0441 48.1738 36.6131C48.1738 36.1821 48.113 35.8075 47.9915 35.4893C47.8729 35.1711 47.6965 34.9238 47.4622 34.7474C47.2308 34.5709 46.9459 34.4827 46.6075 34.4827C46.2575 34.4827 45.9653 34.5738 45.731 34.7561C45.4967 34.9383 45.3203 35.1899 45.2017 35.511C45.0831 35.8321 45.0238 36.1994 45.0238 36.6131C45.0238 37.0296 45.0831 37.4013 45.2017 37.7282C45.3232 38.0521 45.501 38.3081 45.7353 38.4961C45.9725 38.6813 46.2632 38.7738 46.6075 38.7738ZM54.7677 33.2808V34.4957H50.8281V33.2808H54.7677ZM51.813 39.9453V32.6517C51.813 32.2034 51.9055 31.8302 52.0907 31.5323C52.2787 31.2344 52.5303 31.0116 52.8456 30.8641C53.1609 30.7166 53.5109 30.6428 53.8956 30.6428C54.1675 30.6428 54.4091 30.6645 54.6202 30.7079C54.8314 30.7513 54.9876 30.7904 55.0888 30.8251L54.7764 32.0399C54.7099 32.0197 54.626 31.9994 54.5248 31.9792C54.4235 31.9561 54.3107 31.9445 54.1863 31.9445C53.8942 31.9445 53.6874 32.0154 53.5659 32.1571C53.4473 32.2959 53.388 32.4955 53.388 32.7558V39.9453H51.813ZM59.3734 33.2808V34.4957H55.4337V33.2808H59.3734ZM56.4187 39.9453V32.6517C56.4187 32.2034 56.5112 31.8302 56.6963 31.5323C56.8844 31.2344 57.136 31.0116 57.4513 30.8641C57.7666 30.7166 58.1166 30.6428 58.5013 30.6428C58.7732 30.6428 59.0147 30.6645 59.2259 30.7079C59.437 30.7513 59.5932 30.7904 59.6945 30.8251L59.3821 32.0399C59.3156 32.0197 59.2317 31.9994 59.1304 31.9792C59.0292 31.9561 58.9164 31.9445 58.792 31.9445C58.4999 31.9445 58.293 32.0154 58.1716 32.1571C58.053 32.2959 57.9937 32.4955 57.9937 32.7558V39.9453H56.4187ZM60.6035 39.9453V33.2808H62.1741V39.9453H60.6035ZM61.3931 32.335C61.1444 32.335 60.9303 32.2525 60.751 32.0877C60.5717 31.9199 60.482 31.7189 60.482 31.4846C60.482 31.2474 60.5717 31.0463 60.751 30.8815C60.9303 30.7137 61.1444 30.6298 61.3931 30.6298C61.6448 30.6298 61.8588 30.7137 62.0353 30.8815C62.2146 31.0463 62.3043 31.2474 62.3043 31.4846C62.3043 31.7189 62.2146 31.9199 62.0353 32.0877C61.8588 32.2525 61.6448 32.335 61.3931 32.335ZM66.6963 40.0755C66.031 40.0755 65.4597 39.9294 64.9824 39.6373C64.5081 39.3451 64.1422 38.9416 63.8847 38.4267C63.6302 37.9089 63.5029 37.3131 63.5029 36.6391C63.5029 35.9623 63.6331 35.3649 63.8934 34.8472C64.1537 34.3265 64.5211 33.9216 64.9955 33.6323C65.4727 33.3401 66.0368 33.1941 66.6876 33.1941C67.2285 33.1941 67.7072 33.2939 68.1238 33.4935C68.5432 33.6901 68.8773 33.9693 69.126 34.3308C69.3748 34.6895 69.5165 35.1089 69.5513 35.5891H68.05C67.9893 35.268 67.8446 35.0005 67.6161 34.7864C67.3905 34.5695 67.0882 34.461 66.7093 34.461C66.3882 34.461 66.1062 34.5478 65.8632 34.7213C65.6203 34.892 65.4308 35.1379 65.2948 35.4589C65.1618 35.78 65.0953 36.1647 65.0953 36.6131C65.0953 37.0672 65.1618 37.4577 65.2948 37.7846C65.4279 38.1085 65.6145 38.3587 65.8546 38.5352C66.0975 38.7087 66.3824 38.7955 66.7093 38.7955C66.9407 38.7955 67.1475 38.7521 67.3298 38.6654C67.5149 38.5757 67.6696 38.447 67.794 38.2792C67.9184 38.1114 68.0037 37.9075 68.05 37.6674H69.5513C69.5136 38.1389 69.3748 38.5569 69.1347 38.9213C68.8946 39.2829 68.5678 39.5664 68.1541 39.7718C67.7405 39.9742 67.2546 40.0755 66.6963 40.0755ZM73.9411 39.9453V31.0594H75.5117V34.3829H75.5768C75.6578 34.2209 75.7721 34.0488 75.9196 33.8666C76.0671 33.6815 76.2667 33.5238 76.5183 33.3937C76.77 33.2606 77.0911 33.1941 77.4816 33.1941C77.9964 33.1941 78.4607 33.3257 78.8743 33.5889C79.2909 33.8492 79.6206 34.2354 79.8636 34.7474C80.1095 35.2565 80.2324 35.8813 80.2324 36.6218C80.2324 37.3536 80.1124 37.9755 79.8723 38.4875C79.6322 38.9994 79.3053 39.3899 78.8917 39.6589C78.4781 39.928 78.0095 40.0625 77.4859 40.0625C77.1041 40.0625 76.7874 39.9988 76.5357 39.8716C76.2841 39.7443 76.0816 39.591 75.9283 39.4116C75.7779 39.2294 75.6607 39.0573 75.5768 38.8953H75.4857V39.9453H73.9411ZM75.4814 36.6131C75.4814 37.0441 75.5421 37.4216 75.6636 37.7455C75.788 38.0695 75.9659 38.3226 76.1973 38.5048C76.4316 38.6842 76.715 38.7738 77.0477 38.7738C77.3948 38.7738 77.6855 38.6813 77.9198 38.4961C78.1541 38.3081 78.3305 38.0521 78.4491 37.7282C78.5706 37.4013 78.6314 37.0296 78.6314 36.6131C78.6314 36.1994 78.5721 35.8321 78.4535 35.511C78.3349 35.1899 78.1584 34.9383 77.9241 34.7561C77.6898 34.5738 77.3977 34.4827 77.0477 34.4827C76.7121 34.4827 76.4272 34.5709 76.1929 34.7474C75.9586 34.9238 75.7807 35.1711 75.6593 35.4893C75.5407 35.8075 75.4814 36.1821 75.4814 36.6131ZM82.3172 42.4445C82.1032 42.4445 81.905 42.4271 81.7228 42.3924C81.5435 42.3606 81.4003 42.323 81.2932 42.2796L81.6577 41.0561C81.8862 41.1226 82.0901 41.1544 82.2695 41.1515C82.4488 41.1486 82.6065 41.0922 82.7424 40.9823C82.8813 40.8753 82.9984 40.6959 83.0939 40.4443L83.2284 40.0842L80.8116 33.2808H82.4777L84.0137 38.3139H84.0831L85.6234 33.2808H87.2939L84.6255 40.7523C84.5011 41.1052 84.3362 41.4075 84.1308 41.6592C83.9255 41.9137 83.6738 42.1075 83.3759 42.2406C83.0808 42.3765 82.728 42.4445 82.3172 42.4445ZM93.3509 39.9453L90.843 31.0594H92.5742L94.1753 37.5893H94.2577L95.9672 31.0594H97.5422L99.2561 37.5937H99.3342L100.935 31.0594H102.666L100.159 39.9453H98.5705L96.7916 33.7104H96.7222L94.9389 39.9453H93.3509ZM105.983 40.0755C105.315 40.0755 104.738 39.9366 104.252 39.6589C103.769 39.3784 103.397 38.9821 103.137 38.4701C102.877 37.9552 102.747 37.3492 102.747 36.6521C102.747 35.9666 102.877 35.3649 103.137 34.8472C103.4 34.3265 103.768 33.9216 104.239 33.6323C104.711 33.3401 105.265 33.1941 105.901 33.1941C106.312 33.1941 106.699 33.2606 107.064 33.3937C107.431 33.5238 107.755 33.7263 108.036 34.0011C108.319 34.2759 108.542 34.6259 108.704 35.0511C108.866 35.4734 108.947 35.9767 108.947 36.561V37.0426H103.484V35.9839H107.441C107.438 35.6831 107.373 35.4156 107.246 35.1813C107.119 34.9441 106.941 34.7575 106.712 34.6216C106.487 34.4856 106.224 34.4176 105.923 34.4176C105.602 34.4176 105.32 34.4957 105.077 34.6519C104.834 34.8052 104.644 35.0077 104.508 35.2594C104.375 35.5081 104.307 35.7815 104.304 36.0794V37.0036C104.304 37.3912 104.375 37.7238 104.517 38.0015C104.659 38.2763 104.857 38.4875 105.111 38.635C105.366 38.7796 105.664 38.8519 106.005 38.8519C106.234 38.8519 106.44 38.8201 106.626 38.7565C106.811 38.6899 106.971 38.593 107.107 38.4658C107.243 38.3385 107.346 38.1808 107.415 37.9928L108.882 38.1577C108.789 38.5453 108.613 38.8837 108.352 39.173C108.095 39.4594 107.765 39.6821 107.363 39.8412C106.961 39.9974 106.501 40.0755 105.983 40.0755ZM110.345 39.9453V31.0594H111.916V34.3829H111.981C112.062 34.2209 112.176 34.0488 112.324 33.8666C112.471 33.6815 112.671 33.5238 112.922 33.3937C113.174 33.2606 113.495 33.1941 113.886 33.1941C114.4 33.1941 114.865 33.3257 115.278 33.5889C115.695 33.8492 116.025 34.2354 116.268 34.7474C116.513 35.2565 116.636 35.8813 116.636 36.6218C116.636 37.3536 116.516 37.9755 116.276 38.4875C116.036 38.9994 115.709 39.3899 115.296 39.6589C114.882 39.928 114.413 40.0625 113.89 40.0625C113.508 40.0625 113.191 39.9988 112.94 39.8716C112.688 39.7443 112.486 39.591 112.332 39.4116C112.182 39.2294 112.065 39.0573 111.981 38.8953H111.89V39.9453H110.345ZM111.885 36.6131C111.885 37.0441 111.946 37.4216 112.068 37.7455C112.192 38.0695 112.37 38.3226 112.601 38.5048C112.836 38.6842 113.119 38.7738 113.452 38.7738C113.799 38.7738 114.089 38.6813 114.324 38.4961C114.558 38.3081 114.735 38.0521 114.853 37.7282C114.975 37.4013 115.035 37.0296 115.035 36.6131C115.035 36.1994 114.976 35.8321 114.857 35.511C114.739 35.1899 114.562 34.9383 114.328 34.7561C114.094 34.5738 113.802 34.4827 113.452 34.4827C113.116 34.4827 112.831 34.5709 112.597 34.7474C112.363 34.9238 112.185 35.1711 112.063 35.4893C111.945 35.8075 111.885 36.1821 111.885 36.6131ZM123.239 35.0424L121.807 35.1986C121.767 35.054 121.696 34.918 121.595 34.7908C121.496 34.6635 121.363 34.5608 121.195 34.4827C121.028 34.4046 120.822 34.3656 120.579 34.3656C120.252 34.3656 119.978 34.4364 119.755 34.5782C119.535 34.7199 119.427 34.9036 119.43 35.1292C119.427 35.323 119.497 35.4806 119.642 35.6021C119.79 35.7236 120.033 35.8234 120.371 35.9015L121.508 36.1445C122.138 36.2804 122.607 36.4959 122.914 36.791C123.223 37.086 123.379 37.4722 123.382 37.9494C123.379 38.3689 123.256 38.7391 123.013 39.0602C122.773 39.3784 122.439 39.6271 122.011 39.8065C121.583 39.9858 121.091 40.0755 120.536 40.0755C119.72 40.0755 119.064 39.9048 118.566 39.5635C118.069 39.2193 117.772 38.7406 117.677 38.1273L119.208 37.9798C119.278 38.2806 119.425 38.5077 119.651 38.661C119.876 38.8143 120.17 38.891 120.532 38.891C120.905 38.891 121.204 38.8143 121.43 38.661C121.658 38.5077 121.772 38.3182 121.772 38.0926C121.772 37.9017 121.699 37.7441 121.551 37.6197C121.407 37.4953 121.181 37.3999 120.874 37.3333L119.738 37.0947C119.098 36.9616 118.625 36.7375 118.319 36.4222C118.012 36.104 117.86 35.7019 117.863 35.216C117.86 34.8052 117.972 34.4494 118.197 34.1486C118.426 33.8449 118.743 33.6106 119.147 33.4457C119.555 33.278 120.025 33.1941 120.558 33.1941C121.339 33.1941 121.953 33.3604 122.402 33.693C122.853 34.0257 123.132 34.4755 123.239 35.0424ZM124.677 39.9453V33.2808H126.248V39.9453H124.677ZM125.467 32.335C125.218 32.335 125.004 32.2525 124.825 32.0877C124.646 31.9199 124.556 31.7189 124.556 31.4846C124.556 31.2474 124.646 31.0463 124.825 30.8815C125.004 30.7137 125.218 30.6298 125.467 30.6298C125.719 30.6298 125.933 30.7137 126.109 30.8815C126.288 31.0463 126.378 31.2474 126.378 31.4846C126.378 31.7189 126.288 31.9199 126.109 32.0877C125.933 32.2525 125.719 32.335 125.467 32.335ZM131.191 33.2808V34.4957H127.36V33.2808H131.191ZM128.306 31.6842H129.876V37.9408C129.876 38.1519 129.908 38.3139 129.972 38.4267C130.038 38.5366 130.125 38.6118 130.232 38.6523C130.339 38.6928 130.458 38.7131 130.588 38.7131C130.686 38.7131 130.776 38.7058 130.857 38.6914C130.941 38.6769 131.004 38.6639 131.048 38.6523L131.313 39.8802C131.229 39.9092 131.109 39.941 130.952 39.9757C130.799 40.0104 130.611 40.0306 130.388 40.0364C129.995 40.048 129.641 39.9887 129.325 39.8585C129.01 39.7255 128.76 39.5201 128.575 39.2424C128.392 38.9647 128.303 38.6176 128.306 38.2011V31.6842ZM135.383 40.0755C134.715 40.0755 134.138 39.9366 133.652 39.6589C133.169 39.3784 132.797 38.9821 132.537 38.4701C132.277 37.9552 132.147 37.3492 132.147 36.6521C132.147 35.9666 132.277 35.3649 132.537 34.8472C132.8 34.3265 133.168 33.9216 133.639 33.6323C134.111 33.3401 134.665 33.1941 135.301 33.1941C135.712 33.1941 136.099 33.2606 136.464 33.3937C136.831 33.5238 137.155 33.7263 137.436 34.0011C137.719 34.2759 137.942 34.6259 138.104 35.0511C138.266 35.4734 138.347 35.9767 138.347 36.561V37.0426H132.884V35.9839H136.841C136.838 35.6831 136.773 35.4156 136.646 35.1813C136.519 34.9441 136.341 34.7575 136.112 34.6216C135.887 34.4856 135.624 34.4176 135.323 34.4176C135.002 34.4176 134.72 34.4957 134.477 34.6519C134.234 34.8052 134.044 35.0077 133.908 35.2594C133.775 35.5081 133.707 35.7815 133.704 36.0794V37.0036C133.704 37.3912 133.775 37.7238 133.917 38.0015C134.059 38.2763 134.257 38.4875 134.511 38.635C134.766 38.7796 135.064 38.8519 135.405 38.8519C135.634 38.8519 135.84 38.8201 136.026 38.7565C136.211 38.6899 136.371 38.593 136.507 38.4658C136.643 38.3385 136.746 38.1808 136.815 37.9928L138.282 38.1577C138.189 38.5453 138.013 38.8837 137.752 39.173C137.495 39.4594 137.165 39.6821 136.763 39.8412C136.361 39.9974 135.901 40.0755 135.383 40.0755Z" fill="#1C1C1C"/>
<path d="M37.0742 72.6547C36.9924 72.4043 36.8846 72.18 36.7507 71.9816C36.6193 71.7808 36.4618 71.6097 36.2784 71.4684C36.0974 71.3271 35.8916 71.2192 35.661 71.1448C35.4304 71.0705 35.1775 71.0333 34.9023 71.0333C34.4511 71.0333 34.0408 71.1498 33.6713 71.3828C33.3019 71.6159 33.0081 71.9593 32.7899 72.413C32.5718 72.8667 32.4627 73.4233 32.4627 74.0828C32.4627 74.7424 32.573 75.299 32.7937 75.7527C33.0143 76.2064 33.3131 76.5498 33.6899 76.7828C34.0668 77.0159 34.4908 77.1324 34.9618 77.1324C35.3982 77.1324 35.7825 77.0395 36.1147 76.8535C36.4494 76.6651 36.7098 76.3998 36.8957 76.0576C37.0842 75.713 37.1784 75.3076 37.1784 74.8415L37.461 74.901H35.1701V74.0828H38.0709V74.901C38.0709 75.5283 37.937 76.0738 37.6693 76.5374C37.404 77.001 37.037 77.3605 36.5685 77.6159C36.1023 77.8688 35.5668 77.9952 34.9618 77.9952C34.2875 77.9952 33.6949 77.8366 33.1842 77.5192C32.6759 77.2019 32.2792 76.7506 31.9941 76.1655C31.7114 75.5804 31.5701 74.8862 31.5701 74.0828C31.5701 73.4804 31.6507 72.9386 31.8118 72.4576C31.9755 71.9742 32.2061 71.5626 32.5036 71.2229C32.8011 70.8833 33.1532 70.6229 33.5598 70.4419C33.9664 70.2609 34.4139 70.1705 34.9023 70.1705C35.304 70.1705 35.6784 70.2312 36.0255 70.3527C36.3751 70.4717 36.6862 70.6415 36.9589 70.8622C37.2342 71.0804 37.4635 71.3419 37.647 71.6469C37.8304 71.9494 37.9569 72.2853 38.0263 72.6547H37.0742ZM41.8522 78.0101C41.3365 78.0101 40.8841 77.8874 40.4948 77.6419C40.108 77.3965 39.8055 77.0531 39.5874 76.6118C39.3717 76.1705 39.2638 75.6547 39.2638 75.0647C39.2638 74.4696 39.3717 73.9502 39.5874 73.5064C39.8055 73.0626 40.108 72.718 40.4948 72.4725C40.8841 72.2271 41.3365 72.1043 41.8522 72.1043C42.3679 72.1043 42.8192 72.2271 43.206 72.4725C43.5952 72.718 43.8977 73.0626 44.1134 73.5064C44.3316 73.9502 44.4407 74.4696 44.4407 75.0647C44.4407 75.6547 44.3316 76.1705 44.1134 76.6118C43.8977 77.0531 43.5952 77.3965 43.206 77.6419C42.8192 77.8874 42.3679 78.0101 41.8522 78.0101ZM41.8522 77.2217C42.244 77.2217 42.5663 77.1213 42.8192 76.9205C43.0721 76.7196 43.2593 76.4556 43.3807 76.1283C43.5022 75.801 43.563 75.4465 43.563 75.0647C43.563 74.6828 43.5022 74.3271 43.3807 73.9973C43.2593 73.6676 43.0721 73.401 42.8192 73.1977C42.5663 72.9944 42.244 72.8928 41.8522 72.8928C41.4605 72.8928 41.1382 72.9944 40.8853 73.1977C40.6324 73.401 40.4452 73.6676 40.3237 73.9973C40.2022 74.3271 40.1415 74.6828 40.1415 75.0647C40.1415 75.4465 40.2022 75.801 40.3237 76.1283C40.4452 76.4556 40.6324 76.7196 40.8853 76.9205C41.1382 77.1213 41.4605 77.2217 41.8522 77.2217ZM48.1011 78.0101C47.5854 78.0101 47.1329 77.8874 46.7437 77.6419C46.3569 77.3965 46.0544 77.0531 45.8362 76.6118C45.6205 76.1705 45.5127 75.6547 45.5127 75.0647C45.5127 74.4696 45.6205 73.9502 45.8362 73.5064C46.0544 73.0626 46.3569 72.718 46.7437 72.4725C47.1329 72.2271 47.5854 72.1043 48.1011 72.1043C48.6168 72.1043 49.068 72.2271 49.4548 72.4725C49.8441 72.718 50.1466 73.0626 50.3623 73.5064C50.5804 73.9502 50.6895 74.4696 50.6895 75.0647C50.6895 75.6547 50.5804 76.1705 50.3623 76.6118C50.1466 77.0531 49.8441 77.3965 49.4548 77.6419C49.068 77.8874 48.6168 78.0101 48.1011 78.0101ZM48.1011 77.2217C48.4928 77.2217 48.8151 77.1213 49.068 76.9205C49.3209 76.7196 49.5081 76.4556 49.6296 76.1283C49.7511 75.801 49.8118 75.4465 49.8118 75.0647C49.8118 74.6828 49.7511 74.3271 49.6296 73.9973C49.5081 73.6676 49.3209 73.401 49.068 73.1977C48.8151 72.9944 48.4928 72.8928 48.1011 72.8928C47.7094 72.8928 47.387 72.9944 47.1342 73.1977C46.8813 73.401 46.6941 73.6676 46.5726 73.9973C46.4511 74.3271 46.3904 74.6828 46.3904 75.0647C46.3904 75.4465 46.4511 75.801 46.5726 76.1283C46.6941 76.4556 46.8813 76.7196 47.1342 76.9205C47.387 77.1213 47.7094 77.2217 48.1011 77.2217ZM54.3351 80.1523C53.9111 80.1523 53.5467 80.0977 53.2417 79.9886C52.9367 79.882 52.6826 79.7407 52.4793 79.5647C52.2785 79.3911 52.1186 79.2052 51.9995 79.0068L52.6987 78.5159C52.7781 78.62 52.8785 78.739 53 78.8729C53.1214 79.0093 53.2876 79.1271 53.4983 79.2262C53.7115 79.3279 53.9905 79.3787 54.3351 79.3787C54.7962 79.3787 55.1768 79.2671 55.4768 79.044C55.7768 78.8209 55.9268 78.4713 55.9268 77.9952V76.8349H55.8524C55.788 76.939 55.6962 77.068 55.5772 77.2217C55.4607 77.3729 55.2921 77.5081 55.0714 77.6271C54.8533 77.7436 54.5582 77.8019 54.1863 77.8019C53.7252 77.8019 53.3111 77.6928 52.9442 77.4746C52.5797 77.2564 52.2909 76.939 52.0776 76.5225C51.8669 76.106 51.7615 75.6002 51.7615 75.0052C51.7615 74.42 51.8644 73.9105 52.0702 73.4767C52.276 73.0403 52.5624 72.7031 52.9293 72.4651C53.2962 72.2246 53.7202 72.1043 54.2012 72.1043C54.5731 72.1043 54.8681 72.1663 55.0863 72.2903C55.307 72.4118 55.4756 72.5506 55.5921 72.7068C55.7111 72.8605 55.8029 72.987 55.8673 73.0862H55.9566V72.1787H56.8045V78.0547C56.8045 78.5457 56.6929 78.9448 56.4698 79.2523C56.2491 79.5622 55.9516 79.789 55.5772 79.9328C55.2053 80.0791 54.7913 80.1523 54.3351 80.1523ZM54.3053 77.0134C54.6574 77.0134 54.9549 76.9328 55.1979 76.7717C55.4409 76.6105 55.6256 76.3787 55.752 76.0762C55.8785 75.7738 55.9417 75.4118 55.9417 74.9903C55.9417 74.5787 55.8797 74.2155 55.7557 73.9006C55.6318 73.5857 55.4483 73.339 55.2053 73.1605C54.9624 72.982 54.6624 72.8928 54.3053 72.8928C53.9334 72.8928 53.6235 72.987 53.3756 73.1754C53.1301 73.3638 52.9454 73.6167 52.8214 73.9341C52.7 74.2514 52.6392 74.6035 52.6392 74.9903C52.6392 75.387 52.7012 75.7378 52.8252 76.0428C52.9516 76.3452 53.1376 76.5833 53.383 76.7568C53.631 76.9279 53.9384 77.0134 54.3053 77.0134ZM59.2888 70.2746V77.8911H58.4111V70.2746H59.2888ZM63.2914 78.0101C62.741 78.0101 62.2662 77.8886 61.867 77.6457C61.4703 77.4002 61.1641 77.0581 60.9484 76.6192C60.7352 76.1779 60.6286 75.6647 60.6286 75.0795C60.6286 74.4944 60.7352 73.9787 60.9484 73.5324C61.1641 73.0837 61.4641 72.7341 61.8484 72.4837C62.2352 72.2308 62.6864 72.1043 63.2021 72.1043C63.4997 72.1043 63.7935 72.1539 64.0835 72.2531C64.3736 72.3523 64.6377 72.5134 64.8757 72.7366C65.1137 72.9572 65.3034 73.2498 65.4447 73.6143C65.586 73.9787 65.6567 74.4275 65.6567 74.9605V75.3324H61.2534V74.5738H64.7641C64.7641 74.2514 64.6997 73.9638 64.5707 73.7109C64.4443 73.4581 64.2633 73.2585 64.0277 73.1122C63.7947 72.9659 63.5195 72.8928 63.2021 72.8928C62.8525 72.8928 62.5501 72.9795 62.2947 73.1531C62.0418 73.3242 61.8472 73.5473 61.7108 73.8225C61.5744 74.0977 61.5063 74.3928 61.5063 74.7076V75.2134C61.5063 75.6448 61.5806 76.0105 61.7294 76.3105C61.8806 76.6081 62.0901 76.8349 62.3579 76.9911C62.6257 77.1448 62.9368 77.2217 63.2914 77.2217C63.522 77.2217 63.7302 77.1895 63.9162 77.125C64.1046 77.0581 64.267 76.9589 64.4034 76.8275C64.5397 76.6936 64.6451 76.5275 64.7195 76.3291L65.5674 76.5671C65.4782 76.8547 65.3282 77.1076 65.1174 77.3258C64.9067 77.5415 64.6463 77.7101 64.3364 77.8316C64.0265 77.9506 63.6782 78.0101 63.2914 78.0101Z" fill="#1C1C1C"/>
<path d="M31.2131 107.22H32.2693L34.3817 110.775H34.4709L36.5833 107.22H37.6395L34.8875 111.698V114.836H33.9651V111.698L31.2131 107.22ZM40.2261 114.955C39.7104 114.955 39.2579 114.833 38.8687 114.587C38.4819 114.342 38.1794 113.998 37.9612 113.557C37.7455 113.116 37.6377 112.6 37.6377 112.01C37.6377 111.415 37.7455 110.896 37.9612 110.452C38.1794 110.008 38.4819 109.663 38.8687 109.418C39.2579 109.172 39.7104 109.05 40.2261 109.05C40.7418 109.05 41.193 109.172 41.5798 109.418C41.9691 109.663 42.2716 110.008 42.4873 110.452C42.7054 110.896 42.8145 111.415 42.8145 112.01C42.8145 112.6 42.7054 113.116 42.4873 113.557C42.2716 113.998 41.9691 114.342 41.5798 114.587C41.193 114.833 40.7418 114.955 40.2261 114.955ZM40.2261 114.167C40.6178 114.167 40.9401 114.067 41.193 113.866C41.4459 113.665 41.6331 113.401 41.7546 113.074C41.8761 112.746 41.9368 112.392 41.9368 112.01C41.9368 111.628 41.8761 111.272 41.7546 110.943C41.6331 110.613 41.4459 110.346 41.193 110.143C40.9401 109.94 40.6178 109.838 40.2261 109.838C39.8344 109.838 39.512 109.94 39.2592 110.143C39.0063 110.346 38.8191 110.613 38.6976 110.943C38.5761 111.272 38.5154 111.628 38.5154 112.01C38.5154 112.392 38.5761 112.746 38.6976 113.074C38.8191 113.401 39.0063 113.665 39.2592 113.866C39.512 114.067 39.8344 114.167 40.2261 114.167ZM47.7543 112.501V109.124H48.632V114.836H47.7543V113.869H47.6948C47.5609 114.16 47.3526 114.406 47.07 114.61C46.7874 114.81 46.4303 114.911 45.9989 114.911C45.6419 114.911 45.3245 114.833 45.0469 114.677C44.7692 114.518 44.551 114.28 44.3923 113.962C44.2336 113.643 44.1543 113.24 44.1543 112.754V109.124H45.032V112.694C45.032 113.111 45.1485 113.443 45.3816 113.691C45.6171 113.939 45.9171 114.063 46.2816 114.063C46.4998 114.063 46.7217 114.007 46.9473 113.896C47.1754 113.784 47.3663 113.613 47.52 113.382C47.6762 113.152 47.7543 112.858 47.7543 112.501ZM49.4102 108.038V107.22H55.1226V108.038H52.7275V114.836H51.8052V108.038H49.4102ZM59.2498 112.501V109.124H60.1274V114.836H59.2498V113.869H59.1902C59.0564 114.16 58.8481 114.406 58.5655 114.61C58.2828 114.81 57.9258 114.911 57.4944 114.911C57.1374 114.911 56.82 114.833 56.5423 114.677C56.2646 114.518 56.0464 114.28 55.8878 113.962C55.7291 113.643 55.6498 113.24 55.6498 112.754V109.124H56.5274V112.694C56.5274 113.111 56.644 113.443 56.877 113.691C57.1126 113.939 57.4126 114.063 57.777 114.063C57.9952 114.063 58.2171 114.007 58.4427 113.896C58.6708 113.784 58.8617 113.613 59.0155 113.382C59.1717 113.152 59.2498 112.858 59.2498 112.501ZM61.854 114.836V107.22H62.7317V110.031H62.8061C62.8705 109.932 62.9598 109.806 63.0738 109.652C63.1904 109.496 63.3565 109.357 63.5722 109.236C63.7904 109.112 64.0854 109.05 64.4573 109.05C64.9383 109.05 65.3623 109.17 65.7292 109.41C66.0961 109.651 66.3825 109.992 66.5883 110.433C66.7941 110.874 66.897 111.395 66.897 111.995C66.897 112.6 66.7941 113.124 66.5883 113.568C66.3825 114.01 66.0974 114.352 65.7329 114.595C65.3685 114.835 64.9482 114.955 64.4722 114.955C64.1052 114.955 63.8114 114.895 63.5908 114.773C63.3701 114.649 63.2003 114.509 63.0813 114.353C62.9623 114.194 62.8705 114.063 62.8061 113.959H62.7019V114.836H61.854ZM62.7168 111.98C62.7168 112.412 62.78 112.792 62.9065 113.122C63.0329 113.449 63.2176 113.706 63.4606 113.892C63.7036 114.075 64.0011 114.167 64.3532 114.167C64.7201 114.167 65.0263 114.07 65.2718 113.877C65.5197 113.681 65.7056 113.418 65.8296 113.088C65.9561 112.756 66.0193 112.387 66.0193 111.98C66.0193 111.579 65.9573 111.217 65.8333 110.894C65.7118 110.569 65.5271 110.313 65.2792 110.124C65.0337 109.934 64.7251 109.838 64.3532 109.838C63.9961 109.838 63.6961 109.929 63.4532 110.11C63.2102 110.288 63.0267 110.538 62.9027 110.861C62.7788 111.181 62.7168 111.554 62.7168 111.98ZM70.6346 114.955C70.0842 114.955 69.6094 114.834 69.2102 114.591C68.8135 114.346 68.5073 114.003 68.2916 113.565C68.0784 113.123 67.9718 112.61 67.9718 112.025C67.9718 111.44 68.0784 110.924 68.2916 110.478C68.5073 110.029 68.8073 109.679 69.1916 109.429C69.5784 109.176 70.0296 109.05 70.5453 109.05C70.8428 109.05 71.1366 109.099 71.4267 109.198C71.7168 109.298 71.9808 109.459 72.2189 109.682C72.4569 109.903 72.6465 110.195 72.7879 110.56C72.9292 110.924 72.9999 111.373 72.9999 111.906V112.278H68.5965V111.519H72.1073C72.1073 111.197 72.0428 110.909 71.9139 110.656C71.7875 110.403 71.6065 110.204 71.3709 110.058C71.1379 109.911 70.8627 109.838 70.5453 109.838C70.1957 109.838 69.8932 109.925 69.6379 110.098C69.385 110.269 69.1904 110.493 69.054 110.768C68.9176 111.043 68.8494 111.338 68.8494 111.653V112.159C68.8494 112.59 68.9238 112.956 69.0726 113.256C69.2238 113.553 69.4333 113.78 69.7011 113.936C69.9689 114.09 70.28 114.167 70.6346 114.167C70.8651 114.167 71.0734 114.135 71.2594 114.07C71.4478 114.003 71.6102 113.904 71.7465 113.773C71.8829 113.639 71.9883 113.473 72.0627 113.274L72.9106 113.512C72.8213 113.8 72.6713 114.053 72.4606 114.271C72.2499 114.487 71.9895 114.655 71.6796 114.777C71.3697 114.896 71.0213 114.955 70.6346 114.955Z" fill="#1C1C1C"/>
<path d="M32.7899 144.165V151.782H31.8676V144.165H32.7899ZM35.3979 148.345V151.782H34.5202V146.069H35.3681V146.962H35.4425C35.5764 146.672 35.7797 146.439 36.0524 146.263C36.3252 146.084 36.6772 145.995 37.1086 145.995C37.4954 145.995 37.8338 146.074 38.1239 146.233C38.414 146.389 38.6396 146.627 38.8008 146.947C38.9619 147.264 39.0425 147.666 39.0425 148.152V151.782H38.1648V148.211C38.1648 147.763 38.0483 147.413 37.8153 147.163C37.5822 146.91 37.2624 146.783 36.8557 146.783C36.5756 146.783 36.3252 146.844 36.1045 146.966C35.8863 147.087 35.714 147.264 35.5876 147.497C35.4611 147.73 35.3979 148.013 35.3979 148.345ZM44.6926 147.349L43.9042 147.572C43.8546 147.44 43.7815 147.313 43.6848 147.189C43.5906 147.062 43.4616 146.958 43.298 146.876C43.1344 146.795 42.9249 146.754 42.6695 146.754C42.3199 146.754 42.0286 146.834 41.7955 146.995C41.5649 147.154 41.4497 147.356 41.4497 147.602C41.4497 147.82 41.529 147.992 41.6877 148.119C41.8463 148.245 42.0943 148.35 42.4315 148.435L43.2794 148.643C43.7901 148.767 44.1707 148.957 44.4211 149.212C44.6716 149.465 44.7968 149.791 44.7968 150.19C44.7968 150.517 44.7025 150.81 44.5141 151.068C44.3282 151.326 44.0678 151.529 43.7331 151.678C43.3984 151.826 43.0092 151.901 42.5654 151.901C41.9827 151.901 41.5005 151.774 41.1187 151.521C40.7368 151.269 40.4951 150.899 40.3935 150.413L41.2265 150.205C41.3058 150.512 41.4558 150.743 41.6765 150.897C41.8997 151.05 42.191 151.127 42.5505 151.127C42.9596 151.127 43.2844 151.04 43.5249 150.867C43.7678 150.691 43.8893 150.48 43.8893 150.235C43.8893 150.036 43.8199 149.87 43.6811 149.736C43.5422 149.6 43.329 149.498 43.0414 149.431L42.0893 149.208C41.5662 149.084 41.1819 148.892 40.9364 148.632C40.6935 148.369 40.572 148.04 40.572 147.646C40.572 147.324 40.6625 147.039 40.8435 146.791C41.0269 146.543 41.2761 146.348 41.591 146.207C41.9083 146.066 42.2678 145.995 42.6695 145.995C43.2348 145.995 43.6786 146.119 44.0009 146.367C44.3257 146.615 44.5563 146.942 44.6926 147.349ZM48.6022 146.069V146.813H45.6419V146.069H48.6022ZM46.5047 144.701H47.3824V150.145C47.3824 150.393 47.4183 150.579 47.4903 150.703C47.5646 150.825 47.6588 150.907 47.7729 150.949C47.8894 150.988 48.0122 151.008 48.1411 151.008C48.2378 151.008 48.3171 151.003 48.3791 150.993C48.4411 150.981 48.4907 150.971 48.5279 150.964L48.7064 151.752C48.6469 151.774 48.5638 151.797 48.4572 151.819C48.3506 151.844 48.2155 151.856 48.0518 151.856C47.8039 151.856 47.5609 151.803 47.3229 151.696C47.0874 151.59 46.8915 151.427 46.7353 151.209C46.5816 150.991 46.5047 150.716 46.5047 150.383V144.701ZM52.0181 151.901C51.5421 151.901 51.1219 151.78 50.7574 151.54C50.3929 151.297 50.1078 150.955 49.902 150.514C49.6962 150.07 49.5933 149.545 49.5933 148.94C49.5933 148.34 49.6962 147.82 49.902 147.378C50.1078 146.937 50.3942 146.596 50.7611 146.356C51.1281 146.115 51.552 145.995 52.033 145.995C52.4049 145.995 52.6987 146.057 52.9144 146.181C53.1326 146.302 53.2987 146.441 53.4128 146.597C53.5293 146.751 53.6198 146.878 53.6843 146.977H53.7586V146.069H54.6363V151.782H53.7884V150.904H53.6843C53.6198 151.008 53.5281 151.14 53.4091 151.298C53.29 151.454 53.1202 151.595 52.8995 151.719C52.6789 151.84 52.3851 151.901 52.0181 151.901ZM52.1372 151.112C52.4892 151.112 52.7867 151.021 53.0297 150.837C53.2727 150.651 53.4574 150.395 53.5838 150.067C53.7103 149.738 53.7735 149.357 53.7735 148.926C53.7735 148.499 53.7115 148.126 53.5876 147.806C53.4636 147.484 53.2801 147.233 53.0372 147.055C52.7942 146.874 52.4942 146.783 52.1372 146.783C51.7652 146.783 51.4553 146.879 51.2074 147.07C50.9619 147.258 50.7772 147.515 50.6533 147.84C50.5318 148.162 50.471 148.524 50.471 148.926C50.471 149.332 50.533 149.702 50.657 150.034C50.7834 150.364 50.9694 150.626 51.2148 150.822C51.4628 151.016 51.7702 151.112 52.1372 151.112ZM58.6714 154.043C58.2475 154.043 57.883 153.988 57.5781 153.879C57.2731 153.773 57.019 153.631 56.8157 153.455C56.6148 153.282 56.4549 153.096 56.3359 152.897L57.0351 152.407C57.1144 152.511 57.2148 152.63 57.3363 152.764C57.4578 152.9 57.6239 153.018 57.8347 153.117C58.0479 153.219 58.3268 153.269 58.6714 153.269C59.1326 153.269 59.5132 153.158 59.8132 152.935C60.1132 152.711 60.2632 152.362 60.2632 151.886V150.726H60.1888C60.1243 150.83 60.0326 150.959 59.9136 151.112C59.7971 151.264 59.6285 151.399 59.4078 151.518C59.1896 151.634 58.8946 151.692 58.5227 151.692C58.0615 151.692 57.6475 151.583 57.2805 151.365C56.9161 151.147 56.6272 150.83 56.414 150.413C56.2033 149.997 56.0979 149.491 56.0979 148.896C56.0979 148.311 56.2008 147.801 56.4066 147.367C56.6124 146.931 56.8987 146.594 57.2657 146.356C57.6326 146.115 58.0566 145.995 58.5376 145.995C58.9095 145.995 59.2045 146.057 59.4227 146.181C59.6433 146.302 59.8119 146.441 59.9285 146.597C60.0475 146.751 60.1392 146.878 60.2037 146.977H60.2929V146.069H61.1409V151.945C61.1409 152.436 61.0293 152.835 60.8062 153.143C60.5855 153.453 60.288 153.68 59.9136 153.823C59.5417 153.97 59.1276 154.043 58.6714 154.043ZM58.6417 150.904C58.9938 150.904 59.2913 150.823 59.5343 150.662C59.7772 150.501 59.9619 150.269 60.0884 149.967C60.2148 149.664 60.2781 149.302 60.2781 148.881C60.2781 148.469 60.2161 148.106 60.0921 147.791C59.9681 147.476 59.7847 147.23 59.5417 147.051C59.2987 146.873 58.9987 146.783 58.6417 146.783C58.2698 146.783 57.9599 146.878 57.7119 147.066C57.4665 147.254 57.2818 147.507 57.1578 147.825C57.0363 148.142 56.9756 148.494 56.9756 148.881C56.9756 149.278 57.0376 149.628 57.1615 149.933C57.288 150.236 57.4739 150.474 57.7194 150.647C57.9673 150.819 58.2748 150.904 58.6417 150.904ZM62.7475 151.782V146.069H63.5954V146.932H63.6549C63.7591 146.65 63.9475 146.42 64.2202 146.244C64.4929 146.068 64.8004 145.98 65.1425 145.98C65.207 145.98 65.2876 145.981 65.3843 145.984C65.481 145.986 65.5541 145.99 65.6037 145.995V146.888C65.5739 146.88 65.5057 146.869 65.3991 146.854C65.295 146.837 65.1847 146.828 65.0681 146.828C64.7905 146.828 64.5425 146.886 64.3243 147.003C64.1086 147.117 63.9376 147.276 63.8111 147.479C63.6872 147.68 63.6252 147.909 63.6252 148.167V151.782H62.7475ZM68.6272 151.901C68.1512 151.901 67.731 151.78 67.3665 151.54C67.002 151.297 66.7169 150.955 66.5111 150.514C66.3053 150.07 66.2024 149.545 66.2024 148.94C66.2024 148.34 66.3053 147.82 66.5111 147.378C66.7169 146.937 67.0033 146.596 67.3702 146.356C67.7371 146.115 68.1611 145.995 68.6421 145.995C69.014 145.995 69.3078 146.057 69.5235 146.181C69.7417 146.302 69.9078 146.441 70.0219 146.597C70.1384 146.751 70.2289 146.878 70.2933 146.977H70.3677V146.069H71.2454V151.782H70.3975V150.904H70.2933C70.2289 151.008 70.1371 151.14 70.0181 151.298C69.8991 151.454 69.7293 151.595 69.5086 151.719C69.288 151.84 68.9942 151.901 68.6272 151.901ZM68.7462 151.112C69.0983 151.112 69.3958 151.021 69.6388 150.837C69.8818 150.651 70.0665 150.395 70.1929 150.067C70.3194 149.738 70.3826 149.357 70.3826 148.926C70.3826 148.499 70.3206 148.126 70.1967 147.806C70.0727 147.484 69.8892 147.233 69.6462 147.055C69.4033 146.874 69.1033 146.783 68.7462 146.783C68.3743 146.783 68.0644 146.879 67.8165 147.07C67.571 147.258 67.3863 147.515 67.2624 147.84C67.1409 148.162 67.0801 148.524 67.0801 148.926C67.0801 149.332 67.1421 149.702 67.2661 150.034C67.3925 150.364 67.5785 150.626 67.8239 150.822C68.0719 151.016 68.3793 151.112 68.7462 151.112ZM72.9748 151.782V146.069H73.8227V146.962H73.8971C74.0161 146.657 74.2082 146.42 74.4735 146.252C74.7388 146.08 75.0574 145.995 75.4293 145.995C75.8062 145.995 76.1198 146.08 76.3702 146.252C76.6231 146.42 76.8202 146.657 76.9615 146.962H77.021C77.1673 146.667 77.3867 146.433 77.6793 146.259C77.9719 146.083 78.3227 145.995 78.7318 145.995C79.2425 145.995 79.6603 146.155 79.9851 146.475C80.3099 146.792 80.4723 147.287 80.4723 147.959V151.782H79.5946V147.959C79.5946 147.537 79.4793 147.236 79.2487 147.055C79.0181 146.874 78.7467 146.783 78.4343 146.783C78.0326 146.783 77.7214 146.905 77.5008 147.148C77.2801 147.388 77.1698 147.693 77.1698 148.063V151.782H76.2772V147.869C76.2772 147.545 76.1719 147.283 75.9611 147.085C75.7504 146.884 75.4789 146.783 75.1467 146.783C74.9186 146.783 74.7053 146.844 74.507 146.966C74.3111 147.087 74.1524 147.256 74.031 147.471C73.9119 147.685 73.8524 147.931 73.8524 148.211V151.782H72.9748Z" fill="#1C1C1C"/>
<path d="M31.8676 188.728V181.111H34.4412C35.0387 181.111 35.5271 181.219 35.9065 181.435C36.2883 181.648 36.5709 181.937 36.7544 182.301C36.9379 182.666 37.0296 183.072 37.0296 183.521C37.0296 183.97 36.9379 184.378 36.7544 184.744C36.5734 185.111 36.2932 185.404 35.9139 185.622C35.5346 185.838 35.0486 185.946 34.4561 185.946H32.6114V185.128H34.4263C34.8354 185.128 35.1639 185.057 35.4118 184.916C35.6598 184.774 35.8395 184.583 35.9511 184.343C36.0651 184.1 36.1222 183.826 36.1222 183.521C36.1222 183.216 36.0651 182.943 35.9511 182.703C35.8395 182.462 35.6585 182.274 35.4081 182.137C35.1577 181.999 34.8255 181.929 34.4114 181.929H32.7899V188.728H31.8676ZM38.3963 188.728V183.015H39.274V188.728H38.3963ZM38.8426 182.063C38.6716 182.063 38.524 182.005 38.4001 181.888C38.2786 181.772 38.2178 181.632 38.2178 181.468C38.2178 181.304 38.2786 181.164 38.4001 181.048C38.524 180.931 38.6716 180.873 38.8426 180.873C39.0137 180.873 39.16 180.931 39.2815 181.048C39.4054 181.164 39.4674 181.304 39.4674 181.468C39.4674 181.632 39.4054 181.772 39.2815 181.888C39.16 182.005 39.0137 182.063 38.8426 182.063ZM41.7593 185.291V188.728H40.8816V183.015H41.7295V183.908H41.8039C41.9378 183.618 42.1411 183.385 42.4138 183.209C42.6865 183.03 43.0386 182.941 43.47 182.941C43.8568 182.941 44.1952 183.02 44.4853 183.179C44.7754 183.335 45.001 183.573 45.1622 183.893C45.3233 184.21 45.4039 184.612 45.4039 185.098V188.728H44.5262V185.157C44.5262 184.709 44.4097 184.359 44.1766 184.109C43.9436 183.856 43.6237 183.729 43.2171 183.729C42.9369 183.729 42.6865 183.79 42.4659 183.911C42.2477 184.033 42.0754 184.21 41.9489 184.443C41.8225 184.676 41.7593 184.959 41.7593 185.291ZM49.492 183.015V183.759H46.5317V183.015H49.492ZM47.3945 181.647H48.2722V187.091C48.2722 187.339 48.3081 187.525 48.38 187.649C48.4544 187.771 48.5486 187.852 48.6627 187.894C48.7792 187.934 48.9019 187.954 49.0308 187.954C49.1275 187.954 49.2069 187.949 49.2689 187.939C49.3308 187.927 49.3804 187.917 49.4176 187.909L49.5961 188.698C49.5366 188.72 49.4536 188.742 49.347 188.765C49.2404 188.79 49.1052 188.802 48.9416 188.802C48.6937 188.802 48.4507 188.749 48.2127 188.642C47.9771 188.535 47.7813 188.373 47.6251 188.155C47.4713 187.937 47.3945 187.661 47.3945 187.329V181.647ZM53.1459 188.847C52.5955 188.847 52.1207 188.725 51.7216 188.482C51.3249 188.237 51.0187 187.894 50.803 187.456C50.5897 187.014 50.4831 186.501 50.4831 185.916C50.4831 185.331 50.5897 184.815 50.803 184.369C51.0187 183.92 51.3187 183.571 51.703 183.32C52.0897 183.067 52.541 182.941 53.0567 182.941C53.3542 182.941 53.648 182.99 53.9381 183.09C54.2282 183.189 54.4922 183.35 54.7302 183.573C54.9682 183.794 55.1579 184.086 55.2992 184.451C55.4406 184.815 55.5112 185.264 55.5112 185.797V186.169H51.1079V185.41H54.6187C54.6187 185.088 54.5542 184.8 54.4253 184.547C54.2988 184.294 54.1178 184.095 53.8823 183.949C53.6492 183.802 53.374 183.729 53.0567 183.729C52.7071 183.729 52.4046 183.816 52.1492 183.99C51.8963 184.161 51.7017 184.384 51.5654 184.659C51.429 184.934 51.3608 185.229 51.3608 185.544V186.05C51.3608 186.481 51.4352 186.847 51.5839 187.147C51.7352 187.444 51.9447 187.671 52.2125 187.828C52.4802 187.981 52.7914 188.058 53.1459 188.058C53.3765 188.058 53.5848 188.026 53.7707 187.961C53.9592 187.894 54.1216 187.795 54.2579 187.664C54.3943 187.53 54.4997 187.364 54.574 187.166L55.422 187.404C55.3327 187.691 55.1827 187.944 54.972 188.162C54.7612 188.378 54.5009 188.547 54.191 188.668C53.8811 188.787 53.5327 188.847 53.1459 188.847ZM56.8463 188.728V183.015H57.6943V183.878H57.7538C57.8579 183.595 58.0463 183.366 58.3191 183.19C58.5918 183.014 58.8992 182.926 59.2414 182.926C59.3058 182.926 59.3864 182.927 59.4831 182.93C59.5798 182.932 59.653 182.936 59.7025 182.941V183.833C59.6728 183.826 59.6046 183.815 59.498 183.8C59.3939 183.782 59.2835 183.774 59.167 183.774C58.8893 183.774 58.6414 183.832 58.4232 183.949C58.2075 184.063 58.0364 184.221 57.91 184.425C57.786 184.625 57.724 184.855 57.724 185.113V188.728H56.8463ZM62.9641 188.847C62.4137 188.847 61.9389 188.725 61.5397 188.482C61.143 188.237 60.8368 187.894 60.6211 187.456C60.4079 187.014 60.3013 186.501 60.3013 185.916C60.3013 185.331 60.4079 184.815 60.6211 184.369C60.8368 183.92 61.1368 183.571 61.5211 183.32C61.9079 183.067 62.3592 182.941 62.8749 182.941C63.1724 182.941 63.4662 182.99 63.7563 183.09C64.0463 183.189 64.3104 183.35 64.5484 183.573C64.7864 183.794 64.9761 184.086 65.1174 184.451C65.2587 184.815 65.3294 185.264 65.3294 185.797V186.169H60.9261V185.41H64.4368C64.4368 185.088 64.3724 184.8 64.2435 184.547C64.117 184.294 63.936 184.095 63.7005 183.949C63.4674 183.802 63.1922 183.729 62.8749 183.729C62.5253 183.729 62.2228 183.816 61.9674 183.99C61.7145 184.161 61.5199 184.384 61.3835 184.659C61.2472 184.934 61.179 185.229 61.179 185.544V186.05C61.179 186.481 61.2534 186.847 61.4021 187.147C61.5534 187.444 61.7629 187.671 62.0306 187.828C62.2984 187.981 62.6096 188.058 62.9641 188.058C63.1947 188.058 63.403 188.026 63.5889 187.961C63.7773 187.894 63.9397 187.795 64.0761 187.664C64.2125 187.53 64.3178 187.364 64.3922 187.166L65.2401 187.404C65.1509 187.691 65.0009 187.944 64.7901 188.162C64.5794 188.378 64.3191 188.547 64.0092 188.668C63.6992 188.787 63.3509 188.847 62.9641 188.847ZM70.7108 184.294L69.9224 184.518C69.8728 184.386 69.7997 184.259 69.703 184.135C69.6087 184.008 69.4798 183.904 69.3162 183.822C69.1525 183.74 68.943 183.699 68.6877 183.699C68.3381 183.699 68.0468 183.78 67.8137 183.941C67.5831 184.1 67.4678 184.302 67.4678 184.547C67.4678 184.766 67.5472 184.938 67.7058 185.064C67.8645 185.191 68.1125 185.296 68.4497 185.38L69.2976 185.589C69.8083 185.713 70.1889 185.902 70.4393 186.158C70.6897 186.411 70.8149 186.737 70.8149 187.136C70.8149 187.463 70.7207 187.756 70.5323 188.013C70.3463 188.271 70.086 188.475 69.7513 188.623C69.4166 188.772 69.0273 188.847 68.5835 188.847C68.0009 188.847 67.5187 188.72 67.1368 188.467C66.755 188.214 66.5133 187.845 66.4116 187.359L67.2447 187.151C67.324 187.458 67.474 187.689 67.6947 187.842C67.9178 187.996 68.2092 188.073 68.5687 188.073C68.9778 188.073 69.3025 187.986 69.543 187.813C69.786 187.637 69.9075 187.426 69.9075 187.18C69.9075 186.982 69.8381 186.816 69.6992 186.682C69.5604 186.546 69.3472 186.444 69.0596 186.377L68.1075 186.154C67.5844 186.03 67.2001 185.838 66.9546 185.578C66.7116 185.315 66.5901 184.986 66.5901 184.592C66.5901 184.27 66.6806 183.985 66.8616 183.737C67.0451 183.489 67.2943 183.294 67.6092 183.153C67.9265 183.011 68.286 182.941 68.6877 182.941C69.253 182.941 69.6968 183.065 70.0191 183.313C70.3439 183.561 70.5744 183.888 70.7108 184.294ZM74.6204 183.015V183.759H71.6601V183.015H74.6204ZM72.5229 181.647H73.4006V187.091C73.4006 187.339 73.4365 187.525 73.5084 187.649C73.5828 187.771 73.677 187.852 73.7911 187.894C73.9076 187.934 74.0303 187.954 74.1593 187.954C74.2559 187.954 74.3353 187.949 74.3973 187.939C74.4593 187.927 74.5088 187.917 74.546 187.909L74.7245 188.698C74.665 188.72 74.582 188.742 74.4754 188.765C74.3688 188.79 74.2336 188.802 74.07 188.802C73.8221 188.802 73.5791 188.749 73.3411 188.642C73.1055 188.535 72.9097 188.373 72.7535 188.155C72.5998 187.937 72.5229 187.661 72.5229 187.329V181.647Z" fill="#1C1C1C"/>
<path d="M31.8676 225.673V218.056H36.4346V218.875H32.7899V221.448H36.0924V222.266H32.7899V225.673H31.8676ZM39.6329 225.792C39.1569 225.792 38.7366 225.672 38.3722 225.431C38.0077 225.188 37.7226 224.846 37.5168 224.405C37.311 223.961 37.2081 223.436 37.2081 222.832C37.2081 222.232 37.311 221.711 37.5168 221.27C37.7226 220.828 38.0089 220.487 38.3759 220.247C38.7428 220.006 39.1668 219.886 39.6478 219.886C40.0197 219.886 40.3135 219.948 40.5292 220.072C40.7474 220.194 40.9135 220.332 41.0275 220.489C41.1441 220.642 41.2346 220.769 41.299 220.868H41.3734V219.96H42.2511V225.673H41.4032V224.795H41.299C41.2346 224.899 41.1428 225.031 41.0238 225.189C40.9048 225.346 40.735 225.486 40.5143 225.61C40.2937 225.731 39.9999 225.792 39.6329 225.792ZM39.7519 225.003C40.104 225.003 40.4015 224.912 40.6445 224.728C40.8875 224.542 41.0722 224.286 41.1986 223.958C41.3251 223.629 41.3883 223.248 41.3883 222.817C41.3883 222.39 41.3263 222.017 41.2023 221.697C41.0784 221.375 40.8949 221.125 40.6519 220.946C40.4089 220.765 40.1089 220.675 39.7519 220.675C39.38 220.675 39.0701 220.77 38.8222 220.961C38.5767 221.149 38.392 221.406 38.268 221.731C38.1466 222.053 38.0858 222.415 38.0858 222.817C38.0858 223.223 38.1478 223.593 38.2718 223.925C38.3982 224.255 38.5842 224.517 38.8296 224.713C39.0775 224.907 39.385 225.003 39.7519 225.003ZM46.3011 225.792C45.7656 225.792 45.3044 225.665 44.9176 225.413C44.5308 225.16 44.2333 224.811 44.0251 224.367C43.8168 223.924 43.7127 223.417 43.7127 222.846C43.7127 222.266 43.8193 221.754 44.0325 221.31C44.2482 220.864 44.5482 220.516 44.9325 220.265C45.3193 220.013 45.7705 219.886 46.2862 219.886C46.6879 219.886 47.0499 219.96 47.3722 220.109C47.6945 220.258 47.9585 220.466 48.1643 220.734C48.3701 221.002 48.4978 221.314 48.5474 221.671H47.6697C47.6027 221.411 47.454 221.18 47.2234 220.979C46.9953 220.776 46.6879 220.675 46.3011 220.675C45.9589 220.675 45.6589 220.764 45.4011 220.942C45.1457 221.118 44.9461 221.367 44.8023 221.69C44.661 222.01 44.5904 222.385 44.5904 222.817C44.5904 223.258 44.6598 223.642 44.7986 223.97C44.9399 224.297 45.1383 224.551 45.3937 224.732C45.6515 224.913 45.954 225.003 46.3011 225.003C46.5292 225.003 46.7362 224.964 46.9222 224.884C47.1081 224.805 47.2656 224.691 47.3945 224.542C47.5234 224.394 47.6151 224.215 47.6697 224.007H48.5474C48.4978 224.344 48.3751 224.648 48.1792 224.918C47.9858 225.186 47.7292 225.399 47.4094 225.558C47.092 225.714 46.7226 225.792 46.3011 225.792ZM52.2255 225.792C51.6751 225.792 51.2003 225.67 50.8011 225.427C50.4044 225.182 50.0982 224.84 49.8825 224.401C49.6693 223.96 49.5627 223.446 49.5627 222.861C49.5627 222.276 49.6693 221.76 49.8825 221.314C50.0982 220.865 50.3982 220.516 50.7825 220.265C51.1693 220.013 51.6205 219.886 52.1362 219.886C52.4337 219.886 52.7275 219.936 53.0176 220.035C53.3077 220.134 53.5718 220.295 53.8098 220.518C54.0478 220.739 54.2375 221.032 54.3788 221.396C54.5201 221.76 54.5908 222.209 54.5908 222.742V223.114H50.1875V222.355H53.6982C53.6982 222.033 53.6337 221.746 53.5048 221.493C53.3784 221.24 53.1974 221.04 52.9618 220.894C52.7288 220.748 52.4536 220.675 52.1362 220.675C51.7866 220.675 51.4842 220.761 51.2288 220.935C50.9759 221.106 50.7813 221.329 50.6449 221.604C50.5085 221.879 50.4404 222.175 50.4404 222.489V222.995C50.4404 223.427 50.5147 223.792 50.6635 224.092C50.8147 224.39 51.0242 224.617 51.292 224.773C51.5598 224.927 51.8709 225.003 52.2255 225.003C52.4561 225.003 52.6643 224.971 52.8503 224.907C53.0387 224.84 53.2011 224.741 53.3375 224.609C53.4738 224.475 53.5792 224.309 53.6536 224.111L54.5015 224.349C54.4123 224.636 54.2623 224.889 54.0515 225.108C53.8408 225.323 53.5804 225.492 53.2705 225.613C52.9606 225.732 52.6123 225.792 52.2255 225.792ZM56.0449 225.673V218.056H56.9226V220.868H56.997C57.0614 220.769 57.1507 220.642 57.2647 220.489C57.3813 220.332 57.5474 220.194 57.7631 220.072C57.9813 219.948 58.2763 219.886 58.6482 219.886C59.1292 219.886 59.5532 220.006 59.9201 220.247C60.287 220.487 60.5734 220.828 60.7792 221.27C60.985 221.711 61.0879 222.232 61.0879 222.832C61.0879 223.436 60.985 223.961 60.7792 224.405C60.5734 224.846 60.2883 225.188 59.9238 225.431C59.5594 225.672 59.1391 225.792 58.6631 225.792C58.2961 225.792 58.0023 225.731 57.7817 225.61C57.561 225.486 57.3912 225.346 57.2722 225.189C57.1532 225.031 57.0614 224.899 56.997 224.795H56.8928V225.673H56.0449ZM56.9077 222.817C56.9077 223.248 56.9709 223.629 57.0974 223.958C57.2238 224.286 57.4085 224.542 57.6515 224.728C57.8945 224.912 58.192 225.003 58.5441 225.003C58.911 225.003 59.2172 224.907 59.4627 224.713C59.7106 224.517 59.8966 224.255 60.0205 223.925C60.147 223.593 60.2102 223.223 60.2102 222.817C60.2102 222.415 60.1482 222.053 60.0242 221.731C59.9028 221.406 59.718 221.149 59.4701 220.961C59.2247 220.77 58.916 220.675 58.5441 220.675C58.187 220.675 57.887 220.765 57.6441 220.946C57.4011 221.125 57.2176 221.375 57.0937 221.697C56.9697 222.017 56.9077 222.39 56.9077 222.817ZM64.7511 225.792C64.2354 225.792 63.7829 225.669 63.3937 225.424C63.0069 225.178 62.7044 224.835 62.4862 224.394C62.2705 223.952 62.1627 223.436 62.1627 222.846C62.1627 222.251 62.2705 221.732 62.4862 221.288C62.7044 220.844 63.0069 220.5 63.3937 220.254C63.7829 220.009 64.2354 219.886 64.7511 219.886C65.2668 219.886 65.718 220.009 66.1048 220.254C66.4941 220.5 66.7966 220.844 67.0123 221.288C67.2304 221.732 67.3395 222.251 67.3395 222.846C67.3395 223.436 67.2304 223.952 67.0123 224.394C66.7966 224.835 66.4941 225.178 66.1048 225.424C65.718 225.669 65.2668 225.792 64.7511 225.792ZM64.7511 225.003C65.1428 225.003 65.4651 224.903 65.718 224.702C65.9709 224.501 66.1581 224.237 66.2796 223.91C66.4011 223.583 66.4618 223.228 66.4618 222.846C66.4618 222.465 66.4011 222.109 66.2796 221.779C66.1581 221.449 65.9709 221.183 65.718 220.979C65.4651 220.776 65.1428 220.675 64.7511 220.675C64.3594 220.675 64.037 220.776 63.7842 220.979C63.5313 221.183 63.3441 221.449 63.2226 221.779C63.1011 222.109 63.0404 222.465 63.0404 222.846C63.0404 223.228 63.1011 223.583 63.2226 223.91C63.3441 224.237 63.5313 224.501 63.7842 224.702C64.037 224.903 64.3594 225.003 64.7511 225.003ZM71 225.792C70.4843 225.792 70.0318 225.669 69.6425 225.424C69.2557 225.178 68.9533 224.835 68.7351 224.394C68.5194 223.952 68.4115 223.436 68.4115 222.846C68.4115 222.251 68.5194 221.732 68.7351 221.288C68.9533 220.844 69.2557 220.5 69.6425 220.254C70.0318 220.009 70.4843 219.886 71 219.886C71.5157 219.886 71.9669 220.009 72.3537 220.254C72.7429 220.5 73.0454 220.844 73.2611 221.288C73.4793 221.732 73.5884 222.251 73.5884 222.846C73.5884 223.436 73.4793 223.952 73.2611 224.394C73.0454 224.835 72.7429 225.178 72.3537 225.424C71.9669 225.669 71.5157 225.792 71 225.792ZM71 225.003C71.3917 225.003 71.714 224.903 71.9669 224.702C72.2198 224.501 72.407 224.237 72.5285 223.91C72.65 223.583 72.7107 223.228 72.7107 222.846C72.7107 222.465 72.65 222.109 72.5285 221.779C72.407 221.449 72.2198 221.183 71.9669 220.979C71.714 220.776 71.3917 220.675 71 220.675C70.6082 220.675 70.2859 220.776 70.033 220.979C69.7801 221.183 69.5929 221.449 69.4714 221.779C69.35 222.109 69.2892 222.465 69.2892 222.846C69.2892 223.228 69.35 223.583 69.4714 223.91C69.5929 224.237 69.7801 224.501 70.033 224.702C70.2859 224.903 70.6082 225.003 71 225.003ZM75.7463 223.59L75.7315 222.504H75.91L78.4092 219.96H79.4951L76.8323 222.653H76.7579L75.7463 223.59ZM74.9282 225.673V218.056H75.8058V225.673H74.9282ZM78.5579 225.673L76.3265 222.846L76.9513 222.236L79.6736 225.673H78.5579Z" fill="#1C1C1C"/>
<path d="M31.4511 255.82V255.002H37.1635V255.82H34.7685V262.618H33.8461V255.82H31.4511ZM39.1076 262.618L37.3671 256.906H38.2894L39.5241 261.279H39.5836L40.8035 256.906H41.7407L42.9456 261.264H43.0051L44.2398 256.906H45.1622L43.4217 262.618H42.5588L41.3093 258.23H41.22L39.9704 262.618H39.1076ZM46.3225 262.618V256.906H47.2002V262.618H46.3225ZM46.7688 255.954C46.5977 255.954 46.4502 255.895 46.3262 255.779C46.2047 255.662 46.144 255.522 46.144 255.359C46.144 255.195 46.2047 255.055 46.3262 254.938C46.4502 254.822 46.5977 254.764 46.7688 254.764C46.9398 254.764 47.0861 254.822 47.2076 254.938C47.3316 255.055 47.3936 255.195 47.3936 255.359C47.3936 255.522 47.3316 255.662 47.2076 255.779C47.0861 255.895 46.9398 255.954 46.7688 255.954ZM51.292 256.906V257.65H48.3317V256.906H51.292ZM49.1945 255.537H50.0722V260.982C50.0722 261.23 50.1081 261.416 50.18 261.54C50.2544 261.661 50.3486 261.743 50.4627 261.785C50.5792 261.825 50.7019 261.845 50.8308 261.845C50.9275 261.845 51.0069 261.84 51.0689 261.83C51.1308 261.817 51.1804 261.807 51.2176 261.8L51.3961 262.588C51.3366 262.611 51.2536 262.633 51.147 262.655C51.0404 262.68 50.9052 262.693 50.7416 262.693C50.4937 262.693 50.2507 262.639 50.0127 262.533C49.7771 262.426 49.5813 262.264 49.4251 262.045C49.2713 261.827 49.1945 261.552 49.1945 261.22V255.537ZM55.0966 256.906V257.65H52.1362V256.906H55.0966ZM52.999 255.537H53.8767V260.982C53.8767 261.23 53.9127 261.416 53.9846 261.54C54.0589 261.661 54.1532 261.743 54.2672 261.785C54.3837 261.825 54.5065 261.845 54.6354 261.845C54.7321 261.845 54.8114 261.84 54.8734 261.83C54.9354 261.817 54.985 261.807 55.0222 261.8L55.2007 262.588C55.1412 262.611 55.0581 262.633 54.9515 262.655C54.8449 262.68 54.7098 262.693 54.5461 262.693C54.2982 262.693 54.0552 262.639 53.8172 262.533C53.5817 262.426 53.3858 262.264 53.2296 262.045C53.0759 261.827 52.999 261.552 52.999 261.22V255.537ZM58.7505 262.737C58.2001 262.737 57.7253 262.616 57.3261 262.373C56.9294 262.127 56.6232 261.785 56.4075 261.346C56.1943 260.905 56.0877 260.392 56.0877 259.807C56.0877 259.221 56.1943 258.706 56.4075 258.259C56.6232 257.811 56.9232 257.461 57.3075 257.211C57.6943 256.958 58.1455 256.831 58.6612 256.831C58.9587 256.831 59.2525 256.881 59.5426 256.98C59.8327 257.079 60.0968 257.24 60.3348 257.464C60.5728 257.684 60.7625 257.977 60.9038 258.341C61.0451 258.706 61.1158 259.155 61.1158 259.688V260.059H56.7125V259.301H60.2232C60.2232 258.978 60.1587 258.691 60.0298 258.438C59.9034 258.185 59.7224 257.986 59.4868 257.839C59.2538 257.693 58.9786 257.62 58.6612 257.62C58.3116 257.62 58.0092 257.707 57.7538 257.88C57.5009 258.051 57.3063 258.274 57.1699 258.55C57.0335 258.825 56.9654 259.12 56.9654 259.435V259.94C56.9654 260.372 57.0397 260.738 57.1885 261.038C57.3397 261.335 57.5492 261.562 57.817 261.718C58.0848 261.872 58.3959 261.949 58.7505 261.949C58.9811 261.949 59.1893 261.917 59.3753 261.852C59.5637 261.785 59.7261 261.686 59.8625 261.555C59.9988 261.421 60.1042 261.255 60.1786 261.056L61.0265 261.294C60.9373 261.582 60.7873 261.835 60.5765 262.053C60.3658 262.269 60.1054 262.437 59.7955 262.559C59.4856 262.678 59.1373 262.737 58.7505 262.737ZM62.4509 262.618V256.906H63.2988V257.769H63.3583C63.4625 257.486 63.6509 257.257 63.9236 257.081C64.1963 256.905 64.5038 256.817 64.8459 256.817C64.9104 256.817 64.991 256.818 65.0877 256.82C65.1844 256.823 65.2575 256.826 65.3071 256.831V257.724C65.2773 257.717 65.2092 257.705 65.1025 257.69C64.9984 257.673 64.8881 257.664 64.7715 257.664C64.4939 257.664 64.2459 257.723 64.0277 257.839C63.812 257.953 63.641 258.112 63.5145 258.315C63.3906 258.516 63.3286 258.745 63.3286 259.003V262.618H62.4509Z" fill="#1C1C1C"/>
<path d="M95.9082 73.8912C95.9082 73.3289 96.3641 72.873 96.9264 72.873H103.368C103.93 72.873 104.386 73.3289 104.386 73.8912V73.8912C104.386 74.4536 103.93 74.9094 103.368 74.9094H96.9264C96.3641 74.9094 95.9082 74.4536 95.9082 73.8912V73.8912Z" fill="#1C1C1C"/>
<path d="M106.131 73.8912C106.131 73.3289 106.587 72.873 107.149 72.873H113.591C114.153 72.873 114.609 73.3289 114.609 73.8912V73.8912C114.609 74.4536 114.153 74.9094 113.591 74.9094H107.149C106.587 74.9094 106.131 74.4536 106.131 73.8912V73.8912Z" fill="#1C1C1C" fill-opacity="0.4"/>
<path d="M116.355 73.8912C116.355 73.3289 116.811 72.873 117.374 72.873H123.815C124.378 72.873 124.833 73.3289 124.833 73.8912V73.8912C124.833 74.4536 124.378 74.9094 123.815 74.9094H117.374C116.811 74.9094 116.355 74.4536 116.355 73.8912V73.8912Z" fill="#1C1C1C" fill-opacity="0.1"/>
<path d="M95.9082 110.837C95.9082 110.274 96.3641 109.818 96.9264 109.818H111.035C111.598 109.818 112.054 110.274 112.054 110.837V110.837C112.054 111.399 111.598 111.855 111.035 111.855H96.9264C96.3641 111.855 95.9082 111.399 95.9082 110.837V110.837Z" fill="#1C1C1C"/>
<path d="M113.799 110.837C113.799 110.274 114.255 109.818 114.817 109.818H128.926C129.488 109.818 129.944 110.274 129.944 110.837V110.837C129.944 111.399 129.488 111.855 128.926 111.855H114.817C114.255 111.855 113.799 111.399 113.799 110.837V110.837Z" fill="#1C1C1C" fill-opacity="0.4"/>
<path d="M131.689 110.837C131.689 110.274 132.145 109.818 132.708 109.818H146.817C147.379 109.818 147.835 110.274 147.835 110.837V110.837C147.835 111.399 147.379 111.855 146.817 111.855H132.708C132.145 111.855 131.689 111.399 131.689 110.837V110.837Z" fill="#1C1C1C" fill-opacity="0.1"/>
<path d="M95.9082 147.782C95.9082 147.22 96.3641 146.764 96.9264 146.764H105.072C105.634 146.764 106.09 147.22 106.09 147.782V147.782C106.09 148.345 105.634 148.801 105.072 148.801H96.9264C96.3641 148.801 95.9082 148.345 95.9082 147.782V147.782Z" fill="#1C1C1C"/>
<path d="M107.836 147.782C107.836 147.22 108.292 146.764 108.854 146.764H117C117.562 146.764 118.018 147.22 118.018 147.782V147.782C118.018 148.345 117.562 148.801 117 148.801H108.854C108.292 148.801 107.836 148.345 107.836 147.782V147.782Z" fill="#1C1C1C" fill-opacity="0.4"/>
<path d="M119.764 147.782C119.764 147.22 120.22 146.764 120.782 146.764H128.927C129.49 146.764 129.945 147.22 129.945 147.782V147.782C129.945 148.345 129.49 148.801 128.927 148.801H120.782C120.22 148.801 119.764 148.345 119.764 147.782V147.782Z" fill="#1C1C1C" fill-opacity="0.1"/>
<path d="M95.9082 184.728C95.9082 184.165 96.3641 183.709 96.9264 183.709H116.999C117.561 183.709 118.017 184.165 118.017 184.728V184.728C118.017 185.29 117.561 185.746 116.999 185.746H96.9264C96.3641 185.746 95.9082 185.29 95.9082 184.728V184.728Z" fill="#1C1C1C"/>
<path d="M119.764 184.728C119.764 184.165 120.22 183.709 120.782 183.709H140.855C141.417 183.709 141.873 184.165 141.873 184.728V184.728C141.873 185.29 141.417 185.746 140.855 185.746H120.782C120.22 185.746 119.764 185.29 119.764 184.728V184.728Z" fill="#1C1C1C" fill-opacity="0.4"/>
<path d="M143.617 184.728C143.617 184.165 144.073 183.709 144.635 183.709H164.708C165.27 183.709 165.726 184.165 165.726 184.728V184.728C165.726 185.29 165.27 185.746 164.708 185.746H144.635C144.073 185.746 143.617 185.29 143.617 184.728V184.728Z" fill="#1C1C1C" fill-opacity="0.1"/>
<path d="M95.9082 221.673C95.9082 221.111 96.3641 220.655 96.9264 220.655H102.09C102.652 220.655 103.108 221.111 103.108 221.673V221.673C103.108 222.235 102.652 222.691 102.09 222.691H96.9264C96.3641 222.691 95.9082 222.235 95.9082 221.673V221.673Z" fill="#1C1C1C"/>
<path d="M104.854 221.673C104.854 221.111 105.309 220.655 105.872 220.655H111.035C111.598 220.655 112.054 221.111 112.054 221.673V221.673C112.054 222.235 111.598 222.691 111.035 222.691H105.872C105.309 222.691 104.854 222.235 104.854 221.673V221.673Z" fill="#1C1C1C" fill-opacity="0.4"/>
<path d="M113.799 221.673C113.799 221.111 114.255 220.655 114.817 220.655H119.981C120.543 220.655 120.999 221.111 120.999 221.673V221.673C120.999 222.235 120.543 222.691 119.981 222.691H114.817C114.255 222.691 113.799 222.235 113.799 221.673V221.673Z" fill="#1C1C1C" fill-opacity="0.1"/>
<path d="M95.9082 258.618C95.9082 258.056 96.3641 257.6 96.9264 257.6H107.457C108.02 257.6 108.475 258.056 108.475 258.618V258.618C108.475 259.181 108.02 259.636 107.457 259.636H96.9264C96.3641 259.636 95.9082 259.181 95.9082 258.618V258.618Z" fill="#1C1C1C"/>
<path d="M110.221 258.618C110.221 258.056 110.677 257.6 111.239 257.6H121.77C122.332 257.6 122.788 258.056 122.788 258.618V258.618C122.788 259.181 122.332 259.636 121.77 259.636H111.239C110.677 259.636 110.221 259.181 110.221 258.618V258.618Z" fill="#1C1C1C" fill-opacity="0.4"/>
<path d="M124.533 258.618C124.533 258.056 124.989 257.6 125.551 257.6H136.082C136.645 257.6 137.1 258.056 137.1 258.618V258.618C137.1 259.181 136.645 259.636 136.082 259.636H125.551C124.989 259.636 124.533 259.181 124.533 258.618V258.618Z" fill="#1C1C1C" fill-opacity="0.1"/>
</g>
<defs>
<filter id="filter0_d_2455_6983" x="0" y="0" width="196.291" height="308" filterUnits="userSpaceOnUse" color-interpolation-filters="sRGB">
<feFlood flood-opacity="0" result="BackgroundImageFix"/>
<feColorMatrix in="SourceAlpha" type="matrix" values="0 0 0 0 0 0 0 0 0 0 0 0 0 0 0 0 0 0 127 0" result="hardAlpha"/>
<feOffset dy="4"/>
<feGaussianBlur stdDeviation="5"/>
<feComposite in2="hardAlpha" operator="out"/>
<feColorMatrix type="matrix" values="0 0 0 0 0 0 0 0 0 0.213005 0 0 0 0 0.213005 0 0 0 0.15 0"/>
<feBlend mode="normal" in2="BackgroundImageFix" result="effect1_dropShadow_2455_6983"/>
<feBlend mode="normal" in="SourceGraphic" in2="effect1_dropShadow_2455_6983" result="shape"/>
</filter>
</defs>
</svg>
