<svg width="102" height="150" viewBox="0 0 102 150" fill="none" xmlns="http://www.w3.org/2000/svg">
<path d="M15.0957 98C15.0957 81.1984 15.0957 72.7976 17.9274 64.7454C20.4183 57.6624 24.3929 50.7783 29.2814 45.0797C34.839 38.6012 42.1143 34.4008 56.6649 26L60.129 24C74.6796 15.5992 81.9549 11.3988 87.5125 11.4599C92.4011 11.5137 96.3756 13.8084 98.8665 18.0152C101.698 22.7976 101.698 31.1984 101.698 48V52C101.698 68.8016 101.698 77.2024 98.8665 85.2546C96.3756 92.3376 92.4011 99.2217 87.5125 104.92C81.9549 111.399 74.6796 115.599 60.129 124L56.6649 126C42.1143 134.401 34.839 138.601 29.2814 138.54C24.3929 138.486 20.4183 136.192 17.9274 131.985C15.0957 127.202 15.0957 118.802 15.0957 102V98Z" fill="#40D47E" stroke="#333333" stroke-width="0.5"/>
<path d="M73.8644 75.534C73.937 75.0113 73.9729 74.5034 73.9716 74.0161C73.9607 73.8771 73.9314 73.7515 73.8846 73.6431C73.8846 73.6431 73.765 73.3499 72.4869 73.4494C72.4869 73.4494 72.1391 73.4476 71.4993 73.4674C71.4993 73.4674 70.8595 73.4871 70.3377 73.4925C70.3377 73.4925 69.8221 73.496 69.3562 73.4853C69.3562 73.4853 69.2786 73.4727 68.8903 73.4243C68.6805 73.3974 68.4632 73.3893 68.2397 73.4001C68.0767 73.4191 67.9026 73.4818 67.7272 73.5848C67.7272 73.5848 67.3716 73.8134 66.8669 74.7235C66.5343 75.3333 66.2286 75.9551 65.9522 76.5839C65.6821 77.2035 65.3886 77.8178 65.0732 78.4237C65.0732 78.4237 64.6042 79.3113 64.2843 79.5158C64.147 79.5951 64.0106 79.6478 63.8806 79.6718C63.8806 79.6718 63.6352 79.7274 63.5078 79.7363C63.5078 79.7363 63.379 79.748 63.0684 79.73C63.0684 79.73 62.7562 79.7148 62.719 79.7184C62.719 79.7184 60.2078 79.7677 58.3707 78.9312C57.1023 78.289 55.9865 77.3822 55.049 76.2315C55.049 76.2315 55.0303 76.2029 54.8269 75.9832C54.8269 75.9832 54.6235 75.7635 54.5551 75.6649C54.5551 75.6649 54.4853 75.5654 54.3828 75.3538C54.3283 75.2399 54.2912 75.1081 54.2725 74.962C54.2725 74.962 54.2601 74.5998 54.7384 73.7175C55.0674 73.1175 55.4174 72.5286 55.7866 71.9539C56.1606 71.3691 56.5105 70.7667 56.8333 70.1518C56.8333 70.1518 57.3085 69.2301 57.2899 68.8302C57.2728 68.6379 57.2199 68.4725 57.1346 68.3442C57.0102 68.1709 56.8711 68.0163 56.7184 67.8816C56.7184 67.8816 56.4404 67.6279 56.383 67.5821C56.383 67.5821 56.091 67.2558 55.7804 66.8702C55.7804 66.8702 55.4683 66.491 55.0956 66.0104C55.0956 66.0104 54.7244 65.5254 54.5101 65.2725C54.5101 65.2725 53.819 64.2764 53.4929 64.3625C53.3707 64.3939 53.2433 64.4547 53.1171 64.5418C52.6955 64.8311 52.2792 65.1676 51.8748 65.546C51.4662 65.9178 51.0666 66.3181 50.679 66.7438C50.679 66.7438 49.8125 67.7319 48.9195 70.3813C48.9195 70.3813 48.1073 72.8353 48.1974 74.6697C48.2168 75.0195 48.2552 75.3566 48.3123 75.6792C48.3841 76.032 48.4769 76.3671 48.5903 76.6825C48.5903 76.6825 48.7891 77.2133 48.9009 77.4608C48.9009 77.4608 49.0096 77.7082 49.3202 78.3323C49.3202 78.3323 49.6261 78.9608 49.6882 79.1042C50.1439 80.0603 50.6949 80.9108 51.3343 81.6452C52.5365 82.8362 53.9064 83.7798 55.4217 84.4605C55.4217 84.4605 57.9809 85.6242 60.3305 85.7417C61.3496 85.7693 62.4171 85.6555 63.5187 85.4019C63.5187 85.4019 63.6818 85.3579 64.407 85.201C64.407 85.201 65.1322 85.0459 65.4118 84.9796C65.4118 84.9796 65.6928 84.9123 66.2705 84.7276C66.6114 84.6165 66.9562 84.4809 67.3032 84.3215C68.7833 83.6039 70.2602 82.3091 71.4962 80.6455C71.4962 80.6455 73.2355 78.3699 73.5538 77.1479C73.6923 76.6007 73.7962 76.0609 73.8644 75.534Z" fill="white"/>
<path fill-rule="evenodd" clip-rule="evenodd" d="M48.2312 55.4064C52.1403 50.5408 56.5754 46.6062 61.0904 43.9987C64.9983 41.7433 68.8546 40.5466 72.3661 40.4996C75.8776 40.4526 78.9518 41.5565 81.3549 43.7274C83.7581 45.8983 85.427 49.079 86.2347 53.0277C87.0424 56.9764 86.9677 61.5892 86.0162 66.5152C85.0647 71.4412 83.2615 76.5508 80.7436 81.4555C78.2258 86.3603 75.0597 90.931 71.486 94.8201C67.9122 98.7092 64.025 101.814 60.1199 103.9C56.2147 105.985 52.3944 106.995 48.9495 106.853L35.3535 118.861L38.8476 101.399C36.5852 98.1938 35.3918 93.7627 35.3873 88.5519C35.3829 83.341 36.5676 77.5342 38.8223 71.7156C41.077 65.897 44.3222 60.272 48.2312 55.4064ZM63.3767 96.9038C68.2283 93.499 72.7553 88.3844 76.2067 82.4086C79.0885 77.4173 81.0867 72.0545 81.9657 66.9519C82.8448 61.8493 82.5681 57.2195 81.1683 53.6082C79.7685 49.9968 77.3039 47.5542 74.0649 46.5682C70.8259 45.5822 66.9474 46.0939 62.8865 48.043C58.8255 49.9921 54.7512 53.2974 51.1437 57.5695C47.5362 61.8415 44.5457 66.9023 42.5246 72.1556C40.5035 77.4088 39.536 82.6357 39.7361 87.2204C39.9362 91.805 41.2955 95.5564 43.654 98.0326L41.6352 108.107L49.5334 101.128C53.6405 101.799 58.5251 100.309 63.3767 96.9038Z" fill="white"/>
<path d="M87.5121 11.4598C81.9545 11.3987 74.6792 15.5991 60.1286 23.9999L56.665 25.9998C42.1144 34.4006 34.8395 38.6011 29.2819 45.0796C24.3933 50.7782 20.4183 57.6623 17.9274 64.7452C15.0957 72.7975 15.0954 81.1983 15.0954 97.9999V102C15.0954 118.801 15.0954 127.202 17.927 131.985C19.5755 134.769 21.8744 136.716 24.6577 137.729L10.568 132.601C7.78229 131.588 5.48185 129.641 3.83216 126.855C1.00043 122.072 1 113.671 1 96.8696V92.8696C1 76.068 1 67.6672 3.83173 59.615C6.3226 52.532 10.2974 45.6479 15.186 39.9492C20.7436 33.4708 28.0193 29.2705 42.5697 20.8698L46.0334 18.8696C60.584 10.4688 67.8591 6.26839 73.4167 6.32952C75.0676 6.34767 76.6145 6.62141 78.035 7.13803L92.1304 12.2683C90.7099 11.7517 89.163 11.478 87.5121 11.4598Z" fill="#27AE60"/>
<path d="M24.6577 137.729C21.8744 136.716 19.5755 134.769 17.927 131.985C15.0954 127.202 15.0954 118.801 15.0954 102V97.9999C15.0954 81.1983 15.0957 72.7975 17.9274 64.7452C20.4183 57.6623 24.3933 50.7782 29.2819 45.0796C34.8395 38.6011 42.1144 34.4006 56.665 25.9998L60.1286 23.9999C74.6792 15.5991 81.9545 11.3987 87.5121 11.4598C89.163 11.478 90.7099 11.7517 92.1304 12.2683L78.035 7.13803C76.6145 6.62141 75.0676 6.34767 73.4167 6.32952C67.8591 6.26839 60.584 10.4688 46.0334 18.8696L42.5697 20.8698C28.0193 29.2705 20.7436 33.4708 15.186 39.9492C10.2974 45.6479 6.3226 52.532 3.83173 59.615C1 67.6672 1 76.068 1 92.8696V96.8696C1 113.671 1.00043 122.072 3.83216 126.855C5.48185 129.641 7.78229 131.588 10.568 132.601L24.6577 137.729ZM24.6577 137.729L24.6634 137.731" stroke="#333333" stroke-width="0.5"/>
</svg>
