<svg width="102" height="150" viewBox="0 0 102 150" fill="none" xmlns="http://www.w3.org/2000/svg">
<path d="M14.9287 98C14.9287 81.1984 14.9287 72.7976 17.7604 64.7454C20.2513 57.6624 24.2259 50.7783 29.1145 45.0797C34.672 38.6012 41.9473 34.4008 56.4979 26L59.962 24C74.5126 15.5992 81.7879 11.3988 87.3455 11.4599C92.2341 11.5137 96.2087 13.8084 98.6995 18.0152C101.531 22.7976 101.531 31.1984 101.531 48V52C101.531 68.8016 101.531 77.2024 98.6995 85.2546C96.2087 92.3376 92.2341 99.2217 87.3455 104.92C81.7879 111.399 74.5126 115.599 59.962 124L56.4979 126C41.9473 134.401 34.672 138.601 29.1145 138.54C24.2259 138.486 20.2513 136.192 17.7604 131.985C14.9287 127.202 14.9287 118.802 14.9287 102V98Z" fill="#27333F" stroke="#333333" stroke-width="0.5"/>
<path d="M78.3071 56.7663V46.7089C66.9217 52.7271 66.5554 40.9921 66.5554 39.8695V39.7849L57.7554 44.8656V84.0359C57.7545 85.7291 57.2913 87.6458 56.4317 89.5132C55.5722 91.3806 54.36 93.1036 52.9678 94.4372C51.5756 95.7707 50.0741 96.6469 48.677 96.941C47.2799 97.2351 46.0584 96.9322 45.1861 96.0754C44.3139 95.2186 43.8354 93.8514 43.8188 92.1685C43.8021 90.4856 44.2481 88.5726 45.0933 86.7016C45.9385 84.8307 47.1399 83.0971 48.5265 81.7475C49.9131 80.3978 51.4144 79.5009 52.8167 79.1843V68.8115C52.1425 69.1009 51.4635 69.4429 50.7838 69.8354C47.6621 71.6378 44.6104 74.4685 42.0148 77.9698C39.4192 81.471 37.3961 85.4855 36.2015 89.5055C35.0068 93.5255 34.6943 97.3705 35.3033 100.554C35.9123 103.738 37.4156 106.118 39.623 107.392C41.8304 108.667 44.6428 108.779 47.7046 107.714C50.7663 106.65 53.9399 104.457 56.824 101.412C59.7081 98.3673 62.1732 94.6081 63.9076 90.6096C65.6419 86.6111 66.5676 82.5529 66.5676 78.9482C66.5676 78.6927 66.5676 78.4389 66.5524 78.1957L66.5524 58.9075C70.6044 60.8486 78.3071 56.7663 78.3071 56.7663Z" fill="#00F6EF"/>
<path d="M80.8989 57.7514V47.6888C69.512 53.7079 69.1472 41.9719 69.1472 40.8493V40.7647L60.3472 45.8454V85.0158C60.3466 86.7089 59.8837 88.6256 59.0243 90.4931C58.1649 92.3606 56.9529 94.0839 55.5607 95.4177C54.1685 96.7516 52.6669 97.628 51.2697 97.9224C49.8725 98.2168 48.6508 97.9141 47.7784 97.0575C46.906 96.2008 46.4274 94.8337 46.4106 93.1508C46.3938 91.4679 46.8397 89.5548 47.6849 87.6837C48.53 85.8127 49.7314 84.079 51.1181 82.7293C52.5048 81.3795 54.0061 80.4826 55.4085 80.166V69.7914C54.7327 70.0838 54.0521 70.4291 53.371 70.825C50.2492 72.6284 47.1978 75.4601 44.6026 78.962C42.0075 82.4639 39.9851 86.4788 38.7914 90.4988C37.5976 94.5188 37.2861 98.3634 37.8961 101.546C38.5061 104.73 40.0104 107.108 42.2186 108.381C44.4268 109.654 47.2397 109.765 50.3018 108.699C53.3638 107.633 56.5374 105.439 59.4211 102.393C62.3049 99.3476 64.7693 95.5877 66.5027 91.5889C68.2361 87.5901 69.1606 83.5321 69.1594 79.9281C69.1594 79.6725 69.1594 79.4188 69.1442 79.1756V59.8873C73.1962 61.8285 80.8989 57.7514 80.8989 57.7514Z" fill="white"/>
<path d="M66.7744 42.1352C67.1987 44.5583 68.438 48.0142 72.0504 48.3693C69.2896 46.2501 69.1507 41.5387 69.1507 40.8478V40.7633L66.7744 42.1352Z" fill="#FF004F"/>
<path d="M80.8988 57.7515V47.6889C80.0272 48.1552 79.1595 48.5383 78.3043 48.8344V56.7558C78.3043 56.7558 70.6016 60.8382 66.5527 58.8953V78.1782C66.5618 78.4249 66.5679 78.6752 66.5679 78.9307C66.5675 82.2284 65.7925 85.9114 64.3254 89.5875C62.8582 93.2635 60.754 96.7948 58.2368 99.8053C55.7195 102.816 52.8837 105.192 50.0312 106.682C47.1788 108.172 44.4166 108.72 42.0391 108.266C44.2256 109.611 47.0367 109.782 50.112 108.757C53.1872 107.733 56.3867 105.559 59.3002 102.515C62.2137 99.4705 64.7086 95.6943 66.4651 91.6702C68.2217 87.6461 69.1598 83.5575 69.1594 79.9282C69.1594 79.6726 69.1594 79.4189 69.1441 79.1757V59.8874C73.1961 61.8286 80.8988 57.7515 80.8988 57.7515Z" fill="#FF004F"/>
<path d="M52.8169 79.1686C51.1366 79.547 49.3248 80.7555 47.7436 82.5524C46.1625 84.3493 44.9287 86.6023 44.2887 88.8609C43.6488 91.1195 43.6499 93.2172 44.2919 94.7348C44.9339 96.2523 46.1694 97.0778 47.7515 97.0461C46.8869 96.1817 46.4159 94.8104 46.4051 93.1267C46.3942 91.443 46.8442 89.5321 47.6912 87.6649C48.5382 85.7976 49.7393 84.0685 51.1244 82.7227C52.5094 81.3768 54.0082 80.4824 55.4084 80.1661V69.7915C54.7326 70.0839 54.052 70.4292 53.3709 70.8251C53.1832 70.9335 52.9985 71.0401 52.8123 71.1599L52.8169 79.1686Z" fill="#FF004F"/>
<path d="M87.5121 11.4599C81.9545 11.3987 74.6792 15.5991 60.1286 23.9999L56.665 25.9998C42.1144 34.4006 34.8395 38.6012 29.2819 45.0797C24.3933 50.7783 20.4183 57.6623 17.9274 64.7453C15.0957 72.7976 15.0954 81.1984 15.0954 98V102C15.0954 118.801 15.0954 127.202 17.927 131.985C19.5755 134.769 21.8744 136.716 24.6577 137.729L10.568 132.601C7.78229 131.588 5.48185 129.641 3.83216 126.855C1.00043 122.072 1 113.671 1 96.8697V92.8697C1 76.0681 1 67.6673 3.83173 59.6151C6.3226 52.5321 10.2974 45.6479 15.186 39.9493C20.7436 33.4708 28.0193 29.2705 42.5697 20.8698L46.0334 18.8697C60.584 10.4689 67.8591 6.26845 73.4167 6.32958C75.0676 6.34773 76.6145 6.62147 78.035 7.13809L92.1304 12.2684C90.7099 11.7518 89.163 11.478 87.5121 11.4599Z" fill="#101821"/>
<path d="M24.6577 137.729C21.8744 136.716 19.5755 134.769 17.927 131.985C15.0954 127.202 15.0954 118.801 15.0954 102V98C15.0954 81.1984 15.0957 72.7976 17.9274 64.7453C20.4183 57.6623 24.3933 50.7783 29.2819 45.0797C34.8395 38.6012 42.1144 34.4006 56.665 25.9998L60.1286 23.9999C74.6792 15.5991 81.9545 11.3987 87.5121 11.4599C89.163 11.478 90.7099 11.7518 92.1304 12.2684L78.035 7.13809C76.6145 6.62147 75.0676 6.34773 73.4167 6.32958C67.8591 6.26845 60.584 10.4689 46.0334 18.8697L42.5697 20.8698C28.0193 29.2705 20.7436 33.4708 15.186 39.9493C10.2974 45.6479 6.3226 52.5321 3.83173 59.6151C1 67.6673 1 76.0681 1 92.8697V96.8697C1 113.671 1.00043 122.072 3.83216 126.855C5.48185 129.641 7.78229 131.588 10.568 132.601L24.6577 137.729ZM24.6577 137.729L24.6634 137.731" stroke="#333333" stroke-width="0.5"/>
</svg>
