<svg width="512" height="512" viewBox="0 0 512 512" fill="none" xmlns="http://www.w3.org/2000/svg">
<g clip-path="url(#clip0_2799_6871)">
<path d="M256 512C397.385 512 512 397.385 512 256C512 114.615 397.385 0 256 0C114.615 0 0 114.615 0 256C0 397.385 114.615 512 256 512Z" fill="black"/>
<path d="M389.391 221.92V164.85C314.791 161.7 312.391 93.9101 312.391 87.5401V87.0601H254.731V309.33C254.725 318.935 251.69 328.293 246.058 336.074C240.426 343.854 232.483 349.66 223.361 352.666C214.239 355.672 204.401 355.725 195.246 352.817C186.092 349.909 178.088 344.188 172.373 336.469C166.658 328.749 163.523 319.424 163.414 309.819C163.305 300.215 166.227 290.821 171.765 282.973C177.303 275.126 185.175 269.224 194.26 266.109C203.346 262.993 213.182 262.822 222.371 265.62V206.76C217.954 206.193 213.504 205.909 209.051 205.91C188.596 205.91 168.601 211.976 151.594 223.339C134.586 234.703 121.331 250.855 113.503 269.753C105.676 288.65 103.628 309.445 107.618 329.506C111.609 349.568 121.458 367.995 135.922 382.459C150.385 396.923 168.813 406.772 188.875 410.763C208.936 414.753 229.73 412.705 248.628 404.878C267.526 397.05 283.678 383.794 295.041 366.787C306.405 349.78 312.471 329.785 312.471 309.33C312.471 307.88 312.471 306.44 312.371 305.01V195.56C338.921 219.85 389.391 221.92 389.391 221.92Z" fill="#00F6EF"/>
<path d="M406.369 236V178.9C331.759 175.75 329.369 107.96 329.369 101.59V101.11H271.709V323.38C271.705 332.985 268.672 342.345 263.041 350.127C257.41 357.908 249.469 363.716 240.347 366.724C231.224 369.732 221.386 369.786 212.231 366.879C203.076 363.972 195.071 358.252 189.355 350.533C183.639 342.813 180.502 333.488 180.392 323.883C180.282 314.278 183.204 304.884 188.742 297.035C194.28 289.187 202.152 283.285 211.238 280.169C220.323 277.053 230.161 276.882 239.349 279.68V220.81C234.921 220.256 230.462 219.985 225.999 220C205.544 220.006 185.551 226.078 168.546 237.447C151.542 248.816 138.291 264.973 130.469 283.873C122.648 302.773 120.606 323.569 124.603 343.629C128.6 363.69 138.456 382.115 152.925 396.574C167.394 411.033 185.825 420.876 205.889 424.86C225.952 428.844 246.746 426.788 265.641 418.953C284.536 411.119 300.684 397.857 312.042 380.845C323.399 363.833 329.457 343.835 329.449 323.38C329.449 321.93 329.449 320.49 329.349 319.06V209.61C355.899 233.9 406.369 236 406.369 236Z" fill="white"/>
<path d="M313.82 101.11C316.6 116.25 324.72 139.92 348.39 153.77C330.3 132.7 329.39 105.51 329.39 101.59V101.11H313.82Z" fill="#FF004F"/>
<path d="M406.37 236V178.9C400.659 178.691 394.974 178.022 389.37 176.9V221.85C389.37 221.85 338.9 219.78 312.37 195.49V304.91C312.43 306.34 312.47 307.78 312.47 309.23C312.467 327.941 307.389 346.301 297.776 362.354C288.163 378.407 274.375 391.552 257.882 400.388C241.388 409.223 222.807 413.42 204.117 412.529C185.427 411.638 167.329 405.694 151.75 395.33C166.077 410.126 184.496 420.307 204.646 424.568C224.796 428.829 245.759 426.976 264.85 419.246C283.94 411.517 300.287 398.263 311.797 381.183C323.306 364.103 329.453 343.976 329.45 323.38C329.45 321.93 329.45 320.49 329.35 319.06V209.61C355.9 233.9 406.37 236 406.37 236Z" fill="#FF004F"/>
<path d="M222.37 265.53C211.36 262.172 199.489 263.094 189.129 268.11C178.769 273.127 170.684 281.869 166.491 292.589C162.298 303.308 162.305 315.216 166.512 325.93C170.718 336.645 178.814 345.376 189.18 350.38C183.515 342.642 180.429 333.318 180.358 323.728C180.287 314.139 183.235 304.77 188.785 296.949C194.335 289.128 202.205 283.252 211.28 280.152C220.355 277.053 230.176 276.888 239.35 279.68V220.81C234.922 220.256 230.463 219.985 226 220C224.77 220 223.56 220 222.34 220.07L222.37 265.53Z" fill="#FF004F"/>
</g>
<defs>
<clipPath id="clip0_2799_6871">
<rect width="512" height="512" fill="white"/>
</clipPath>
</defs>
</svg>
