<svg width="92" height="73" viewBox="0 0 92 73" fill="none" xmlns="http://www.w3.org/2000/svg">
<path d="M35.5402 72.26C35.5285 72.26 35.5149 72.26 35.5031 72.26C35.0191 72.2502 34.5624 72.0433 34.2345 71.6879L0.769272 35.2873C0.195449 34.6625 0.142751 33.7214 0.644358 33.0362C1.14597 32.3528 2.0594 32.1185 2.8284 32.4778L33.4577 46.824C33.7153 46.9451 34.0198 46.8865 34.2169 46.6815L88.264 1.02806C88.8964 0.366199 89.9308 0.29396 90.6491 0.864062C91.3674 1.43416 91.5333 2.45722 91.0316 3.22452L37.2305 71.2506C37.1641 71.3541 37.086 71.4478 37.0002 71.5356L36.7952 71.7406C36.4615 72.0725 36.0087 72.26 35.5402 72.26Z" fill="white"/>
</svg>
