<svg width="102" height="150" viewBox="0 0 102 150" fill="none" xmlns="http://www.w3.org/2000/svg">
<path d="M14.8809 98C14.8809 81.1984 14.8809 72.7976 17.7126 64.7454C20.2035 57.6624 24.178 50.7783 29.0666 45.0797C34.6242 38.6012 41.8995 34.4008 56.4501 26L59.9142 24C74.4648 15.5992 81.7401 11.3988 87.2977 11.4599C92.1862 11.5137 96.1608 13.8084 98.6517 18.0152C101.483 22.7976 101.483 31.1984 101.483 48V52C101.483 68.8016 101.483 77.2024 98.6517 85.2546C96.1608 92.3376 92.1862 99.2217 87.2977 104.92C81.7401 111.399 74.4648 115.599 59.9142 124L56.4501 126C41.8995 134.401 34.6242 138.601 29.0666 138.54C24.178 138.486 20.2035 136.192 17.7126 131.985C14.8809 127.202 14.8809 118.802 14.8809 102V98Z" fill="#9B59B6" stroke="#333333" stroke-width="0.5"/>
<path d="M14.8809 98C14.8809 81.1984 14.8809 72.7976 17.7126 64.7454C20.2035 57.6624 24.178 50.7783 29.0666 45.0797C34.6242 38.6012 41.8995 34.4008 56.4501 26L59.9142 24C74.4648 15.5992 81.7401 11.3988 87.2977 11.4599C92.1862 11.5137 96.1608 13.8084 98.6517 18.0152C101.483 22.7976 101.483 31.1984 101.483 48V52C101.483 68.8016 101.483 77.2024 98.6517 85.2546C96.1608 92.3376 92.1862 99.2217 87.2977 104.92C81.7401 111.399 74.4648 115.599 59.9142 124L56.4501 126C41.8995 134.401 34.6242 138.601 29.0666 138.54C24.178 138.486 20.2035 136.192 17.7126 131.985C14.8809 127.202 14.8809 118.802 14.8809 102V98Z" fill="#9B59B6" stroke="#333333" stroke-width="0.5"/>
<path d="M73.1768 80.5309C72.5237 82.6288 71.401 84.7038 69.98 86.4394C69.5341 86.9153 69.0713 87.3516 68.5977 87.7424C68.4358 87.7799 68.2761 87.8214 68.1196 87.8622L68.1194 87.8622C67.756 87.9567 67.4094 88.0468 67.0898 88.0732C63.2796 88.561 59.7326 88.2004 56.5846 87.0053C55.6496 86.6243 54.7712 86.1366 53.9558 85.5456C51.9425 84.0307 50.2517 82.0276 48.9294 79.5907C48.3455 78.5529 47.8443 77.4242 47.3433 76.2959L47.3429 76.295C47.2921 76.1805 47.2412 76.066 47.1903 75.9516C46.6877 74.8198 47.4316 72.9103 48.1956 71.4071C48.9434 69.9903 49.8633 68.668 50.8948 67.5271C51.2577 67.1069 51.6731 66.8098 52.0688 66.6874C52.4645 66.5649 52.8156 66.6249 53.0611 66.8568C54.3454 67.7814 55.4773 68.9425 56.4389 70.3217C56.7418 70.7093 56.8455 71.325 56.7285 72.0409C56.6115 72.7569 56.2828 73.5182 55.8106 74.1669C55.5593 74.5151 55.3079 74.8924 55.0918 75.2435C54.8787 75.5487 54.695 75.8787 54.549 76.2186C54.4229 76.5305 54.3465 76.8441 54.3256 77.1351C54.3046 77.426 54.3398 77.6864 54.4283 77.8959C55.3984 80.4177 56.8711 82.1386 59.0727 82.6726C59.8178 82.8507 60.6205 82.8955 61.4653 82.8061C62.017 82.834 62.6368 82.6521 63.2647 82.2779C63.9735 81.7711 64.3752 80.9194 64.7773 80.0669C64.9969 79.6015 65.2166 79.1358 65.4864 78.7259C65.8371 78.1918 66.271 77.7492 66.7238 77.4638C67.1766 77.1783 67.624 77.0653 67.9996 77.1414C68.6932 77.2353 69.3649 77.3966 70.0334 77.5572C70.1497 77.5851 70.2659 77.613 70.3821 77.6405C71.1576 77.804 71.9043 78.0316 72.6188 78.3225C72.953 78.4099 73.1917 78.6785 73.2936 79.0818C73.3955 79.4852 73.3542 79.9978 73.1768 80.5309Z" fill="white"/>
<path d="M61.8504 59.2539C61.5554 59.3986 61.2593 59.5552 60.9625 59.7237C60.842 59.7853 60.7212 59.855 60.6006 59.9326C60.4883 59.998 60.3774 60.0902 60.2753 60.2031C60.1732 60.316 60.0822 60.447 60.0085 60.5873C59.9347 60.7277 59.8799 60.8742 59.8477 61.017C59.8154 61.1599 59.8065 61.2957 59.8215 61.4156C59.9164 61.9854 60.4638 61.7354 60.9138 61.5298L60.9145 61.5295C60.9409 61.5174 60.967 61.5055 60.9927 61.4939C61.2197 61.3899 61.4478 61.2803 61.676 61.1706L61.6762 61.1705C62.1806 60.9281 62.6859 60.6852 63.1842 60.5014C64.7747 59.9244 66.2855 59.775 67.6188 60.0629C68.9522 60.3508 70.0785 61.0697 70.9248 62.173C71.7483 63.2257 72.2859 64.6254 72.5031 66.2822C72.6076 67.1002 72.66 67.9563 72.7122 68.8104L72.7122 68.811L72.7123 68.8115C72.7228 68.9843 72.7334 69.157 72.7444 69.3293C72.7796 69.8487 73.0259 70.1999 73.5285 69.9097C73.6382 69.8422 73.7458 69.7489 73.8443 69.6362C73.9428 69.5235 74.0298 69.3938 74.0997 69.2557C74.1696 69.1177 74.2206 68.9745 74.2496 68.8356C74.2785 68.6966 74.2845 68.5652 74.2674 68.45C74.2579 68.3136 74.2486 68.177 74.2393 68.0403L74.2385 68.0291C74.1643 66.939 74.0898 65.8441 73.9206 64.8312C73.6179 63.0038 72.972 61.4647 72.0206 60.3041C70.8155 58.8785 69.1759 58.0797 67.247 57.9785C65.5908 57.8916 63.7653 58.3212 61.8915 59.2338L62.4052 58.9372C62.3307 58.9802 62.2568 59.0216 62.1836 59.0625C62.0705 59.1258 61.9591 59.1881 61.8504 59.2539Z" fill="white"/>
<path d="M70.8092 68.7692C70.8064 68.9432 70.7862 69.1263 70.7489 69.3148C70.705 69.5079 70.6174 69.7066 70.498 69.8838C70.3787 70.061 70.2333 70.2081 70.0817 70.3052C69.9301 70.4022 69.7797 70.4444 69.6509 70.4261C69.522 70.4078 69.421 70.3298 69.3616 70.2028C69.3063 70.0003 69.2809 69.7726 69.2862 69.5266C69.298 68.2217 69.0754 67.0634 68.6328 66.1255C68.5323 65.9282 68.4217 65.7308 68.296 65.5538C67.5766 64.5372 66.5086 63.9973 65.2249 64.0012C64.4504 64.0261 63.628 64.2079 62.7821 64.541C62.5496 64.6317 62.3172 64.7337 62.0847 64.8357C61.9452 64.8969 61.8057 64.9582 61.6662 65.0169C61.5694 65.0672 61.4746 65.0935 61.3877 65.094C61.3008 65.0946 61.2237 65.0695 61.161 65.0203C61.0983 64.971 61.0515 64.8987 61.0234 64.8078C60.9954 64.7169 60.9866 64.6093 60.9977 64.4917C60.9978 64.3779 61.0187 64.2534 61.059 64.1263C61.0993 63.9993 61.1582 63.8725 61.2318 63.7544C61.3054 63.6363 61.392 63.5295 61.4859 63.441C61.5798 63.3525 61.679 63.2843 61.7768 63.2409C63.2527 62.4546 64.6986 62.0555 66.0141 62.0714C67.6205 62.0774 68.9309 62.8157 69.7587 64.1812C70.225 64.9883 70.5373 65.9644 70.6836 67.0715C70.7107 67.2113 70.7308 67.3566 70.7439 67.5068C70.7583 67.6981 70.7677 67.8922 70.7779 68.1012L70.7779 68.1015C70.7855 68.2571 70.7935 68.4209 70.8042 68.598C70.8042 68.6148 70.8051 68.6331 70.8061 68.6546C70.8075 68.6849 70.8092 68.7217 70.8092 68.7692Z" fill="white"/>
<path d="M67.1769 70.4498C67.2719 70.2916 67.3379 70.1196 67.3663 69.956C67.3978 69.7092 67.3995 69.4754 67.3713 69.2624C67.3532 69.004 67.3213 68.7549 67.2758 68.5166C66.8335 65.9223 65.1145 65.6379 62.8124 66.7754C62.6234 66.869 62.4359 67.0417 62.2851 67.2612C62.1343 67.4807 62.0305 67.7321 61.9931 67.9682C61.9595 68.2115 62.0041 68.4159 62.1171 68.5366C62.2302 68.6574 62.4025 68.6846 62.5962 68.6124C62.7783 68.5585 62.9658 68.4702 63.1542 68.3814C63.3714 68.2791 63.5899 68.1762 63.8026 68.1249C64.1144 68.0489 64.4085 68.044 64.6721 68.1104C65.2175 68.2774 65.5984 68.7459 65.7478 69.4337C65.8218 69.7733 65.8722 70.1321 65.8986 70.5074C65.9074 70.6036 65.9276 70.6914 65.9589 70.7686C66.0143 70.9161 66.1188 71.0095 66.2567 71.0346C66.3946 71.0598 66.5582 71.0153 66.7229 70.9079L66.8335 70.844C66.9624 70.7454 67.082 70.6081 67.1769 70.4498Z" fill="white"/>
<path fill-rule="evenodd" clip-rule="evenodd" d="M86.5117 48.136V48.0606C85.9186 45.6287 84.3705 43.6554 82.3398 42.4133C79.9674 40.9507 76.9465 40.4719 74.0614 41.4179L74.001 41.4528C65.3971 44.5166 56.5583 49.6197 47.9543 56.4909L47.894 56.5257C42.5358 60.9599 36.7203 70.7831 35.4235 77.5564V77.6318C33.8302 86.9041 33.8302 95.5569 35.4235 102.989V103.059C36.3484 106.82 39.5653 109.478 43.2747 110.064C44.4862 110.277 45.8048 110.221 47.1903 109.899L47.1903 116.62C47.1922 117.156 47.3326 117.599 47.5936 117.893C47.8546 118.187 48.2243 118.319 48.6556 118.271C49.087 118.223 49.5604 117.998 50.0156 117.624C50.4707 117.25 50.887 116.745 51.2114 116.173L57.1124 105.685C58.3891 105.03 59.6758 104.333 60.9525 103.596C65.3229 101.071 69.6834 98.0756 73.9759 94.6491L74.0362 94.6143C79.3793 90.1829 85.1998 80.3568 86.4866 73.5894V73.5197C88.0897 64.2402 88.0983 55.5783 86.5117 48.136ZM81.8422 74.9475C80.9777 79.3759 76.5645 86.8166 73.0511 89.7447C68.4876 93.3889 63.8431 96.5082 59.1983 99.0485C59.1531 99.0714 59.1078 99.1063 59.066 99.1506C59.0242 99.1949 58.9869 99.2473 58.9571 99.3039L50.0654 114.972C49.9921 115.104 49.8971 115.22 49.7929 115.307C49.6887 115.394 49.58 115.446 49.4809 115.458C49.3818 115.469 49.2969 115.439 49.2371 115.372C49.1773 115.304 49.1454 115.202 49.1455 115.079L49.1455 103.935C49.1457 103.846 49.1186 103.775 49.069 103.734C49.0194 103.694 48.9504 103.687 48.8741 103.715C48.1413 103.937 47.4348 104.033 46.7731 103.999C43.7874 103.883 40.7766 101.849 40.083 99.0572C38.6462 92.3368 38.6462 84.5167 40.083 76.1373C40.9425 71.7292 45.3808 64.2856 48.8691 61.3662C56.8573 54.9893 65.0629 50.2518 73.0511 47.4047C74.9862 46.7866 77.1978 47.2103 78.9269 48.3014C80.3494 49.1807 81.4401 50.5128 81.8422 52.045C83.2768 58.7611 83.2768 66.575 81.8422 74.9475Z" fill="white"/>
<path d="M87.5121 11.4598C81.9545 11.3987 74.6792 15.5991 60.1286 23.9999L56.665 25.9998C42.1144 34.4006 34.8395 38.6011 29.2819 45.0796C24.3933 50.7782 20.4183 57.6623 17.9274 64.7452C15.0957 72.7975 15.0954 81.1983 15.0954 97.9999V102C15.0954 118.801 15.0954 127.202 17.927 131.985C19.5755 134.769 21.8744 136.716 24.6577 137.729L10.568 132.601C7.78229 131.588 5.48185 129.641 3.83216 126.855C1.00043 122.072 1 113.671 1 96.8696V92.8696C1 76.068 1 67.6672 3.83173 59.615C6.3226 52.532 10.2974 45.6479 15.186 39.9492C20.7436 33.4708 28.0193 29.2705 42.5697 20.8698L46.0334 18.8696C60.584 10.4688 67.8591 6.26839 73.4167 6.32952C75.0676 6.34767 76.6145 6.62141 78.035 7.13803L92.1304 12.2683C90.7099 11.7517 89.163 11.478 87.5121 11.4598Z" fill="#8E44AD"/>
<path d="M24.6577 137.729C21.8744 136.716 19.5755 134.769 17.927 131.985C15.0954 127.202 15.0954 118.801 15.0954 102V97.9999C15.0954 81.1983 15.0957 72.7975 17.9274 64.7452C20.4183 57.6623 24.3933 50.7782 29.2819 45.0796C34.8395 38.6011 42.1144 34.4006 56.665 25.9998L60.1286 23.9999C74.6792 15.5991 81.9545 11.3987 87.5121 11.4598C89.163 11.478 90.7099 11.7517 92.1304 12.2683L78.035 7.13803C76.6145 6.62141 75.0676 6.34767 73.4167 6.32952C67.8591 6.26839 60.584 10.4688 46.0334 18.8696L42.5697 20.8698C28.0193 29.2705 20.7436 33.4708 15.186 39.9492C10.2974 45.6479 6.3226 52.532 3.83173 59.615C1 67.6672 1 76.068 1 92.8696V96.8696C1 113.671 1.00043 122.072 3.83216 126.855C5.48185 129.641 7.78229 131.588 10.568 132.601L24.6577 137.729ZM24.6577 137.729L24.6634 137.731" stroke="#333333" stroke-width="0.5"/>
</svg>
