<svg width="512" height="512" viewBox="0 0 512 512" fill="none" xmlns="http://www.w3.org/2000/svg">
<g clip-path="url(#clip0_2799_6858)">
<path d="M256 512C397.385 512 512 397.385 512 256C512 114.615 397.385 0 256 0C114.615 0 0 114.615 0 256C0 397.385 114.615 512 256 512Z" fill="#2787F5"/>
<path fill-rule="evenodd" clip-rule="evenodd" d="M138.676 160H101.334C90.6653 160 88.5312 165.022 88.5312 170.558C88.5312 180.447 101.191 229.491 147.477 294.356C178.335 338.654 221.81 362.666 261.371 362.666C285.108 362.666 288.044 357.333 288.044 348.146V314.666C288.044 303.999 290.293 301.87 297.808 301.87C303.347 301.87 312.842 304.639 334.996 325.997C360.315 351.31 364.489 362.666 378.73 362.666H416.072C426.742 362.666 432.076 357.333 428.999 346.808C425.631 336.318 413.543 321.098 397.502 303.058C388.798 292.774 375.743 281.7 371.787 276.162C366.249 269.043 367.831 265.878 371.787 259.551C371.787 259.551 417.283 195.476 422.03 173.724C424.403 165.813 422.03 160 410.737 160H373.395C363.901 160 359.523 165.022 357.149 170.558C357.149 170.558 338.16 216.834 311.259 246.894C302.555 255.595 298.599 258.364 293.851 258.364C291.478 258.364 288.042 255.595 288.042 247.686V173.724C288.042 164.231 285.287 160 277.373 160H218.693C212.76 160 209.191 164.405 209.191 168.581C209.191 177.579 222.642 179.655 224.028 204.968V259.946C224.028 271.999 221.85 274.185 217.103 274.185C204.444 274.185 173.65 227.702 155.387 174.513C151.81 164.176 148.22 160 138.676 160Z" fill="white"/>
</g>
<defs>
<clipPath id="clip0_2799_6858">
<rect width="512" height="512" fill="white"/>
</clipPath>
</defs>
</svg>
