<svg width="512" height="512" viewBox="0 0 512 512" fill="none" xmlns="http://www.w3.org/2000/svg">
<g clip-path="url(#clip0_2799_6917)">
<path d="M256 512C397.385 512 512 397.385 512 256C512 114.615 397.385 0 256 0C114.615 0 0 114.615 0 256C0 397.385 114.615 512 256 512Z" fill="url(#paint0_linear_2799_6917)"/>
<path d="M331.542 300.074C331.971 297.611 332.183 295.115 332.175 292.615C332.111 291.871 331.938 291.141 331.661 290.447C331.661 290.447 330.954 288.592 323.394 285.322C323.394 285.322 321.337 284.284 317.552 282.493C317.552 282.493 313.768 280.701 310.681 279.186C310.681 279.186 307.632 277.679 304.876 276.246C304.876 276.246 304.417 275.952 302.12 274.556C300.879 273.798 299.594 273.114 298.272 272.508C297.308 272.123 296.278 271.93 295.24 271.938C295.24 271.938 293.137 272.058 290.152 275.227C288.184 277.367 286.376 279.648 284.741 282.052C283.144 284.427 281.408 286.706 279.542 288.877C279.542 288.877 276.768 292.036 274.876 292.137C274.064 292.138 273.257 292.004 272.488 291.742C272.488 291.742 271.036 291.302 270.283 290.971C270.283 290.971 269.521 290.649 267.684 289.639C267.684 289.639 265.837 288.638 265.617 288.546C265.617 288.546 250.764 281.372 239.897 271.654C232.395 264.613 225.795 256.668 220.249 248.001C220.249 248.001 220.139 247.799 218.936 246.072C218.936 246.072 217.733 244.345 217.328 243.638C217.328 243.638 216.915 242.921 216.309 241.534C215.987 240.79 215.767 240.005 215.657 239.201C215.657 239.201 215.583 237.309 218.412 234.204C220.358 232.104 222.429 230.122 224.612 228.27C226.825 226.38 228.894 224.329 230.804 222.134C230.804 222.134 233.614 218.818 233.504 216.715C233.403 215.679 233.09 214.676 232.586 213.766C231.85 212.51 231.027 211.307 230.124 210.165C230.124 210.165 228.48 208.044 228.14 207.639C228.14 207.639 226.413 205.104 224.576 202.211C224.576 202.211 222.729 199.345 220.525 195.781C220.525 195.781 218.33 192.198 217.062 190.269C217.062 190.269 212.974 183.123 211.045 182.6C210.323 182.399 209.569 182.333 208.823 182.407C206.329 182.642 203.866 183.134 201.474 183.876C199.057 184.572 196.694 185.441 194.401 186.476C194.401 186.476 189.276 188.974 183.994 199.905C183.994 199.905 179.19 210.074 179.723 219.737C179.837 221.586 180.064 223.426 180.402 225.248C180.827 227.267 181.376 229.258 182.047 231.21C182.047 231.21 183.222 234.516 183.884 236.115C183.884 236.115 184.527 237.704 186.364 241.819C186.364 241.819 188.173 245.943 188.541 246.862C191.236 253.107 194.495 259.093 198.277 264.746C205.388 274.403 213.491 283.288 222.454 291.256C222.454 291.256 237.592 304.786 251.489 312.336C257.517 315.492 263.832 318.066 270.347 320.025C270.347 320.025 271.312 320.282 275.602 321.623C275.602 321.623 279.891 322.973 281.545 323.46C281.545 323.46 283.207 323.947 286.624 324.709C288.641 325.148 290.68 325.474 292.733 325.683C301.487 326.384 310.223 324.12 317.534 319.253C317.534 319.253 327.822 312.741 329.705 307.422C330.523 305.029 331.138 302.571 331.542 300.074Z" fill="white"/>
<path fill-rule="evenodd" clip-rule="evenodd" d="M179.929 121.161C203.051 107.798 229.284 100.761 255.99 100.756C279.105 100.761 301.915 106.035 322.685 116.18C343.456 126.324 361.639 141.071 375.854 159.299C390.069 177.526 399.94 198.755 404.718 221.371C409.495 243.987 409.053 267.395 403.425 289.814C397.797 312.234 387.131 333.075 372.238 350.753C357.345 368.431 338.618 382.481 317.479 391.833C296.341 401.186 273.348 405.596 250.25 404.728C227.151 403.859 204.554 397.736 184.177 386.822L103.758 408.124L124.425 329.008C111.043 305.897 103.984 279.669 103.958 252.964C103.932 226.258 110.939 200.016 124.276 176.879C137.612 153.741 156.807 134.525 179.929 121.161ZM269.513 378.524C298.21 375.432 324.988 362.621 345.403 342.217C362.448 325.172 374.267 303.61 379.467 280.072C384.666 256.534 383.03 232 374.75 209.361C366.47 186.721 351.893 166.92 332.734 152.29C313.575 137.661 290.634 128.811 266.614 126.785C242.594 124.759 218.494 129.641 197.156 140.855C175.818 152.07 158.129 169.149 146.174 190.082C134.22 211.014 128.497 234.928 129.681 259.004C130.864 283.081 138.905 306.318 152.855 325.977L140.913 371.611L187.631 359.22C211.925 374.805 240.816 381.617 269.513 378.524Z" fill="white"/>
</g>
<defs>
<linearGradient id="paint0_linear_2799_6917" x1="256" y1="512" x2="256" y2="0" gradientUnits="userSpaceOnUse">
<stop stop-color="#00D02D"/>
<stop offset="0.25" stop-color="#10D93A"/>
<stop offset="0.75" stop-color="#3AF15D"/>
<stop offset="1" stop-color="#51FE71"/>
</linearGradient>
<clipPath id="clip0_2799_6917">
<rect width="512" height="512" fill="white"/>
</clipPath>
</defs>
</svg>
